%FSTAX44Y44*%
%MOMM*%
%SFA1B1*%

%IPPOS*%
%AMD22*
4,1,8,-0.398780,0.200660,-0.398780,-0.200660,-0.200660,-0.398780,0.200660,-0.398780,0.398780,-0.200660,0.398780,0.200660,0.200660,0.398780,-0.200660,0.398780,-0.398780,0.200660,0.0*
1,1,0.400000,-0.200660,0.200660*
1,1,0.400000,-0.200660,-0.200660*
1,1,0.400000,0.200660,-0.200660*
1,1,0.400000,0.200660,0.200660*
%
%AMD23*
4,1,8,0.177800,-0.647700,0.177800,0.647700,0.088900,0.736600,-0.088900,0.736600,-0.177800,0.647700,-0.177800,-0.647700,-0.088900,-0.736600,0.088900,-0.736600,0.177800,-0.647700,0.0*
1,1,0.177800,0.088900,-0.647700*
1,1,0.177800,0.088900,0.647700*
1,1,0.177800,-0.088900,0.647700*
1,1,0.177800,-0.088900,-0.647700*
%
%ADD10C,0.200000*%
%ADD11C,0.299999*%
%ADD17R,1.699997X0.599999*%
%ADD18R,2.799994X0.999998*%
%ADD19R,0.999998X1.199998*%
%ADD20R,0.699999X1.199998*%
%ADD21R,0.449999X1.199998*%
G04~CAMADD=22~8~0.0~0.0~315.0~315.0~78.7~0.0~15~0.0~0.0~0.0~0.0~0~0.0~0.0~0.0~0.0~0~0.0~0.0~0.0~90.0~314.0~314.0*
%ADD22D22*%
G04~CAMADD=23~8~0.0~0.0~580.0~140.0~35.0~0.0~15~0.0~0.0~0.0~0.0~0~0.0~0.0~0.0~0.0~0~0.0~0.0~0.0~270.0~140.0~580.0*
%ADD23D23*%
%ADD36C,0.399999*%
%ADD37C,1.599997*%
%ADD38C,1.549997*%
%ADD39C,6.199988*%
%ADD40R,1.523997X1.523997*%
%ADD41C,1.523997*%
%ADD42C,0.449999*%
%LNdr_0n-1*%
%LPD*%
G36*
X00340115Y00533633D02*
X00339231Y0053231D01*
X00338921Y00530749*
Y00526749*
X00339231Y00525188*
X00340115Y00523865*
X00341438Y00522981*
X00342999Y00522671*
X00346999*
X0034856Y00522981*
X00349883Y00523865*
X00350553Y00524869*
X00386365Y00489058*
X00255749*
X00254579Y00488825*
X00253586Y00488162*
X00252499Y00487075*
Y00487594*
X00251852Y00489156*
X00250656Y00490352*
X00249094Y00490999*
X00248325*
X00247269Y00492055*
X00247404Y00491999*
X00249094*
X00250656Y00492646*
X00251201Y0049319*
X00285499*
X00286669Y00493423*
X00287662Y00494086*
X00327516Y0053394*
X00340575*
X00340115Y00533633*
G37*
G36*
X00492443Y00475039D02*
X00478999D01*
Y00468499*
X00494539*
Y00472942*
X0049469Y00472791*
Y00285701*
X00494539Y00285549*
Y00290289*
X00478999*
Y00282749*
Y00275209*
X00494413*
X00418808Y00199604*
Y004075*
Y00407501*
X00418575Y00408671*
X00417912Y00409663*
X00414827Y00412748*
X00415095*
X00416657Y00413395*
X00417852Y00414591*
X00418499Y00416153*
Y00417844*
X00417852Y00419406*
X00416657Y00420601*
X00415095Y00421248*
X00413404*
X00411842Y00420601*
X00410646Y00419406*
X00409999Y00417844*
Y00417576*
X00395413Y00432162*
X00394421Y00432825*
X00393251Y00433058*
X0039325*
X00367701*
X00367157Y00433602*
X00365594Y00434249*
X00363904*
X00362342Y00433602*
X00361547Y00432808*
X00354539*
Y00435499*
X00343499*
X00332459*
Y00432808*
X00326266*
X00325808Y00433266*
Y00450547*
X00326352Y00451092*
X00326999Y00452654*
Y00454344*
X00326352Y00455906*
X00325156Y00457102*
X00323594Y00457749*
X00321904*
X00320342Y00457102*
X00319146Y00455906*
X00318499Y00454344*
Y00452654*
X00319146Y00451092*
X0031969Y00450547*
Y00431999*
X00319923Y00430829*
X00320586Y00429836*
X00322836Y00427586*
X00323828Y00426923*
X00324999Y0042669*
X00362047*
X00362342Y00426396*
X00363904Y00425749*
X00365594*
X00367157Y00426396*
X00367701Y0042694*
X00391984*
X00393385Y00425539*
X00377999*
Y00418999*
X00393539*
Y00425385*
X0041269Y00406234*
Y00199273*
X00399086Y00185669*
X00398539Y0018485*
Y00186499*
X00382999*
Y00179959*
X0039819*
Y00113941*
X00397249Y00112999*
X00396904*
X00395342Y00112352*
X00394146Y00111156*
X00393499Y00109594*
Y00107904*
X00394146Y00106342*
X00395342Y00105146*
X00396904Y00104499*
X00398594*
X00400156Y00105146*
X00401352Y00106342*
X00401999Y00107904*
Y00109098*
X0040219Y00109289*
Y00087766*
X00398539Y00084115*
Y00086999*
X00382999*
Y00080459*
X00394883*
X00393732Y00079308*
X00334342*
X00333172Y00079075*
X00332179Y00078412*
X00320879Y00067111*
X00320216Y00066119*
X00319983Y00064948*
Y0005362*
X00318206Y00055397*
X00316012Y00056663*
X00315358Y00056839*
Y00143771*
X0031691Y00144414*
X00318106Y0014561*
X00318753Y00147172*
Y00148863*
X00318106Y00150425*
X00316964Y00151566*
X00317156Y00151646*
X00318352Y00152842*
X00318999Y00154404*
Y00156094*
X00318352Y00157656*
X00317156Y00158852*
X00315595Y00159499*
X00313904*
X00312342Y00158852*
X00311146Y00157656*
X00310499Y00156094*
Y00155764*
X00306136Y00151401*
X00305473Y00150409*
X0030524Y00149238*
Y00109768*
X00304808Y00110201*
Y00382482*
X00320736Y0039841*
Y00397801*
X00321383Y0039624*
X00322578Y00395043*
X00324141Y00394396*
X00325831*
X00327393Y00395043*
X00328589Y0039624*
X00329236Y00397801*
Y00399491*
X00328589Y00401053*
X00327393Y00402249*
X00326472Y00402631*
X00326999Y00403904*
Y00405594*
X00326352Y00407156*
X00325156Y00408352*
X00323594Y00408999*
X00321904*
X00320342Y00408352*
X00319146Y00407156*
X00318499Y00405594*
Y00404825*
X00299586Y00385912*
X00298923Y0038492*
X0029869Y00383749*
Y00110201*
X00298146Y00109656*
X00297499Y00108094*
Y00106404*
X00298146Y00104842*
X00299342Y00103646*
X00300904Y00102999*
X00302594*
X00304156Y00103646*
X0030524Y0010473*
Y00087566*
X00272586Y00054912*
X00271923Y00053919*
X0027169Y00052749*
Y00034449*
X00271923Y00033279*
X00272586Y00032286*
X00278273Y00026599*
X00277935Y00026012*
X00277279Y00023566*
Y00021032*
X00277935Y00018586*
X00279201Y00016392*
X00280992Y00014601*
X00283186Y00013335*
X00285633Y00012679*
X00288166*
X00290612Y00013335*
X00292806Y00014601*
X00294597Y00016392*
X00295863Y00018586*
X00296519Y00021032*
Y00023566*
X00295863Y00026012*
X00294597Y00028206*
X00292806Y00029997*
X00290612Y00031263*
X00288166Y00031919*
X00285633*
X00283186Y00031263*
X00282599Y00030925*
X00277808Y00035716*
Y00044459*
X00277935Y00043986*
X00279201Y00041792*
X00280992Y00040001*
X00283186Y00038735*
X00285633Y00038079*
X00288166*
X00290612Y00038735*
X00291199Y00039073*
X00297186Y00033086*
X00298178Y00032423*
X00299349Y0003219*
X00317865*
X00316599Y00030925*
X00316012Y00031263*
X00313565Y00031919*
X00311032*
X00308586Y00031263*
X00306392Y00029997*
X00304601Y00028206*
X00303335Y00026012*
X00302679Y00023566*
Y00021032*
X00303335Y00018586*
X00304601Y00016392*
X00306392Y00014601*
X00308586Y00013335*
X00311032Y00012679*
X00313565*
X00316012Y00013335*
X00318206Y00014601*
X00319997Y00016392*
X00321263Y00018586*
X00321919Y00021032*
Y00023566*
X00321263Y00026012*
X00320925Y00026599*
X00329204Y00034879*
X00329867Y00035871*
X003301Y00037042*
Y00041693*
X00331792Y00040001*
X00333986Y00038735*
X00336432Y00038079*
X00338965*
X00341412Y00038735*
X00343606Y00040001*
X00345397Y00041792*
X00346663Y00043986*
X00347083Y00045551*
Y00035257*
X00347316Y00034086*
X0034798Y00033094*
X00354473Y00026599*
X00354135Y00026012*
X00353479Y00023566*
Y00021032*
X00354135Y00018586*
X00355401Y00016392*
X00357192Y00014601*
X00359386Y00013335*
X00361832Y00012679*
X00364365*
X00366812Y00013335*
X00369006Y00014601*
X00370797Y00016392*
X00372063Y00018586*
X00372719Y00021032*
Y00023566*
X00372063Y00026012*
X00370797Y00028206*
X00369006Y00029997*
X00366812Y00031263*
X00364365Y00031919*
X00361832*
X00359386Y00031263*
X00358799Y00030925*
X003532Y00036524*
Y00054375*
X00359766Y0006094*
X00372014*
X00367399Y00056325*
X00366812Y00056663*
X00364365Y00057319*
X00361832*
X00359386Y00056663*
X00357192Y00055397*
X00355401Y00053606*
X00354135Y00051412*
X00353479Y00048965*
Y00046433*
X00354135Y00043986*
X00355401Y00041792*
X00357192Y00040001*
X00359386Y00038735*
X00361832Y00038079*
X00364365*
X00366812Y00038735*
X00369006Y00040001*
X00370797Y00041792*
X00372063Y00043986*
X00372719Y00046433*
Y00048965*
X00372063Y00051412*
X00371725Y00051999*
X00376666Y0005694*
X00385819*
X00384786Y00056663*
X00382592Y00055397*
X00380801Y00053606*
X00379535Y00051412*
X00378879Y00048965*
Y00046433*
X00379535Y00043986*
X00380801Y00041792*
X00382592Y00040001*
X00384786Y00038735*
X00387233Y00038079*
X00389766*
X00392212Y00038735*
X00394406Y00040001*
X00396197Y00041792*
X00397463Y00043986*
X00398119Y00046433*
Y00048965*
X00397463Y00051412*
X00396197Y00053606*
X00394406Y00055397*
X00392212Y00056663*
X00391179Y0005694*
X00401749*
X0040292Y00057173*
X00403912Y00057836*
X0042244Y00076364*
Y00060566*
X00418199Y00056325*
X00417612Y00056663*
X00415166Y00057319*
X00412633*
X00410186Y00056663*
X00407992Y00055397*
X00406201Y00053606*
X00404935Y00051412*
X00404279Y00048965*
Y00046433*
X00404935Y00043986*
X00406201Y00041792*
X00407992Y00040001*
X00410186Y00038735*
X00412633Y00038079*
X00415166*
X00417612Y00038735*
X00419806Y00040001*
X00421597Y00041792*
X00422863Y00043986*
X00423519Y00046433*
Y00048965*
X00422863Y00051412*
X00422525Y00051999*
X00427662Y00057136*
X00428059Y00057731*
X00428325Y00058128*
X00428558Y00059299*
Y00065253*
X00428836Y00064836*
X00436708Y00056964*
X00435586Y00056663*
X00433392Y00055397*
X00431601Y00053606*
X00430335Y00051412*
X00429679Y00048965*
Y00046433*
X00430335Y00043986*
X00431601Y00041792*
X00433392Y00040001*
X00435586Y00038735*
X00438032Y00038079*
X00440565*
X00443012Y00038735*
X00445206Y00040001*
X00446997Y00041792*
X00448263Y00043986*
X00448919Y00046433*
Y00048965*
X00448263Y00051412*
X00446997Y00053606*
X00445206Y00055397*
X00444265Y0005594*
X00458653*
X00458461Y00055829*
X00456569Y00053937*
X00455231Y00051621*
X00454539Y00049037*
Y00048969*
X00464699*
X00474859*
Y00049037*
X00474167Y00051621*
X00472829Y00053937*
X00470937Y00055829*
X00470745Y0005594*
X00477532*
X00481473Y00051999*
X00481135Y00051412*
X00480479Y00048965*
Y00046433*
X00481135Y00043986*
X00482401Y00041792*
X00484192Y00040001*
X00486386Y00038735*
X00488833Y00038079*
X00491366*
X00493812Y00038735*
X00496006Y00040001*
X00497797Y00041792*
X00499063Y00043986*
X00499719Y00046433*
Y00048965*
X00499063Y00051412*
X00497797Y00053606*
X00496006Y00055397*
X00493812Y00056663*
X00491366Y00057319*
X00488833*
X00486386Y00056663*
X00485799Y00056325*
X00480962Y00061162*
X0047997Y00061825*
X00478799Y00062058*
X00440266*
X00434058Y00068266*
Y00109047*
X00434602Y00109592*
X00435249Y00111154*
Y00112844*
X00434602Y00114406*
X00433406Y00115602*
X00431844Y00116249*
X00430154*
X00428592Y00115602*
X00428558Y00115568*
Y0014393*
X00429592Y00142896*
X00431154Y00142249*
X00431673*
X00432586Y00141336*
X00433578Y00140673*
X00434749Y0014044*
X00438499*
Y00138499*
X00459499*
Y00148499*
X00438499*
Y00146558*
X00436249*
Y00147344*
X00435904Y00148177*
X00437406Y00148799*
X00438602Y00149994*
X00439018Y00150999*
X00459499*
Y00160999*
X00438499*
Y00159001*
X004375Y00158802*
X00436508Y00158139*
X00435021Y00156652*
X00434154*
X00432658Y00156032*
Y00170332*
X00473749Y00211423*
Y00211154*
X00474396Y00209592*
X00475592Y00208396*
X00477154Y00207749*
X00478844*
X00479259Y00207921*
X00585739*
X00586154Y00207749*
X00587844*
X00589407Y00208396*
X00590602Y00209592*
X00591249Y00211154*
Y00212844*
X00590602Y00214406*
X00589407Y00215602*
X00587844Y00216249*
X00586154*
X00585739Y00216077*
X00479259*
X00478844Y00216249*
X00478575*
X00527066Y00264741*
X00527646Y00263342*
X00528842Y00262146*
X00530404Y00261499*
X00532094*
X00533656Y00262146*
X00534852Y00263342*
X00535499Y00264904*
Y00265673*
X00540766Y0027094*
X0055304*
X00549658Y00267558*
X00548201*
X00547656Y00268102*
X00546094Y00268749*
X00544404*
X00542842Y00268102*
X00541646Y00266906*
X00540999Y00265344*
Y00263654*
X00541646Y00262092*
X00542842Y00260896*
X00544404Y00260249*
X00546094*
X00547656Y00260896*
X00548201Y0026144*
X00550924*
X00550926*
X00552095Y00261673*
X00553087Y00262336*
X00554999Y00264248*
Y00263904*
X00555646Y00262342*
X00556842Y00261146*
X00558404Y00260499*
X00558766*
X0059419Y00225075*
Y00194539*
X00578999*
Y00186999*
Y00179459*
X0059419*
Y00164854*
X00575895Y00146558*
X00554999*
Y00148499*
X00533999*
Y00138499*
X00554999*
Y0014044*
X00576184*
X00569801Y00134058*
X00554999*
Y00135999*
X00533999*
Y00125999*
X00554999*
Y0012794*
X00571068*
X00572239Y00128173*
X00573231Y00128836*
X0060219Y00157795*
Y00090315*
X00594539Y00082663*
Y00086499*
X00578999*
Y00079959*
X00591835*
X00582433Y00070558*
X00535299*
X00534128Y00070325*
X00533136Y00069662*
X00519799Y00056325*
X00519212Y00056663*
X00516766Y00057319*
X00514233*
X00511786Y00056663*
X00509592Y00055397*
X00507801Y00053606*
X00506535Y00051412*
X00505879Y00048965*
Y00046433*
X00506535Y00043986*
X00507801Y00041792*
X00509592Y00040001*
X00511786Y00038735*
X00514233Y00038079*
X00516766*
X00519212Y00038735*
X00521406Y00040001*
X00523197Y00041792*
X00524463Y00043986*
X00525119Y00046433*
Y00048965*
X00524463Y00051412*
X00524125Y00051999*
X00536566Y0006444*
X00553315*
X00545199Y00056325*
X00544612Y00056663*
X00542165Y00057319*
X00539632*
X00537186Y00056663*
X00534992Y00055397*
X00533201Y00053606*
X00531935Y00051412*
X00531279Y00048965*
Y00046433*
X00531935Y00043986*
X00533201Y00041792*
X00534992Y00040001*
X00537186Y00038735*
X00539632Y00038079*
X00542165*
X00544612Y00038735*
X00546806Y00040001*
X00548597Y00041792*
X00549863Y00043986*
X00550519Y00046433*
Y00048965*
X00549863Y00051412*
X00549525Y00051999*
X00557966Y0006044*
X00585102*
X00582835Y00057486*
X00580541Y00053512*
X00578786Y00049273*
X00577598Y00044842*
X00576999Y00040293*
Y00037999*
Y00002999*
X00646999*
X00076999*
X00072999Y00006999*
Y00063249*
X00075749Y00065999*
X00096249*
X00100999Y00070749*
Y00124423*
X00109086Y00116336*
X00110078Y00115673*
X00111249Y0011544*
X00124499*
Y00113499*
X00145499*
Y00123499*
X00124499*
Y00121558*
X00112516*
X00100999Y00133075*
Y00138173*
X00110336Y00128836*
X00111328Y00128173*
X00112499Y0012794*
X00124499*
Y00125999*
X00145499*
Y00134153*
X00146146Y00132592*
X00147342Y00131396*
X00148904Y00130749*
X00150594*
X00152156Y00131396*
X00153352Y00132592*
X00153999Y00134154*
Y00135844*
X00153352Y00137406*
X00152156Y00138602*
X00150594Y00139249*
X00148904*
X00147342Y00138602*
X00146146Y00137406*
X00145499Y00135845*
Y00135999*
X00124499*
Y00134058*
X00113766*
X00100999Y00146825*
Y00152673*
X00112336Y00141336*
X00113328Y00140673*
X00114499Y0014044*
X00124499*
Y00138499*
X00145499*
Y00148499*
X00124499*
Y00146558*
X00115766*
X00100999Y00161325*
Y00170173*
X00117336Y00153836*
X00118328Y00153173*
X00119499Y0015294*
X00124499*
Y00150999*
X00145499*
Y00160999*
X00124499*
Y00159058*
X00120766*
X00104558Y00175266*
Y00332899*
X00104325Y0033407*
X00103662Y00335062*
X00100999Y00337725*
Y0038594*
X00116999*
Y00383999*
X00137999*
Y00393999*
X00116999*
Y00392058*
X00100999*
Y0039844*
X00116999*
Y00396499*
X00137999*
Y00406499*
X00116999*
Y00404558*
X00100999*
Y0041094*
X00116999*
Y00408999*
X00137999*
Y00418999*
X00116999*
Y00417058*
X00100999*
Y00430673*
X00107336Y00424336*
X00107931Y00423939*
X00108328Y00423673*
X00109499Y0042344*
X00116999*
Y00421499*
X00137999*
Y00431499*
X00116999*
Y00429558*
X00110766*
X00100999Y00439325*
Y00455749*
X00105249Y00459999*
X00191749*
X0019344Y0046169*
X00234499*
X0023567Y00461923*
X00236662Y00462586*
X00257016Y0048294*
X00484541*
X00492443Y00475039*
G37*
G36*
X00184749Y00553999D02*
Y00479249D01*
X00181999Y00476499*
X00096499*
X00082999Y00462999*
Y00458984*
X00081826Y00458498*
X0007412Y00466204*
X00074485Y00466836*
X00075149Y00469315*
Y00471883*
X00074485Y00474362*
X00073201Y00476585*
X00071386Y00478401*
X00069163Y00479684*
X00066683Y00480349*
X00064116*
X00061636Y00479684*
X00059413Y00478401*
X00057597Y00476585*
X00056314Y00474362*
X00055649Y00471883*
Y00469315*
X00056314Y00466836*
X00057597Y00464612*
X00059413Y00462797*
X00061636Y00461513*
X00064116Y00460849*
X00066683*
X00069163Y00461513*
X00069794Y00461878*
X00082999Y00448673*
Y00433584*
X00081826Y00433098*
X0007412Y00440804*
X00074485Y00441436*
X00075149Y00443915*
Y00446482*
X00074485Y00448962*
X00073201Y00451185*
X00071386Y00453001*
X00069163Y00454284*
X00066683Y00454949*
X00064116*
X00061636Y00454284*
X00059413Y00453001*
X00057597Y00451185*
X00056314Y00448962*
X00055649Y00446482*
Y00443915*
X00056314Y00441436*
X00057597Y00439212*
X00059413Y00437397*
X00061636Y00436113*
X00064116Y00435449*
X00066683*
X00069163Y00436113*
X00069794Y00436478*
X00082999Y00423273*
Y00408184*
X00081826Y00407698*
X0007412Y00415404*
X00074485Y00416035*
X00075149Y00418515*
Y00421082*
X00074485Y00423562*
X00073201Y00425786*
X00071386Y00427601*
X00069163Y00428884*
X00066683Y00429549*
X00064116*
X00061636Y00428884*
X00059413Y00427601*
X00057597Y00425786*
X00056314Y00423562*
X00055649Y00421082*
Y00418515*
X00056314Y00416035*
X00057597Y00413812*
X00059413Y00411997*
X00061636Y00410713*
X00064116Y00410049*
X00066683*
X00069163Y00410713*
X00069794Y00411078*
X00081536Y00399336*
X00082528Y00398673*
X00082999Y0039858*
Y00392058*
X00076009*
X00075142Y00393089*
X00075149Y00393115*
Y00395683*
X00074485Y00398162*
X00073201Y00400386*
X00071386Y00402201*
X00069163Y00403484*
X00066683Y00404149*
X00064116*
X00061636Y00403484*
X00059413Y00402201*
X00057597Y00400386*
X00056314Y00398162*
X00055649Y00395683*
Y00393115*
X00056314Y00390635*
X00057597Y00388412*
X00059413Y00386597*
X00061636Y00385313*
X00064116Y00384649*
X00066683*
X00069163Y00385313*
X00071386Y00386597*
X00072289Y00386836*
X00073281Y00386173*
X00074452Y0038594*
X00082999*
Y00357384*
X00081826Y00356898*
X0007412Y00364604*
X00074485Y00365236*
X00075149Y00367715*
Y00370283*
X00074485Y00372762*
X00073201Y00374985*
X00071386Y00376801*
X00069163Y00378084*
X00066683Y00378749*
X00064116*
X00061636Y00378084*
X00059413Y00376801*
X00057597Y00374985*
X00056314Y00372762*
X00055649Y00370283*
Y00367715*
X00056314Y00365236*
X00057597Y00363012*
X00059413Y00361197*
X00061636Y00359913*
X00064116Y00359249*
X00066683*
X00069163Y00359913*
X00069794Y00360278*
X00082999Y00347073*
Y00331984*
X00081826Y00331498*
X0007412Y00339204*
X00074485Y00339836*
X00075149Y00342315*
Y00344882*
X00074485Y00347362*
X00073201Y00349585*
X00071386Y00351401*
X00069163Y00352684*
X00066683Y00353349*
X00064116*
X00061636Y00352684*
X00059413Y00351401*
X00057597Y00349585*
X00056314Y00347362*
X00055649Y00344882*
Y00342315*
X00056314Y00339836*
X00057597Y00337612*
X00059413Y00335797*
X00061636Y00334513*
X00064116Y00333849*
X00066683*
X00069163Y00334513*
X00069794Y00334878*
X00082999Y00321673*
Y00306584*
X00081826Y00306098*
X0007412Y00313804*
X00074485Y00314435*
X00075149Y00316915*
Y00319483*
X00074485Y00321962*
X00073201Y00324186*
X00071386Y00326001*
X00069163Y00327284*
X00066683Y00327949*
X00064116*
X00061636Y00327284*
X00059413Y00326001*
X00057597Y00324186*
X00056314Y00321962*
X00055649Y00319483*
Y00316915*
X00056314Y00314435*
X00057597Y00312212*
X00059413Y00310397*
X00061636Y00309113*
X00064116Y00308449*
X00066683*
X00069163Y00309113*
X00069794Y00309478*
X00082999Y00296273*
Y00281184*
X00081826Y00280698*
X0007412Y00288404*
X00074485Y00289036*
X00075149Y00291515*
Y00294082*
X00074485Y00296562*
X00073201Y00298786*
X00071386Y00300601*
X00069163Y00301884*
X00066683Y00302549*
X00064116*
X00061636Y00301884*
X00059413Y00300601*
X00057597Y00298786*
X00056314Y00296562*
X00055649Y00294082*
Y00291515*
X00056314Y00289036*
X00057597Y00286812*
X00059413Y00284997*
X00061636Y00283713*
X00064116Y00283049*
X00066683*
X00069163Y00283713*
X00069794Y00284078*
X00082999Y00270873*
Y00079499*
X00080499Y00076999*
X00005749*
X00002249Y00080499*
Y00486999*
X00004999Y00489749*
X00069999*
X0007Y00551749*
X00075249Y00556999*
X00181749*
X00184749Y00553999*
G37*
G36*
X00579999Y00489999D02*
X00646999D01*
Y00072999*
X00611999*
X00609705*
X00605157Y000724*
X00600725Y00071213*
X00596486Y00069457*
X00594487Y00068302*
X00611412Y00085228*
X00612075Y0008622*
X00612308Y00087391*
Y00233487*
X00612075Y00234658*
X00611412Y0023565*
X00598558Y00248504*
Y00255999*
X00598325Y0025717*
X0059804Y00257596*
X00608184Y00267739*
X00608514Y00268233*
X00608906Y00268396*
X00609749Y0026924*
X00610592Y00268396*
X00612154Y00267749*
X00613844*
X00615406Y00268396*
X00616602Y00269592*
X00617249Y00271154*
Y00272844*
X00616602Y00274406*
X00615406Y00275602*
X00613844Y00276249*
X00612154*
X00610592Y00275602*
X00609749Y00274759*
X00608906Y00275602*
X00607344Y00276249*
X00605654*
X00604092Y00275602*
X00602896Y00274406*
X00602249Y00272844*
Y00271154*
X00602453Y00270661*
X00593688Y00261895*
X00593419Y00262075*
X00592249Y00262308*
X00584754*
X005669Y00280162*
X00565908Y00280825*
X00564737Y00281058*
X00555735*
X00540658Y00296135*
Y00296904*
X00540011Y00298467*
X00538816Y00299662*
X00537254Y00300309*
X00535563*
X00534001Y00299662*
X00532805Y00298467*
X00532158Y00296904*
Y00295214*
X00532805Y00293652*
X00534001Y00292456*
X00535563Y00291809*
X00536333*
X00551084Y00277058*
X00539499*
X00538329Y00276825*
X00537337Y00276162*
X00531173Y00269999*
X00530558*
Y00382615*
X00530999Y00382173*
Y00381404*
X00531646Y00379842*
X00532842Y00378646*
X00534404Y00377999*
X00536094*
X00537656Y00378646*
X00538852Y00379842*
X00539499Y00381404*
Y00383094*
X00538852Y00384656*
X00537656Y00385852*
X00536094Y00386499*
X00535325*
X00534888Y00386936*
Y00423459*
X00543999*
Y00428999*
Y00434539*
X00534888*
Y00436499*
X00555499*
Y00446499*
X00534499*
Y00444558*
X00533749*
X00532579Y00444325*
X00531586Y00443662*
X00530558Y00442634*
Y00444732*
X00530825Y00444999*
X00531594*
X00533156Y00445646*
X00534352Y00446842*
X00534999Y00448404*
Y00448999*
X00555499*
Y00450555*
X0056106*
X00562404Y00449999*
X00564094*
X00565656Y00450646*
X00565691Y0045068*
X0061727*
X00622831Y0044512*
X00622681Y00444859*
X00621999Y00442315*
Y00439682*
X00622681Y00437139*
X00623997Y00434859*
X00625859Y00432997*
X00628139Y0043168*
X00630682Y00430999*
X00633315*
X00635859Y0043168*
X00638139Y00432997*
X00640001Y00434859*
X00641317Y00437139*
X00641999Y00439682*
Y00442315*
X00641317Y00444859*
X00640001Y00447139*
X00638139Y00449001*
X00635859Y00450317*
X00633315Y00450999*
X00630682*
X00628139Y00450317*
X00627878Y00450167*
X00621272Y00456772*
X00620114Y00457546*
X00618749Y00457818*
X00565691*
X00565656Y00457852*
X00564094Y00458499*
X00562404*
X00560842Y00457852*
X00560682Y00457693*
X00555499*
Y00458999*
X00534499*
Y00451301*
X00534352Y00451656*
X00533156Y00452852*
X00531594Y00453499*
X00529904*
X00528342Y00452852*
X00527146Y00451656*
X00526558Y00450236*
Y00482249*
X00526325Y0048342*
X00525662Y00484412*
X00492912Y00517162*
X0049192Y00517825*
X00490749Y00518058*
X00484951*
X00484406Y00518602*
X00482844Y00519249*
X00481154*
X00479592Y00518602*
X00478396Y00517406*
X00477749Y00515844*
Y00514154*
X00478396Y00512592*
X00479592Y00511396*
X00480408Y00511058*
X00405951*
X00405656Y00511352*
X00404094Y00511999*
X00402404*
X00400842Y00511352*
X00399646Y00510156*
X00398999Y00508594*
Y00507248*
X00398058Y00508189*
Y00522881*
X0039856Y00522981*
X00399883Y00523865*
X00400767Y00525188*
X00401077Y00526749*
Y00530749*
X00400767Y0053231*
X00399883Y00533633*
X0039856Y00534517*
X00396999Y00534827*
X00392999*
X00391438Y00534517*
X00390115Y00533633*
X00389231Y0053231*
X00388921Y00530749*
Y00526749*
X00389231Y00525188*
X00390115Y00523865*
X00391438Y00522981*
X0039194Y00522881*
Y00507011*
X00385808Y00513143*
Y00531749*
X00385575Y00532919*
X00384912Y00533912*
X00379662Y00539162*
X0037867Y00539825*
X00377499Y00540058*
X00374423*
X00374883Y00540365*
X00375767Y00541688*
X00376077Y00543249*
Y00547249*
X00375767Y0054881*
X00374883Y00550133*
X0037356Y00551017*
X00371999Y00551327*
X00367999*
X00366438Y00551017*
X00365115Y00550133*
X00364231Y0054881*
X00364131Y00548308*
X00361451*
X00360906Y00548852*
X00359344Y00549499*
X00357654*
X00356092Y00548852*
X00354896Y00547656*
X00354249Y00546094*
Y00544404*
X00354896Y00542842*
X00356092Y00541646*
X00357654Y00540999*
X00359344*
X00360906Y00541646*
X00361451Y0054219*
X00364131*
X00364231Y00541688*
X00365115Y00540365*
X00365575Y00540058*
X00349423*
X00349883Y00540365*
X00350767Y00541688*
X00351077Y00543249*
Y00547249*
X00350767Y0054881*
X00349883Y00550133*
X0034856Y00551017*
X00346999Y00551327*
X00342999*
X00341438Y00551017*
X00340115Y00550133*
X00339231Y0054881*
X00339131Y00548308*
X00336451*
X00335906Y00548852*
X00334344Y00549499*
X00332654*
X00331092Y00548852*
X00329896Y00547656*
X00329249Y00546094*
Y00544404*
X00329896Y00542842*
X00331092Y00541646*
X00332654Y00540999*
X00334344*
X00335906Y00541646*
X00336451Y0054219*
X00339131*
X00339231Y00541688*
X00340115Y00540365*
X00340575Y00540058*
X00326249*
X00325078Y00539825*
X00324086Y00539162*
X00284232Y00499308*
X00251201*
X00250656Y00499852*
X00249094Y00500499*
X00247404*
X00246058Y00499942*
Y00500232*
X00266162Y00520336*
X00266825Y00521329*
X00267058Y00522499*
Y00527999*
X00269499*
Y00543999*
X00258499*
Y00527999*
X0026094*
Y00523766*
X00240836Y00503662*
X00240173Y0050267*
X0023994Y00501499*
Y00491999*
X00240173Y00490829*
X00240836Y00489836*
X00243999Y00486673*
Y00485904*
X00244646Y00484342*
X00245842Y00483146*
X00247404Y00482499*
X00247923*
X00233232Y00467808*
X00197999*
Y00552749*
X00202249Y00556999*
X00579999*
Y00489999*
G37*
%LNdr_0n-2*%
%LPC*%
G36*
X00354844Y00499249D02*
X00353154D01*
X00351592Y00498602*
X00350396Y00497406*
X00349749Y00495844*
Y00494154*
X00350396Y00492592*
X00351592Y00491396*
X00353154Y00490749*
X00354844*
X00356406Y00491396*
X00357602Y00492592*
X00358249Y00494154*
Y00495844*
X00357602Y00497406*
X00356406Y00498602*
X00354844Y00499249*
G37*
G36*
Y00481588D02*
X00353154D01*
X00351592Y00480941*
X00350396Y00479745*
X00349749Y00478183*
Y00476492*
X00350396Y0047493*
X00351592Y00473735*
X00353154Y00473088*
X00354844*
X00356406Y00473735*
X00357602Y0047493*
X00358249Y00476492*
Y00478183*
X00357602Y00479745*
X00356406Y00480941*
X00354844Y00481588*
G37*
G36*
X00393539Y00475039D02*
X00377999D01*
Y00468499*
X00393539*
Y00475039*
G37*
G36*
X00375999D02*
X00360459D01*
Y00468499*
X00375999*
Y00475039*
G37*
G36*
X00288539D02*
X00272999D01*
Y00468499*
X00288539*
Y00475039*
G37*
G36*
X00270999D02*
X00255459D01*
Y00468499*
X00270999*
Y00475039*
G37*
G36*
X00476999D02*
X00461459D01*
Y00468499*
X00476999*
Y00475039*
G37*
G36*
X00393539Y00466499D02*
X00377999D01*
Y00459959*
X00393539*
Y00466499*
G37*
G36*
X00375999D02*
X00360459D01*
Y00459959*
X00375999*
Y00466499*
G37*
G36*
X00288539D02*
X00272999D01*
Y00459959*
X00288539*
Y00466499*
G37*
G36*
X00270999D02*
X00255459D01*
Y00459959*
X00270999*
Y00466499*
G37*
G36*
X00494539D02*
X00478999D01*
Y00459959*
X00494539*
Y00466499*
G37*
G36*
X00476999D02*
X00461459D01*
Y00459959*
X00476999*
Y00466499*
G37*
G36*
X00337844Y00463249D02*
X00336154D01*
X00334592Y00462602*
X00333396Y00461406*
X00332749Y00459844*
Y00458154*
X00333396Y00456592*
X00334592Y00455396*
X00336154Y00454749*
X00337844*
X00339406Y00455396*
X00340602Y00456592*
X00341249Y00458154*
Y00459844*
X00340602Y00461406*
X00339406Y00462602*
X00337844Y00463249*
G37*
G36*
X00278844Y00458499D02*
X00277154D01*
X00275592Y00457852*
X00274396Y00456656*
X00273749Y00455094*
Y00453404*
X00274396Y00451842*
X00275592Y00450646*
X00277154Y00449999*
X00278844*
X00280406Y00450646*
X00281602Y00451842*
X00282249Y00453404*
Y00455094*
X00281602Y00456656*
X00280406Y00457852*
X00278844Y00458499*
G37*
G36*
X00177539Y00452539D02*
X00161999D01*
Y00445999*
X00177539*
Y00452539*
G37*
G36*
X00159999D02*
X00144459D01*
Y00445999*
X00159999*
Y00452539*
G37*
G36*
X00353999Y00453999D02*
X00332999D01*
Y00443999*
X00353999*
Y0044594*
X00433999*
Y00443999*
X00454999*
Y0044594*
X00455547*
X00456092Y00445396*
X00457654Y00444749*
X00459344*
X00460906Y00445396*
X00462102Y00446592*
X00462749Y00448154*
Y00449844*
X00462102Y00451406*
X00460906Y00452602*
X00459344Y00453249*
X00457654*
X00456092Y00452602*
X00455547Y00452058*
X00454999*
Y00453999*
X00433999*
Y00452058*
X00353999*
Y00453999*
G37*
G36*
X00248999D02*
X00227999D01*
Y00443999*
X00248999*
Y0044543*
X00251557*
X00251592Y00445396*
X00253154Y00444749*
X00254844*
X00256406Y00445396*
X00257602Y00446592*
X00258249Y00448154*
Y00449844*
X00257602Y00451406*
X00256406Y00452602*
X00254844Y00453249*
X00253154*
X00251592Y00452602*
X00251557Y00452568*
X00248999*
Y00453999*
G37*
G36*
X00354539Y00442039D02*
X00344499D01*
Y00437499*
X00354539*
Y00442039*
G37*
G36*
X00342499D02*
X00332459D01*
Y00437499*
X00342499*
Y00442039*
G37*
G36*
X00455539D02*
X00445499D01*
Y00437499*
X00455539*
Y00442039*
G37*
G36*
X00443499D02*
X00433459D01*
Y00437499*
X00443499*
Y00442039*
G37*
G36*
X00177539Y00443999D02*
X00161999D01*
Y00437459*
X00177539*
Y00443999*
G37*
G36*
X00159999D02*
X00144459D01*
Y00437459*
X00159999*
Y00443999*
G37*
G36*
X00248999Y00441499D02*
X00227999D01*
Y00431499*
X00248999*
Y0043344*
X00251047*
X00251592Y00432896*
X00253154Y00432249*
X00254844*
X00256406Y00432896*
X00257602Y00434092*
X00258249Y00435654*
Y00437344*
X00257602Y00438906*
X00256406Y00440102*
X00254844Y00440749*
X00253154*
X00251592Y00440102*
X00251047Y00439558*
X00248999*
Y00441499*
G37*
G36*
X00455539Y00435499D02*
X00445499D01*
Y00430959*
X00455539*
Y00435499*
G37*
G36*
X00443499D02*
X00433459D01*
Y00430959*
X00443499*
Y00435499*
G37*
G36*
X00273844Y00432749D02*
X00272154D01*
X00270592Y00432102*
X00269396Y00430906*
X00268749Y00429344*
Y00427654*
X00269396Y00426092*
X00270592Y00424896*
X00272154Y00424249*
X00273844*
X00275406Y00424896*
X00276602Y00426092*
X00277249Y00427654*
Y00429344*
X00276602Y00430906*
X00275406Y00432102*
X00273844Y00432749*
G37*
G36*
X00248999Y00428999D02*
X00227999D01*
Y00418999*
X00248999*
Y0042094*
X00250298*
X00251092Y00420146*
X00252654Y00419499*
X00254344*
X00255906Y00420146*
X00257102Y00421342*
X00257749Y00422904*
Y00424594*
X00257102Y00426156*
X00255906Y00427352*
X00254344Y00427999*
X00252654*
X00251092Y00427352*
X00250797Y00427058*
X00248999*
Y00428999*
G37*
G36*
X00375999Y00425539D02*
X00360459D01*
Y00418999*
X00375999*
Y00425539*
G37*
G36*
X00494539D02*
X00478999D01*
Y00418999*
X00494539*
Y00425539*
G37*
G36*
X00476999D02*
X00461459D01*
Y00418999*
X00476999*
Y00425539*
G37*
G36*
X00283845Y00435249D02*
X00282154D01*
X00280592Y00434602*
X00279396Y00433406*
X00278749Y00431844*
Y00430154*
X00279396Y00428592*
X00280592Y00427396*
X00282154Y00426749*
X00282923*
X0029119Y00418482*
Y00417942*
X00289844Y00418499*
X00288154*
X00286592Y00417852*
X00285396Y00416656*
X00284749Y00415094*
Y00413404*
X00285396Y00411842*
X0028594Y00411297*
Y00375539*
X00272999*
Y00367999*
Y00360459*
X0028594*
Y00279016*
X00246749Y00239825*
Y00240594*
X00246102Y00242156*
X00244906Y00243352*
X00243344Y00243999*
X00241654*
X00240092Y00243352*
X00239547Y00242808*
X00199558*
Y00253249*
X00199325Y0025442*
X00198662Y00255412*
X00198036Y00256038*
Y00258569*
X00198152Y00258743*
X00198355Y00258439*
X00199311Y00257801*
X00200438Y00257576*
X00202216*
X00203343Y00257801*
X00204299Y00258439*
X00204937Y00259395*
X00205162Y00260522*
Y00273476*
X00204937Y00274603*
X00204386Y00275429*
Y0029406*
X00218075Y00307749*
X00218844*
X00220406Y00308396*
X00221602Y00309592*
X0022225Y00311154*
Y00312844*
X00221602Y00314406*
X00220406Y00315602*
X00218844Y00316249*
X00217154*
X00215592Y00315602*
X00214396Y00314406*
X00213749Y00312844*
Y00312075*
X00199164Y0029749*
X00198501Y00296497*
X00198268Y00295327*
Y00275429*
X00198152Y00275255*
X00197949Y00275559*
X00196993Y00276197*
X00195866Y00276422*
X00194088*
X00192961Y00276197*
X00192005Y00275559*
X00191675Y00275065*
X0019137Y00275521*
Y0027686*
X00191852Y00277342*
X00192499Y00278904*
Y00280594*
X00191852Y00282156*
X00190656Y00283352*
X00189094Y00283999*
X00187404*
X00185842Y00283352*
X00185082Y00282592*
Y00293006*
X00188825Y00296749*
X00189594*
X00191156Y00297396*
X00192352Y00298592*
X00192999Y00300154*
Y00301844*
X00192352Y00303406*
X00191156Y00304602*
X00189594Y00305249*
X00187904*
X00186342Y00304602*
X00185146Y00303406*
X00184499Y00301844*
Y00301075*
X0017986Y00296436*
X00179197Y00295443*
X00178964Y00294273*
Y00275673*
X0017878Y00275948*
X00177646Y00276706*
X00176419Y0027695*
Y00266999*
Y00257048*
X00177646Y00257292*
X0017878Y0025805*
X00179046Y00258447*
X00179051Y00258439*
X00180007Y00257801*
X00181134Y00257576*
X00182912*
X00184039Y00257801*
X00184995Y00258439*
X00185198Y00258743*
X00185401Y00258439*
X00186357Y00257801*
X00187484Y00257576*
X00189262*
X00190389Y00257801*
X00191345Y00258439*
X00191675Y00258933*
X00191918Y00258569*
Y00254771*
X00192151Y00253601*
X00192814Y00252608*
X0019344Y00251982*
Y00239749*
Y00184568*
X00193156Y00184852*
X00191594Y00185499*
X00189904*
X00188342Y00184852*
X00187146Y00183656*
X00186499Y00182094*
Y00180404*
X00187146Y00178842*
X0018769Y00178297*
Y00126766*
X00173673Y00112749*
X00172904*
X00171558Y00112191*
Y00162047*
X00172352Y00162842*
X00172999Y00164404*
Y00166094*
X00172641Y00166959*
X00185039*
Y00173499*
X00168499*
X00151959*
Y00166959*
X00164857*
X00164499Y00166094*
Y00164404*
X00165146Y00162842*
X0016544Y00162547*
Y00122068*
X00165156Y00122352*
X00163594Y00122999*
X00161904*
X00160342Y00122352*
X00159146Y00121156*
X00158499Y00119594*
Y00117904*
X00159146Y00116342*
X00160342Y00115146*
X00161904Y00114499*
X00163594*
X00165156Y00115146*
X0016544Y0011543*
Y00102749*
X00165673Y00101579*
X00166336Y00100586*
X00169249Y00097673*
Y00096904*
X00169896Y00095342*
X00170199Y00095039*
X00169499*
Y00088499*
X00185039*
Y00095039*
X00176799*
X00177102Y00095342*
X00177749Y00096904*
Y00098594*
X00177102Y00100156*
X00175906Y00101352*
X00174344Y00101999*
X00173575*
X00171558Y00104016*
Y00104807*
X00172904Y00104249*
X00174594*
X00176156Y00104896*
X00177352Y00106092*
X00177999Y00107654*
Y00108423*
X00188972Y00119396*
Y00056674*
X00186566Y00057319*
X00184033*
X00181586Y00056663*
X00179392Y00055397*
X00177601Y00053606*
X00176335Y00051412*
X00175679Y00048965*
Y00046433*
X00176335Y00043986*
X00177601Y00041792*
X00179392Y00040001*
X00181026Y00039058*
X00172866*
X00168525Y00043399*
X00168863Y00043986*
X00169519Y00046433*
Y00048965*
X00168863Y00051412*
X00167597Y00053606*
X00165806Y00055397*
X00163612Y00056663*
X00161165Y00057319*
X00158632*
X00156186Y00056663*
X00153992Y00055397*
X00152201Y00053606*
X00150935Y00051412*
X00150279Y00048965*
Y00046433*
X00150935Y00043986*
X00152201Y00041792*
X00153992Y00040001*
X00156186Y00038735*
X00158632Y00038079*
X00161165*
X00163612Y00038735*
X00164199Y00039073*
X00169436Y00033836*
X00170428Y00033173*
X00171599Y0003294*
X00188618*
X00189789Y00033173*
X00190781Y00033836*
X00196972Y00040027*
Y00038297*
X00189599Y00030925*
X00189012Y00031263*
X00186566Y00031919*
X00184033*
X00181586Y00031263*
X00179392Y00029997*
X00177601Y00028206*
X00176335Y00026012*
X00175679Y00023566*
Y00021032*
X00176335Y00018586*
X00177601Y00016392*
X00179392Y00014601*
X00181586Y00013335*
X00184033Y00012679*
X00186566*
X00189012Y00013335*
X00191206Y00014601*
X00192997Y00016392*
X00194263Y00018586*
X00194919Y00021032*
Y00023566*
X00194263Y00026012*
X00193925Y00026599*
X00202193Y00034868*
X00202591Y00035463*
X00202856Y0003586*
X00203089Y00037031*
Y00041704*
X00204792Y00040001*
X00206986Y00038735*
X00209432Y00038079*
X00211965*
X00214412Y00038735*
X00216606Y00040001*
X00218397Y00041792*
X00219663Y00043986*
X0022019Y00045952*
Y00040999*
X00220423Y00039828*
X00221086Y00038836*
X00227336Y00032586*
X00228329Y00031923*
X00229499Y0003169*
X00233979*
X00232386Y00031263*
X00230192Y00029997*
X00228401Y00028206*
X00227135Y00026012*
X00226479Y00023566*
Y00021032*
X00227135Y00018586*
X00228401Y00016392*
X00230192Y00014601*
X00232386Y00013335*
X00234833Y00012679*
X00237366*
X00239812Y00013335*
X00242006Y00014601*
X00243797Y00016392*
X00245063Y00018586*
X00245719Y00021032*
Y00023566*
X00245063Y00026012*
X00243797Y00028206*
X00242006Y00029997*
X00239812Y00031263*
X00238219Y0003169*
X00247782*
X00252873Y00026599*
X00252535Y00026012*
X00251879Y00023566*
Y00021032*
X00252535Y00018586*
X00253801Y00016392*
X00255592Y00014601*
X00257786Y00013335*
X00260232Y00012679*
X00262765*
X00265212Y00013335*
X00267406Y00014601*
X00269197Y00016392*
X00270463Y00018586*
X00271119Y00021032*
Y00023566*
X00270463Y00026012*
X00269197Y00028206*
X00267406Y00029997*
X00265212Y00031263*
X00262765Y00031919*
X00260232*
X00257786Y00031263*
X00257199Y00030925*
X00251212Y00036912*
X0025022Y00037575*
X00249049Y00037808*
X00230766*
X00226308Y00042266*
Y00050749*
X00226075Y0005192*
X00225412Y00052912*
X00207089Y00071234*
Y00114421*
X00210662Y00117994*
X00211325Y00118986*
X00211558Y00120157*
Y0019843*
X00212592Y00197396*
X00214154Y00196749*
X00215844*
X00217406Y00197396*
X00218602Y00198592*
X00219249Y00200154*
Y00201844*
X00218602Y00203406*
X00217406Y00204602*
X00215844Y00205249*
X00214154*
X00212592Y00204602*
X00211558Y00203568*
Y0021694*
X00233297*
X00233842Y00216396*
X00235404Y00215749*
X00237094*
X00238656Y00216396*
X00239852Y00217592*
X00240499Y00219154*
Y00220844*
X00239852Y00222406*
X00238656Y00223602*
X00238218Y00223783*
X00243749*
X0024492Y00224016*
X00245912Y00224679*
X00296412Y00275179*
X00297075Y00276172*
X00297308Y00277342*
Y00419749*
X00297075Y00420919*
X00296412Y00421912*
X00287249Y00431075*
Y00431844*
X00286602Y00433406*
X00285406Y00434602*
X00283845Y00435249*
G37*
G36*
X00310844Y00420249D02*
X00309154D01*
X00307592Y00419602*
X00306396Y00418406*
X00305749Y00416844*
Y00415154*
X00306396Y00413592*
X00307592Y00412396*
X00309154Y00411749*
X00310844*
X00312406Y00412396*
X00313602Y00413592*
X00314249Y00415154*
Y00416844*
X00313602Y00418406*
X00312406Y00419602*
X00310844Y00420249*
G37*
G36*
X00393539Y00416999D02*
X00377999D01*
Y00410459*
X00393539*
Y00416999*
G37*
G36*
X00375999D02*
X00360459D01*
Y00410459*
X00375999*
Y00416999*
G37*
G36*
X00494539D02*
X00478999D01*
Y00410459*
X00494539*
Y00416999*
G37*
G36*
X00476999D02*
X00461459D01*
Y00410459*
X00476999*
Y00416999*
G37*
G36*
X00248999Y00416499D02*
X00227999D01*
Y00406499*
X00248999*
Y0040844*
X00249547*
X00250092Y00407896*
X00251654Y00407249*
X00253345*
X00254907Y00407896*
X00256102Y00409091*
X00256749Y00410653*
Y00412344*
X00256102Y00413906*
X00254907Y00415102*
X00253345Y00415749*
X00251654*
X00250092Y00415102*
X00249547Y00414558*
X00248999*
Y00416499*
G37*
G36*
X00476844Y00408249D02*
X00475154D01*
X00473592Y00407602*
X00472396Y00406406*
X00471749Y00404844*
Y00403154*
X00472396Y00401592*
X00473592Y00400396*
X00475154Y00399749*
X00476844*
X00478406Y00400396*
X00479602Y00401592*
X00480249Y00403154*
Y00404844*
X00479602Y00406406*
X00478406Y00407602*
X00476844Y00408249*
G37*
G36*
X00248999Y00403999D02*
X00227999D01*
Y00393999*
X00248999*
Y0039594*
X00249547*
X00250092Y00395396*
X00251654Y00394749*
X00253345*
X00254907Y00395396*
X00256102Y00396591*
X00256749Y00398153*
Y00399844*
X00256102Y00401406*
X00254907Y00402602*
X00253345Y00403249*
X00251654*
X00250092Y00402602*
X00249547Y00402058*
X00248999*
Y00403999*
G37*
G36*
X00375844Y00401249D02*
X00374154D01*
X00372592Y00400602*
X00371396Y00399406*
X00370749Y00397844*
Y00396154*
X00371396Y00394592*
X00372592Y00393396*
X00374154Y00392749*
X00375844*
X00377406Y00393396*
X00378602Y00394592*
X00379249Y00396154*
Y00397844*
X00378602Y00399406*
X00377406Y00400602*
X00375844Y00401249*
G37*
G36*
X00434094Y00399999D02*
X00432404D01*
X00430842Y00399352*
X00429646Y00398156*
X00428999Y00396594*
Y00394904*
X00429646Y00393342*
X00430842Y00392146*
X00432404Y00391499*
X00434094*
X00435656Y00392146*
X00436852Y00393342*
X00437499Y00394904*
Y00396594*
X00436852Y00398156*
X00435656Y00399352*
X00434094Y00399999*
G37*
G36*
X00338437Y00397646D02*
X00336746D01*
X00335184Y00396999*
X00333989Y00395803*
X00333342Y00394241*
Y00392551*
X00333989Y00390989*
X00335184Y00389793*
X00336746Y00389146*
X00338437*
X00339999Y00389793*
X00341195Y00390989*
X00341842Y00392551*
Y00394241*
X00341195Y00395803*
X00339999Y00396999*
X00338437Y00397646*
G37*
G36*
X00249539Y00392039D02*
X00239499D01*
Y00387499*
X00249539*
Y00392039*
G37*
G36*
X00237499D02*
X00227459D01*
Y00387499*
X00237499*
Y00392039*
G37*
G36*
X00398344Y00391999D02*
X00396654D01*
X00395092Y00391352*
X00393896Y00390157*
X00393249Y00388594*
Y00386904*
X00393896Y00385342*
X00395092Y00384146*
X00396654Y00383499*
X00398344*
X00399906Y00384146*
X00400124Y00384364*
X00400342Y00384146*
X00400936Y003839*
X00400861*
X00399299Y00383253*
X00398236Y0038219*
X00398094Y00382249*
X00396404*
X00394843Y00381602*
X00393646Y00380406*
X00392999Y00378844*
Y00377154*
X00393646Y00375592*
X00394843Y00374396*
X00396404Y00373749*
X00398094*
X00399656Y00374396*
X00400719Y00375459*
X00400861Y003754*
X00402552*
X00404114Y00376047*
X00405309Y00377242*
X00405956Y00378804*
Y00380495*
X00405309Y00382057*
X00404114Y00383253*
X00403519Y00383499*
X00403594*
X00405156Y00384146*
X00406352Y00385342*
X00406999Y00386904*
Y00388594*
X00406352Y00390156*
X00405156Y00391352*
X00403594Y00391999*
X00401904*
X00400342Y00391352*
X00400124Y00391134*
X00399906Y00391352*
X00398344Y00391999*
G37*
G36*
X00351594Y00389999D02*
X00349904D01*
X00348342Y00389352*
X00347146Y00388156*
X00346499Y00386594*
Y00384904*
X00347146Y00383342*
X00348342Y00382146*
X00349904Y00381499*
X00351594*
X00353156Y00382146*
X00354352Y00383342*
X00354999Y00384904*
Y00386594*
X00354352Y00388156*
X00353156Y00389352*
X00351594Y00389999*
G37*
G36*
X00249539Y00385499D02*
X00239499D01*
Y00380959*
X00249539*
Y00385499*
G37*
G36*
X00237499D02*
X00227459D01*
Y00380959*
X00237499*
Y00385499*
G37*
G36*
X00138539Y00382039D02*
X00128499D01*
Y00377499*
X00138539*
Y00382039*
G37*
G36*
X00126499D02*
X00116459D01*
Y00377499*
X00126499*
Y00382039*
G37*
G36*
X00138539Y00375499D02*
X00128499D01*
Y00370959*
X00138539*
Y00375499*
G37*
G36*
X00126499D02*
X00116459D01*
Y00370959*
X00126499*
Y00375499*
G37*
G36*
X00270999Y00375539D02*
X00255459D01*
Y00368999*
X00270999*
Y00375539*
G37*
G36*
X00397844Y00372499D02*
X00396154D01*
X00394592Y00371852*
X00393396Y00370657*
X00392749Y00369094*
Y00367404*
X00393396Y00365842*
X00394592Y00364646*
X00396154Y00363999*
X00397844*
X00399406Y00364646*
X00399749Y00364989*
X00400092Y00364646*
X00401654Y00363999*
X00403344*
X00404906Y00364646*
X00406102Y00365842*
X00406749Y00367404*
Y00369094*
X00406102Y00370656*
X00404906Y00371852*
X00403344Y00372499*
X00401654*
X00400092Y00371852*
X00399749Y00371509*
X00399406Y00371852*
X00397844Y00372499*
G37*
G36*
X00270999Y00366999D02*
X00255459D01*
Y00360459*
X00270999*
Y00366999*
G37*
G36*
X00177539Y00365539D02*
X00161999D01*
Y00358999*
X00177539*
Y00365539*
G37*
G36*
X00159999D02*
X00144459D01*
Y00358999*
X00159999*
Y00365539*
G37*
G36*
X00393539Y00365039D02*
X00377999D01*
Y00358499*
X00393539*
Y00365039*
G37*
G36*
X00375999D02*
X00360459D01*
Y00358499*
X00375999*
Y00365039*
G37*
G36*
X00494539Y00364789D02*
X00478999D01*
Y00358249*
X00494539*
Y00364789*
G37*
G36*
X00476999D02*
X00461459D01*
Y00358249*
X00476999*
Y00364789*
G37*
G36*
X00177539Y00356999D02*
X00161999D01*
Y00350459*
X00177539*
Y00356999*
G37*
G36*
X00159999D02*
X00144459D01*
Y00350459*
X00159999*
Y00356999*
G37*
G36*
X00393539Y00356499D02*
X00377999D01*
Y00349959*
X00393539*
Y00356499*
G37*
G36*
X00375999D02*
X00360459D01*
Y00349959*
X00375999*
Y00356499*
G37*
G36*
X00494539Y00356249D02*
X00478999D01*
Y00349709*
X00494539*
Y00356249*
G37*
G36*
X00476999D02*
X00461459D01*
Y00349709*
X00476999*
Y00356249*
G37*
G36*
X00130598Y00342251D02*
X00128908D01*
X00127346Y00341604*
X001265Y00340758*
X00125656Y00341602*
X00124094Y00342249*
X00122404*
X00120842Y00341602*
X00119646Y00340406*
X00118999Y00338844*
Y00337154*
X00119646Y00335592*
X0012024Y00334997*
Y00334448*
X00119226Y00335126*
X00117999Y0033537*
Y00325419*
Y00315468*
X00119226Y00315712*
X0012036Y0031647*
X00120545Y00316747*
X00121333Y00316221*
X0012246Y00315996*
X00124238*
X00125365Y00316221*
X00126321Y00316859*
X00126651Y00317353*
X00126981Y00316859*
X00127937Y00316221*
X00129064Y00315996*
X00130842*
X00131969Y00316221*
X00132925Y00316859*
X00133128Y00317163*
X00133331Y00316859*
X00134287Y00316221*
X00135414Y00315996*
X00137192*
X00138319Y00316221*
X00139275Y00316859*
X00139605Y00317353*
X00139935Y00316859*
X00140891Y00316221*
X00142018Y00315996*
X00143796*
X00144923Y00316221*
X00145879Y00316859*
X00146209Y00317353*
X00146539Y00316859*
X00147495Y00316221*
X00148622Y00315996*
X001504*
X00151527Y00316221*
X00152483Y00316859*
X00152686Y00317163*
X00152889Y00316859*
X00153845Y00316221*
X00154972Y00315996*
X0015675*
X00157877Y00316221*
X00158833Y00316859*
X00159163Y00317353*
X00159493Y00316859*
X00160449Y00316221*
X00161576Y00315996*
X00163354*
X00164481Y00316221*
X00165437Y00316859*
X0016564Y00317163*
X00165843Y00316859*
X00166799Y00316221*
X00167926Y00315996*
X00169704*
X00170831Y00316221*
X00171787Y00316859*
X00171792Y00316867*
X00172058Y0031647*
X00173192Y00315712*
X00174419Y00315468*
Y00325419*
Y0033537*
X00173192Y00335126*
X00172058Y00334368*
X00171966Y0033423*
Y00334955*
X00172602Y00335592*
X00173249Y00337154*
Y00338844*
X00172602Y00340406*
X00171406Y00341602*
X00169844Y00342249*
X00168154*
X00166592Y00341602*
X00165749Y00340759*
X00164906Y00341602*
X00163344Y00342249*
X00161654*
X00160092Y00341602*
X00159131Y0034064*
X00158218Y00341552*
X00156656Y00342199*
X00154966*
X00153404Y00341552*
X0015243Y00340579*
X00151657Y00341353*
X00150095Y00342*
X00148404*
X00146842Y00341353*
X00145991Y00340501*
X00145157Y00341335*
X00143595Y00341982*
X00141904*
X00140342Y00341335*
X0013961Y00340603*
X0013866Y00341552*
X00137098Y00342199*
X00135408*
X00133846Y00341552*
X00133029Y00340736*
X00132161Y00341604*
X00130598Y00342251*
G37*
G36*
X00353999Y00343999D02*
X00332999D01*
Y00333999*
X00353999*
Y0033543*
X00354901*
X00354936Y00335396*
X00356498Y00334749*
X00358189*
X00359751Y00335396*
X00360946Y00336591*
X00361593Y00338153*
Y00339844*
X00360946Y00341406*
X00359751Y00342602*
X00358189Y00343249*
X00356498*
X00354936Y00342602*
X00354901Y00342567*
X00353999*
Y00343999*
G37*
G36*
X00454999Y00343749D02*
X00433999D01*
Y00333749*
X00454999*
Y0033518*
X00455901*
X00455936Y00335146*
X00457498Y00334499*
X00459188*
X0046075Y00335146*
X00461946Y00336342*
X00462593Y00337904*
Y00339594*
X00461946Y00341156*
X0046075Y00342352*
X00459188Y00342999*
X00457498*
X00455936Y00342352*
X00455901Y00342318*
X00454999*
Y00343749*
G37*
G36*
X00353999Y00331499D02*
X00332999D01*
Y00329558*
X00331451*
X00330906Y00330102*
X00329344Y00330749*
X00327654*
X00326092Y00330102*
X00324896Y00328906*
X00324249Y00327344*
Y00325654*
X00324896Y00324092*
X00326092Y00322896*
X00327654Y00322249*
X00329344*
X00330906Y00322896*
X00331451Y0032344*
X00332999*
Y00321499*
X00353999*
Y00331499*
G37*
G36*
X00202327Y0033537D02*
Y00326419D01*
X00205712*
Y00331896*
X00205446Y00333234*
X00204688Y00334368*
X00203554Y00335126*
X00202327Y0033537*
G37*
G36*
X00115999D02*
X00114772Y00335126D01*
X00113638Y00334368*
X0011288Y00333234*
X00112614Y00331896*
Y00326419*
X00115999*
Y0033537*
G37*
G36*
X00454999Y00331249D02*
X00433999D01*
Y00321249*
X00454999*
Y0032319*
X00456047*
X00456592Y00322646*
X00458154Y00321999*
X00459844*
X00461406Y00322646*
X00462602Y00323842*
X00463249Y00325404*
Y00327094*
X00462602Y00328656*
X00461406Y00329852*
X00459844Y00330499*
X00458154*
X00456592Y00329852*
X00456047Y00329308*
X00454999*
Y00331249*
G37*
G36*
X00115999Y00324419D02*
X00112614D01*
Y00318942*
X0011288Y00317604*
X00113638Y0031647*
X00114772Y00315712*
X00115999Y00315468*
Y00324419*
G37*
G36*
X00205712D02*
X00202327D01*
Y00315468*
X00203554Y00315712*
X00204688Y0031647*
X00205446Y00317604*
X00205712Y00318942*
Y00324419*
G37*
G36*
X00195977Y0033537D02*
Y00325419D01*
Y00315468*
X00197204Y00315712*
X00198152Y00316345*
X001991Y00315712*
X00200327Y00315468*
Y00325419*
Y0033537*
X001991Y00335126*
X00198152Y00334493*
X00197204Y00335126*
X00195977Y0033537*
G37*
G36*
X00189373D02*
Y00325419D01*
Y00315468*
X001906Y00315712*
X00191675Y0031643*
X0019275Y00315712*
X00193977Y00315468*
Y00325419*
Y0033537*
X0019275Y00335126*
X00191675Y00334408*
X001906Y00335126*
X00189373Y0033537*
G37*
G36*
X00183023D02*
Y00325419D01*
Y00315468*
X0018425Y00315712*
X00185198Y00316345*
X00186146Y00315712*
X00187373Y00315468*
Y00325419*
Y0033537*
X00186146Y00335126*
X00185198Y00334493*
X0018425Y00335126*
X00183023Y0033537*
G37*
G36*
X00176419D02*
Y00325419D01*
Y00315468*
X00177646Y00315712*
X00178721Y0031643*
X00179796Y00315712*
X00181023Y00315468*
Y00325419*
Y0033537*
X00179796Y00335126*
X00178721Y00334408*
X00177646Y00335126*
X00176419Y0033537*
G37*
G36*
X00353999Y00318999D02*
X00332999D01*
Y00308999*
X00353999*
Y0031094*
X00355048*
X00355592Y00310396*
X00357154Y00309749*
X00358845*
X00360407Y00310396*
X00361602Y00311591*
X00362249Y00313154*
Y00314844*
X00361602Y00316406*
X00360407Y00317602*
X00358845Y00318249*
X00357154*
X00355592Y00317602*
X00355048Y00317058*
X00353999*
Y00318999*
G37*
G36*
X00454999Y00318749D02*
X00433999D01*
Y00308749*
X00454999*
Y0031069*
X00456047*
X00456592Y00310146*
X00458154Y00309499*
X00459844*
X00461406Y00310146*
X00462602Y00311342*
X00463249Y00312904*
Y00314594*
X00462602Y00316156*
X00461406Y00317352*
X00459844Y00317999*
X00458154*
X00456592Y00317352*
X00456047Y00316808*
X00454999*
Y00318749*
G37*
G36*
X00235844Y00317249D02*
X00234154D01*
X00232592Y00316602*
X00231396Y00315406*
X00230749Y00313844*
Y00312154*
X00231396Y00310592*
X00232592Y00309396*
X00234154Y00308749*
X00235844*
X00237406Y00309396*
X00238602Y00310592*
X00239249Y00312154*
Y00313844*
X00238602Y00315406*
X00237406Y00316602*
X00235844Y00317249*
G37*
G36*
X00354539Y00307039D02*
X00344499D01*
Y00302499*
X00354539*
Y00307039*
G37*
G36*
X00342499D02*
X00332459D01*
Y00302499*
X00342499*
Y00307039*
G37*
G36*
X00455539Y00306789D02*
X00445499D01*
Y00302249*
X00455539*
Y00306789*
G37*
G36*
X00443499D02*
X00433459D01*
Y00302249*
X00443499*
Y00306789*
G37*
G36*
X00354539Y00300499D02*
X00344499D01*
Y00295959*
X00354539*
Y00300499*
G37*
G36*
X00342499D02*
X00332459D01*
Y00295959*
X00342499*
Y00300499*
G37*
G36*
X00455539Y00300249D02*
X00445499D01*
Y00295709*
X00455539*
Y00300249*
G37*
G36*
X00443499D02*
X00433459D01*
Y00295709*
X00443499*
Y00300249*
G37*
G36*
X00393539Y00290539D02*
X00377999D01*
Y00283999*
X00393539*
Y00290539*
G37*
G36*
X00375999D02*
X00360459D01*
Y00283999*
X00375999*
Y00290539*
G37*
G36*
X00476999Y00290289D02*
X00461459D01*
Y00283749*
X00476999*
Y00290289*
G37*
G36*
X00281844Y00291249D02*
X00280154D01*
X00278592Y00290602*
X00277396Y00289406*
X00276749Y00287844*
Y00286154*
X00277396Y00284592*
X00278592Y00283396*
X00280154Y00282749*
X00281844*
X00283406Y00283396*
X00284602Y00284592*
X00285249Y00286154*
Y00287844*
X00284602Y00289406*
X00283406Y00290602*
X00281844Y00291249*
G37*
G36*
X00259844D02*
X00258154D01*
X00256592Y00290602*
X00255397Y00289406*
X00254749Y00287844*
Y00286154*
X00255397Y00284592*
X00256592Y00283396*
X00258154Y00282749*
X00259844*
X00261406Y00283396*
X00262602Y00284592*
X00263249Y00286154*
Y00287844*
X00262602Y00289406*
X00261406Y00290602*
X00259844Y00291249*
G37*
G36*
X00174419Y0027695D02*
X00173192Y00276706D01*
X00172058Y00275948*
X00171792Y00275551*
X00171787Y00275559*
X00170831Y00276197*
X00169704Y00276422*
X00167926*
X00166799Y00276197*
X00165843Y00275559*
X0016564Y00275255*
X00165437Y00275559*
X00164481Y00276197*
X00163354Y00276422*
X00161576*
X00160449Y00276197*
X00159493Y00275559*
X00159163Y00275065*
X00158833Y00275559*
X00157877Y00276197*
X0015675Y00276422*
X00154972*
X00153845Y00276197*
X00152889Y00275559*
X00152686Y00275255*
X00152483Y00275559*
X00151527Y00276197*
X001504Y00276422*
X00148622*
X00147495Y00276197*
X00146539Y00275559*
X00146209Y00275065*
X00145879Y00275559*
X00144923Y00276197*
X00143796Y00276422*
X00142018*
X00140891Y00276197*
X00139935Y00275559*
X00139605Y00275065*
X00139275Y00275559*
X00138319Y00276197*
X00137192Y00276422*
X00135414*
X00134287Y00276197*
X00133331Y00275559*
X00133128Y00275255*
X00132925Y00275559*
X00131969Y00276197*
X00130842Y00276422*
X00129064*
X00127937Y00276197*
X00126981Y00275559*
X00126651Y00275065*
X00126321Y00275559*
X00125365Y00276197*
X00124238Y00276422*
X0012246*
X00121333Y00276197*
X00120377Y00275559*
X00120174Y00275255*
X00119971Y00275559*
X00119015Y00276197*
X00117888Y00276422*
X0011611*
X00114983Y00276197*
X00114027Y00275559*
X00113389Y00274603*
X00113164Y00273476*
Y00260522*
X00113389Y00259395*
X00113849Y00258705*
Y00257271*
X00113215Y00256636*
X00112568Y00255074*
Y00253384*
X00113215Y00251822*
X0011441Y00250626*
X00115972Y00249979*
X00117663*
X00119225Y00250626*
X00120161Y00251562*
X00120907Y00250816*
X00122469Y00250169*
X0012416*
X00125722Y00250816*
X00126684Y00251778*
X00127595Y00250866*
X00129157Y00250219*
X00130848*
X0013241Y00250866*
X00133383Y00251839*
X00134157Y00251065*
X00135719Y00250418*
X0013741*
X00138972Y00251065*
X00139823Y00251917*
X00140657Y00251083*
X00142219Y00250436*
X0014391*
X00145472Y00251083*
X00146204Y00251815*
X00147153Y00250866*
X00148715Y00250219*
X00150406*
X00151968Y00250866*
X00152785Y00251683*
X00153653Y00250814*
X00155215Y00250167*
X00156906*
X00158468Y00250814*
X00159314Y0025166*
X00160157Y00250816*
X00161719Y00250169*
X0016341*
X00164973Y00250816*
X00165867Y00251711*
X00166657Y00250921*
X00168219Y00250274*
X00169909*
X00171471Y00250921*
X00172667Y00252117*
X00173314Y00253679*
Y0025537*
X00172667Y00256932*
X00171874Y00257725*
Y00258325*
X00172058Y0025805*
X00173192Y00257292*
X00174419Y00257048*
Y00266999*
Y0027695*
G37*
G36*
X00393539Y00281999D02*
X00377999D01*
Y00275459*
X00393539*
Y00281999*
G37*
G36*
X00375999D02*
X00360459D01*
Y00275459*
X00375999*
Y00281999*
G37*
G36*
X00476999Y00281749D02*
X00461459D01*
Y00275209*
X00476999*
Y00281749*
G37*
G36*
X00374844Y00266249D02*
X00373154D01*
X00371592Y00265602*
X00370396Y00264406*
X00369749Y00262844*
Y00261154*
X00370396Y00259592*
X00371592Y00258396*
X00373154Y00257749*
X00374844*
X00376406Y00258396*
X00377602Y00259592*
X00378249Y00261154*
Y00262844*
X00377602Y00264406*
X00376406Y00265602*
X00374844Y00266249*
G37*
G36*
X00338844D02*
X00337154D01*
X00335592Y00265602*
X00334396Y00264406*
X00333749Y00262844*
Y00261154*
X00334396Y00259592*
X00335592Y00258396*
X00337154Y00257749*
X00338844*
X00340406Y00258396*
X00341602Y00259592*
X00342249Y00261154*
Y00262844*
X00341602Y00264406*
X00340406Y00265602*
X00338844Y00266249*
G37*
G36*
X00456094Y00254999D02*
X00454404D01*
X00452842Y00254352*
X00451646Y00253156*
X00450999Y00251594*
Y00249904*
X00451646Y00248342*
X00452842Y00247146*
X00454404Y00246499*
X00456094*
X00457656Y00247146*
X00458852Y00248342*
X00459499Y00249904*
Y00251594*
X00458852Y00253156*
X00457656Y00254352*
X00456094Y00254999*
G37*
G36*
X00391594Y00241788D02*
X00389904D01*
X00388342Y00241141*
X00387146Y00239945*
X00386499Y00238383*
Y00236693*
X00387146Y00235131*
X00388342Y00233935*
X00389904Y00233288*
X00391594*
X00393157Y00233935*
X00394352Y00235131*
X00394999Y00236693*
Y00238383*
X00394352Y00239945*
X00393157Y00241141*
X00391594Y00241788*
G37*
G36*
Y00227446D02*
X00389904D01*
X00388342Y00226799*
X00387146Y00225603*
X00386499Y00224041*
Y00222351*
X00387146Y00220789*
X00388342Y00219593*
X00389904Y00218946*
X00391594*
X00393157Y00219593*
X00394352Y00220789*
X00394999Y00222351*
Y00224041*
X00394352Y00225603*
X00393157Y00226799*
X00391594Y00227446*
G37*
G36*
X00257719Y00206874D02*
X00256028D01*
X00254466Y00206227*
X00253271Y00205031*
X00252624Y00203469*
Y00201778*
X00253271Y00200216*
X00254466Y00199021*
X00256028Y00198374*
X00257719*
X00259281Y00199021*
X00260477Y00200216*
X00261124Y00201778*
Y00203469*
X00260477Y00205031*
X00259281Y00206227*
X00257719Y00206874*
G37*
G36*
X00243219Y00205374D02*
X00241529D01*
X00239966Y00204727*
X00238771Y00203531*
X00238125Y00201969*
Y00200279*
X00238771Y00198716*
X00239966Y00197521*
X00241529Y00196874*
X00243219*
X00244781Y00197521*
X00245977Y00198716*
X00246624Y00200279*
Y00201969*
X00245977Y00203531*
X00244781Y00204727*
X00243219Y00205374*
G37*
G36*
X00229969D02*
X00228278D01*
X00226716Y00204727*
X00225521Y00203531*
X00224874Y00201969*
Y00200279*
X00225521Y00198716*
X00226716Y00197521*
X00228278Y00196874*
X00229969*
X00231531Y00197521*
X00232727Y00198716*
X00233374Y00200279*
Y00201969*
X00232727Y00203531*
X00231531Y00204727*
X00229969Y00205374*
G37*
G36*
X00361844Y00199249D02*
X00360154D01*
X00358592Y00198602*
X00357396Y00197406*
X00356749Y00195844*
Y00194154*
X00357396Y00192592*
X00358592Y00191396*
X00360154Y00190749*
X00361844*
X00363406Y00191396*
X00364602Y00192592*
X00365249Y00194154*
Y00195844*
X00364602Y00197406*
X00363406Y00198602*
X00361844Y00199249*
G37*
G36*
X00294039Y00195039D02*
X00278499D01*
Y00188499*
X00294039*
Y00195039*
G37*
G36*
X00276499D02*
X00260959D01*
Y00188499*
X00276499*
Y00195039*
G37*
G36*
X00398539D02*
X00382999D01*
Y00188499*
X00398539*
Y00195039*
G37*
G36*
X00381D02*
X00365459D01*
Y00188499*
X00381*
Y00195039*
G37*
G36*
X00499039Y00194539D02*
X00483499D01*
Y00187999*
X00499039*
Y00194539*
G37*
G36*
X00481499D02*
X00465959D01*
Y00187999*
X00481499*
Y00194539*
G37*
G36*
X00576999D02*
X00561459D01*
Y00187999*
X00576999*
Y00194539*
G37*
G36*
X00294039Y00186499D02*
X00278499D01*
Y00179959*
X00294039*
Y00186499*
G37*
G36*
X00276499D02*
X00260959D01*
Y00179959*
X00276499*
Y00186499*
G37*
G36*
X00381D02*
X00365459D01*
Y00179959*
X00381*
Y00186499*
G37*
G36*
X00576999Y00185999D02*
X00561459D01*
Y00179459*
X00576999*
Y00185999*
G37*
G36*
X00185039Y00182039D02*
X00169499D01*
Y00175499*
X00185039*
Y00182039*
G37*
G36*
X00167499D02*
X00151959D01*
Y00175499*
X00167499*
Y00182039*
G37*
G36*
X00482499Y00186999D02*
D01*
Y00185999*
X00465959*
Y00181808*
X00465176*
X00464005Y00181575*
X00463013Y00180912*
X004621Y00179999*
X00460654*
X00459092Y00179352*
X00457896Y00178156*
X00457249Y00176594*
Y00174904*
X00457831Y00173499*
X00452568*
Y00174557*
X00452602Y00174592*
X00453249Y00176154*
Y00177844*
X00452602Y00179406*
X00451406Y00180602*
X00449844Y00181249*
X00448154*
X00446592Y00180602*
X00445396Y00179406*
X00444749Y00177844*
Y00176154*
X00445396Y00174592*
X0044543Y00174557*
Y00173499*
X00438499*
Y00163499*
X00459499*
Y00171977*
X00460654Y00171499*
X00462344*
X00463906Y00172146*
X00465102Y00173342*
X00465749Y00174904*
Y00174997*
X00466442Y0017569*
X00497307*
X00496749Y00174344*
Y00172654*
X00497396Y00171092*
X00498592Y00169896*
X00500154Y00169249*
X00500923*
X00505285Y00164887*
Y00163723*
X00504656Y00164352*
X00503094Y00164999*
X00501404*
X00501249Y00164935*
Y00165094*
X00500602Y00166656*
X00499406Y00167852*
X00497844Y00168499*
X00496154*
X00494592Y00167852*
X00493396Y00166656*
X00492869Y00165385*
X00492594Y00165499*
X00490904*
X00489342Y00164852*
X00488146Y00163656*
X00487499Y00162094*
Y00160404*
X00488146Y00158842*
X00488364Y00158624*
X00488146Y00158406*
X00487499Y00156845*
Y00155154*
X00488146Y00153592*
X00489342Y00152396*
X00490904Y00151749*
X00492594*
X00494157Y00152396*
X00495352Y00153592*
X00495665Y00154348*
X00495904Y00154249*
X00497594*
X00498083Y00154451*
X00498646Y00153092*
X00499842Y00151896*
X00501404Y00151249*
X00503094*
X00504656Y00151896*
X00505809Y00153048*
X00506181Y00152491*
X00518836Y00139836*
X00519431Y00139439*
X00519828Y00139173*
X00520999Y0013894*
X00523338*
X00523882Y00138396*
X00525444Y00137749*
X00527135*
X00528697Y00138396*
X00529893Y00139592*
X0053054Y00141154*
Y00142844*
X00529893Y00144406*
X00528697Y00145602*
X00528332Y00145753*
X0052883*
X00530392Y001464*
X00531587Y00147596*
X00532234Y00149158*
Y00150849*
X0053179Y00151921*
X00533999*
Y00150999*
X00554999*
Y00160999*
X00547538*
Y00161466*
X00547553Y00161539*
Y00162959*
X00547538Y00163032*
Y00163499*
X00554999*
Y00173499*
X00533999*
Y00172577*
X00530749*
X00530597Y00172547*
X00521008*
X00520228Y00172392*
X00519566Y0017195*
X00518807Y00171191*
X00518365Y00170529*
X0051821Y00169749*
Y00156114*
X00515403Y00158921*
Y00169578*
X0051517Y00170749*
X00514507Y00171741*
X00505336Y00180912*
X00504344Y00181575*
X00503174Y00181808*
X00499039*
Y00185999*
X00482499*
Y00186999*
G37*
G36*
X00358999Y00173999D02*
X00337999D01*
Y00163999*
X00358999*
Y00165305*
X00359932*
X00360092Y00165146*
X00361654Y00164499*
X00363344*
X00364906Y00165146*
X00366102Y00166342*
X00366749Y00167904*
Y00169594*
X00366102Y00171156*
X00364906Y00172352*
X00363344Y00172999*
X00361654*
X0036031Y00172443*
X00358999*
Y00173999*
G37*
G36*
X00254499D02*
X00233499D01*
Y00163999*
X00254499*
Y00165305*
X00255432*
X00255592Y00165146*
X00257154Y00164499*
X00258844*
X00260406Y00165146*
X00261602Y00166342*
X00262249Y00167904*
Y00169594*
X00261602Y00171156*
X00260406Y00172352*
X00258844Y00172999*
X00257154*
X00255811Y00172443*
X00254499*
Y00173999*
G37*
G36*
Y00161499D02*
X00233499D01*
Y00151499*
X00254499*
Y0015319*
X00265307*
X00264749Y00151844*
Y00150154*
X00265396Y00148592*
X00266592Y00147396*
X00267408Y00147058*
X00254499*
Y00148999*
X00233499*
Y00138999*
X00254499*
Y0014094*
X00284047*
X00284592Y00140396*
X00286154Y00139749*
X00287844*
X00289406Y00140396*
X00290602Y00141592*
X00291249Y00143154*
Y00144844*
X00290602Y00146406*
X00289406Y00147602*
X00287844Y00148249*
X00286154*
X00284592Y00147602*
X00284047Y00147058*
X0027059*
X00271406Y00147396*
X00272602Y00148592*
X00273249Y00150154*
Y00151844*
X00272692Y0015319*
X00284297*
X00284842Y00152646*
X00286404Y00151999*
X00288094*
X00289656Y00152646*
X00290852Y00153842*
X00291499Y00155404*
Y00157094*
X00290852Y00158656*
X00289656Y00159852*
X00288094Y00160499*
X00286404*
X00284842Y00159852*
X00284297Y00159308*
X00254499*
Y00161499*
G37*
G36*
X00178094Y00160249D02*
X00176404D01*
X00174842Y00159602*
X00173646Y00158406*
X00172999Y00156845*
Y00155154*
X00173646Y00153592*
X00174842Y00152396*
X00176404Y00151749*
X00178094*
X00179656Y00152396*
X00180852Y00153592*
X00181499Y00155154*
Y00156845*
X00180852Y00158406*
X00179656Y00159602*
X00178094Y00160249*
G37*
G36*
X00325594Y00157749D02*
X00323904D01*
X00322342Y00157102*
X00321146Y00155906*
X00320499Y00154344*
Y00152654*
X00321146Y00151092*
X00322342Y00149896*
X00323904Y00149249*
X00325594*
X00327156Y00149896*
X00328352Y00151092*
X00328999Y00152654*
Y00154344*
X00328352Y00155906*
X00327156Y00157102*
X00325594Y00157749*
G37*
G36*
X00358999Y00161499D02*
X00337999D01*
Y00151499*
X00358999*
Y0015244*
X00360232*
X00361858Y00150814*
X0036285Y00150151*
X00364021Y00149919*
X00365569*
X00366592Y00148896*
X00366645Y00148874*
X00366592Y00148852*
X00365797Y00148058*
X00363749*
X00362578Y00147825*
X00361586Y00147162*
X00360482Y00146058*
X00358999*
Y00148999*
X00337999*
Y00138999*
X00358999*
Y0013994*
X00361749*
X00362919Y00140173*
X00363912Y00140836*
X00365016Y0014194*
X00366297*
X00366592Y00141646*
X00368154Y00140999*
X00369844*
X00371406Y00141646*
X00372602Y00142842*
X00373249Y00144404*
Y00146094*
X00372602Y00147656*
X00371406Y00148852*
X00371353Y00148874*
X00371406Y00148896*
X00372602Y00150092*
X00373249Y00151654*
Y00153344*
X00372602Y00154906*
X00371406Y00156102*
X00369844Y00156749*
X00368154*
X00366592Y00156102*
X00366526Y00156036*
X00365288*
X00363662Y00157662*
X0036267Y00158325*
X00361499Y00158558*
X00358999*
Y00161499*
G37*
G36*
X00385094Y00155999D02*
X00383404D01*
X00381842Y00155352*
X00380646Y00154156*
X00379999Y00152594*
Y00150904*
X00380646Y00149342*
X00381842Y00148146*
X00383404Y00147499*
X00385094*
X00386656Y00148146*
X00387852Y00149342*
X00388499Y00150904*
Y00152594*
X00387852Y00154156*
X00386656Y00155352*
X00385094Y00155999*
G37*
G36*
X00183844Y00142249D02*
X00182154D01*
X00180592Y00141602*
X00179396Y00140406*
X00178749Y00138844*
Y00137154*
X00179396Y00135592*
X00180592Y00134396*
X00182154Y00133749*
X00183844*
X00185406Y00134396*
X00186602Y00135592*
X00187249Y00137154*
Y00138844*
X00186602Y00140406*
X00185406Y00141602*
X00183844Y00142249*
G37*
G36*
X00293094Y00140749D02*
X00291404D01*
X00289842Y00140102*
X00288646Y00138906*
X00287999Y00137344*
Y00135654*
X00288646Y00134092*
X00289842Y00132896*
X00291404Y00132249*
X00293094*
X00294656Y00132896*
X00295852Y00134092*
X00296499Y00135654*
Y00137344*
X00295852Y00138906*
X00294656Y00140102*
X00293094Y00140749*
G37*
G36*
X00459499Y00135999D02*
X00438499D01*
Y00126509*
X00438406Y00126602*
X00436844Y00127249*
X00435154*
X00433592Y00126602*
X00432396Y00125406*
X00431749Y00123844*
Y00122154*
X00432396Y00120592*
X00433592Y00119396*
X00435154Y00118749*
X00436844*
X00438406Y00119396*
X00438499Y00119489*
Y00113499*
X00459499*
Y00123499*
X00440249*
Y00123844*
X00439602Y00125406*
X00439009Y00125999*
X00459499*
Y00135999*
G37*
G36*
X00254499Y00136499D02*
X00233499D01*
Y00126499*
X00254499*
Y00136499*
G37*
G36*
X00358999D02*
X00337999D01*
Y00126499*
X00358999*
Y00136499*
G37*
G36*
X00555539Y00124039D02*
X00545499D01*
Y00119499*
X00555539*
Y00124039*
G37*
G36*
X00543499D02*
X00533459D01*
Y00119499*
X00543499*
Y00124039*
G37*
G36*
X00374844Y00127249D02*
X00373154D01*
X00371592Y00126602*
X00370396Y00125406*
X00369749Y00123844*
Y00122154*
X00370396Y00120592*
X00371592Y00119396*
X00373154Y00118749*
X00374844*
X00376406Y00119396*
X00377602Y00120592*
X00378249Y00122154*
Y00123844*
X00377602Y00125406*
X00376406Y00126602*
X00374844Y00127249*
G37*
G36*
X00254499Y00123999D02*
X00233499D01*
Y00113999*
X00254499*
Y00123999*
G37*
G36*
X00358999D02*
X00337999D01*
Y00113999*
X00358999*
Y00123999*
G37*
G36*
X00555539Y00117499D02*
X00545499D01*
Y00112959*
X00555539*
Y00117499*
G37*
G36*
X00543499D02*
X00533459D01*
Y00112959*
X00543499*
Y00117499*
G37*
G36*
X00255039Y00112039D02*
X00244999D01*
Y00107499*
X00255039*
Y00112039*
G37*
G36*
X00242999D02*
X00232959D01*
Y00107499*
X00242999*
Y00112039*
G37*
G36*
X00359539D02*
X00349499D01*
Y00107499*
X00359539*
Y00112039*
G37*
G36*
X00347499D02*
X00337459D01*
Y00107499*
X00347499*
Y00112039*
G37*
G36*
X00146039Y00111539D02*
X00135999D01*
Y00106999*
X00146039*
Y00111539*
G37*
G36*
X00133999D02*
X00123959D01*
Y00106999*
X00133999*
Y00111539*
G37*
G36*
X00460039D02*
X00449999D01*
Y00106999*
X00460039*
Y00111539*
G37*
G36*
X00447999D02*
X00437959D01*
Y00106999*
X00447999*
Y00111539*
G37*
G36*
X00555539D02*
X00545499D01*
Y00106999*
X00555539*
Y00111539*
G37*
G36*
X00543499D02*
X00533459D01*
Y00106999*
X00543499*
Y00111539*
G37*
G36*
X00495344Y00130749D02*
X00493654D01*
X00492092Y00130102*
X00490896Y00128906*
X00490249Y00127344*
Y00125654*
X00490896Y00124092*
X0049149Y00123499*
X00490904*
X00489342Y00122852*
X00488146Y00121656*
X00487499Y00120094*
Y00118404*
X00488146Y00116842*
X00488239Y00116749*
X00488146Y00116656*
X00487499Y00115094*
Y00113404*
X00488146Y00111842*
X00489342Y00110646*
X00490904Y00109999*
X00492594*
X00494157Y00110646*
X00494374Y00110864*
X00494592Y00110646*
X00496154Y00109999*
X00497844*
X00499406Y00110646*
X00499499Y00110739*
X00499592Y00110646*
X00501154Y00109999*
X00502844*
X00504406Y00110646*
X00505602Y00111842*
X00506249Y00113404*
Y00115094*
X00505602Y00116656*
X00505509Y00116749*
X00505602Y00116842*
X00506249Y00118404*
Y00120094*
X00505602Y00121656*
X00504406Y00122852*
X00502986Y0012344*
X00504482*
X0050969Y00118232*
Y00108701*
X00509146Y00108156*
X00508499Y00106594*
Y00104904*
X00509146Y00103342*
X00510342Y00102146*
X00511904Y00101499*
X00513594*
X00515156Y00102146*
X00516352Y00103342*
X00516999Y00104904*
Y00106594*
X00516352Y00108156*
X00515808Y00108701*
Y00119499*
X00515575Y00120669*
X00514912Y00121662*
X00507912Y00128662*
X0050692Y00129325*
X00505749Y00129558*
X00497451*
X00496906Y00130102*
X00495344Y00130749*
G37*
G36*
X00255039Y00105499D02*
X00244999D01*
Y00100959*
X00255039*
Y00105499*
G37*
G36*
X00242999D02*
X00232959D01*
Y00100959*
X00242999*
Y00105499*
G37*
G36*
X00359539D02*
X00349499D01*
Y00100959*
X00359539*
Y00105499*
G37*
G36*
X00347499D02*
X00337459D01*
Y00100959*
X00347499*
Y00105499*
G37*
G36*
X00146039Y00104999D02*
X00135999D01*
Y00100459*
X00146039*
Y00104999*
G37*
G36*
X00133999D02*
X00123959D01*
Y00100459*
X00133999*
Y00104999*
G37*
G36*
X00460039D02*
X00449999D01*
Y00100459*
X00460039*
Y00104999*
G37*
G36*
X00447999D02*
X00437959D01*
Y00100459*
X00447999*
Y00104999*
G37*
G36*
X00555539D02*
X00545499D01*
Y00100459*
X00555539*
Y00104999*
G37*
G36*
X00526031Y00133092D02*
X0052434D01*
X00522778Y00132445*
X00521582Y00131249*
X00520935Y00129688*
Y00127997*
X00521582Y00126435*
X00522126Y00125891*
Y00105313*
X00522359Y00104142*
X00523022Y0010315*
X00528249Y00097923*
Y00097155*
X00528896Y00095592*
X00530092Y00094396*
X00531654Y00093749*
X00533344*
X00534906Y00094396*
X00536102Y00095592*
X00536749Y00097155*
Y00098844*
X00536102Y00100406*
X00536049Y00100459*
X00543499*
Y00104999*
X00533459*
Y00102202*
X00533344Y00102249*
X00532575*
X00528244Y0010658*
Y00125891*
X00528788Y00126435*
X00529435Y00127997*
Y00129688*
X00528788Y00131249*
X00527593Y00132445*
X00526031Y00133092*
G37*
G36*
X00294039Y00095539D02*
X00278499D01*
Y00088999*
X00294039*
Y00095539*
G37*
G36*
X00276499D02*
X00260959D01*
Y00088999*
X00276499*
Y00095539*
G37*
G36*
X00398539D02*
X00382999D01*
Y00088999*
X00398539*
Y00095539*
G37*
G36*
X00381D02*
X00365459D01*
Y00088999*
X00381*
Y00095539*
G37*
G36*
X00167499Y00095039D02*
X00151959D01*
Y00088499*
X00167499*
Y00095039*
G37*
G36*
X00499039D02*
X00483499D01*
Y00088499*
X00499039*
Y00095039*
G37*
G36*
X00481499D02*
X00465959D01*
Y00088499*
X00481499*
Y00095039*
G37*
G36*
X00594539D02*
X00578999D01*
Y00088499*
X00594539*
Y00095039*
G37*
G36*
X00576999D02*
X00561459D01*
Y00088499*
X00576999*
Y00095039*
G37*
G36*
X00147844Y00090499D02*
X00146154D01*
X00144592Y00089852*
X00143396Y00088656*
X00142749Y00087094*
Y00085404*
X00143396Y00083842*
X00144592Y00082646*
X00146154Y00081999*
X00147844*
X00149406Y00082646*
X00150602Y00083842*
X00151249Y00085404*
Y00087094*
X00150602Y00088656*
X00149406Y00089852*
X00147844Y00090499*
G37*
G36*
X00294039Y00086999D02*
X00278499D01*
Y00080459*
X00294039*
Y00086999*
G37*
G36*
X00276499D02*
X00260959D01*
Y00080459*
X00276499*
Y00086999*
G37*
G36*
X00381D02*
X00365459D01*
Y00080459*
X00381*
Y00086999*
G37*
G36*
X00185039Y00086499D02*
X00169499D01*
Y00079959*
X00185039*
Y00086499*
G37*
G36*
X00167499D02*
X00151959D01*
Y00079959*
X00167499*
Y00086499*
G37*
G36*
X00499039D02*
X00483499D01*
Y00079959*
X00499039*
Y00086499*
G37*
G36*
X00481499D02*
X00465959D01*
Y00079959*
X00481499*
Y00086499*
G37*
G36*
X00576999D02*
X00561459D01*
Y00079959*
X00576999*
Y00086499*
G37*
G36*
X00246844Y00076249D02*
X00245154D01*
X00243592Y00075602*
X00242396Y00074406*
X00241749Y00072844*
Y00071154*
X00242396Y00069592*
X00243592Y00068396*
X00245154Y00067749*
X00246844*
X00248406Y00068396*
X00249602Y00069592*
X00250249Y00071154*
Y00072844*
X00249602Y00074406*
X00248406Y00075602*
X00246844Y00076249*
G37*
G36*
X00085037Y00057859D02*
X00084969D01*
Y00048969*
X00093859*
Y00049037*
X00093167Y00051621*
X00091829Y00053937*
X00089937Y00055829*
X00087621Y00057167*
X00085037Y00057859*
G37*
G36*
X00262837D02*
X00262769D01*
Y00048969*
X00271659*
Y00049037*
X00270967Y00051621*
X00269629Y00053937*
X00267737Y00055829*
X00265421Y00057167*
X00262837Y00057859*
G37*
G36*
X00082429D02*
X00082361D01*
X00079777Y00057167*
X00077461Y00055829*
X00075569Y00053937*
X00074231Y00051621*
X00073539Y00049037*
Y00048969*
X00082429*
Y00057859*
G37*
G36*
X00260229D02*
X00260161D01*
X00257577Y00057167*
X00255261Y00055829*
X00253369Y00053937*
X00252031Y00051621*
X00251339Y00049037*
Y00048969*
X00260229*
Y00057859*
G37*
G36*
X00575919Y00057319D02*
X00556679D01*
Y00038079*
X00575919*
Y00057319*
G37*
G36*
X00237366D02*
X00234833D01*
X00232386Y00056663*
X00230192Y00055397*
X00228401Y00053606*
X00227135Y00051412*
X00226479Y00048965*
Y00046433*
X00227135Y00043986*
X00228401Y00041792*
X00230192Y00040001*
X00232386Y00038735*
X00234833Y00038079*
X00237366*
X00239812Y00038735*
X00242006Y00040001*
X00243797Y00041792*
X00245063Y00043986*
X00245719Y00046433*
Y00048965*
X00245063Y00051412*
X00243797Y00053606*
X00242006Y00055397*
X00239812Y00056663*
X00237366Y00057319*
G37*
G36*
X00135765D02*
X00133232D01*
X00130786Y00056663*
X00128592Y00055397*
X00126801Y00053606*
X00125535Y00051412*
X00124879Y00048965*
Y00046433*
X00125535Y00043986*
X00126801Y00041792*
X00128592Y00040001*
X00130786Y00038735*
X00133232Y00038079*
X00135765*
X00138212Y00038735*
X00140406Y00040001*
X00142197Y00041792*
X00143463Y00043986*
X00144119Y00046433*
Y00048965*
X00143463Y00051412*
X00142197Y00053606*
X00140406Y00055397*
X00138212Y00056663*
X00135765Y00057319*
G37*
G36*
X00110365D02*
X00107832D01*
X00105386Y00056663*
X00103192Y00055397*
X00101401Y00053606*
X00100135Y00051412*
X00099479Y00048965*
Y00046433*
X00100135Y00043986*
X00101401Y00041792*
X00103192Y00040001*
X00105386Y00038735*
X00107832Y00038079*
X00110365*
X00112812Y00038735*
X00115006Y00040001*
X00116797Y00041792*
X00118063Y00043986*
X00118719Y00046433*
Y00048965*
X00118063Y00051412*
X00116797Y00053606*
X00115006Y00055397*
X00112812Y00056663*
X00110365Y00057319*
G37*
G36*
X00474859Y00046429D02*
X00465969D01*
Y00037539*
X00466037*
X00468621Y00038231*
X00470937Y00039569*
X00472829Y00041461*
X00474167Y00043777*
X00474859Y00046361*
Y00046429*
G37*
G36*
X00463429D02*
X00454539D01*
Y00046361*
X00455231Y00043777*
X00456569Y00041461*
X00458461Y00039569*
X00460777Y00038231*
X00463361Y00037539*
X00463429*
Y00046429*
G37*
G36*
X00271659D02*
X00262769D01*
Y00037539*
X00262837*
X00265421Y00038231*
X00267737Y00039569*
X00269629Y00041461*
X00270967Y00043777*
X00271659Y00046361*
Y00046429*
G37*
G36*
X00260229D02*
X00251339D01*
Y00046361*
X00252031Y00043777*
X00253369Y00041461*
X00255261Y00039569*
X00257577Y00038231*
X00260161Y00037539*
X00260229*
Y00046429*
G37*
G36*
X00093859D02*
X00084969D01*
Y00037539*
X00085037*
X00087621Y00038231*
X00089937Y00039569*
X00091829Y00041461*
X00093167Y00043777*
X00093859Y00046361*
Y00046429*
G37*
G36*
X00082429D02*
X00073539D01*
Y00046361*
X00074231Y00043777*
X00075569Y00041461*
X00077461Y00039569*
X00079777Y00038231*
X00082361Y00037539*
X00082429*
Y00046429*
G37*
G36*
X00415237Y00032459D02*
X00415169D01*
Y00023569*
X00424059*
Y00023637*
X00423367Y00026221*
X00422029Y00028537*
X00420137Y00030429*
X00417821Y00031767*
X00415237Y00032459*
G37*
G36*
X00516837D02*
X00516769D01*
Y00023569*
X00525659*
Y00023637*
X00524967Y00026221*
X00523629Y00028537*
X00521737Y00030429*
X00519421Y00031767*
X00516837Y00032459*
G37*
G36*
X00212037D02*
X00211969D01*
Y00023569*
X00220859*
Y00023637*
X00220167Y00026221*
X00218829Y00028537*
X00216937Y00030429*
X00214621Y00031767*
X00212037Y00032459*
G37*
G36*
X00339037D02*
X00338969D01*
Y00023569*
X00347859*
Y00023637*
X00347167Y00026221*
X00345829Y00028537*
X00343937Y00030429*
X00341621Y00031767*
X00339037Y00032459*
G37*
G36*
X00161237D02*
X00161169D01*
Y00023569*
X00170059*
Y00023637*
X00169367Y00026221*
X00168029Y00028537*
X00166137Y00030429*
X00163821Y00031767*
X00161237Y00032459*
G37*
G36*
X00412629D02*
X00412561D01*
X00409977Y00031767*
X00407661Y00030429*
X00405769Y00028537*
X00404431Y00026221*
X00403739Y00023637*
Y00023569*
X00412629*
Y00032459*
G37*
G36*
X00514229D02*
X00514161D01*
X00511577Y00031767*
X00509261Y00030429*
X00507369Y00028537*
X00506031Y00026221*
X00505339Y00023637*
Y00023569*
X00514229*
Y00032459*
G37*
G36*
X00209429D02*
X00209361D01*
X00206777Y00031767*
X00204461Y00030429*
X00202569Y00028537*
X00201231Y00026221*
X00200539Y00023637*
Y00023569*
X00209429*
Y00032459*
G37*
G36*
X00336429D02*
X00336361D01*
X00333777Y00031767*
X00331461Y00030429*
X00329569Y00028537*
X00328231Y00026221*
X00327539Y00023637*
Y00023569*
X00336429*
Y00032459*
G37*
G36*
X00158629D02*
X00158561D01*
X00155977Y00031767*
X00153661Y00030429*
X00151769Y00028537*
X00150431Y00026221*
X00149739Y00023637*
Y00023569*
X00158629*
Y00032459*
G37*
G36*
X00567565Y00031919D02*
X00565032D01*
X00562586Y00031263*
X00560392Y00029997*
X00558601Y00028206*
X00557335Y00026012*
X00556679Y00023566*
Y00021032*
X00557335Y00018586*
X00558601Y00016392*
X00560392Y00014601*
X00562586Y00013335*
X00565032Y00012679*
X00567565*
X00570012Y00013335*
X00572206Y00014601*
X00573997Y00016392*
X00575263Y00018586*
X00575919Y00021032*
Y00023566*
X00575263Y00026012*
X00573997Y00028206*
X00572206Y00029997*
X00570012Y00031263*
X00567565Y00031919*
G37*
G36*
X00542165D02*
X00539632D01*
X00537186Y00031263*
X00534992Y00029997*
X00533201Y00028206*
X00531935Y00026012*
X00531279Y00023566*
Y00021032*
X00531935Y00018586*
X00533201Y00016392*
X00534992Y00014601*
X00537186Y00013335*
X00539632Y00012679*
X00542165*
X00544612Y00013335*
X00546806Y00014601*
X00548597Y00016392*
X00549863Y00018586*
X00550519Y00021032*
Y00023566*
X00549863Y00026012*
X00548597Y00028206*
X00546806Y00029997*
X00544612Y00031263*
X00542165Y00031919*
G37*
G36*
X00491366D02*
X00488833D01*
X00486386Y00031263*
X00484192Y00029997*
X00482401Y00028206*
X00481135Y00026012*
X00480479Y00023566*
Y00021032*
X00481135Y00018586*
X00482401Y00016392*
X00484192Y00014601*
X00486386Y00013335*
X00488833Y00012679*
X00491366*
X00493812Y00013335*
X00496006Y00014601*
X00497797Y00016392*
X00499063Y00018586*
X00499719Y00021032*
Y00023566*
X00499063Y00026012*
X00497797Y00028206*
X00496006Y00029997*
X00493812Y00031263*
X00491366Y00031919*
G37*
G36*
X00465965D02*
X00463432D01*
X00460986Y00031263*
X00458792Y00029997*
X00457001Y00028206*
X00455735Y00026012*
X00455079Y00023566*
Y00021032*
X00455735Y00018586*
X00457001Y00016392*
X00458792Y00014601*
X00460986Y00013335*
X00463432Y00012679*
X00465965*
X00468412Y00013335*
X00470606Y00014601*
X00472397Y00016392*
X00473663Y00018586*
X00474319Y00021032*
Y00023566*
X00473663Y00026012*
X00472397Y00028206*
X00470606Y00029997*
X00468412Y00031263*
X00465965Y00031919*
G37*
G36*
X00440565D02*
X00438032D01*
X00435586Y00031263*
X00433392Y00029997*
X00431601Y00028206*
X00430335Y00026012*
X00429679Y00023566*
Y00021032*
X00430335Y00018586*
X00431601Y00016392*
X00433392Y00014601*
X00435586Y00013335*
X00438032Y00012679*
X00440565*
X00443012Y00013335*
X00445206Y00014601*
X00446997Y00016392*
X00448263Y00018586*
X00448919Y00021032*
Y00023566*
X00448263Y00026012*
X00446997Y00028206*
X00445206Y00029997*
X00443012Y00031263*
X00440565Y00031919*
G37*
G36*
X00389766D02*
X00387233D01*
X00384786Y00031263*
X00382592Y00029997*
X00380801Y00028206*
X00379535Y00026012*
X00378879Y00023566*
Y00021032*
X00379535Y00018586*
X00380801Y00016392*
X00382592Y00014601*
X00384786Y00013335*
X00387233Y00012679*
X00389766*
X00392212Y00013335*
X00394406Y00014601*
X00396197Y00016392*
X00397463Y00018586*
X00398119Y00021032*
Y00023566*
X00397463Y00026012*
X00396197Y00028206*
X00394406Y00029997*
X00392212Y00031263*
X00389766Y00031919*
G37*
G36*
X00135765D02*
X00133232D01*
X00130786Y00031263*
X00128592Y00029997*
X00126801Y00028206*
X00125535Y00026012*
X00124879Y00023566*
Y00021032*
X00125535Y00018586*
X00126801Y00016392*
X00128592Y00014601*
X00130786Y00013335*
X00133232Y00012679*
X00135765*
X00138212Y00013335*
X00140406Y00014601*
X00142197Y00016392*
X00143463Y00018586*
X00144119Y00021032*
Y00023566*
X00143463Y00026012*
X00142197Y00028206*
X00140406Y00029997*
X00138212Y00031263*
X00135765Y00031919*
G37*
G36*
X00110365D02*
X00107832D01*
X00105386Y00031263*
X00103192Y00029997*
X00101401Y00028206*
X00100135Y00026012*
X00099479Y00023566*
Y00021032*
X00100135Y00018586*
X00101401Y00016392*
X00103192Y00014601*
X00105386Y00013335*
X00107832Y00012679*
X00110365*
X00112812Y00013335*
X00115006Y00014601*
X00116797Y00016392*
X00118063Y00018586*
X00118719Y00021032*
Y00023566*
X00118063Y00026012*
X00116797Y00028206*
X00115006Y00029997*
X00112812Y00031263*
X00110365Y00031919*
G37*
G36*
X00084965D02*
X00082433D01*
X00079986Y00031263*
X00077792Y00029997*
X00076001Y00028206*
X00074735Y00026012*
X00074079Y00023566*
Y00021032*
X00074735Y00018586*
X00076001Y00016392*
X00077792Y00014601*
X00079986Y00013335*
X00082433Y00012679*
X00084965*
X00087412Y00013335*
X00089606Y00014601*
X00091397Y00016392*
X00092663Y00018586*
X00093319Y00021032*
Y00023566*
X00092663Y00026012*
X00091397Y00028206*
X00089606Y00029997*
X00087412Y00031263*
X00084965Y00031919*
G37*
G36*
X00525659Y00021029D02*
X00516769D01*
Y00012139*
X00516837*
X00519421Y00012831*
X00521737Y00014169*
X00523629Y00016061*
X00524967Y00018377*
X00525659Y00020961*
Y00021029*
G37*
G36*
X00514229D02*
X00505339D01*
Y00020961*
X00506031Y00018377*
X00507369Y00016061*
X00509261Y00014169*
X00511577Y00012831*
X00514161Y00012139*
X00514229*
Y00021029*
G37*
G36*
X00424059D02*
X00415169D01*
Y00012139*
X00415237*
X00417821Y00012831*
X00420137Y00014169*
X00422029Y00016061*
X00423367Y00018377*
X00424059Y00020961*
Y00021029*
G37*
G36*
X00412629D02*
X00403739D01*
Y00020961*
X00404431Y00018377*
X00405769Y00016061*
X00407661Y00014169*
X00409977Y00012831*
X00412561Y00012139*
X00412629*
Y00021029*
G37*
G36*
X00347859D02*
X00338969D01*
Y00012139*
X00339037*
X00341621Y00012831*
X00343937Y00014169*
X00345829Y00016061*
X00347167Y00018377*
X00347859Y00020961*
Y00021029*
G37*
G36*
X00336429D02*
X00327539D01*
Y00020961*
X00328231Y00018377*
X00329569Y00016061*
X00331461Y00014169*
X00333777Y00012831*
X00336361Y00012139*
X00336429*
Y00021029*
G37*
G36*
X00220859D02*
X00211969D01*
Y00012139*
X00212037*
X00214621Y00012831*
X00216937Y00014169*
X00218829Y00016061*
X00220167Y00018377*
X00220859Y00020961*
Y00021029*
G37*
G36*
X00209429D02*
X00200539D01*
Y00020961*
X00201231Y00018377*
X00202569Y00016061*
X00204461Y00014169*
X00206777Y00012831*
X00209361Y00012139*
X00209429*
Y00021029*
G37*
G36*
X00170059D02*
X00161169D01*
Y00012139*
X00161237*
X00163821Y00012831*
X00166137Y00014169*
X00168029Y00016061*
X00169367Y00018377*
X00170059Y00020961*
Y00021029*
G37*
G36*
X00158629D02*
X00149739D01*
Y00020961*
X00150431Y00018377*
X00151769Y00016061*
X00153661Y00014169*
X00155977Y00012831*
X00158561Y00012139*
X00158629*
Y00021029*
G37*
%LNdr_0n-3*%
%LPD*%
G36*
X00533459Y00169499D02*
X00544499D01*
Y00168499*
X00545499*
Y00162959*
X00545513*
Y00161539*
X00545499*
Y00155999*
X00544499*
Y00154999*
X00533459*
Y00153995*
X00529453*
X0052883Y00154253*
X00527139*
X00526516Y00153995*
X00521253*
X00520249Y00154999*
Y00169749*
X00521008Y00170508*
X00533459*
Y00169499*
G37*
%LNdr_0n-4*%
%LPC*%
G36*
X00543499Y00167499D02*
X00533459D01*
Y00162959*
X00543499*
Y00167499*
G37*
G36*
Y00161539D02*
X00533459D01*
Y00156999*
X00543499*
Y00161539*
G37*
G36*
X00166187Y00553939D02*
X00166069D01*
Y00544669*
X00175339*
Y00544787*
X00174621Y00547468*
X00173233Y00549871*
X00171271Y00551833*
X00168867Y00553221*
X00166187Y00553939*
G37*
G36*
X00140787D02*
X00140669D01*
Y00544669*
X00149939*
Y00544787*
X00149221Y00547468*
X00147833Y00549871*
X00145871Y00551833*
X00143467Y00553221*
X00140787Y00553939*
G37*
G36*
X00115387D02*
X00115269D01*
Y00544669*
X00124539*
Y00544787*
X00123821Y00547468*
X00122433Y00549871*
X00120471Y00551833*
X00118067Y00553221*
X00115387Y00553939*
G37*
G36*
X00163529D02*
X00163411D01*
X00160731Y00553221*
X00158327Y00551833*
X00156365Y00549871*
X00154977Y00547468*
X00154259Y00544787*
Y00544669*
X00163529*
Y00553939*
G37*
G36*
X00138129D02*
X00138011D01*
X00135331Y00553221*
X00132927Y00551833*
X00130965Y00549871*
X00129577Y00547468*
X00128859Y00544787*
Y00544669*
X00138129*
Y00553939*
G37*
G36*
X00112729D02*
X00112611D01*
X00109931Y00553221*
X00107527Y00551833*
X00105565Y00549871*
X00104177Y00547468*
X00103459Y00544787*
Y00544669*
X00112729*
Y00553939*
G37*
G36*
X00175339Y00542129D02*
X00166069D01*
Y00532859*
X00166187*
X00168867Y00533578*
X00171271Y00534965*
X00173233Y00536927*
X00174621Y00539331*
X00175339Y00542012*
Y00542129*
G37*
G36*
X00163529D02*
X00154259D01*
Y00542012*
X00154977Y00539331*
X00156365Y00536927*
X00158327Y00534965*
X00160731Y00533578*
X00163411Y00532859*
X00163529*
Y00542129*
G37*
G36*
X00149939D02*
X00140669D01*
Y00532859*
X00140787*
X00143467Y00533578*
X00145871Y00534965*
X00147833Y00536927*
X00149221Y00539331*
X00149939Y00542012*
Y00542129*
G37*
G36*
X00138129D02*
X00128859D01*
Y00542012*
X00129577Y00539331*
X00130965Y00536927*
X00132927Y00534965*
X00135331Y00533578*
X00138011Y00532859*
X00138129*
Y00542129*
G37*
G36*
X00124539D02*
X00115269D01*
Y00532859*
X00115387*
X00118067Y00533578*
X00120471Y00534965*
X00122433Y00536927*
X00123821Y00539331*
X00124539Y00542012*
Y00542129*
G37*
G36*
X00112729D02*
X00103459D01*
Y00542012*
X00104177Y00539331*
X00105565Y00536927*
X00107527Y00534965*
X00109931Y00533578*
X00112611Y00532859*
X00112729*
Y00542129*
G37*
G36*
X00166116Y00527999D02*
X00163483D01*
X00160939Y00527318*
X00158659Y00526001*
X00156797Y00524139*
X00155481Y00521859*
X00154799Y00519316*
Y00516683*
X00155481Y00514139*
X00156797Y00511859*
X00158659Y00509997*
X00160939Y00508681*
X00163483Y00508*
X00166116*
X00168659Y00508681*
X00170939Y00509997*
X00172801Y00511859*
X00174117Y00514139*
X00174799Y00516683*
Y00519316*
X00174117Y00521859*
X00172801Y00524139*
X00170939Y00526001*
X00168659Y00527318*
X00166116Y00527999*
G37*
G36*
X00140716D02*
X00138082D01*
X00135539Y00527318*
X00133259Y00526001*
X00131397Y00524139*
X00130081Y00521859*
X00129399Y00519316*
Y00516683*
X00130081Y00514139*
X00131397Y00511859*
X00133259Y00509997*
X00135539Y00508681*
X00138082Y00508*
X00140716*
X00143259Y00508681*
X00145539Y00509997*
X00147401Y00511859*
X00148718Y00514139*
X00149399Y00516683*
Y00519316*
X00148718Y00521859*
X00147401Y00524139*
X00145539Y00526001*
X00143259Y00527318*
X00140716Y00527999*
G37*
G36*
X00115316D02*
X00112682D01*
X00110139Y00527318*
X00107859Y00526001*
X00105997Y00524139*
X00104681Y00521859*
X00103999Y00519316*
Y00516683*
X00104681Y00514139*
X00105997Y00511859*
X00107859Y00509997*
X00110139Y00508681*
X00112682Y00508*
X00115316*
X00117859Y00508681*
X00120139Y00509997*
X00122001Y00511859*
X00123318Y00514139*
X00123999Y00516683*
Y00519316*
X00123318Y00521859*
X00122001Y00524139*
X00120139Y00526001*
X00117859Y00527318*
X00115316Y00527999*
G37*
G36*
X00140787Y00503139D02*
X00140669D01*
Y00493869*
X00149939*
Y00493987*
X00149221Y00496668*
X00147833Y00499071*
X00145871Y00501033*
X00143467Y00502421*
X00140787Y00503139*
G37*
G36*
X00138129D02*
X00138011D01*
X00135331Y00502421*
X00132927Y00501033*
X00130965Y00499071*
X00129577Y00496668*
X00128859Y00493987*
Y00493869*
X00138129*
Y00503139*
G37*
G36*
X00166116Y00502599D02*
X00163483D01*
X00160939Y00501918*
X00158659Y00500601*
X00156797Y00498739*
X00155481Y00496459*
X00154799Y00493916*
Y00491283*
X00155481Y00488739*
X00156797Y00486459*
X00158659Y00484597*
X00160939Y00483281*
X00163483Y004826*
X00166116*
X00168659Y00483281*
X00170939Y00484597*
X00172801Y00486459*
X00174117Y00488739*
X00174799Y00491283*
Y00493916*
X00174117Y00496459*
X00172801Y00498739*
X00170939Y00500601*
X00168659Y00501918*
X00166116Y00502599*
G37*
G36*
X00115316D02*
X00112682D01*
X00110139Y00501918*
X00107859Y00500601*
X00105997Y00498739*
X00104681Y00496459*
X00103999Y00493916*
Y00491283*
X00104681Y00488739*
X00105997Y00486459*
X00107859Y00484597*
X00110139Y00483281*
X00112682Y004826*
X00115316*
X00117859Y00483281*
X00120139Y00484597*
X00122001Y00486459*
X00123318Y00488739*
X00123999Y00491283*
Y00493916*
X00123318Y00496459*
X00122001Y00498739*
X00120139Y00500601*
X00117859Y00501918*
X00115316Y00502599*
G37*
G36*
X00149939Y00491329D02*
X00140669D01*
Y00482059*
X00140787*
X00143467Y00482778*
X00145871Y00484165*
X00147833Y00486128*
X00149221Y00488531*
X00149939Y00491212*
Y00491329*
G37*
G36*
X00138129D02*
X00128859D01*
Y00491212*
X00129577Y00488531*
X00130965Y00486128*
X00132927Y00484165*
X00135331Y00482778*
X00138011Y00482059*
X00138129*
Y00491329*
G37*
G36*
X00015954Y00480889D02*
X00015869D01*
Y00471869*
X00024889*
Y00471954*
X00024188Y00474571*
X00022833Y00476917*
X00020917Y00478833*
X00018571Y00480188*
X00015954Y00480889*
G37*
G36*
X00013329D02*
X00013245D01*
X00010627Y00480188*
X00008281Y00478833*
X00006365Y00476917*
X00005011Y00474571*
X00004309Y00471954*
Y00471869*
X00013329*
Y00480889*
G37*
G36*
X00041283Y00480349D02*
X00038716D01*
X00036236Y00479684*
X00034013Y00478401*
X00032197Y00476585*
X00030914Y00474362*
X00030249Y00471883*
Y00469315*
X00030914Y00466836*
X00032197Y00464612*
X00034013Y00462797*
X00036236Y00461513*
X00038716Y00460849*
X00041283*
X00043763Y00461513*
X00045986Y00462797*
X00047801Y00464612*
X00049085Y00466836*
X00049749Y00469315*
Y00471883*
X00049085Y00474362*
X00047801Y00476585*
X00045986Y00478401*
X00043763Y00479684*
X00041283Y00480349*
G37*
G36*
X00024889Y00469329D02*
X00015869D01*
Y00460309*
X00015954*
X00018571Y0046101*
X00020917Y00462365*
X00022833Y00464281*
X00024188Y00466627*
X00024889Y00469244*
Y00469329*
G37*
G36*
X00013329D02*
X00004309D01*
Y00469244*
X00005011Y00466627*
X00006365Y00464281*
X00008281Y00462365*
X00010627Y0046101*
X00013245Y00460309*
X00013329*
Y00469329*
G37*
G36*
X00015954Y00455489D02*
X00015869D01*
Y00446469*
X00024889*
Y00446554*
X00024188Y00449171*
X00022833Y00451517*
X00020917Y00453433*
X00018571Y00454788*
X00015954Y00455489*
G37*
G36*
X00013329D02*
X00013245D01*
X00010627Y00454788*
X00008281Y00453433*
X00006365Y00451517*
X00005011Y00449171*
X00004309Y00446554*
Y00446469*
X00013329*
Y00455489*
G37*
G36*
X00041283Y00454949D02*
X00038716D01*
X00036236Y00454284*
X00034013Y00453001*
X00032197Y00451185*
X00030914Y00448962*
X00030249Y00446482*
Y00443915*
X00030914Y00441436*
X00032197Y00439212*
X00034013Y00437397*
X00036236Y00436113*
X00038716Y00435449*
X00041283*
X00043763Y00436113*
X00045986Y00437397*
X00047801Y00439212*
X00049085Y00441436*
X00049749Y00443915*
Y00446482*
X00049085Y00448962*
X00047801Y00451185*
X00045986Y00453001*
X00043763Y00454284*
X00041283Y00454949*
G37*
G36*
X00024889Y00443929D02*
X00015869D01*
Y00434909*
X00015954*
X00018571Y0043561*
X00020917Y00436965*
X00022833Y00438881*
X00024188Y00441227*
X00024889Y00443844*
Y00443929*
G37*
G36*
X00013329D02*
X00004309D01*
Y00443844*
X00005011Y00441227*
X00006365Y00438881*
X00008281Y00436965*
X00010627Y0043561*
X00013245Y00434909*
X00013329*
Y00443929*
G37*
G36*
X00015954Y00430089D02*
X00015869D01*
Y00421069*
X00024889*
Y00421154*
X00024188Y00423771*
X00022833Y00426117*
X00020917Y00428033*
X00018571Y00429388*
X00015954Y00430089*
G37*
G36*
X00013329D02*
X00013245D01*
X00010627Y00429388*
X00008281Y00428033*
X00006365Y00426117*
X00005011Y00423771*
X00004309Y00421154*
Y00421069*
X00013329*
Y00430089*
G37*
G36*
X00041283Y00429549D02*
X00038716D01*
X00036236Y00428884*
X00034013Y00427601*
X00032197Y00425786*
X00030914Y00423562*
X00030249Y00421082*
Y00418515*
X00030914Y00416035*
X00032197Y00413812*
X00034013Y00411997*
X00036236Y00410713*
X00038716Y00410049*
X00041283*
X00043763Y00410713*
X00045986Y00411997*
X00047801Y00413812*
X00049085Y00416035*
X00049749Y00418515*
Y00421082*
X00049085Y00423562*
X00047801Y00425786*
X00045986Y00427601*
X00043763Y00428884*
X00041283Y00429549*
G37*
G36*
X00024889Y00418529D02*
X00015869D01*
Y00409509*
X00015954*
X00018571Y0041021*
X00020917Y00411565*
X00022833Y00413481*
X00024188Y00415827*
X00024889Y00418444*
Y00418529*
G37*
G36*
X00013329D02*
X00004309D01*
Y00418444*
X00005011Y00415827*
X00006365Y00413481*
X00008281Y00411565*
X00010627Y0041021*
X00013245Y00409509*
X00013329*
Y00418529*
G37*
G36*
X00015954Y00404689D02*
X00015869D01*
Y00395669*
X00024889*
Y00395754*
X00024188Y00398371*
X00022833Y00400717*
X00020917Y00402633*
X00018571Y00403988*
X00015954Y00404689*
G37*
G36*
X00013329D02*
X00013245D01*
X00010627Y00403988*
X00008281Y00402633*
X00006365Y00400717*
X00005011Y00398371*
X00004309Y00395754*
Y00395669*
X00013329*
Y00404689*
G37*
G36*
X00041283Y00404149D02*
X00038716D01*
X00036236Y00403484*
X00034013Y00402201*
X00032197Y00400386*
X00030914Y00398162*
X00030249Y00395683*
Y00393115*
X00030914Y00390635*
X00032197Y00388412*
X00034013Y00386597*
X00036236Y00385313*
X00038716Y00384649*
X00041283*
X00043763Y00385313*
X00045986Y00386597*
X00047801Y00388412*
X00049085Y00390635*
X00049749Y00393115*
Y00395683*
X00049085Y00398162*
X00047801Y00400386*
X00045986Y00402201*
X00043763Y00403484*
X00041283Y00404149*
G37*
G36*
X00024889Y00393129D02*
X00015869D01*
Y00384109*
X00015954*
X00018571Y0038481*
X00020917Y00386165*
X00022833Y00388081*
X00024188Y00390427*
X00024889Y00393044*
Y00393129*
G37*
G36*
X00013329D02*
X00004309D01*
Y00393044*
X00005011Y00390427*
X00006365Y00388081*
X00008281Y00386165*
X00010627Y0038481*
X00013245Y00384109*
X00013329*
Y00393129*
G37*
G36*
X00015954Y00379289D02*
X00015869D01*
Y00370269*
X00024889*
Y00370354*
X00024188Y00372971*
X00022833Y00375317*
X00020917Y00377233*
X00018571Y00378588*
X00015954Y00379289*
G37*
G36*
X00013329D02*
X00013245D01*
X00010627Y00378588*
X00008281Y00377233*
X00006365Y00375317*
X00005011Y00372971*
X00004309Y00370354*
Y00370269*
X00013329*
Y00379289*
G37*
G36*
X00041283Y00378749D02*
X00038716D01*
X00036236Y00378084*
X00034013Y00376801*
X00032197Y00374985*
X00030914Y00372762*
X00030249Y00370283*
Y00367715*
X00030914Y00365236*
X00032197Y00363012*
X00034013Y00361197*
X00036236Y00359913*
X00038716Y00359249*
X00041283*
X00043763Y00359913*
X00045986Y00361197*
X00047801Y00363012*
X00049085Y00365236*
X00049749Y00367715*
Y00370283*
X00049085Y00372762*
X00047801Y00374985*
X00045986Y00376801*
X00043763Y00378084*
X00041283Y00378749*
G37*
G36*
X00024889Y00367729D02*
X00015869D01*
Y00358709*
X00015954*
X00018571Y0035941*
X00020917Y00360765*
X00022833Y00362681*
X00024188Y00365027*
X00024889Y00367644*
Y00367729*
G37*
G36*
X00013329D02*
X00004309D01*
Y00367644*
X00005011Y00365027*
X00006365Y00362681*
X00008281Y00360765*
X00010627Y0035941*
X00013245Y00358709*
X00013329*
Y00367729*
G37*
G36*
X00015954Y00353889D02*
X00015869D01*
Y00344869*
X00024889*
Y00344954*
X00024188Y00347571*
X00022833Y00349917*
X00020917Y00351833*
X00018571Y00353188*
X00015954Y00353889*
G37*
G36*
X00013329D02*
X00013245D01*
X00010627Y00353188*
X00008281Y00351833*
X00006365Y00349917*
X00005011Y00347571*
X00004309Y00344954*
Y00344869*
X00013329*
Y00353889*
G37*
G36*
X00041283Y00353349D02*
X00038716D01*
X00036236Y00352684*
X00034013Y00351401*
X00032197Y00349585*
X00030914Y00347362*
X00030249Y00344882*
Y00342315*
X00030914Y00339836*
X00032197Y00337612*
X00034013Y00335797*
X00036236Y00334513*
X00038716Y00333849*
X00041283*
X00043763Y00334513*
X00045986Y00335797*
X00047801Y00337612*
X00049085Y00339836*
X00049749Y00342315*
Y00344882*
X00049085Y00347362*
X00047801Y00349585*
X00045986Y00351401*
X00043763Y00352684*
X00041283Y00353349*
G37*
G36*
X00024889Y00342329D02*
X00015869D01*
Y00333309*
X00015954*
X00018571Y0033401*
X00020917Y00335365*
X00022833Y00337281*
X00024188Y00339627*
X00024889Y00342244*
Y00342329*
G37*
G36*
X00013329D02*
X00004309D01*
Y00342244*
X00005011Y00339627*
X00006365Y00337281*
X00008281Y00335365*
X00010627Y0033401*
X00013245Y00333309*
X00013329*
Y00342329*
G37*
G36*
X00015954Y00328489D02*
X00015869D01*
Y00319469*
X00024889*
Y00319554*
X00024188Y00322171*
X00022833Y00324517*
X00020917Y00326433*
X00018571Y00327788*
X00015954Y00328489*
G37*
G36*
X00013329D02*
X00013245D01*
X00010627Y00327788*
X00008281Y00326433*
X00006365Y00324517*
X00005011Y00322171*
X00004309Y00319554*
Y00319469*
X00013329*
Y00328489*
G37*
G36*
X00041283Y00327949D02*
X00038716D01*
X00036236Y00327284*
X00034013Y00326001*
X00032197Y00324186*
X00030914Y00321962*
X00030249Y00319483*
Y00316915*
X00030914Y00314435*
X00032197Y00312212*
X00034013Y00310397*
X00036236Y00309113*
X00038716Y00308449*
X00041283*
X00043763Y00309113*
X00045986Y00310397*
X00047801Y00312212*
X00049085Y00314435*
X00049749Y00316915*
Y00319483*
X00049085Y00321962*
X00047801Y00324186*
X00045986Y00326001*
X00043763Y00327284*
X00041283Y00327949*
G37*
G36*
X00024889Y00316929D02*
X00015869D01*
Y00307909*
X00015954*
X00018571Y0030861*
X00020917Y00309965*
X00022833Y00311881*
X00024188Y00314227*
X00024889Y00316844*
Y00316929*
G37*
G36*
X00013329D02*
X00004309D01*
Y00316844*
X00005011Y00314227*
X00006365Y00311881*
X00008281Y00309965*
X00010627Y0030861*
X00013245Y00307909*
X00013329*
Y00316929*
G37*
G36*
X00015954Y00303089D02*
X00015869D01*
Y00294069*
X00024889*
Y00294154*
X00024188Y00296771*
X00022833Y00299117*
X00020917Y00301033*
X00018571Y00302388*
X00015954Y00303089*
G37*
G36*
X00013329D02*
X00013245D01*
X00010627Y00302388*
X00008281Y00301033*
X00006365Y00299117*
X00005011Y00296771*
X00004309Y00294154*
Y00294069*
X00013329*
Y00303089*
G37*
G36*
X00041283Y00302549D02*
X00038716D01*
X00036236Y00301884*
X00034013Y00300601*
X00032197Y00298786*
X00030914Y00296562*
X00030249Y00294082*
Y00291515*
X00030914Y00289036*
X00032197Y00286812*
X00034013Y00284997*
X00036236Y00283713*
X00038716Y00283049*
X00041283*
X00043763Y00283713*
X00045986Y00284997*
X00047801Y00286812*
X00049085Y00289036*
X00049749Y00291515*
Y00294082*
X00049085Y00296562*
X00047801Y00298786*
X00045986Y00300601*
X00043763Y00301884*
X00041283Y00302549*
G37*
G36*
X00024889Y00291529D02*
X00015869D01*
Y00282509*
X00015954*
X00018571Y0028321*
X00020917Y00284565*
X00022833Y00286481*
X00024188Y00288827*
X00024889Y00291444*
Y00291529*
G37*
G36*
X00013329D02*
X00004309D01*
Y00291444*
X00005011Y00288827*
X00006365Y00286481*
X00008281Y00284565*
X00010627Y0028321*
X00013245Y00282509*
X00013329*
Y00291529*
G37*
G36*
X00015954Y00277689D02*
X00015869D01*
Y00268669*
X00024889*
Y00268754*
X00024188Y00271371*
X00022833Y00273717*
X00020917Y00275633*
X00018571Y00276988*
X00015954Y00277689*
G37*
G36*
X00013329D02*
X00013245D01*
X00010627Y00276988*
X00008281Y00275633*
X00006365Y00273717*
X00005011Y00271371*
X00004309Y00268754*
Y00268669*
X00013329*
Y00277689*
G37*
G36*
X00066683Y00277149D02*
X00064116D01*
X00061636Y00276484*
X00059413Y00275201*
X00057597Y00273385*
X00056314Y00271162*
X00055649Y00268682*
Y00266115*
X00056314Y00263635*
X00057597Y00261412*
X00059413Y00259597*
X00061636Y00258313*
X00064116Y00257649*
X00066683*
X00069163Y00258313*
X00071386Y00259597*
X00073201Y00261412*
X00074485Y00263635*
X00075149Y00266115*
Y00268682*
X00074485Y00271162*
X00073201Y00273385*
X00071386Y00275201*
X00069163Y00276484*
X00066683Y00277149*
G37*
G36*
X00041283D02*
X00038716D01*
X00036236Y00276484*
X00034013Y00275201*
X00032197Y00273385*
X00030914Y00271162*
X00030249Y00268682*
Y00266115*
X00030914Y00263635*
X00032197Y00261412*
X00034013Y00259597*
X00036236Y00258313*
X00038716Y00257649*
X00041283*
X00043763Y00258313*
X00045986Y00259597*
X00047801Y00261412*
X00049085Y00263635*
X00049749Y00266115*
Y00268682*
X00049085Y00271162*
X00047801Y00273385*
X00045986Y00275201*
X00043763Y00276484*
X00041283Y00277149*
G37*
G36*
X00024889Y00266129D02*
X00015869D01*
Y00257109*
X00015954*
X00018571Y0025781*
X00020917Y00259165*
X00022833Y00261081*
X00024188Y00263427*
X00024889Y00266044*
Y00266129*
G37*
G36*
X00013329D02*
X00004309D01*
Y00266044*
X00005011Y00263427*
X00006365Y00261081*
X00008281Y00259165*
X00010627Y0025781*
X00013245Y00257109*
X00013329*
Y00266129*
G37*
G36*
X00015954Y00252289D02*
X00015869D01*
Y00243269*
X00024889*
Y00243354*
X00024188Y00245971*
X00022833Y00248317*
X00020917Y00250233*
X00018571Y00251588*
X00015954Y00252289*
G37*
G36*
X00013329D02*
X00013245D01*
X00010627Y00251588*
X00008281Y00250233*
X00006365Y00248317*
X00005011Y00245971*
X00004309Y00243354*
Y00243269*
X00013329*
Y00252289*
G37*
G36*
X00066683Y00251749D02*
X00064116D01*
X00061636Y00251084*
X00059413Y00249801*
X00057597Y00247986*
X00056314Y00245762*
X00055649Y00243283*
Y00240715*
X00056314Y00238236*
X00057597Y00236012*
X00059413Y00234197*
X00061636Y00232913*
X00064116Y00232249*
X00066683*
X00069163Y00232913*
X00071386Y00234197*
X00073201Y00236012*
X00074485Y00238236*
X00075149Y00240715*
Y00243283*
X00074485Y00245762*
X00073201Y00247986*
X00071386Y00249801*
X00069163Y00251084*
X00066683Y00251749*
G37*
G36*
X00041283D02*
X00038716D01*
X00036236Y00251084*
X00034013Y00249801*
X00032197Y00247986*
X00030914Y00245762*
X00030249Y00243283*
Y00240715*
X00030914Y00238236*
X00032197Y00236012*
X00034013Y00234197*
X00036236Y00232913*
X00038716Y00232249*
X00041283*
X00043763Y00232913*
X00045986Y00234197*
X00047801Y00236012*
X00049085Y00238236*
X00049749Y00240715*
Y00243283*
X00049085Y00245762*
X00047801Y00247986*
X00045986Y00249801*
X00043763Y00251084*
X00041283Y00251749*
G37*
G36*
X00024889Y00240729D02*
X00015869D01*
Y00231709*
X00015954*
X00018571Y0023241*
X00020917Y00233765*
X00022833Y00235681*
X00024188Y00238027*
X00024889Y00240644*
Y00240729*
G37*
G36*
X00013329D02*
X00004309D01*
Y00240644*
X00005011Y00238027*
X00006365Y00235681*
X00008281Y00233765*
X00010627Y0023241*
X00013245Y00231709*
X00013329*
Y00240729*
G37*
G36*
X00015954Y00226889D02*
X00015869D01*
Y00217869*
X00024889*
Y00217954*
X00024188Y00220571*
X00022833Y00222917*
X00020917Y00224833*
X00018571Y00226188*
X00015954Y00226889*
G37*
G36*
X00013329D02*
X00013245D01*
X00010627Y00226188*
X00008281Y00224833*
X00006365Y00222917*
X00005011Y00220571*
X00004309Y00217954*
Y00217869*
X00013329*
Y00226889*
G37*
G36*
X00066683Y00226349D02*
X00064116D01*
X00061636Y00225684*
X00059413Y00224401*
X00057597Y00222585*
X00056314Y00220362*
X00055649Y00217882*
Y00215315*
X00056314Y00212835*
X00057597Y00210612*
X00059413Y00208797*
X00061636Y00207513*
X00064116Y00206849*
X00066683*
X00069163Y00207513*
X00071386Y00208797*
X00073201Y00210612*
X00074485Y00212835*
X00075149Y00215315*
Y00217882*
X00074485Y00220362*
X00073201Y00222585*
X00071386Y00224401*
X00069163Y00225684*
X00066683Y00226349*
G37*
G36*
X00041283D02*
X00038716D01*
X00036236Y00225684*
X00034013Y00224401*
X00032197Y00222585*
X00030914Y00220362*
X00030249Y00217882*
Y00215315*
X00030914Y00212835*
X00032197Y00210612*
X00034013Y00208797*
X00036236Y00207513*
X00038716Y00206849*
X00041283*
X00043763Y00207513*
X00045986Y00208797*
X00047801Y00210612*
X00049085Y00212835*
X00049749Y00215315*
Y00217882*
X00049085Y00220362*
X00047801Y00222585*
X00045986Y00224401*
X00043763Y00225684*
X00041283Y00226349*
G37*
G36*
X00024889Y00215329D02*
X00015869D01*
Y00206309*
X00015954*
X00018571Y0020701*
X00020917Y00208365*
X00022833Y00210281*
X00024188Y00212627*
X00024889Y00215244*
Y00215329*
G37*
G36*
X00013329D02*
X00004309D01*
Y00215244*
X00005011Y00212627*
X00006365Y00210281*
X00008281Y00208365*
X00010627Y0020701*
X00013245Y00206309*
X00013329*
Y00215329*
G37*
G36*
X00015954Y00201489D02*
X00015869D01*
Y00192469*
X00024889*
Y00192554*
X00024188Y00195171*
X00022833Y00197517*
X00020917Y00199433*
X00018571Y00200788*
X00015954Y00201489*
G37*
G36*
X00013329D02*
X00013245D01*
X00010627Y00200788*
X00008281Y00199433*
X00006365Y00197517*
X00005011Y00195171*
X00004309Y00192554*
Y00192469*
X00013329*
Y00201489*
G37*
G36*
X00066683Y00200949D02*
X00064116D01*
X00061636Y00200284*
X00059413Y00199001*
X00057597Y00197186*
X00056314Y00194962*
X00055649Y00192483*
Y00189915*
X00056314Y00187436*
X00057597Y00185212*
X00059413Y00183397*
X00061636Y00182113*
X00064116Y00181449*
X00066683*
X00069163Y00182113*
X00071386Y00183397*
X00073201Y00185212*
X00074485Y00187436*
X00075149Y00189915*
Y00192483*
X00074485Y00194962*
X00073201Y00197186*
X00071386Y00199001*
X00069163Y00200284*
X00066683Y00200949*
G37*
G36*
X00041283D02*
X00038716D01*
X00036236Y00200284*
X00034013Y00199001*
X00032197Y00197186*
X00030914Y00194962*
X00030249Y00192483*
Y00189915*
X00030914Y00187436*
X00032197Y00185212*
X00034013Y00183397*
X00036236Y00182113*
X00038716Y00181449*
X00041283*
X00043763Y00182113*
X00045986Y00183397*
X00047801Y00185212*
X00049085Y00187436*
X00049749Y00189915*
Y00192483*
X00049085Y00194962*
X00047801Y00197186*
X00045986Y00199001*
X00043763Y00200284*
X00041283Y00200949*
G37*
G36*
X00024889Y00189929D02*
X00015869D01*
Y00180909*
X00015954*
X00018571Y0018161*
X00020917Y00182965*
X00022833Y00184881*
X00024188Y00187227*
X00024889Y00189844*
Y00189929*
G37*
G36*
X00013329D02*
X00004309D01*
Y00189844*
X00005011Y00187227*
X00006365Y00184881*
X00008281Y00182965*
X00010627Y0018161*
X00013245Y00180909*
X00013329*
Y00189929*
G37*
G36*
X00015954Y00176089D02*
X00015869D01*
Y00167069*
X00024889*
Y00167154*
X00024188Y00169771*
X00022833Y00172117*
X00020917Y00174033*
X00018571Y00175388*
X00015954Y00176089*
G37*
G36*
X00013329D02*
X00013245D01*
X00010627Y00175388*
X00008281Y00174033*
X00006365Y00172117*
X00005011Y00169771*
X00004309Y00167154*
Y00167069*
X00013329*
Y00176089*
G37*
G36*
X00066683Y00175549D02*
X00064116D01*
X00061636Y00174884*
X00059413Y00173601*
X00057597Y00171785*
X00056314Y00169562*
X00055649Y00167082*
Y00164515*
X00056314Y00162035*
X00057597Y00159812*
X00059413Y00157997*
X00061636Y00156713*
X00064116Y00156049*
X00066683*
X00069163Y00156713*
X00071386Y00157997*
X00073201Y00159812*
X00074485Y00162035*
X00075149Y00164515*
Y00167082*
X00074485Y00169562*
X00073201Y00171785*
X00071386Y00173601*
X00069163Y00174884*
X00066683Y00175549*
G37*
G36*
X00041283D02*
X00038716D01*
X00036236Y00174884*
X00034013Y00173601*
X00032197Y00171785*
X00030914Y00169562*
X00030249Y00167082*
Y00164515*
X00030914Y00162035*
X00032197Y00159812*
X00034013Y00157997*
X00036236Y00156713*
X00038716Y00156049*
X00041283*
X00043763Y00156713*
X00045986Y00157997*
X00047801Y00159812*
X00049085Y00162035*
X00049749Y00164515*
Y00167082*
X00049085Y00169562*
X00047801Y00171785*
X00045986Y00173601*
X00043763Y00174884*
X00041283Y00175549*
G37*
G36*
X00024889Y00164529D02*
X00015869D01*
Y00155509*
X00015954*
X00018571Y0015621*
X00020917Y00157565*
X00022833Y00159481*
X00024188Y00161827*
X00024889Y00164444*
Y00164529*
G37*
G36*
X00013329D02*
X00004309D01*
Y00164444*
X00005011Y00161827*
X00006365Y00159481*
X00008281Y00157565*
X00010627Y0015621*
X00013245Y00155509*
X00013329*
Y00164529*
G37*
G36*
X00015954Y00150689D02*
X00015869D01*
Y00141669*
X00024889*
Y00141754*
X00024188Y00144371*
X00022833Y00146717*
X00020917Y00148633*
X00018571Y00149988*
X00015954Y00150689*
G37*
G36*
X00013329D02*
X00013245D01*
X00010627Y00149988*
X00008281Y00148633*
X00006365Y00146717*
X00005011Y00144371*
X00004309Y00141754*
Y00141669*
X00013329*
Y00150689*
G37*
G36*
X00066683Y00150149D02*
X00064116D01*
X00061636Y00149484*
X00059413Y00148201*
X00057597Y00146385*
X00056314Y00144162*
X00055649Y00141683*
Y00139115*
X00056314Y00136635*
X00057597Y00134412*
X00059413Y00132597*
X00061636Y00131313*
X00064116Y00130649*
X00066683*
X00069163Y00131313*
X00071386Y00132597*
X00073201Y00134412*
X00074485Y00136635*
X00075149Y00139115*
Y00141683*
X00074485Y00144162*
X00073201Y00146385*
X00071386Y00148201*
X00069163Y00149484*
X00066683Y00150149*
G37*
G36*
X00041283D02*
X00038716D01*
X00036236Y00149484*
X00034013Y00148201*
X00032197Y00146385*
X00030914Y00144162*
X00030249Y00141683*
Y00139115*
X00030914Y00136635*
X00032197Y00134412*
X00034013Y00132597*
X00036236Y00131313*
X00038716Y00130649*
X00041283*
X00043763Y00131313*
X00045986Y00132597*
X00047801Y00134412*
X00049085Y00136635*
X00049749Y00139115*
Y00141683*
X00049085Y00144162*
X00047801Y00146385*
X00045986Y00148201*
X00043763Y00149484*
X00041283Y00150149*
G37*
G36*
X00024889Y00139129D02*
X00015869D01*
Y00130109*
X00015954*
X00018571Y0013081*
X00020917Y00132165*
X00022833Y00134081*
X00024188Y00136427*
X00024889Y00139044*
Y00139129*
G37*
G36*
X00013329D02*
X00004309D01*
Y00139044*
X00005011Y00136427*
X00006365Y00134081*
X00008281Y00132165*
X00010627Y0013081*
X00013245Y00130109*
X00013329*
Y00139129*
G37*
G36*
X00015954Y00125289D02*
X00015869D01*
Y00116269*
X00024889*
Y00116354*
X00024188Y00118971*
X00022833Y00121317*
X00020917Y00123233*
X00018571Y00124588*
X00015954Y00125289*
G37*
G36*
X00013329D02*
X00013245D01*
X00010627Y00124588*
X00008281Y00123233*
X00006365Y00121317*
X00005011Y00118971*
X00004309Y00116354*
Y00116269*
X00013329*
Y00125289*
G37*
G36*
X00066683Y00124749D02*
X00064116D01*
X00061636Y00124084*
X00059413Y00122801*
X00057597Y00120985*
X00056314Y00118762*
X00055649Y00116283*
Y00113715*
X00056314Y00111235*
X00057597Y00109012*
X00059413Y00107197*
X00061636Y00105913*
X00064116Y00105249*
X00066683*
X00069163Y00105913*
X00071386Y00107197*
X00073201Y00109012*
X00074485Y00111235*
X00075149Y00113715*
Y00116283*
X00074485Y00118762*
X00073201Y00120985*
X00071386Y00122801*
X00069163Y00124084*
X00066683Y00124749*
G37*
G36*
X00041283D02*
X00038716D01*
X00036236Y00124084*
X00034013Y00122801*
X00032197Y00120985*
X00030914Y00118762*
X00030249Y00116283*
Y00113715*
X00030914Y00111235*
X00032197Y00109012*
X00034013Y00107197*
X00036236Y00105913*
X00038716Y00105249*
X00041283*
X00043763Y00105913*
X00045986Y00107197*
X00047801Y00109012*
X00049085Y00111235*
X00049749Y00113715*
Y00116283*
X00049085Y00118762*
X00047801Y00120985*
X00045986Y00122801*
X00043763Y00124084*
X00041283Y00124749*
G37*
G36*
X00024889Y00113729D02*
X00015869D01*
Y00104709*
X00015954*
X00018571Y0010541*
X00020917Y00106765*
X00022833Y00108681*
X00024188Y00111027*
X00024889Y00113644*
Y00113729*
G37*
G36*
X00013329D02*
X00004309D01*
Y00113644*
X00005011Y00111027*
X00006365Y00108681*
X00008281Y00106765*
X00010627Y0010541*
X00013245Y00104709*
X00013329*
Y00113729*
G37*
G36*
X00015954Y00099889D02*
X00015869D01*
Y00090869*
X00024889*
Y00090954*
X00024188Y00093571*
X00022833Y00095917*
X00020917Y00097833*
X00018571Y00099188*
X00015954Y00099889*
G37*
G36*
X00013329D02*
X00013245D01*
X00010627Y00099188*
X00008281Y00097833*
X00006365Y00095917*
X00005011Y00093571*
X00004309Y00090954*
Y00090869*
X00013329*
Y00099889*
G37*
G36*
X00066683Y00099349D02*
X00064116D01*
X00061636Y00098684*
X00059413Y00097401*
X00057597Y00095586*
X00056314Y00093362*
X00055649Y00090883*
Y00088315*
X00056314Y00085835*
X00057597Y00083612*
X00059413Y00081797*
X00061636Y00080513*
X00064116Y00079849*
X00066683*
X00069163Y00080513*
X00071386Y00081797*
X00073201Y00083612*
X00074485Y00085835*
X00075149Y00088315*
Y00090883*
X00074485Y00093362*
X00073201Y00095586*
X00071386Y00097401*
X00069163Y00098684*
X00066683Y00099349*
G37*
G36*
X00041283D02*
X00038716D01*
X00036236Y00098684*
X00034013Y00097401*
X00032197Y00095586*
X00030914Y00093362*
X00030249Y00090883*
Y00088315*
X00030914Y00085835*
X00032197Y00083612*
X00034013Y00081797*
X00036236Y00080513*
X00038716Y00079849*
X00041283*
X00043763Y00080513*
X00045986Y00081797*
X00047801Y00083612*
X00049085Y00085835*
X00049749Y00088315*
Y00090883*
X00049085Y00093362*
X00047801Y00095586*
X00045986Y00097401*
X00043763Y00098684*
X00041283Y00099349*
G37*
G36*
X00024889Y00088329D02*
X00015869D01*
Y00079309*
X00015954*
X00018571Y0008001*
X00020917Y00081365*
X00022833Y00083281*
X00024188Y00085627*
X00024889Y00088244*
Y00088329*
G37*
G36*
X00013329D02*
X00004309D01*
Y00088244*
X00005011Y00085627*
X00006365Y00083281*
X00008281Y00081365*
X00010627Y0008001*
X00013245Y00079309*
X00013329*
Y00088329*
G37*
G36*
X00396999Y00551327D02*
X00392999D01*
X00391438Y00551017*
X00390115Y00550133*
X00389231Y0054881*
X00389131Y00548308*
X00386451*
X00385906Y00548852*
X00384344Y00549499*
X00382654*
X00381092Y00548852*
X00379896Y00547656*
X00379249Y00546094*
Y00544404*
X00379896Y00542842*
X00381092Y00541646*
X00382654Y00540999*
X00384344*
X00385906Y00541646*
X00386451Y0054219*
X00389131*
X00389231Y00541688*
X00390115Y00540365*
X00391438Y00539481*
X00392999Y00539171*
X00396999*
X0039856Y00539481*
X00399883Y00540365*
X00400767Y00541688*
X00401077Y00543249*
Y00547249*
X00400767Y0054881*
X00399883Y00550133*
X0039856Y00551017*
X00396999Y00551327*
G37*
G36*
X00540999Y00551878D02*
X00539999D01*
Y00546249*
X00545628*
Y00547249*
X00545276Y00549021*
X00544272Y00550522*
X0054277Y00551526*
X00540999Y00551878*
G37*
G36*
X00515999D02*
X00514999D01*
Y00546249*
X00520628*
Y00547249*
X00520276Y00549021*
X00519272Y00550522*
X0051777Y00551526*
X00515999Y00551878*
G37*
G36*
X00537999D02*
X00536999D01*
X00535228Y00551526*
X00533726Y00550522*
X00532722Y00549021*
X0053237Y00547249*
Y00546249*
X00537999*
Y00551878*
G37*
G36*
X00512999D02*
X00511999D01*
X00510228Y00551526*
X00508726Y00550522*
X00507722Y00549021*
X0050737Y00547249*
Y00546249*
X00512999*
Y00551878*
G37*
G36*
X00565999D02*
X00564999D01*
Y00546249*
X00570628*
Y00547249*
X00570276Y00549021*
X00569272Y00550522*
X0056777Y00551526*
X00565999Y00551878*
G37*
G36*
X00562999D02*
X00561999D01*
X00560228Y00551526*
X00558726Y00550522*
X00557723Y00549021*
X0055737Y00547249*
Y00546249*
X00562999*
Y00551878*
G37*
G36*
X00432587Y00552539D02*
X00432469D01*
Y00543269*
X00441739*
Y00543387*
X00441021Y00546067*
X00439633Y00548471*
X00437671Y00550433*
X00435267Y00551821*
X00432587Y00552539*
G37*
G36*
X00429929D02*
X00429811D01*
X00427131Y00551821*
X00424727Y00550433*
X00422765Y00548471*
X00421377Y00546067*
X00420659Y00543387*
Y00543269*
X00429929*
Y00552539*
G37*
G36*
X00503844Y00550249D02*
X00502154D01*
X00500592Y00549602*
X00499396Y00548406*
X00498749Y00546844*
Y00545154*
X00499396Y00543592*
X00500592Y00542396*
X00502154Y00541749*
X00503844*
X00505406Y00542396*
X00506603Y00543592*
X00507249Y00545154*
Y00546844*
X00506603Y00548406*
X00505406Y00549602*
X00503844Y00550249*
G37*
G36*
X00570628Y00544249D02*
X00564999D01*
Y0053862*
X00565999*
X0056777Y00538972*
X00569272Y00539976*
X00570276Y00541478*
X00570628Y00543249*
Y00544249*
G37*
G36*
X00562999D02*
X0055737D01*
Y00543249*
X00557723Y00541478*
X00558726Y00539976*
X00560228Y00538972*
X00561999Y0053862*
X00562999*
Y00544249*
G37*
G36*
X00545628D02*
X00539999D01*
Y0053862*
X00540999*
X0054277Y00538972*
X00544272Y00539976*
X00545276Y00541478*
X00545628Y00543249*
Y00544249*
G37*
G36*
X00537999D02*
X0053237D01*
Y00543249*
X00532722Y00541478*
X00533726Y00539976*
X00535228Y00538972*
X00536999Y0053862*
X00537999*
Y00544249*
G37*
G36*
X00520628D02*
X00514999D01*
Y0053862*
X00515999*
X0051777Y00538972*
X00519272Y00539976*
X00520276Y00541478*
X00520628Y00543249*
Y00544249*
G37*
G36*
X00512999D02*
X0050737D01*
Y00543249*
X00507722Y00541478*
X00508726Y00539976*
X00510228Y00538972*
X00511999Y0053862*
X00512999*
Y00544249*
G37*
G36*
X00249039Y00544539D02*
X00242499D01*
Y00536999*
X00249039*
Y00544539*
G37*
G36*
X00240499D02*
X00233959D01*
Y00536999*
X00240499*
Y00544539*
G37*
G36*
X00483316Y00551999D02*
X00480683D01*
X00478139Y00551318*
X00475859Y00550001*
X00473997Y00548139*
X00472681Y00545859*
X00471999Y00543316*
Y00540683*
X00472681Y00538139*
X00473997Y00535859*
X00475859Y00533997*
X00478139Y00532681*
X00480683Y00531999*
X00483316*
X00485859Y00532681*
X00488139Y00533997*
X00490001Y00535859*
X00491318Y00538139*
X00491999Y00540683*
Y00543316*
X00491318Y00545859*
X00490001Y00548139*
X00488139Y00550001*
X00485859Y00551318*
X00483316Y00551999*
G37*
G36*
X00457916D02*
X00455283D01*
X00452739Y00551318*
X00450459Y00550001*
X00448597Y00548139*
X0044728Y00545859*
X00446599Y00543316*
Y00540683*
X0044728Y00538139*
X00448597Y00535859*
X00450459Y00533997*
X00452739Y00532681*
X00455283Y00531999*
X00457916*
X00460459Y00532681*
X00462739Y00533997*
X00464601Y00535859*
X00465918Y00538139*
X00466599Y00540683*
Y00543316*
X00465918Y00545859*
X00464601Y00548139*
X00462739Y00550001*
X00460459Y00551318*
X00457916Y00551999*
G37*
G36*
X00441739Y00540729D02*
X00432469D01*
Y00531459*
X00432587*
X00435267Y00532177*
X00437671Y00533565*
X00439633Y00535527*
X00441021Y00537931*
X00441739Y00540612*
Y00540729*
G37*
G36*
X00429929D02*
X00420659D01*
Y00540612*
X00421377Y00537931*
X00422765Y00535527*
X00424727Y00533565*
X00427131Y00532177*
X00429811Y00531459*
X00429929*
Y00540729*
G37*
G36*
X00278344Y00551999D02*
X00276654D01*
X00275092Y00551352*
X00273896Y00550156*
X00273249Y00548594*
Y00546904*
X00273896Y00545342*
X0027444Y00544797*
Y00543999*
X00270499*
Y00527999*
X00284499*
Y00543999*
X00280558*
Y00544798*
X00281102Y00545342*
X00281749Y00546904*
Y00548594*
X00281102Y00550156*
X00279906Y00551352*
X00278344Y00551999*
G37*
G36*
X00257999Y00543999D02*
X00249499D01*
Y00527999*
X00257999*
Y00543999*
G37*
G36*
X00249039Y00534999D02*
X00242499D01*
Y00527459*
X00249039*
Y00534999*
G37*
G36*
X00240499D02*
X00233959D01*
Y00527459*
X00240499*
Y00534999*
G37*
G36*
X00515999Y00534827D02*
X00511999D01*
X00510438Y00534517*
X00509115Y00533633*
X00508231Y0053231*
X00507921Y00530749*
Y00526749*
X00508231Y00525188*
X00509115Y00523865*
X00510438Y00522981*
X00511999Y00522671*
X00515999*
X0051756Y00522981*
X00518883Y00523865*
X00519601Y0052494*
X00522047*
X00522592Y00524396*
X00524154Y00523749*
X00525844*
X00527406Y00524396*
X00528602Y00525591*
X00529249Y00527154*
Y00528844*
X00528602Y00530406*
X00527406Y00531602*
X00525844Y00532249*
X00524154*
X00522592Y00531602*
X00522047Y00531058*
X00520016*
X00519767Y0053231*
X00518883Y00533633*
X0051756Y00534517*
X00515999Y00534827*
G37*
G36*
X00444594Y00527499D02*
X00442904D01*
X00441342Y00526852*
X00440146Y00525656*
X00439499Y00524094*
Y00522404*
X00440146Y00520842*
X00441342Y00519646*
X00442904Y00518999*
X00444594*
X00446156Y00519646*
X00447352Y00520842*
X00447999Y00522404*
Y00524094*
X00447352Y00525656*
X00446156Y00526852*
X00444594Y00527499*
G37*
G36*
X00565999Y00534827D02*
X00561999D01*
X00560438Y00534517*
X00559115Y00533633*
X00558231Y0053231*
X00557921Y00530749*
Y00526749*
X00558231Y00525188*
X00559115Y00523865*
X00560438Y00522981*
X0056094Y00522881*
Y00520951*
X00560396Y00520406*
X00559749Y00518844*
Y00517154*
X00560396Y00515592*
X00561592Y00514396*
X00563154Y00513749*
X00564844*
X00566406Y00514396*
X00567602Y00515592*
X00568249Y00517154*
Y00518844*
X00567602Y00520406*
X00567058Y00520951*
Y00522881*
X0056756Y00522981*
X00568883Y00523865*
X00569767Y00525188*
X00570077Y00526749*
Y00530749*
X00569767Y0053231*
X00568883Y00533633*
X0056756Y00534517*
X00565999Y00534827*
G37*
G36*
X00540999D02*
X00536999D01*
X00535438Y00534517*
X00534115Y00533633*
X00533231Y0053231*
X00532921Y00530749*
Y00526749*
X00533231Y00525188*
X00534115Y00523865*
X00535438Y00522981*
X0053594Y00522881*
Y00520701*
X00535396Y00520157*
X00534749Y00518594*
Y00516904*
X00535396Y00515342*
X00536591Y00514146*
X00538153Y00513499*
X00539844*
X00541406Y00514146*
X00542602Y00515342*
X00543249Y00516904*
Y00518594*
X00542602Y00520157*
X00542058Y00520701*
Y00522881*
X0054256Y00522981*
X00543883Y00523865*
X00544767Y00525188*
X00545077Y00526749*
Y00530749*
X00544767Y0053231*
X00543883Y00533633*
X0054256Y00534517*
X00540999Y00534827*
G37*
G36*
X00552863Y00521783D02*
X00551173D01*
X00549611Y00521136*
X00548415Y0051994*
X00547768Y00518378*
Y00516687*
X00548415Y00515125*
X00549611Y0051393*
X00551173Y00513283*
X00552863*
X00554425Y0051393*
X00555621Y00515125*
X00556268Y00516687*
Y00518378*
X00555621Y0051994*
X00554425Y00521136*
X00552863Y00521783*
G37*
G36*
X00595039Y00480039D02*
X00579499D01*
Y00473499*
X00595039*
Y00480039*
G37*
G36*
X00577499D02*
X00561959D01*
Y00473499*
X00577499*
Y00480039*
G37*
G36*
X00595039Y00471499D02*
X00579499D01*
Y00464959*
X00595039*
Y00471499*
G37*
G36*
X00577499D02*
X00561959D01*
Y00464959*
X00577499*
Y00471499*
G37*
G36*
X00602844Y00468249D02*
X00601154D01*
X00599592Y00467602*
X00598396Y00466406*
X00597749Y00464844*
Y00463154*
X00598396Y00461592*
X00599592Y00460396*
X00601154Y00459749*
X00602844*
X00604406Y00460396*
X00605602Y00461592*
X00606249Y00463154*
Y00464844*
X00605602Y00466406*
X00604406Y00467602*
X00602844Y00468249*
G37*
G36*
X00633315Y00476399D02*
X00630682D01*
X00628139Y00475717*
X00625859Y00474401*
X00623997Y00472539*
X00622681Y00470259*
X00621999Y00467715*
Y00465082*
X00622681Y00462539*
X00623997Y00460259*
X00625859Y00458397*
X00628139Y0045708*
X00630682Y00456399*
X00633315*
X00635859Y0045708*
X00638139Y00458397*
X00640001Y00460259*
X00641317Y00462539*
X00641999Y00465082*
Y00467715*
X00641317Y00470259*
X00640001Y00472539*
X00638139Y00474401*
X00635859Y00475717*
X00633315Y00476399*
G37*
G36*
X00556039Y00434539D02*
X00545999D01*
Y00429999*
X00556039*
Y00434539*
G37*
G36*
X00572344Y00428749D02*
X00570654D01*
X00569092Y00428102*
X00568999Y00428009*
X00568906Y00428102*
X00567344Y00428749*
X00565654*
X00564092Y00428102*
X00562896Y00426906*
X00562249Y00425344*
Y00423654*
X00562896Y00422092*
X00564092Y00420896*
X00565654Y00420249*
X00567344*
X00568906Y00420896*
X00568999Y00420989*
X00569092Y00420896*
X00570654Y00420249*
X00572344*
X00573906Y00420896*
X00575102Y00422092*
X00575749Y00423654*
Y00425344*
X00575102Y00426906*
X00573906Y00428102*
X00572344Y00428749*
G37*
G36*
X00556039Y00427999D02*
X00545999D01*
Y00423459*
X00556039*
Y00427999*
G37*
G36*
X00633386Y00426139D02*
X00633269D01*
Y00416869*
X00642539*
Y00416986*
X0064182Y00419667*
X00640433Y0042207*
X0063847Y00424033*
X00636067Y0042542*
X00633386Y00426139*
G37*
G36*
X00630729D02*
X00630611D01*
X00627931Y0042542*
X00625527Y00424033*
X00623565Y0042207*
X00622177Y00419667*
X00621459Y00416986*
Y00416869*
X00630729*
Y00426139*
G37*
G36*
X00595039Y00418039D02*
X00579499D01*
Y00411499*
X00595039*
Y00418039*
G37*
G36*
X00577499D02*
X00561959D01*
Y00411499*
X00577499*
Y00418039*
G37*
G36*
X00642539Y00414329D02*
X00633269D01*
Y00405059*
X00633386*
X00636067Y00405777*
X0063847Y00407165*
X00640433Y00409127*
X0064182Y0041153*
X00642539Y00414211*
Y00414329*
G37*
G36*
X00630729D02*
X00621459D01*
Y00414211*
X00622177Y0041153*
X00623565Y00409127*
X00625527Y00407165*
X00627931Y00405777*
X00630611Y00405059*
X00630729*
Y00414329*
G37*
G36*
X00595039Y00409499D02*
X00579499D01*
Y00402959*
X00595039*
Y00409499*
G37*
G36*
X00577499D02*
X00561959D01*
Y00402959*
X00577499*
Y00409499*
G37*
G36*
X00601844Y00408249D02*
X00600154D01*
X00598592Y00407602*
X00597396Y00406406*
X00596749Y00404844*
Y00403154*
X00597396Y00401592*
X00598592Y00400396*
X00600154Y00399749*
X00601844*
X00603406Y00400396*
X00604602Y00401592*
X00605249Y00403154*
Y00404844*
X00604602Y00406406*
X00603406Y00407602*
X00601844Y00408249*
G37*
G36*
X00595039Y00360039D02*
X00579499D01*
Y00353499*
X00595039*
Y00360039*
G37*
G36*
X00577499D02*
X00561959D01*
Y00353499*
X00577499*
Y00360039*
G37*
G36*
X00595039Y00351499D02*
X00579499D01*
Y00344959*
X00595039*
Y00351499*
G37*
G36*
X00577499D02*
X00561959D01*
Y00344959*
X00577499*
Y00351499*
G37*
G36*
X00542462Y0034722D02*
X00540771D01*
X00539209Y00346573*
X00538014Y00345377*
X00537367Y00343815*
Y00342124*
X00538014Y00340562*
X00539209Y00339367*
X00540097Y00338999*
X00534499*
Y00328999*
X00555499*
Y00338368*
X00555623Y00338069*
X00556167Y00337524*
Y00324743*
X00555982Y00324558*
X00555499*
Y00326499*
X00534499*
Y00316499*
X00555499*
Y0031844*
X00557249*
X00558419Y00318673*
X00559412Y00319336*
X00561389Y00321313*
X00562052Y00322306*
X00562285Y00323476*
Y00337524*
X00562829Y00338069*
X00563476Y00339631*
Y00341322*
X00562829Y00342883*
X00561633Y00344079*
X00560072Y00344726*
X00558381*
X00556819Y00344079*
X00555623Y00342883*
X00554976Y00341322*
Y00339631*
X00555238Y00338999*
X00548567*
Y00339999*
X00548296Y00341365*
X00547522Y00342522*
X0054561Y00344435*
X0054522Y00345377*
X00544024Y00346573*
X00542462Y0034722*
G37*
G36*
X00556039Y00314539D02*
X00545999D01*
Y00309999*
X00556039*
Y00314539*
G37*
G36*
X00543999D02*
X00533959D01*
Y00309999*
X00543999*
Y00314539*
G37*
G36*
X00556039Y00307999D02*
X00545999D01*
Y00303459*
X00556039*
Y00307999*
G37*
G36*
X00543999D02*
X00533959D01*
Y00303459*
X00543999*
Y00307999*
G37*
G36*
X00583844Y00306249D02*
X00582154D01*
X00580592Y00305602*
X00579396Y00304406*
X00578749Y00302844*
Y00301154*
X00579396Y00299593*
X00580592Y00298396*
X00581454Y00298039*
X00579499*
Y00291499*
X00595039*
Y00298039*
X00584545*
X00585406Y00298396*
X00586602Y00299593*
X00587249Y00301154*
Y00302844*
X00586602Y00304406*
X00585406Y00305602*
X00583844Y00306249*
G37*
G36*
X00577499Y00298039D02*
X00561959D01*
Y00291499*
X00577499*
Y00298039*
G37*
G36*
X00595039Y00289499D02*
X00579499D01*
Y00282959*
X00595039*
Y00289499*
G37*
G36*
X00577499D02*
X00561959D01*
Y00282959*
X00577499*
Y00289499*
G37*
G36*
X00630844Y00242249D02*
X00629154D01*
X00627592Y00241602*
X00626396Y00240406*
X00625749Y00238844*
Y00237154*
X00626396Y00235592*
X00627592Y00234396*
X00629154Y00233749*
X00630844*
X00632406Y00234396*
X00633603Y00235592*
X00634249Y00237154*
Y00238844*
X00633603Y00240406*
X00632406Y00241602*
X00630844Y00242249*
G37*
G36*
X00631386Y00155939D02*
X00631269D01*
Y00146669*
X00640539*
Y00146787*
X00639821Y00149467*
X00638433Y00151871*
X0063647Y00153833*
X00634067Y00155221*
X00631386Y00155939*
G37*
G36*
X00628729D02*
X00628611D01*
X00625931Y00155221*
X00623527Y00153833*
X00621565Y00151871*
X00620177Y00149467*
X00619459Y00146787*
Y00146669*
X00628729*
Y00155939*
G37*
G36*
X00640539Y00144129D02*
X00631269D01*
Y00134859*
X00631386*
X00634067Y00135577*
X0063647Y00136965*
X00638433Y00138927*
X00639821Y00141331*
X00640539Y00144011*
Y00144129*
G37*
G36*
X00628729D02*
X00619459D01*
Y00144011*
X00620177Y00141331*
X00621565Y00138927*
X00623527Y00136965*
X00625931Y00135577*
X00628611Y00134859*
X00628729*
Y00144129*
G37*
G36*
X00631315Y00129999D02*
X00628682D01*
X00626139Y00129318*
X00623859Y00128001*
X00621997Y00126139*
X0062068Y00123859*
X00619999Y00121315*
Y00118683*
X0062068Y00116139*
X00621997Y00113859*
X00623859Y00111997*
X00626139Y0011068*
X00628682Y00109999*
X00631315*
X00633859Y0011068*
X00636139Y00111997*
X00638001Y00113859*
X00639318Y00116139*
X00639999Y00118683*
Y00121315*
X00639318Y00123859*
X00638001Y00126139*
X00636139Y00128001*
X00633859Y00129318*
X00631315Y00129999*
G37*
G36*
X00631386Y00105139D02*
X00631269D01*
Y00095869*
X00640539*
Y00095987*
X00639821Y00098667*
X00638433Y00101071*
X0063647Y00103033*
X00634067Y00104421*
X00631386Y00105139*
G37*
G36*
X00628729D02*
X00628611D01*
X00625931Y00104421*
X00623527Y00103033*
X00621565Y00101071*
X00620177Y00098667*
X00619459Y00095987*
Y00095869*
X00628729*
Y00105139*
G37*
G36*
X00640539Y00093329D02*
X00631269D01*
Y00084059*
X00631386*
X00634067Y00084777*
X0063647Y00086165*
X00638433Y00088127*
X00639821Y00090531*
X00640539Y00093211*
Y00093329*
G37*
G36*
X00628729D02*
X00619459D01*
Y00093211*
X00620177Y00090531*
X00621565Y00088127*
X00623527Y00086165*
X00625931Y00084777*
X00628611Y00084059*
X00628729*
Y00093329*
G37*
%LNdr_0n-5*%
%LPD*%
G54D10*
X00592249Y00259249D02*
X00593808Y0025769D01*
X00606021Y00271521D02*
X00606499Y00271999D01*
X00593808Y0025769D02*
X00606021Y00269902D01*
Y00271521*
X00593808Y0025769D02*
X00595499Y00255999D01*
X00583487Y00259249D02*
X00592249D01*
X00595499Y00247237D02*
Y00255999D01*
X00204031Y00069968D02*
Y00115688D01*
Y00069968D02*
X00223249Y00050749D01*
Y00040999D02*
Y00050749D01*
X00301749Y00383749D02*
X00322749Y00404749D01*
X00301749Y00107249D02*
Y00383749D01*
X00208342Y00230842D02*
X00242092D01*
X00200499Y00222999D02*
X00208342Y00230842D01*
X00200499Y0012347D02*
Y00222999D01*
X00242092Y00230842D02*
X00288999Y00277749D01*
X00210592Y00226842D02*
X00243749D01*
X00204499Y00220749D02*
X00210592Y00226842D01*
X00204499Y00121813D02*
Y00220749D01*
X00243749Y00226842D02*
X00294249Y00277342D01*
X00208499Y00218827D02*
X00209671Y00219999D01*
X00235749*
X00208499Y00120157D02*
Y00218827D01*
X00196499Y00239749D02*
X00242499D01*
X00196499D02*
Y00253249D01*
Y00125127D02*
Y00239749D01*
X00223249Y00040999D02*
X00229499Y00034749D01*
X00249049*
X00261499Y00022299*
X00204031Y00115688D02*
X00208499Y00120157D01*
X00200031Y00117345D02*
X00204499Y00121813D01*
X00196031Y00119002D02*
X00200499Y0012347D01*
X00194977Y00254771D02*
X00196499Y00253249D01*
X00192031Y00120659D02*
X00196499Y00125127D01*
X00294249Y00277342D02*
Y00419749D01*
X00288999Y00277749D02*
Y00414249D01*
X00185299Y00047699D02*
X00192031Y00054431D01*
Y00120659*
X00200031Y00037031D02*
Y00117345D01*
X00282999Y00430999D02*
X00294249Y00419749D01*
X00196031Y00043412D02*
Y00119002D01*
X00185299Y00022299D02*
X00200031Y00037031D01*
X00188618Y00035999D02*
X00196031Y00043412D01*
X00171599Y00035999D02*
X00188618D01*
X00159899Y00047699D02*
X00171599Y00035999D01*
X00238499Y00398999D02*
X00252499D01*
X00343499Y00313999D02*
X00357999D01*
X00343499Y00326499D02*
D01*
X00328499D02*
X00343499D01*
X00238499Y00411499D02*
X00252499D01*
X00444249Y00313999D02*
X004445Y00313749D01*
X00609249Y00087391D02*
Y00233487D01*
X00556699Y000635D02*
X00585357D01*
X00609249Y00087391*
X00605249Y00089048D02*
Y0023183D01*
X00535299Y00067499D02*
X005837D01*
X00605249Y00089048*
X00201327Y00266999D02*
Y00295327D01*
X00217999Y00311999*
X00536408Y00296059D02*
X00554468Y00277999D01*
X00564737*
X00430999Y00066999D02*
Y00111999D01*
X00500999Y00173499D02*
X00508344Y00166154D01*
Y00154654D02*
Y00166154D01*
X00520999Y00141999D02*
X0052629D01*
X00508344Y00154654D02*
X00520999Y00141999D01*
X00519995Y00150003D02*
X00527984D01*
X00512344Y00157654D02*
X00519995Y00150003D01*
X00512344Y00157654D02*
Y00169578D01*
X00462176Y00175749D02*
X00465176Y00178749D01*
X00461499Y00175749D02*
X00462176D01*
X00465176Y00178749D02*
X00503174D01*
X00512344Y00169578*
X00242999Y00491999D02*
Y00501499D01*
Y00491999D02*
X00248249Y00486749D01*
X00242999Y00501499D02*
X00263999Y00522499D01*
Y00535999*
X00364749Y00429999D02*
X00393251D01*
X00415749Y00407501*
Y00198006D02*
Y00407501D01*
X00401249Y00183506D02*
X00415749Y00198006D01*
X00255749Y00485999D02*
X00485808D01*
X00234499Y00464749D02*
X00255749Y00485999D01*
X00397749Y00108749D02*
Y00109174D01*
X00401249Y00112674D02*
Y00183506D01*
X00397749Y00109174D02*
X00401249Y00112674D01*
X00413249Y00083185D02*
Y00178406D01*
X00405249Y00086499D02*
Y0018172D01*
X00503499Y0027997*
X00394999Y00076249D02*
X00405249Y00086499D01*
X00417499Y00081407D02*
Y0017647D01*
X00515499Y0027447*
X00421499Y00079749D02*
Y00174813D01*
X00396656Y00072249D02*
X00409249Y00084842D01*
X00400092Y00063999D02*
X00417499Y00081407D01*
X00421499Y00174813D02*
X00519499Y00272813D01*
X00401749Y00059999D02*
X00421499Y00079749D01*
X00398313Y00068249D02*
X00413249Y00083185D01*
X00409249Y00180063D02*
X00507499Y00278313D01*
X00409249Y00084842D02*
Y00180063D01*
X00413249Y00178406D02*
X00511499Y00276656D01*
X00425499Y00173156D02*
X00523499Y00271156D01*
X00425499Y00059299D02*
Y00173156D01*
X00413899Y00047699D02*
X00425499Y00059299D01*
X00430999Y00066999D02*
X00438999Y00058999D01*
X00429599Y00149071D02*
X00431874Y00146796D01*
X00429599Y00171599D02*
X00527499Y00269499D01*
X00429599Y00149071D02*
Y00171599D01*
X00431874Y00146374D02*
Y00146796D01*
X004445Y00313749D02*
X00458999D01*
X004445Y00326249D02*
X00458999D01*
X00142499Y00464749D02*
X00234499D01*
X00497749Y00282749D02*
Y00474058D01*
X00485808Y00485999D02*
X00497749Y00474058D01*
X00539499Y00273999D02*
X00563081D01*
X00531249Y00265749D02*
X00539499Y00273999D01*
X00564737Y00277999D02*
X00583487Y00259249D01*
X00563081Y00273999D02*
X0058679Y0025029D01*
X00399422Y00502499D02*
X00491935D01*
X00515499Y0027447D02*
Y00478935D01*
X00489122Y00493999D02*
X00507499Y00475622D01*
X00389749Y00489999D02*
X00487465D01*
X00392749Y00493999D02*
X00489122D01*
X00396626Y00497999D02*
X00490778D01*
X00491935Y00502499D02*
X00515499Y00478935D01*
X00490778Y00497999D02*
X00511499Y00477279D01*
X00519499Y00272813D02*
Y00480592D01*
X00507499Y00278313D02*
Y00475622D01*
X00403499Y00508D02*
X00492092D01*
X00519499Y00480592*
X00503499Y0027997D02*
Y00473965D01*
X00487465Y00489999D02*
X00503499Y00473965D01*
X00511499Y00276656D02*
Y00477279D01*
X00523499Y00271156D02*
Y00482249D01*
X00481999Y00514999D02*
X00490749D01*
X00523499Y00482249*
X00527499Y00445999D02*
X00530749Y00449249D01*
X00527499Y00269499D02*
Y00445999D01*
X00431874Y00146374D02*
X00434749Y00143499D01*
X00531829Y00385669D02*
Y00439579D01*
Y00385669D02*
X00535249Y00382249D01*
X00531829Y00439579D02*
X00533749Y00441499D01*
X00194977Y00254771D02*
Y00266999D01*
X00188311Y00267061D02*
X00188373Y00266999D01*
X00188311Y00267061D02*
Y00279687D01*
X00188249Y00279749D02*
X00188311Y00279687D01*
X00182023Y00294273D02*
X00188749Y00300999D01*
X00182023Y00266999D02*
Y00294273D01*
X00089499Y00140249D02*
Y00268699D01*
X00065399Y00292799D02*
X00089499Y00268699D01*
Y00140249D02*
X00111249Y00118499D01*
X00134999*
X00093499Y00149999D02*
Y00290099D01*
X00065399Y00318199D02*
X00093499Y00290099D01*
Y00149999D02*
X00112499Y00130999D01*
X00134999*
X00097499Y00160499D02*
X00114499Y00143499D01*
X00134999*
X00097499Y00160499D02*
Y00311499D01*
X00065399Y00343599D02*
X00097499Y00311499D01*
X00065399Y00368999D02*
X00101499Y00332899D01*
Y00173999D02*
Y00332899D01*
Y00173999D02*
X00119499Y00155999D01*
X00134999*
X00168815Y00254773D02*
Y00266999D01*
Y00254773D02*
X00169064Y00254524D01*
X00116908Y0025432D02*
Y00266906D01*
X00116907Y00266907D02*
X00116908Y00266906D01*
X00116818Y00254229D02*
X00116908Y0025432D01*
X00162515Y00254469D02*
Y00266949D01*
X00149561Y00254469D02*
Y00266949D01*
X00130003Y00254469D02*
Y00266949D01*
X00155961Y00254517D02*
Y00266899D01*
X00142986Y00254764D02*
Y0026692D01*
X00136434Y00254799D02*
Y00266868D01*
X00123332Y00254436D02*
Y00266982D01*
X00074452Y00388999D02*
X00127499D01*
X00069052Y00394399D02*
X00074452Y00388999D01*
X00065399Y00394399D02*
X00069052D01*
X00065399Y00445199D02*
X00096599Y00413999D01*
X00127499*
X00083699Y00401499D02*
X00127499D01*
X00065399Y00419799D02*
X00083699Y00401499D01*
X00065399Y00470599D02*
X00109499Y00426499D01*
X00127499*
X00190749Y00125499D02*
Y00181249D01*
X00173749Y00108499D02*
X00190749Y00125499D01*
X00168907Y00325511D02*
Y00337907D01*
X00168815Y00325419D02*
X00168907Y00325511D01*
Y00337907D02*
X00168999Y00337999D01*
X00162465Y00325419D02*
X00162482Y00325436D01*
Y00337982*
X00162499Y00337999*
X0014938Y0032555D02*
X00149511Y00325419D01*
X0014938Y0032555D02*
Y00337619D01*
X00149249Y0033775D02*
X0014938Y00337619D01*
X00142828Y00325498D02*
Y00337653D01*
X00142749Y00337732D02*
X00142828Y00337653D01*
Y00325498D02*
X00142907Y00325419D01*
X00129853Y00325519D02*
X00129953Y00325419D01*
X00129853Y00325519D02*
Y00337901D01*
X00129753Y00338001D02*
X00129853Y00337901D01*
X00155811Y00325469D02*
Y00337949D01*
Y00325469D02*
X00155861Y00325419D01*
X00136253Y00325469D02*
Y00337949D01*
Y00325469D02*
X00136303Y00325419D01*
X00123299Y00325469D02*
X00123349Y00325419D01*
X00123299Y00325469D02*
Y00337949D01*
X00123249Y00337999D02*
X00123299Y00337949D01*
X00364499Y00429749D02*
X00364749Y00429999D01*
X00324999Y00429749D02*
X00364499D01*
X00322749Y00431999D02*
X00324999Y00429749D01*
X00322749Y00431999D02*
Y00453499D01*
X00168499Y00164999D02*
X00168749Y00165249D01*
X00168499Y00102749D02*
Y00164999D01*
Y00102749D02*
X00173499Y00097749D01*
X00595499Y00247237D02*
X00609249Y00233487D01*
X0058679Y0025029D02*
X00589999Y00253499D01*
Y00253749*
X0031431Y00155249D02*
X00314749D01*
X00308299Y00149238D02*
X0031431Y00155249D01*
X00308299Y00086299D02*
Y00149238D01*
X00274749Y00052749D02*
X00308299Y00086299D01*
X00314503Y00147341D02*
Y00148017D01*
X00312299Y00047699D02*
Y00145137D01*
X00314503Y00147341*
X00243999Y00143999D02*
X00286999D01*
X00244249Y00156249D02*
X00287249D01*
X00274749Y00034449D02*
Y00052749D01*
Y00034449D02*
X00286899Y00022299D01*
X00238499Y00423999D02*
X00253249D01*
X00253499Y00423749*
X00238499Y00436499D02*
X00254D01*
X00238499D02*
D01*
X00323041Y00039542D02*
Y00064948D01*
X00318749Y00035249D02*
X00323041Y00039542D01*
X00299349Y00035249D02*
X00318749D01*
X00286899Y00047699D02*
X00299349Y00035249D01*
X00334342Y00076249D02*
X00394999D01*
X00323041Y00064948D02*
X00334342Y00076249D01*
X00327042Y00037042D02*
Y00063291D01*
X00312299Y00022299D02*
X00327042Y00037042D01*
Y00063291D02*
X00335999Y00072249D01*
X00243999Y00143999D02*
D01*
Y00156499D02*
X00244249Y00156249D01*
X00438999Y00058999D02*
X00478799D01*
X00490099Y00047699*
X00438671Y00155976D02*
X00448976D01*
X00435096Y00152402D02*
X00438671Y00155976D01*
X00448976D02*
X00448999Y00155999D01*
Y00143499D02*
D01*
X00361749Y00142999D02*
X00363749Y00144999D01*
X00368521Y00152977D02*
X00368999Y00152499D01*
X00368749Y00144999D02*
X00368999Y00145249D01*
X00363749Y00144999D02*
X00368749D01*
X00364021Y00152977D02*
X00368521D01*
X00348499Y00142999D02*
X00361749D01*
X00361499Y00155499D02*
X00364021Y00152977D01*
X00348499Y00155499D02*
X00361499D01*
X00375399Y00059999D02*
X00401749D01*
X00363099Y00047699D02*
X00375399Y00059999D01*
X00358499Y00063999D02*
X00400092D01*
X00335999Y00072249D02*
X00396656D01*
X00343906Y00068249D02*
X00398313D01*
X00333499Y00545249D02*
X00344999D01*
X00358499D02*
X00369999D01*
X00383499D02*
X00394999D01*
Y00506922D02*
Y00528749D01*
X00344999D02*
X00350999D01*
X00369999Y00516749D02*
Y00528749D01*
X00377499Y00536999D02*
X00382749Y00531749D01*
X00326249Y00536999D02*
X00377499D01*
X00382749Y00511876D02*
Y00531749D01*
X00285499Y00496249D02*
X00326249Y00536999D01*
X00394999Y00506922D02*
X00399422Y00502499D01*
X00382749Y00511876D02*
X00396626Y00497999D01*
X00350999Y00528749D02*
X00389749Y00489999D01*
X00369999Y00516749D02*
X00392749Y00493999D01*
X00337699Y00062042D02*
X00343906Y00068249D01*
X00337699Y00047699D02*
Y00062042D01*
X00248249Y00496249D02*
X00285499D01*
X00277499Y00535999D02*
Y00547749D01*
X00434749Y00143499D02*
X00448999D01*
X00350142Y00055641D02*
X00358499Y00063999D01*
X00350142Y00035257D02*
X00363099Y00022299D01*
X00350142Y00035257D02*
Y00055641D01*
X00403249Y00507749D02*
X00403499Y00508D01*
X00513999Y00527999D02*
X00524999D01*
X00538999Y00517749D02*
Y00528749D01*
X00563999Y00517999D02*
Y00528999D01*
X004445Y00448999D02*
D01*
X00343499D02*
X004445D01*
X004445D02*
X00458499D01*
X004445D02*
X004445D01*
X0058679Y0025029D02*
X00605249Y0023183D01*
X00577162Y00143499D02*
X00597249Y00163586D01*
Y00226342*
X00559249Y00264342D02*
X00597249Y00226342D01*
X00571068Y00130999D02*
X00601249Y0016118D01*
X00561424Y00269999D02*
X00601249Y00230174D01*
Y0016118D02*
Y00230174D01*
X00556425Y00269999D02*
X00561424D01*
X00550926Y00264499D02*
X00556425Y00269999D01*
X00545249Y00264499D02*
X00550926D01*
X00559249Y00264342D02*
Y00264749D01*
X00544499Y00130999D02*
X00571068D01*
X00533749Y00441499D02*
X00544999D01*
Y00321499D02*
X00557249D01*
X00559226Y00323476*
Y00340476*
X0054492Y00321577D02*
X00544999Y00321499D01*
X00515499Y00047699D02*
X00535299Y00067499D01*
X00544499Y00143499D02*
X00577162D01*
X00540899Y00047699D02*
X00556699Y000635D01*
X00505749Y00126499D02*
X00512749Y00119499D01*
X00494499Y00126499D02*
X00505749D01*
X00512749Y00105749D02*
Y00119499D01*
X00525185Y00105313D02*
Y00128842D01*
Y00105313D02*
X00532499Y00097999D01*
G54D11*
X00348624Y00168124D02*
X00349374Y00168874D01*
X00362374D02*
X00362499Y00168749D01*
X00349374Y00168874D02*
X00362374D01*
X004445Y00338749D02*
X00458343D01*
X00343499Y00338999D02*
X00357343D01*
X00618749Y00454249D02*
X00631999Y00440999D01*
X00563249Y00454249D02*
X00618749D01*
X00545124Y00454124D02*
X00563124D01*
X00563249Y00454249*
X00544999Y00453999D02*
X00545124Y00454124D01*
X00238499Y00448999D02*
D01*
X00254*
X00257874Y00168874D02*
X00257999Y00168749D01*
X00244124Y00168874D02*
X00257874D01*
X00243999Y00168999D02*
X00244124Y00168874D01*
X00448999Y00168499D02*
Y00176999D01*
X00542315Y00342683D02*
X00544999Y00339999D01*
X00541617Y0034297D02*
X00541904Y00342683D01*
X00544999Y00333999D02*
Y00339999D01*
X00541904Y00342683D02*
X00542315D01*
G54D17*
X00134999Y00105999D03*
Y00118499D03*
Y00130999D03*
Y00143499D03*
Y00155999D03*
X00127499Y00376499D03*
Y00388999D03*
Y00401499D03*
Y00413999D03*
Y00426499D03*
X00343499Y00436499D03*
Y00448999D03*
X004445Y00436499D03*
Y00448999D03*
X00544999Y00308999D03*
Y00321499D03*
Y00333999D03*
Y00428999D03*
Y00441499D03*
Y00453999D03*
X00544499Y00168499D03*
Y00155999D03*
Y00143499D03*
Y00130999D03*
Y00118499D03*
Y00105999D03*
X00238499Y00448999D03*
Y00436499D03*
Y00423999D03*
Y00411499D03*
Y00398999D03*
Y00386499D03*
X00343499Y00301499D03*
Y00313999D03*
Y00326499D03*
Y00338999D03*
X00243999Y00168999D03*
Y00156499D03*
Y00143999D03*
Y00131499D03*
Y00118999D03*
Y00106499D03*
X004445Y00301249D03*
Y00313749D03*
Y00326249D03*
Y00338749D03*
X00348499Y00168999D03*
Y00156499D03*
Y00143999D03*
Y00131499D03*
Y00118999D03*
Y00106499D03*
X00448999Y00168499D03*
Y00155999D03*
Y00143499D03*
Y00130999D03*
Y00118499D03*
Y00105999D03*
G54D18*
X00168499Y00174499D03*
Y00087499D03*
X00160999Y00444999D03*
Y00357999D03*
X00376999Y00467499D03*
Y00417999D03*
X00477999Y00467499D03*
Y00417999D03*
X00578499Y00352499D03*
Y00290499D03*
Y00472499D03*
Y00410499D03*
X00577999Y00087499D03*
Y00186999D03*
X00271999Y00367999D03*
Y00467499D03*
X00376999Y00357499D03*
Y00282999D03*
X00277499Y00087999D03*
Y00187499D03*
X00477999Y00357249D03*
Y00282749D03*
X00381999Y00087999D03*
Y00187499D03*
X00482499Y00087499D03*
Y00186999D03*
G54D19*
X00277499Y00535999D03*
X00241499D03*
G54D20*
X00263999Y00535999D03*
G54D21*
X00253749Y00535999D03*
G54D22*
X00563999Y00528749D03*
Y00545249D03*
X00344999D03*
Y00528749D03*
X00369999Y00545249D03*
Y00528749D03*
X00394999Y00545249D03*
Y00528749D03*
X00538999D03*
Y00545249D03*
X00513999Y00528749D03*
Y00545249D03*
G54D23*
X00201327Y00325419D03*
X00194977D03*
X00188373D03*
X00182023D03*
X00175419D03*
X00168815D03*
X00162465D03*
X00155861D03*
X00149511D03*
X00142907D03*
X00136303D03*
X00129953D03*
X00123349D03*
X00116999D03*
Y00266999D03*
X00123349D03*
X00129953D03*
X00136303D03*
X00142907D03*
X00149511D03*
X00155861D03*
X00162465D03*
X00168815D03*
X00175419D03*
X00182023D03*
X00188373D03*
X00194977D03*
X00201327D03*
G54D36*
X00477999Y00211999D02*
X00586999D01*
X00530749Y00168499D02*
X00544499D01*
X00529749Y00155999D02*
X00544499D01*
G54D37*
X00631999Y00466399D03*
Y00440999D03*
Y00415599D03*
X00481999Y00541999D03*
X00456599D03*
X00431199D03*
X00629999Y00145399D03*
Y00119999D03*
Y00094599D03*
X00164799Y00543399D03*
Y00517999D03*
Y00492599D03*
X00139399Y00543399D03*
X00113999D03*
X00139399Y00517999D03*
Y00492599D03*
X00113999Y00517999D03*
Y00492599D03*
G54D38*
X00014599Y00089599D03*
Y00114999D03*
Y00140399D03*
Y00165799D03*
Y00191199D03*
Y00216599D03*
Y00241999D03*
Y00267399D03*
Y00292799D03*
Y00318199D03*
Y00343599D03*
Y00368999D03*
Y00394399D03*
Y00419799D03*
Y00445199D03*
X00039999Y00089599D03*
Y00114999D03*
Y00140399D03*
Y00165799D03*
Y00191199D03*
Y00216599D03*
Y00241999D03*
Y00267399D03*
Y00292799D03*
Y00318199D03*
Y00343599D03*
Y00368999D03*
Y00394399D03*
Y00419799D03*
Y00445199D03*
X00014599Y00470599D03*
X00039999D03*
X00065399Y00089599D03*
Y00114999D03*
Y00140399D03*
Y00165799D03*
Y00191199D03*
Y00216599D03*
Y00241999D03*
Y00267399D03*
Y00292799D03*
Y00318199D03*
Y00343599D03*
Y00368999D03*
Y00394399D03*
Y00419799D03*
Y00445199D03*
Y00470599D03*
G54D39*
X00034999Y00524999D03*
X00614999D03*
G54D40*
X00566299Y00047699D03*
G54D41*
X00540899Y00047699D03*
X00515499D03*
X00490099D03*
X00464699D03*
X00439299D03*
X00540899Y00022299D03*
X00515499D03*
X00490099D03*
X00464699D03*
X00439299D03*
X00413899Y00047699D03*
Y00022299D03*
X00388499Y00047699D03*
X00363099D03*
X00337699D03*
X00312299D03*
X00286899D03*
X00261499D03*
X00388499Y00022299D03*
X00363099D03*
X00337699D03*
X00312299D03*
X00286899D03*
X00261499D03*
X00236099Y00047699D03*
Y00022299D03*
X00185299Y00047699D03*
X00159899D03*
X00134499D03*
X00109099D03*
X00083699D03*
X00210699Y00022299D03*
X00185299D03*
X00159899D03*
X00134499D03*
X00109099D03*
X00083699D03*
X00566299D03*
X00210699Y00047699D03*
G54D42*
X00502499Y00035749D03*
X00502749Y00009499D03*
X00349749Y00012999D03*
X00400499Y00012749D03*
X00197999Y00011999D03*
X00270999Y00120999D03*
X00220999Y00370999D03*
X00270999Y00070999D03*
X00420999Y00520999D03*
X00345999Y00220999D03*
X00195999Y00420999D03*
X00320999Y00220999D03*
X00333499Y00245999D03*
X00295999Y00220999D03*
X00483499Y00345999D03*
X00245999Y00370999D03*
X00258499Y00095999D03*
X00270999Y00320999D03*
X00220999Y00470999D03*
X00445999Y00070999D03*
X00383499Y00345999D03*
X00220999Y00270999D03*
X00208499Y00495999D03*
X00233499Y00245999D03*
X00420999Y00470999D03*
X00620999Y00370999D03*
X00233499Y00095999D03*
X00220999Y00420999D03*
X00283499Y00245999D03*
X00470999Y00370999D03*
X00158499Y00295999D03*
X00258499D03*
X00120999Y00020999D03*
X00408499Y00545999D03*
X00333499Y00145999D03*
X00170999Y00420999D03*
X00620999Y00320999D03*
X00608499Y00395999D03*
X00320999Y00120999D03*
X00095999Y00020999D03*
X00495999Y00520999D03*
X00445999Y00370999D03*
X00508499Y00095999D03*
X00108499Y00295999D03*
X00283499D03*
X00133499D03*
X00370999Y00370999D03*
X00470999Y00270999D03*
X00445999Y00420999D03*
X00345999Y00370999D03*
X00320999Y00320999D03*
X00333499Y00095999D03*
X00233499Y00195999D03*
X00145999Y00170999D03*
X00270999Y00220999D03*
X00320999Y00070999D03*
X00308499Y00245999D03*
X00595999Y00370999D03*
X00608499Y00345999D03*
X00295999Y00520999D03*
X00320999Y00470999D03*
Y00370999D03*
X00558499Y00495999D03*
X00245999Y00320999D03*
X00395999Y00270999D03*
X00258499Y00195999D03*
X00220999Y00320999D03*
X00308499Y00545999D03*
X00633499Y00195999D03*
X00408499Y00395999D03*
X00633499D03*
X00358499Y00345999D03*
X00633499Y00295999D03*
X00583499Y00395999D03*
X00383499Y00245999D03*
X00520999Y00070999D03*
X00145999Y00420999D03*
X00495999Y00070999D03*
X00458499Y00345999D03*
X00545999Y00420999D03*
X00345999Y00470999D03*
X00208499Y00445999D03*
X00170999Y00070999D03*
X00558499Y00295999D03*
X00370999Y00220999D03*
X00545999D03*
X00608499Y00295999D03*
X00308499Y00495999D03*
X00320999Y00520999D03*
X00283499Y00345999D03*
X00458499Y00095999D03*
X00620999Y00170999D03*
X00533499Y00495999D03*
X00520999Y00220999D03*
X00495999D03*
X00395999Y00320999D03*
Y00470999D03*
X00233499Y00345999D03*
X00258499D03*
X00595999Y00270999D03*
X00408499Y00345999D03*
X00383499Y00395999D03*
X00570999Y00320999D03*
X00183499Y00445999D03*
X00633499Y00245999D03*
X00295999Y00120999D03*
X00433499Y00345999D03*
X00558499Y00395999D03*
X00245999Y00270999D03*
X00333499Y00495999D03*
X00308499Y00195999D03*
X00358499Y00095999D03*
X00470999Y00520999D03*
X00358499Y00245999D03*
X00570999Y00220999D03*
X00483499Y00445999D03*
X00120999Y00170999D03*
X00633499Y00345999D03*
X00595999Y00320999D03*
X00606499Y00257499D03*
Y00271999D03*
X00630749Y0022225D03*
X00563499Y00383249D03*
X00549249Y00383499D03*
X00470749Y00303249D03*
X00423749Y00418499D03*
X00308499Y00472999D03*
X00218749Y00158499D03*
X00270499Y00112249D03*
Y00130499D03*
X00583749Y00162249D03*
X00569999Y00160999D03*
X00642499Y00077249D03*
X00615749Y00079249D03*
X00372999Y00495499D03*
X00327999Y00528249D03*
X00306749Y00502499D03*
X00401706Y0037965D03*
X00440499Y00090749D03*
X00226249Y00137499D03*
X00212249Y00084749D03*
X00258249Y00552499D03*
X00369499Y00176499D03*
X00301749Y00107249D03*
X00213999Y00114249D03*
X00220749Y00113999D03*
X00162749Y00118749D03*
X00236249Y00219999D03*
X00121999Y00112999D03*
X00324986Y00398646D03*
X00252499Y00398999D03*
X00337592Y00393396D03*
X00350749Y00385749D03*
X00328499Y00326499D03*
X00146999Y00086249D03*
X00182999Y00137999D03*
X00353999Y00494999D03*
Y00477338D03*
X00600999Y00403999D03*
X00475999D03*
X00586999Y00211999D03*
X00477999D03*
X00360999Y00194999D03*
X00373999Y00122999D03*
X00245999Y00071999D03*
X00149749Y00134999D03*
X00094999Y00124999D03*
X00268999Y00150999D03*
X00256874Y00202624D03*
X00242374Y00201124D03*
X00229124D03*
X00214999Y00200999D03*
X00234999Y00312999D03*
X00217999Y00311999D03*
X00258999Y00286999D03*
X00280999D03*
X00337999Y00261999D03*
X00373999D03*
X00374999Y00396999D03*
X00272999Y00428499D03*
X00309999Y00415999D03*
X00336999Y00458999D03*
X00502999Y00545999D03*
X00601999Y00463999D03*
X00612999Y00271999D03*
X00629999Y00237999D03*
X00536408Y00296059D03*
X00582999Y00301999D03*
X00435999Y00122999D03*
X00430999Y00111999D03*
X005715Y00424499D03*
X00566499D03*
X00552018Y00517533D03*
X00443749Y00523249D03*
X00402499Y00368249D03*
X00402749Y00387749D03*
X00397249Y00377999D03*
X00397749Y00108749D03*
X00357999Y00313999D03*
X00458999Y00313749D03*
Y00326249D03*
X00362499Y00168749D03*
X00497749Y00282749D03*
X00458343Y00338749D03*
X00531249Y00265749D03*
X00481999Y00514999D03*
X00142499Y00464749D03*
X00357343Y00338999D03*
X00242499Y00239749D03*
X00188249Y00279749D03*
X00188749Y00300999D03*
X00455249Y00250749D03*
X00169064Y00254524D03*
X00116818Y00254229D03*
X00162565Y00254419D03*
X00149561Y00254469D03*
X00156061Y00254417D03*
X00143065Y00254686D03*
X00136565Y00254668D03*
X00130003Y00254469D03*
X00123315Y00254419D03*
X00190749Y00181249D03*
X00168999Y00337999D03*
X00162499D03*
X00155811Y00337949D03*
X00149249Y0033775D03*
X00142749Y00337732D03*
X00129753Y00338001D03*
X00136253Y00337949D03*
X00123249Y00337999D03*
X00277999Y00454249D03*
X00563249D03*
X00254Y00448999D03*
X00364749Y00429999D03*
X00168749Y00165249D03*
X00173499Y00097749D03*
X00173749Y00108499D03*
X00589999Y00253749D03*
X00177249Y00155999D03*
X00257999Y00168749D03*
X00390749Y00223196D03*
X00322749Y00404749D03*
Y00453499D03*
X00252499Y00411499D03*
X00282999Y00430999D03*
X00288999Y00414249D03*
X00253499Y00423749D03*
X00254Y00436499D03*
X00292249Y00136499D03*
X00286999Y00143999D03*
X00314503Y00148017D03*
X00314749Y00155249D03*
X00324749Y00153499D03*
X00287249Y00156249D03*
X00461499Y00175749D03*
X00448999Y00176999D03*
X00384249Y00151749D03*
X00434999Y00152402D03*
X00431999Y00146499D03*
X00368999Y00145249D03*
Y00152499D03*
X00390749Y00237538D03*
X00333499Y00545249D03*
X00358499D03*
X00383499D03*
X00248249Y00496249D03*
X00541617Y0034297D03*
X00248249Y00486749D03*
X00277499Y00547749D03*
X00403249Y00507749D03*
X00396999Y00368249D03*
X00397499Y00387749D03*
X00414249Y00416998D03*
X00433249Y00395749D03*
X00524999Y00527999D03*
X00538999Y00517749D03*
X00563999Y00517999D03*
X00458499Y00448999D03*
X00559226Y00340476D03*
X00530749Y00449249D03*
X00535249Y00382249D03*
X00545249Y00264499D03*
X00559249Y00264749D03*
X00501999Y00114249D03*
X00496749Y00158499D03*
X00491749Y00161249D03*
X00496999Y00164249D03*
X00491749Y00155999D03*
X00502249Y00155499D03*
Y00160749D03*
X00501999Y00119249D03*
X00496999Y00114249D03*
Y00119249D03*
X00491749D03*
Y00114249D03*
X00494499Y00126499D03*
X00512749Y00105749D03*
X00500999Y00173499D03*
X0052629Y00141999D03*
X00525185Y00128842D03*
X00527984Y00150003D03*
X00530999Y00131749D03*
X0052289Y00168031D03*
X00527749Y00167999D03*
X0052289Y00156531D03*
X00527749Y00156499D03*
X0052289Y00162031D03*
X00527749Y00161999D03*
X00532499Y00097999D03*
M02*