%FSTAX44Y44*%
%MOMM*%
%SFA1B1*%

%IPPOS*%
%ADD10C,0.200000*%
%ADD14C,0.127000*%
%ADD15C,0.050000*%
%ADD16C,0.150000*%
%ADD87C,0.120000*%
%LNdr_0n-1*%
%LPD*%
G54D10*
X00320401Y00248999D02*
D01*
D01*
G75*
G03X00318877I-00000762J0D01*
G74*G01*
D01*
G75*
G03X00320401I00000762J0D01*
G74*G01*
X00324249D02*
D01*
D01*
G75*
G03X00315029I-00004609J0D01*
G74*G01*
D01*
G75*
G03X00324249I00004610J0D01*
G74*G01*
X00271578Y00078249D02*
D01*
D01*
G75*
G03X00262358I-00004610J0D01*
G74*G01*
D01*
G75*
G03X00271578I00004609J0D01*
G74*G01*
X00156927Y00090112D02*
D01*
D01*
G75*
G03X00146058Y00073418I-00006178J-00007862D01*
G74*G01*
X00151511Y00082249D02*
D01*
D01*
G75*
G03X00149987I-00000762J0D01*
G74*G01*
D01*
G75*
G03X00151511I00000762J0D01*
G74*G01*
X00155359D02*
D01*
D01*
G75*
G03X00146139I-00004610J0D01*
G74*G01*
D01*
G75*
G03X00155359I00004609J0D01*
G74*G01*
X00144749Y00121249D02*
D01*
D01*
G75*
G03X00142749I-00001000J0D01*
G74*G01*
D01*
G75*
G03X00144749I00000999J0D01*
G74*G01*
X00160749Y00078874D02*
D01*
D01*
G75*
G03X00172016Y00081747I00005999J-0D01*
G74*G01*
X00149376Y00060482D02*
D01*
D01*
G75*
G03X00152249Y00071749I00002872J00005267D01*
G74*G01*
X00218919Y00275269D02*
D01*
D01*
G75*
G03X00216919I-00001000J0D01*
G74*G01*
D01*
G75*
G03X00218919I00000999J0D01*
G74*G01*
X00489389Y00454499D02*
D01*
D01*
G75*
G03X00487389I-00000999J0D01*
G74*G01*
D01*
G75*
G03X00489389I00000999J0D01*
G74*G01*
X00454499Y00486999D02*
D01*
D01*
G75*
G03X00452499I-00000999J0D01*
G74*G01*
D01*
G75*
G03X00454499I00000999J0D01*
G74*G01*
X00503249Y00157249D02*
D01*
D01*
G75*
G03X00501249I-00000999J0D01*
G74*G01*
D01*
G75*
G03X00503249I00001000J0D01*
G74*G01*
X00201249Y00093249D02*
D01*
D01*
G75*
G03X00199249I-00001000J0D01*
G74*G01*
D01*
G75*
G03X00201249I00000999J0D01*
G74*G01*
X00211674Y00174599D02*
D01*
D01*
G75*
G03X00209674I-00001000J0D01*
G74*G01*
D01*
G75*
G03X00211674I00000999J0D01*
G74*G01*
X00259349Y0028575D02*
D01*
D01*
G75*
G03X00257349I-00000999J0D01*
G74*G01*
D01*
G75*
G03X00259349I00001000J0D01*
G74*G01*
X00338749Y00403249D02*
D01*
D01*
G75*
G03X00336749I-00000999J0D01*
G74*G01*
D01*
G75*
G03X00338749I00000999J0D01*
G74*G01*
X00268999Y00453796D02*
D01*
D01*
G75*
G03X00266999I-00000999J0D01*
G74*G01*
D01*
G75*
G03X00268999I00000999J0D01*
G74*G01*
X00330749Y00125612D02*
D01*
D01*
G75*
G03X00328749I-00000999J0D01*
G74*G01*
D01*
G75*
G03X00330749I00000999J0D01*
G74*G01*
X00370249Y00173999D02*
D01*
D01*
G75*
G03X00368249I-00000999J0D01*
G74*G01*
D01*
G75*
G03X00370249I00000999J0D01*
G74*G01*
X00435999Y00173499D02*
D01*
D01*
G75*
G03X00433999I-00000999J0D01*
G74*G01*
D01*
G75*
G03X00435999I00000999J0D01*
G74*G01*
X00463749Y00201946D02*
D01*
D01*
G75*
G03X00461749I-00001000J0D01*
G74*G01*
D01*
G75*
G03X00463749I00000999J0D01*
G74*G01*
X00622249Y00273949D02*
D01*
D01*
G75*
G03X00620249I-00000999J0D01*
G74*G01*
D01*
G75*
G03X00622249I00000999J0D01*
G74*G01*
X00529749Y00338749D02*
D01*
D01*
G75*
G03X00527749I-00000999J0D01*
G74*G01*
D01*
G75*
G03X00529749I00000999J0D01*
G74*G01*
X00224349Y00485999D02*
D01*
D01*
G75*
G03X00222349I-00000999J0D01*
G74*G01*
D01*
G75*
G03X00224349I00000999J0D01*
G74*G01*
X00414249Y00417799D02*
D01*
D01*
G75*
G03X00412249I-00000999J0D01*
G74*G01*
D01*
G75*
G03X00414249I00000999J0D01*
G74*G01*
X00331389Y00237749D02*
Y00263499D01*
X00305639Y00237749D02*
X00309639Y00233749D01*
X00308404Y00239635D02*
X00308505Y00239735D01*
X00328893Y00260734D02*
X00333275D01*
X00305639Y00237749D02*
X00309639Y00241749D01*
X00333275Y00260734D02*
X00333375Y00260633D01*
X00327389Y00259499D02*
X00331389Y00263499D01*
X00309639Y00233749D02*
Y00241749D01*
X00305639Y00237749D02*
X00331389D01*
X00327389Y00259499D02*
X00335389D01*
X00331389Y00263499D02*
X00335389Y00259499D01*
X00308404Y00235252D02*
Y00239635D01*
X00255218Y00089499D02*
X00280969D01*
X00253233Y00066615D02*
X00253333Y00066514D01*
X00278103Y00087513D02*
X00278203Y00087613D01*
X00255218Y00063749D02*
Y00089499D01*
X00278203Y00087613D02*
Y00091996D01*
X00251219Y00067749D02*
X00259218D01*
X00255218Y00063749D02*
X00259218Y00067749D01*
X00276969Y00085499D02*
X00280969Y00089499D01*
X00266969Y00073749D02*
Y00082749D01*
X00276969Y00093499D02*
X00280969Y00089499D01*
X00251219Y00067749D02*
X00255218Y00063749D01*
X00262359Y00078249D02*
X00271468D01*
X00276969Y00085499D02*
Y00093499D01*
X00253333Y00066514D02*
X00257715D01*
X00154499Y00088999D02*
X00156499Y00092749D01*
X00156927Y00090112*
X00154499Y00088999D02*
X00156927Y00090112D01*
X00169999Y00079624D02*
X00172016Y00081747D01*
X00174139Y0007973D01*
X00169999Y00079624D02*
X00174139Y0007973D01*
X00151393Y00058358D02*
X00151499Y00062499D01*
X00149376Y00060482D02*
X00151393Y00058358D01*
X00149376Y00060482D02*
X00151499Y00062499D01*
X00149376Y00060482D02*
D01*
D01*
X00140999Y00065999D02*
X00166749D01*
X00144999Y00061999D02*
Y00069999D01*
X00140999Y00065999D02*
X00144999Y00061999D01*
X00140999Y00065999D02*
X00144999Y00069999D01*
X00143764Y00063502D02*
Y00067884D01*
X00143864Y00067985*
X00168635Y00088984D02*
X00168735Y00088883D01*
X00164252Y00088984D02*
X00168635D01*
X00166749Y00091749D02*
X00170749Y00087749D01*
X00162749D02*
X00166749Y00091749D01*
X00162749Y00087749D02*
X00170749D01*
X00166749Y00065999D02*
Y00091749D01*
G54D14*
X00456577Y00219946D02*
D01*
D01*
G75*
G03X00450921I-00002827J0D01*
G74*G01*
D01*
G75*
G03X00456577I00002828J0D01*
G74*G01*
X00131649Y00125749D02*
X00137249D01*
X00106249D02*
X00111849D01*
X00131649Y00094749D02*
X00137249D01*
X00106249D02*
X00111849D01*
X00208249Y00303999D02*
X00209749D01*
X00208249Y00283999D02*
X00209749D01*
X00510499Y00449399D02*
X00517349D01*
Y00470149D02*
Y00478599D01*
Y00449399D02*
Y00457849D01*
X00510499Y00478599D02*
X00517349D01*
X00471649Y00489399D02*
X00478499D01*
Y00510149D02*
Y00518599D01*
Y00489399D02*
Y00497849D01*
X00471649Y00518599D02*
X00478499D01*
X00203624Y00095499D02*
X00206124D01*
X00203624D02*
Y00097999D01*
X00233624Y00095499D02*
Y00097999D01*
X00231124Y00095499D02*
X00233624D01*
X00231124Y00125499D02*
X00233624D01*
Y00122999D02*
Y00125499D01*
X00203624Y00122999D02*
Y00125499D01*
X00206124*
X00279149Y00310749D02*
X0028575D01*
X00290449Y00292899D02*
Y00299599D01*
X00279149Y00281749D02*
X0028575D01*
X00342299Y00416999D02*
Y00439999D01*
X00318199Y00416999D02*
Y00439999D01*
X00263449Y00417046D02*
Y00440046D01*
X00287549Y00417046D02*
Y00440046D01*
X00334299Y00139362D02*
Y00162362D01*
X00310199Y00139362D02*
Y00162362D01*
X00364699Y00137249D02*
Y00160249D01*
X00388799Y00137249D02*
Y00160249D01*
X00430449Y00136749D02*
Y00159749D01*
X00454549Y00136749D02*
Y00159749D01*
X00430749Y00212946D02*
Y00256946D01*
X00460749Y00212946D02*
Y00256946D01*
X00623249Y00246999D02*
Y00266999D01*
X00596249Y00246999D02*
Y00266999D01*
X00556249Y00288749D02*
Y00318749D01*
X00526249Y00288749D02*
Y00318749D01*
X00244149Y00510999D02*
X00250749D01*
X00255449Y00493149D02*
Y00499849D01*
X00244149Y00481999D02*
X00250749D01*
X00438249Y00390399D02*
Y00396999D01*
X00420399Y00385699D02*
X00427099D01*
X00409249Y00390399D02*
Y00396999D01*
G54D15*
X00321749Y00281249D02*
D01*
D01*
G75*
G03X00320749I-00000499J0D01*
G74*G01*
D01*
G75*
G03X00321749I00000499J0D01*
G74*G01*
X00323249Y00279499D02*
Y00286999D01*
X00330749*
X00323249Y00279499D02*
X00330749D01*
Y00286999*
G54D16*
X00484832Y00321999D02*
X00485998Y00320833D01*
Y003185*
X00484832Y00317334*
X00480166*
X00479Y003185*
Y00320833*
X00480166Y00321999*
X00479Y00324332D02*
Y00326664D01*
Y00325498*
X00485998*
X00484832Y00324332*
X00260342Y00241225D02*
X00261508Y00240059D01*
Y00237726*
X00260342Y0023656*
X00255677*
X00254511Y00237726*
Y00240059*
X00255677Y00241225*
X00254511Y00248223D02*
Y00243558D01*
X00259176Y00248223*
X00260342*
X00261508Y00247056*
Y00244724*
X00260342Y00243558*
X00420583Y00350666D02*
X00419416Y003495D01*
X00417084*
X00415918Y00350666*
Y00355331*
X00417084Y00356498*
X00419416*
X00420583Y00355331*
X00422915Y00350666D02*
X00424082Y003495D01*
X00426414*
X0042758Y00350666*
Y00351833*
X00426414Y00352999*
X00425248*
X00426414*
X0042758Y00354165*
Y00355331*
X00426414Y00356498*
X00424082*
X00422915Y00355331*
X00423165Y00443082D02*
X00424332Y00444248D01*
X00426664*
X0042783Y00443082*
Y00438416*
X00426664Y0043725*
X00424332*
X00423165Y00438416*
X00417334Y0043725D02*
Y00444248D01*
X00420833Y00440749*
X00416168*
X00507832Y00245583D02*
X00508998Y00244416D01*
Y00242084*
X00507832Y00240919*
X00503166*
X00502Y00242084*
Y00244416*
X00503166Y00245583*
X00508998Y00252581D02*
Y00247915D01*
X00505499*
X00506665Y00250248*
Y00251414*
X00505499Y00252581*
X00503166*
X00502Y00251414*
Y00249082*
X00503166Y00247915*
X00498082Y00245583D02*
X00499248Y00244416D01*
Y00242084*
X00498082Y00240919*
X00493416*
X0049225Y00242084*
Y00244416*
X00493416Y00245583*
X00499248Y00252581D02*
X00498082Y00250248D01*
X00495749Y00247915*
X00493416*
X0049225Y00249082*
Y00251414*
X00493416Y00252581*
X00494583*
X00495749Y00251414*
Y00247915*
X00633582Y00230833D02*
X00634748Y00229666D01*
Y00227334*
X00633582Y00226167*
X00628916*
X0062775Y00227334*
Y00229666*
X00628916Y00230833*
X00634748Y00233165D02*
Y0023783D01*
X00633582*
X00628916Y00233165*
X0062775*
X00597332Y00228833D02*
X00598498Y00227666D01*
Y00225334*
X00597332Y00224167*
X00592666*
X005915Y00225334*
Y00227666*
X00592666Y00228833*
X00597332Y00231165D02*
X00598498Y00232332D01*
Y00234664*
X00597332Y0023583*
X00596165*
X00594999Y00234664*
X00593833Y0023583*
X00592666*
X005915Y00234664*
Y00232332*
X00592666Y00231165*
X00593833*
X00594999Y00232332*
X00596165Y00231165*
X00597332*
X00594999Y00232332D02*
Y00234664D01*
X00103165Y00088082D02*
X00104332Y00089248D01*
X00106664*
X0010783Y00088082*
Y00083416*
X00106664Y0008225*
X00104332*
X00103165Y00083416*
X00100833D02*
X00099666Y0008225D01*
X00097334*
X00096167Y00083416*
Y00088082*
X00097334Y00089248*
X00099666*
X00100833Y00088082*
Y00086915*
X00099666Y00085749*
X00096167*
X00136332Y00163667D02*
X00137498Y00162501D01*
Y00160168*
X00136332Y00159002*
X00131666*
X001305Y00160168*
Y00162501*
X00131666Y00163667*
X001305Y00166D02*
Y00168332D01*
Y00167166*
X00137498*
X00136332Y00166*
Y00171831D02*
X00137498Y00172997D01*
Y0017533*
X00136332Y00176496*
X00131666*
X001305Y0017533*
Y00172997*
X00131666Y00171831*
X00136332*
X00122332Y00163583D02*
X00123498Y00162417D01*
Y00160084*
X00122332Y00158918*
X00117666*
X001165Y00160084*
Y00162417*
X00117666Y00163583*
X001165Y00165916D02*
Y00168248D01*
Y00167082*
X00123498*
X00122332Y00165916*
X001165Y00171747D02*
Y0017408D01*
Y00172914*
X00123498*
X00122332Y00171747*
X00108332Y00163417D02*
X00109498Y00162251D01*
Y00159918*
X00108332Y00158752*
X00103666*
X001025Y00159918*
Y00162251*
X00103666Y00163417*
X001025Y0016575D02*
Y00168082D01*
Y00166916*
X00109498*
X00108332Y0016575*
X001025Y00176246D02*
Y00171581D01*
X00107165Y00176246*
X00108332*
X00109498Y0017508*
Y00172747*
X00108332Y00171581*
X00480332Y00212667D02*
X00481498Y00211501D01*
Y00209169*
X00480332Y00208002*
X00475666*
X004745Y00209169*
Y00211501*
X00475666Y00212667*
X004745Y00215D02*
Y00217332D01*
Y00216166*
X00481498*
X00480332Y00215*
Y00220831D02*
X00481498Y00221997D01*
Y0022433*
X00480332Y00225496*
X00479165*
X00477999Y0022433*
Y00223164*
Y0022433*
X00476833Y00225496*
X00475666*
X004745Y0022433*
Y00221997*
X00475666Y00220831*
X00394082Y00188167D02*
X00395248Y00187001D01*
Y00184668*
X00394082Y00183502*
X00389416*
X0038825Y00184668*
Y00187001*
X00389416Y00188167*
X0038825Y001905D02*
Y00192832D01*
Y00191666*
X00395248*
X00394082Y001905*
X0038825Y0019983D02*
X00395248D01*
X00391749Y00196331*
Y00200996*
X00358582Y00156917D02*
X00359748Y00155751D01*
Y00153418*
X00358582Y00152252*
X00353917*
X0035275Y00153418*
Y00155751*
X00353917Y00156917*
X0035275Y0015925D02*
Y00161582D01*
Y00160416*
X00359748*
X00358582Y0015925*
X00359748Y00169746D02*
Y00165081D01*
X00356249*
X00357415Y00167414*
Y0016858*
X00356249Y00169746*
X00353917*
X0035275Y0016858*
Y00166247*
X00353917Y00165081*
X00310582Y00461667D02*
X00311748Y00460502D01*
Y00458168*
X00310582Y00457002*
X00305916*
X0030475Y00458168*
Y00460502*
X00305916Y00461667*
X0030475Y00464D02*
Y00466332D01*
Y00465166*
X00311748*
X00310582Y00464*
X00311748Y00474496D02*
X00310582Y00472164D01*
X00308249Y00469831*
X00305916*
X0030475Y00470997*
Y0047333*
X00305916Y00474496*
X00307083*
X00308249Y0047333*
Y00469831*
X00368082Y00448167D02*
X00369248Y00447001D01*
Y00444668*
X00368082Y00443502*
X00363416*
X0036225Y00444668*
Y00447001*
X00363416Y00448167*
X0036225Y00450499D02*
Y00452832D01*
Y00451666*
X00369248*
X00368082Y00450499*
X00369248Y00456331D02*
Y00460996D01*
X00368082*
X00363416Y00456331*
X0036225*
X00238331Y00193082D02*
X00239497Y00194248D01*
X0024183*
X00242996Y00193082*
Y00188416*
X0024183Y0018725*
X00239497*
X00238331Y00188416*
X00235998Y0018725D02*
X00233666D01*
X00234832*
Y00194248*
X00235998Y00193082*
X00230167Y00188416D02*
X00229001Y0018725D01*
X00226668*
X00225502Y00188416*
Y00193082*
X00226668Y00194248*
X00229001*
X00230167Y00193082*
Y00191915*
X00229001Y00190749*
X00225502*
X00266164Y00275832D02*
X00267331Y00276998D01*
X00269663*
X00270829Y00275832*
Y00271167*
X00269663Y0027*
X00267331*
X00266164Y00271167*
X00259166Y0027D02*
X00263832D01*
X00259166Y00274665*
Y00275832*
X00260333Y00276998*
X00262665*
X00263832Y00275832*
X00256834D02*
X00255668Y00276998D01*
X00253335*
X00252169Y00275832*
Y00271167*
X00253335Y0027*
X00255668*
X00256834Y00271167*
Y00275832*
X00265573Y00259972D02*
X0026674Y00261138D01*
X00269072*
X00270239Y00259972*
Y00255307*
X00269072Y0025414*
X0026674*
X00265573Y00255307*
X00258576Y0025414D02*
X00263241D01*
X00258576Y00258805*
Y00259972*
X00259742Y00261138*
X00262074*
X00263241Y00259972*
X00256243Y0025414D02*
X0025391D01*
X00255077*
Y00261138*
X00256243Y00259972*
X00255664Y00103332D02*
X0025683Y00104498D01*
X00259163*
X00260329Y00103332*
Y00098666*
X00259163Y000975*
X0025683*
X00255664Y00098666*
X00248666Y000975D02*
X00253332D01*
X00248666Y00102165*
Y00103332*
X00249833Y00104498*
X00252165*
X00253332Y00103332*
X00241669Y00104498D02*
X00246334D01*
Y00100999*
X00244001Y00102165*
X00242835*
X00241669Y00100999*
Y00098666*
X00242835Y000975*
X00245167*
X00246334Y00098666*
X00305582Y00490834D02*
X00306748Y00489668D01*
Y00487335*
X00305582Y00486169*
X00300916*
X0029975Y00487335*
Y00489668*
X00300916Y00490834*
X0029975Y00497832D02*
Y00493166D01*
X00304415Y00497832*
X00305582*
X00306748Y00496665*
Y00494333*
X00305582Y00493166*
X00306748Y00504829D02*
X00305582Y00502497D01*
X00303249Y00500164*
X00300916*
X0029975Y0050133*
Y00503663*
X00300916Y00504829*
X00302083*
X00303249Y00503663*
Y00500164*
X00614332Y00097334D02*
X00615498Y00096167D01*
Y00093835*
X00614332Y00092669*
X00609666*
X006085Y00093835*
Y00096167*
X00609666Y00097334*
X006085Y00104332D02*
Y00099666D01*
X00613165Y00104332*
X00614332*
X00615498Y00103165*
Y00100833*
X00614332Y00099666*
X00615498Y00106664D02*
Y00111329D01*
X00614332*
X00609666Y00106664*
X006085*
X00531832Y00212584D02*
X00532998Y00211418D01*
Y00209085*
X00531832Y00207919*
X00527166*
X00526Y00209085*
Y00211418*
X00527166Y00212584*
X00526Y00219583D02*
Y00214916D01*
X00530665Y00219583*
X00531832*
X00532998Y00218415*
Y00216083*
X00531832Y00214916*
Y00221914D02*
X00532998Y0022308D01*
Y00225413*
X00531832Y00226579*
X00530665*
X00529499Y00225413*
X00528333Y00226579*
X00527166*
X00526Y00225413*
Y0022308*
X00527166Y00221914*
X00528333*
X00529499Y0022308*
X00530665Y00221914*
X00531832*
X00529499Y0022308D02*
Y00225413D01*
X00587332Y00071294D02*
X00588498Y00070127D01*
Y00067795*
X00587332Y00066629*
X00582666*
X005815Y00067795*
Y00070127*
X00582666Y00071294*
X005815Y00078291D02*
Y00073626D01*
X00586165Y00078291*
X00587332*
X00588498Y00077125*
Y00074793*
X00587332Y00073626*
X00582666Y00080624D02*
X005815Y0008179D01*
Y00084123*
X00582666Y00085289*
X00587332*
X00588498Y00084123*
Y0008179*
X00587332Y00080624*
X00586165*
X00584999Y0008179*
Y00085289*
X00614332Y00186334D02*
X00615498Y00185167D01*
Y00182835*
X00614332Y00181669*
X00609666*
X006085Y00182835*
Y00185167*
X00609666Y00186334*
X00614332Y00188666D02*
X00615498Y00189833D01*
Y00192165*
X00614332Y00193332*
X00613165*
X00611999Y00192165*
Y00190999*
Y00192165*
X00610833Y00193332*
X00609666*
X006085Y00192165*
Y00189833*
X00609666Y00188666*
X00614332Y00195664D02*
X00615498Y0019683D01*
Y00199163*
X00614332Y00200329*
X00609666*
X006085Y00199163*
Y0019683*
X00609666Y00195664*
X00614332*
X00572582Y0007146D02*
X00573748Y00070294D01*
Y00067961*
X00572582Y00066795*
X00567916*
X0056675Y00067961*
Y00070294*
X00567916Y0007146*
X00572582Y00073793D02*
X00573748Y00074959D01*
Y00077292*
X00572582Y00078458*
X00571415*
X00570249Y00077292*
Y00076125*
Y00077292*
X00569083Y00078458*
X00567916*
X0056675Y00077292*
Y00074959*
X00567916Y00073793*
X0056675Y00080791D02*
Y00083123D01*
Y00081957*
X00573748*
X00572582Y00080791*
X00545582Y00212834D02*
X00546748Y00211667D01*
Y00209335*
X00545582Y00208169*
X00540916*
X0053975Y00209335*
Y00211667*
X00540916Y00212834*
X00545582Y00215166D02*
X00546748Y00216333D01*
Y00218665*
X00545582Y00219832*
X00544415*
X00543249Y00218665*
Y00217499*
Y00218665*
X00542083Y00219832*
X00540916*
X0053975Y00218665*
Y00216333*
X00540916Y00215166*
X0053975Y00226829D02*
Y00222164D01*
X00544415Y00226829*
X00545582*
X00546748Y00225663*
Y00223331*
X00545582Y00222164*
X00602578Y00159623D02*
X00603744Y00158457D01*
Y00156125*
X00602578Y00154958*
X00597913*
X00596746Y00156125*
Y00158457*
X00597913Y00159623*
X00602578Y00161956D02*
X00603744Y00163122D01*
Y00165455*
X00602578Y00166621*
X00601411*
X00600245Y00165455*
Y00164289*
Y00165455*
X00599079Y00166621*
X00597913*
X00596746Y00165455*
Y00163122*
X00597913Y00161956*
X00602578Y00168954D02*
X00603744Y0017012D01*
Y00172453*
X00602578Y00173619*
X00601411*
X00600245Y00172453*
Y00171286*
Y00172453*
X00599079Y00173619*
X00597913*
X00596746Y00172453*
Y0017012*
X00597913Y00168954*
X00587379Y00212915D02*
X00588546Y00211749D01*
Y00209416*
X00587379Y0020825*
X00582714*
X00581548Y00209416*
Y00211749*
X00582714Y00212915*
X00587379Y00215248D02*
X00588546Y00216414D01*
Y00218747*
X00587379Y00219913*
X00586213*
X00585047Y00218747*
Y0021758*
Y00218747*
X0058388Y00219913*
X00582714*
X00581548Y00218747*
Y00216414*
X00582714Y00215248*
X00581548Y00225744D02*
X00588546D01*
X00585047Y00222245*
Y00226911*
X00587578Y00159623D02*
X00588744Y00158457D01*
Y00156125*
X00587578Y00154958*
X00582913*
X00581746Y00156125*
Y00158457*
X00582913Y00159623*
X00587578Y00161956D02*
X00588744Y00163122D01*
Y00165455*
X00587578Y00166621*
X00586411*
X00585245Y00165455*
Y00164289*
Y00165455*
X00584079Y00166621*
X00582913*
X00581746Y00165455*
Y00163122*
X00582913Y00161956*
X00588744Y00173619D02*
Y00168954D01*
X00585245*
X00586411Y00171286*
Y00172453*
X00585245Y00173619*
X00582913*
X00581746Y00172453*
Y0017012*
X00582913Y00168954*
X00573379Y00212915D02*
X00574546Y00211749D01*
Y00209416*
X00573379Y0020825*
X00568714*
X00567548Y00209416*
Y00211749*
X00568714Y00212915*
X00573379Y00215248D02*
X00574546Y00216414D01*
Y00218747*
X00573379Y00219913*
X00572213*
X00571047Y00218747*
Y0021758*
Y00218747*
X00569881Y00219913*
X00568714*
X00567548Y00218747*
Y00216414*
X00568714Y00215248*
X00574546Y00226911D02*
X00573379Y00224578D01*
X00571047Y00222245*
X00568714*
X00567548Y00223412*
Y00225744*
X00568714Y00226911*
X00569881*
X00571047Y00225744*
Y00222245*
X00572332Y00159874D02*
X00573498Y00158707D01*
Y00156375*
X00572332Y00155209*
X00567666*
X005665Y00156375*
Y00158707*
X00567666Y00159874*
X00572332Y00162206D02*
X00573498Y00163373D01*
Y00165705*
X00572332Y00166872*
X00571165*
X00569999Y00165705*
Y00164539*
Y00165705*
X00568833Y00166872*
X00567666*
X005665Y00165705*
Y00163373*
X00567666Y00162206*
X00573498Y00169204D02*
Y00173869D01*
X00572332*
X00567666Y00169204*
X005665*
X00559379Y00212915D02*
X00560546Y00211749D01*
Y00209416*
X00559379Y0020825*
X00554714*
X00553548Y00209416*
Y00211749*
X00554714Y00212915*
X00559379Y00215248D02*
X00560546Y00216414D01*
Y00218747*
X00559379Y00219913*
X00558213*
X00557047Y00218747*
Y0021758*
Y00218747*
X00555881Y00219913*
X00554714*
X00553548Y00218747*
Y00216414*
X00554714Y00215248*
X00559379Y00222245D02*
X00560546Y00223412D01*
Y00225744*
X00559379Y00226911*
X00558213*
X00557047Y00225744*
X00555881Y00226911*
X00554714*
X00553548Y00225744*
Y00223412*
X00554714Y00222245*
X00555881*
X00557047Y00223412*
X00558213Y00222245*
X00559379*
X00557047Y00223412D02*
Y00225744D01*
X00499995Y00169981D02*
X00501161Y00171147D01*
X00503494*
X0050466Y00169981*
Y00165316*
X00503494Y0016415*
X00501161*
X00499995Y00165316*
X00497662Y00169981D02*
X00496496Y00171147D01*
X00494164*
X00492997Y00169981*
Y00168815*
X00494164Y00167648*
X0049533*
X00494164*
X00492997Y00166482*
Y00165316*
X00494164Y0016415*
X00496496*
X00497662Y00165316*
X00490665D02*
X00489498Y0016415D01*
X00487166*
X00486Y00165316*
Y00169981*
X00487166Y00171147*
X00489498*
X00490665Y00169981*
Y00168815*
X00489498Y00167648*
X00486*
X00345414Y00204082D02*
X0034658Y00205248D01*
X00348913*
X00350079Y00204082*
Y00199416*
X00348913Y0019825*
X0034658*
X00345414Y00199416*
X00339583Y0019825D02*
Y00205248D01*
X00343082Y00201749*
X00338416*
X00336084Y00204082D02*
X00334918Y00205248D01*
X00332585*
X00331419Y00204082*
Y00199416*
X00332585Y0019825*
X00334918*
X00336084Y00199416*
Y00204082*
X00284832Y001735D02*
X00285998Y00172334D01*
Y00170001*
X00284832Y00168835*
X00280166*
X00279Y00170001*
Y00172334*
X00280166Y001735*
X00279Y00179332D02*
X00285998D01*
X00282499Y00175833*
Y00180498*
X00279Y0018283D02*
Y00185163D01*
Y00183997*
X00285998*
X00284832Y0018283*
X00384582Y00320584D02*
X00385748Y00319418D01*
Y00317085*
X00384582Y00315919*
X00379916*
X0037875Y00317085*
Y00319418*
X00379916Y00320584*
X0037875Y00326415D02*
X00385748D01*
X00382249Y00322916*
Y00327582*
X0037875Y00334579D02*
Y00329914D01*
X00383415Y00334579*
X00384582*
X00385748Y00333413*
Y00331081*
X00384582Y00329914*
X00251414Y00476832D02*
X00252581Y00477998D01*
X00254913*
X00256079Y00476832*
Y00472166*
X00254913Y00471*
X00252581*
X00251414Y00472166*
X00245583Y00471D02*
Y00477998D01*
X00249082Y00474499*
X00244416*
X00242084Y00476832D02*
X00240919Y00477998D01*
X00238585*
X00237419Y00476832*
Y00475665*
X00238585Y00474499*
X00239751*
X00238585*
X00237419Y00473333*
Y00472166*
X00238585Y00471*
X00240919*
X00242084Y00472166*
X00316332Y00490584D02*
X00317498Y00489418D01*
Y00487085*
X00316332Y00485919*
X00311666*
X003105Y00487085*
Y00489418*
X00311666Y00490584*
X003105Y00496415D02*
X00317498D01*
X00313999Y00492916*
Y00497582*
X003105Y00503413D02*
X00317498D01*
X00313999Y00499914*
Y00504579*
X00585164Y00436082D02*
X0058633Y00437248D01*
X00588663*
X00589829Y00436082*
Y00431416*
X00588663Y0043025*
X0058633*
X00585164Y00431416*
X00579333Y0043025D02*
Y00437248D01*
X00582832Y00433749*
X00578166*
X00571169Y00437248D02*
X00575834D01*
Y00433749*
X00573501Y00434915*
X00572335*
X00571169Y00433749*
Y00431416*
X00572335Y0043025*
X00574668*
X00575834Y00431416*
X00405998Y00386585D02*
X00399D01*
Y00390084*
X00400166Y0039125*
X00404832*
X00405998Y00390084*
Y00386585*
X00399Y00393583D02*
X00403665D01*
X00405998Y00395915*
X00403665Y00398248*
X00399*
X00402499*
Y00393583*
X00399Y00400581D02*
Y00402913D01*
Y00401747*
X00405998*
X00404832Y00400581*
X00224498Y00492419D02*
X002175D01*
Y00495918*
X00218666Y00497084*
X00223332*
X00224498Y00495918*
Y00492419*
X002175Y00499416D02*
X00222165D01*
X00224498Y00501749*
X00222165Y00504082*
X002175*
X00220999*
Y00499416*
X002175Y00511079D02*
Y00506414D01*
X00222165Y00511079*
X00223332*
X00224498Y00509913*
Y0050758*
X00223332Y00506414*
X00522498Y00294169D02*
X005155D01*
Y00297667*
X00516666Y00298834*
X00521332*
X00522498Y00297667*
Y00294169*
Y00301166D02*
X005155D01*
Y00304665*
X00516666Y00305832*
X00521332*
X00522498Y00304665*
Y00301166*
X005155Y00312829D02*
Y00308164D01*
X00520165Y00312829*
X00521332*
X00522498Y00311663*
Y0030933*
X00521332Y00308164*
X00633498Y00247919D02*
X006265D01*
Y00251417*
X00627666Y00252584*
X00632333*
X00633498Y00251417*
Y00247919*
Y00254916D02*
X006265D01*
Y00258415*
X00627666Y00259582*
X00632333*
X00633498Y00258415*
Y00254916*
X00632333Y00261914D02*
X00633498Y0026308D01*
Y00265413*
X00632333Y00266579*
X00631165*
X00629999Y00265413*
Y00264247*
Y00265413*
X00628833Y00266579*
X00627666*
X006265Y00265413*
Y0026308*
X00627666Y00261914*
X00470998Y00227169D02*
X00464D01*
Y00230668*
X00465166Y00231834*
X00469832*
X00470998Y00230668*
Y00227169*
Y00234166D02*
X00464D01*
Y00237665*
X00465166Y00238831*
X00469832*
X00470998Y00237665*
Y00234166*
X00464Y00244663D02*
X00470998D01*
X00467499Y00241164*
Y00245829*
X00102998Y00101419D02*
X00096D01*
Y00104917*
X00097166Y00106084*
X00101832*
X00102998Y00104917*
Y00101419*
Y00108416D02*
X00096D01*
Y00111915*
X00097166Y00113082*
X00101832*
X00102998Y00111915*
Y00108416*
Y00120079D02*
Y00115414D01*
X00099499*
X00100665Y00117747*
Y00118913*
X00099499Y00120079*
X00097166*
X00096Y00118913*
Y0011658*
X00097166Y00115414*
X00451079Y00125248D02*
Y0011825D01*
X0044758*
X00446414Y00119416*
Y00124082*
X0044758Y00125248*
X00451079*
X00444082D02*
Y0011825D01*
X00440583*
X00439416Y00119416*
Y00124082*
X00440583Y00125248*
X00444082*
X00432419D02*
X00434751Y00124082D01*
X00437084Y00121749*
Y00119416*
X00435918Y0011825*
X00433585*
X00432419Y00119416*
Y00120583*
X00433585Y00121749*
X00437084*
X00384329Y00125248D02*
Y0011825D01*
X0038083*
X00379664Y00119416*
Y00124082*
X0038083Y00125248*
X00384329*
X00377332D02*
Y0011825D01*
X00373833*
X00372666Y00119416*
Y00124082*
X00373833Y00125248*
X00377332*
X00370334D02*
X00365669D01*
Y00124082*
X00370334Y00119416*
Y0011825*
X00331579Y00180498D02*
Y001735D01*
X00328081*
X00326914Y00174666*
Y00179332*
X00328081Y00180498*
X00331579*
X00324582D02*
Y001735D01*
X00321083*
X00319916Y00174666*
Y00179332*
X00321083Y00180498*
X00324582*
X00317584Y00179332D02*
X00316417Y00180498D01*
X00314085*
X00312919Y00179332*
Y00178165*
X00314085Y00176999*
X00312919Y00175833*
Y00174666*
X00314085Y001735*
X00316417*
X00317584Y00174666*
Y00175833*
X00316417Y00176999*
X00317584Y00178165*
Y00179332*
X00316417Y00176999D02*
X00314085D01*
X00284829Y00406248D02*
Y0039925D01*
X00281331*
X00280164Y00400416*
Y00405082*
X00281331Y00406248*
X00284829*
X00277832D02*
Y0039925D01*
X00274333*
X00273166Y00400416*
Y00405082*
X00274333Y00406248*
X00277832*
X00270834Y00400416D02*
X00269668Y0039925D01*
X00267335*
X00266169Y00400416*
Y00405082*
X00267335Y00406248*
X00269668*
X00270834Y00405082*
Y00403915*
X00269668Y00402749*
X00266169*
X00342495Y00458498D02*
Y004515D01*
X00338996*
X0033783Y00452666*
Y00457332*
X00338996Y00458498*
X00342495*
X00335497D02*
Y004515D01*
X00331998*
X00330832Y00452666*
Y00457332*
X00331998Y00458498*
X00335497*
X003285Y004515D02*
X00326167D01*
X00327333*
Y00458498*
X003285Y00457332*
X00322668D02*
X00321502Y00458498D01*
X00319169*
X00318003Y00457332*
Y00452666*
X00319169Y004515*
X00321502*
X00322668Y00452666*
Y00457332*
X00293745Y00321498D02*
Y003145D01*
X00290246*
X0028908Y00315666*
Y00320332*
X00290246Y00321498*
X00293745*
X00286747D02*
Y003145D01*
X00283248*
X00282082Y00315666*
Y00320332*
X00283248Y00321498*
X00286747*
X00279749Y003145D02*
X00277417D01*
X00278583*
Y00321498*
X00279749Y00320332*
X00269253Y003145D02*
X00273918D01*
X00269253Y00319165*
Y00320332*
X00270419Y00321498*
X00272752*
X00273918Y00320332*
X00230245Y00136248D02*
Y0012925D01*
X00226746*
X0022558Y00130416*
Y00135082*
X00226746Y00136248*
X00230245*
X00223247D02*
Y0012925D01*
X00219748*
X00218582Y00130416*
Y00135082*
X00219748Y00136248*
X00223247*
X00216249Y0012925D02*
X00213917D01*
X00215083*
Y00136248*
X00216249Y00135082*
X00206919Y0012925D02*
Y00136248D01*
X00210418Y00132749*
X00205753*
X00340248Y00271503D02*
X0033325D01*
Y00275002*
X00334416Y00276168*
X00339082*
X00340248Y00275002*
Y00271503*
Y00278501D02*
X0033325D01*
Y00282*
X00334416Y00283166*
X00339082*
X00340248Y00282*
Y00278501*
X0033325Y00285498D02*
Y00287831D01*
Y00286665*
X00340248*
X00339082Y00285498*
X00340248Y00295995D02*
Y0029133D01*
X00336749*
X00337915Y00293663*
Y00294829*
X00336749Y00295995*
X00334416*
X0033325Y00294829*
Y00292496*
X00334416Y0029133*
X00552248Y00480498D02*
X0055458D01*
X00553414*
Y00474666*
X0055458Y004735*
X00555747*
X00556913Y00474666*
X00549915Y004735D02*
Y00480498D01*
X00546416*
X0054525Y00479332*
Y00476999*
X00546416Y00475833*
X00549915*
X00542918Y004735D02*
X00540585D01*
X00541751*
Y00480498*
X00542918Y00479332*
X00224414Y0053975D02*
Y00546748D01*
X00220915*
X00219749Y00545582*
Y00543249*
X00220915Y00542083*
X00224414*
X00222082D02*
X00219749Y0053975D01*
X00217416D02*
X00215084D01*
X0021625*
Y00546748*
X00217416Y00545582*
X0041658Y002075D02*
Y00214498D01*
X00413082*
X00411915Y00213332*
Y00210999*
X00413082Y00209833*
X0041658*
X00414248D02*
X00411915Y002075D01*
X00404918D02*
X00409583D01*
X00404918Y00212165*
Y00213332*
X00406084Y00214498*
X00408416*
X00409583Y00213332*
X0041733Y00246D02*
Y00252998D01*
X00413832*
X00412665Y00251832*
Y00249499*
X00413832Y00248333*
X0041733*
X00414998D02*
X00412665Y00246D01*
X00410333Y00251832D02*
X00409166Y00252998D01*
X00406834*
X00405667Y00251832*
Y00250665*
X00406834Y00249499*
X00408*
X00406834*
X00405667Y00248333*
Y00247166*
X00406834Y00246*
X00409166*
X00410333Y00247166*
X0034475Y00242667D02*
X00351748D01*
Y00246166*
X00350582Y00247333*
X00348249*
X00347083Y00246166*
Y00242667*
Y00245D02*
X0034475Y00247333D01*
Y00253164D02*
X00351748D01*
X00348249Y00249665*
Y0025433*
X0036025Y00242417D02*
X00367248D01*
Y00245916*
X00366082Y00247083*
X00363749*
X00362583Y00245916*
Y00242417*
Y0024475D02*
X0036025Y00247083D01*
X00367248Y0025408D02*
Y00249415D01*
X00363749*
X00364915Y00251748*
Y00252914*
X00363749Y0025408*
X00361416*
X0036025Y00252914*
Y00250582*
X00361416Y00249415*
X002255Y00237917D02*
X00232498D01*
Y00241416*
X00231332Y00242583*
X00228999*
X00227833Y00241416*
Y00237917*
Y0024025D02*
X002255Y00242583D01*
X00232498Y0024958D02*
X00231332Y00247248D01*
X00228999Y00244915*
X00226666*
X002255Y00246082*
Y00248414*
X00226666Y0024958*
X00227833*
X00228999Y00248414*
Y00244915*
X0023925Y00237667D02*
X00246248D01*
Y00241166*
X00245082Y00242333*
X00242749*
X00241583Y00241166*
Y00237667*
Y0024D02*
X0023925Y00242333D01*
X00246248Y00244665D02*
Y0024933D01*
X00245082*
X00240416Y00244665*
X0023925*
X00362Y00376917D02*
X00368998D01*
Y00380416*
X00367832Y00381583*
X00365499*
X00364333Y00380416*
Y00376917*
Y0037925D02*
X00362Y00381583D01*
X00367832Y00383915D02*
X00368998Y00385082D01*
Y00387414*
X00367832Y0038858*
X00366665*
X00365499Y00387414*
X00364333Y0038858*
X00363166*
X00362Y00387414*
Y00385082*
X00363166Y00383915*
X00364333*
X00365499Y00385082*
X00366665Y00383915*
X00367832*
X00365499Y00385082D02*
Y00387414D01*
X00354248Y00388081D02*
X0034725D01*
Y00384582*
X00348416Y00383415*
X00350749*
X00351915Y00384582*
Y00388081*
Y00385748D02*
X00354248Y00383415D01*
X00353082Y00381083D02*
X00354248Y00379916D01*
Y00377584*
X00353082Y00376418*
X00348416*
X0034725Y00377584*
Y00379916*
X00348416Y00381083*
X00349583*
X00350749Y00379916*
Y00376418*
X005215Y00527252D02*
X00528498D01*
Y00530751*
X00527332Y00531917*
X00524999*
X00523833Y00530751*
Y00527252*
Y00529584D02*
X005215Y00531917D01*
Y00534249D02*
Y00536582D01*
Y00535416*
X00528498*
X00527332Y00534249*
Y00540081D02*
X00528498Y00541247D01*
Y0054358*
X00527332Y00544746*
X00522666*
X005215Y0054358*
Y00541247*
X00522666Y00540081*
X00527332*
X0054675Y00529168D02*
X00553748D01*
Y00532667*
X00552582Y00533833*
X00550249*
X00549083Y00532667*
Y00529168*
Y00531501D02*
X0054675Y00533833D01*
Y00536166D02*
Y00538498D01*
Y00537332*
X00553748*
X00552582Y00536166*
X0054675Y00541997D02*
Y0054433D01*
Y00543164*
X00553748*
X00552582Y00541997*
X00132746Y0043475D02*
Y00441748D01*
X00129247*
X00128081Y00440582*
Y00438249*
X00129247Y00437083*
X00132746*
X00130414D02*
X00128081Y0043475D01*
X00125748D02*
X00123416D01*
X00124582*
Y00441748*
X00125748Y00440582*
X00115252Y0043475D02*
X00119917D01*
X00115252Y00439415*
Y00440582*
X00116418Y00441748*
X00118751*
X00119917Y00440582*
X00131996Y004735D02*
Y00480498D01*
X00128497*
X00127331Y00479332*
Y00476999*
X00128497Y00475833*
X00131996*
X00129664D02*
X00127331Y004735D01*
X00124998D02*
X00122666D01*
X00123832*
Y00480498*
X00124998Y00479332*
X00119167D02*
X00118001Y00480498D01*
X00115668*
X00114502Y00479332*
Y00478165*
X00115668Y00476999*
X00116834*
X00115668*
X00114502Y00475833*
Y00474666*
X00115668Y004735*
X00118001*
X00119167Y00474666*
X003805Y00531252D02*
X00387498D01*
Y00534751*
X00386332Y00535917*
X00383999*
X00382833Y00534751*
Y00531252*
Y00533584D02*
X003805Y00535917D01*
Y0053825D02*
Y00540582D01*
Y00539416*
X00387498*
X00386332Y0053825*
X003805Y0054758D02*
X00387498D01*
X00383999Y00544081*
Y00548746*
X003545Y00531252D02*
X00361498D01*
Y00534751*
X00360332Y00535917*
X00357999*
X00356833Y00534751*
Y00531252*
Y00533584D02*
X003545Y00535917D01*
Y0053825D02*
Y00540582D01*
Y00539416*
X00361498*
X00360332Y0053825*
X00361498Y00548746D02*
Y00544081D01*
X00357999*
X00359165Y00546414*
Y0054758*
X00357999Y00548746*
X00355666*
X003545Y0054758*
Y00545247*
X00355666Y00544081*
X003285Y00530752D02*
X00335498D01*
Y00534251*
X00334332Y00535417*
X00331999*
X00330833Y00534251*
Y00530752*
Y00533084D02*
X003285Y00535417D01*
Y0053775D02*
Y00540082D01*
Y00538916*
X00335498*
X00334332Y0053775*
X00335498Y00548246D02*
X00334332Y00545914D01*
X00331999Y00543581*
X00329666*
X003285Y00544747*
Y0054708*
X00329666Y00548246*
X00330833*
X00331999Y0054708*
Y00543581*
X005175Y00380252D02*
X00524498D01*
Y00383751*
X00523332Y00384917*
X00520999*
X00519833Y00383751*
Y00380252*
Y00382584D02*
X005175Y00384917D01*
Y0038725D02*
Y00389582D01*
Y00388416*
X00524498*
X00523332Y0038725*
X00524498Y00393081D02*
Y00397746D01*
X00523332*
X00518666Y00393081*
X005175*
X00578Y00237002D02*
X00584998D01*
Y00240501*
X00583832Y00241667*
X00581499*
X00580333Y00240501*
Y00237002*
Y00239334D02*
X00578Y00241667D01*
Y00244D02*
Y00246332D01*
Y00245166*
X00584998*
X00583832Y00244*
Y00249831D02*
X00584998Y00250997D01*
Y0025333*
X00583832Y00254496*
X00582665*
X00581499Y0025333*
X00580333Y00254496*
X00579166*
X00578Y0025333*
Y00250997*
X00579166Y00249831*
X00580333*
X00581499Y00250997*
X00582665Y00249831*
X00583832*
X00581499Y00250997D02*
Y0025333D01*
X0056775Y00237002D02*
X00574748D01*
Y00240501*
X00573582Y00241667*
X00571249*
X00570083Y00240501*
Y00237002*
Y00239334D02*
X0056775Y00241667D01*
Y00244D02*
Y00246332D01*
Y00245166*
X00574748*
X00573582Y00244*
X00568917Y00249831D02*
X0056775Y00250997D01*
Y0025333*
X00568917Y00254496*
X00573582*
X00574748Y0025333*
Y00250997*
X00573582Y00249831*
X00572415*
X00571249Y00250997*
Y00254496*
X0053175Y00379919D02*
X00538748D01*
Y00383418*
X00537582Y00384584*
X00535249*
X00534083Y00383418*
Y00379919*
Y00382251D02*
X0053175Y00384584D01*
Y00391581D02*
Y00386916D01*
X00536415Y00391581*
X00537582*
X00538748Y00390415*
Y00388083*
X00537582Y00386916*
Y00393914D02*
X00538748Y0039508D01*
Y00397413*
X00537582Y00398579*
X00532916*
X0053175Y00397413*
Y0039508*
X00532916Y00393914*
X00537582*
X0054575Y00380085D02*
X00552748D01*
Y00383584*
X00551582Y0038475*
X00549249*
X00548083Y00383584*
Y00380085*
Y00382417D02*
X0054575Y0038475D01*
Y00391748D02*
Y00387083D01*
X00550415Y00391748*
X00551582*
X00552748Y00390582*
Y00388249*
X00551582Y00387083*
X0054575Y00394081D02*
Y00396413D01*
Y00395247*
X00552748*
X00551582Y00394081*
X005595Y00380419D02*
X00566498D01*
Y00383917*
X00565332Y00385084*
X00562999*
X00561833Y00383917*
Y00380419*
Y00382751D02*
X005595Y00385084D01*
Y00392082D02*
Y00387416D01*
X00564165Y00392082*
X00565332*
X00566498Y00390915*
Y00388583*
X00565332Y00387416*
X005595Y00399079D02*
Y00394414D01*
X00564165Y00399079*
X00565332*
X00566498Y00397913*
Y00395581*
X00565332Y00394414*
X0045825Y00118919D02*
X00465248D01*
Y00122417*
X00464082Y00123584*
X00461749*
X00460583Y00122417*
Y00118919*
Y00121251D02*
X0045825Y00123584D01*
Y00130582D02*
Y00125916D01*
X00462915Y00130582*
X00464082*
X00465248Y00129415*
Y00127083*
X00464082Y00125916*
Y00132914D02*
X00465248Y0013408D01*
Y00136413*
X00464082Y00137579*
X00462915*
X00461749Y00136413*
Y00135247*
Y00136413*
X00460583Y00137579*
X00459416*
X0045825Y00136413*
Y0013408*
X00459416Y00132914*
X003925Y00119419D02*
X00399498D01*
Y00122918*
X00398332Y00124084*
X00395999*
X00394833Y00122918*
Y00119419*
Y00121751D02*
X003925Y00124084D01*
Y00131082D02*
Y00126416D01*
X00397165Y00131082*
X00398332*
X00399498Y00129915*
Y00127583*
X00398332Y00126416*
X003925Y00136913D02*
X00399498D01*
X00395999Y00133414*
Y00138079*
X002985Y00162856D02*
X00305498D01*
Y00166355*
X00304331Y00167521*
X00301999*
X00300832Y00166355*
Y00162856*
Y00165188D02*
X002985Y00167521D01*
Y00174519D02*
Y00169854D01*
X00303165Y00174519*
X00304331*
X00305498Y00173353*
Y0017102*
X00304331Y00169854*
X00305498Y00181517D02*
Y00176851D01*
X00301999*
X00303165Y00179184*
Y0018035*
X00301999Y00181517*
X00299666*
X002985Y0018035*
Y00178018*
X00299666Y00176851*
X0029275Y00398919D02*
X00299748D01*
Y00402418*
X00298582Y00403584*
X00296249*
X00295083Y00402418*
Y00398919*
Y00401251D02*
X0029275Y00403584D01*
Y00410582D02*
Y00405916D01*
X00297415Y00410582*
X00298582*
X00299748Y00409415*
Y00407083*
X00298582Y00405916*
X00299748Y00417579D02*
X00298582Y00415247D01*
X00296249Y00412914*
X00293916*
X0029275Y0041408*
Y00416413*
X00293916Y00417579*
X00295083*
X00296249Y00416413*
Y00412914*
X0030625Y00398919D02*
X00313248D01*
Y00402418*
X00312082Y00403584*
X00309749*
X00308583Y00402418*
Y00398919*
Y00401251D02*
X0030625Y00403584D01*
Y00410582D02*
Y00405916D01*
X00310915Y00410582*
X00312082*
X00313248Y00409415*
Y00407083*
X00312082Y00405916*
X00313248Y00412914D02*
Y00417579D01*
X00312082*
X00307416Y00412914*
X0030625*
X0042775Y00495169D02*
X00434748D01*
Y00498668*
X00433582Y00499834*
X00431249*
X00430083Y00498668*
Y00495169*
Y00497501D02*
X0042775Y00499834D01*
Y00506832D02*
Y00502166D01*
X00432415Y00506832*
X00433582*
X00434748Y00505665*
Y00503333*
X00433582Y00502166*
X00428916Y00509164D02*
X0042775Y0051033D01*
Y00512663*
X00428916Y00513829*
X00433582*
X00434748Y00512663*
Y0051033*
X00433582Y00509164*
X00432415*
X00431249Y0051033*
Y00513829*
X00428Y00462669D02*
X00434998D01*
Y00466168*
X00433832Y00467334*
X00431499*
X00430333Y00466168*
Y00462669*
Y00465001D02*
X00428Y00467334D01*
X00433832Y00469666D02*
X00434998Y00470833D01*
Y00473165*
X00433832Y00474332*
X00432665*
X00431499Y00473165*
Y00471999*
Y00473165*
X00430333Y00474332*
X00429166*
X00428Y00473165*
Y00470833*
X00429166Y00469666*
X00433832Y00476664D02*
X00434998Y0047783D01*
Y00480163*
X00433832Y0048133*
X00429166*
X00428Y00480163*
Y0047783*
X00429166Y00476664*
X00433832*
X0057175Y00528835D02*
X00578748D01*
Y00532334*
X00577582Y005335*
X00575249*
X00574083Y00532334*
Y00528835*
Y00531168D02*
X0057175Y005335D01*
X00577582Y00535833D02*
X00578748Y00536999D01*
Y00539332*
X00577582Y00540498*
X00576415*
X00575249Y00539332*
Y00538165*
Y00539332*
X00574083Y00540498*
X00572916*
X0057175Y00539332*
Y00536999*
X00572916Y00535833*
X0057175Y0054283D02*
Y00545163D01*
Y00543997*
X00578748*
X00577582Y0054283*
X00196329Y0008325D02*
Y00090248D01*
X0019283*
X00191664Y00089082*
Y00086749*
X0019283Y00085583*
X00196329*
X00193997D02*
X00191664Y0008325D01*
X00189332Y00089082D02*
X00188165Y00090248D01*
X00185833*
X00184666Y00089082*
Y00087915*
X00185833Y00086749*
X00186999*
X00185833*
X00184666Y00085583*
Y00084416*
X00185833Y0008325*
X00188165*
X00189332Y00084416*
X00177669Y0008325D02*
X00182334D01*
X00177669Y00087915*
Y00089082*
X00178835Y00090248*
X00181167*
X00182334Y00089082*
X00174829Y00114D02*
Y00120998D01*
X0017133*
X00170164Y00119832*
Y00117499*
X0017133Y00116333*
X00174829*
X00172497D02*
X00170164Y00114D01*
X00167832Y00119832D02*
X00166665Y00120998D01*
X00164333*
X00163166Y00119832*
Y00118665*
X00164333Y00117499*
X00165499*
X00164333*
X00163166Y00116333*
Y00115167*
X00164333Y00114*
X00166665*
X00167832Y00115167*
X00160834Y00119832D02*
X00159668Y00120998D01*
X00157335*
X00156169Y00119832*
Y00118665*
X00157335Y00117499*
X00158501*
X00157335*
X00156169Y00116333*
Y00115167*
X00157335Y00114*
X00159668*
X00160834Y00115167*
X00174829Y0012475D02*
Y00131748D01*
X0017133*
X00170164Y00130582*
Y00128249*
X0017133Y00127083*
X00174829*
X00172497D02*
X00170164Y0012475D01*
X00167832Y00130582D02*
X00166665Y00131748D01*
X00164333*
X00163166Y00130582*
Y00129415*
X00164333Y00128249*
X00165499*
X00164333*
X00163166Y00127083*
Y00125917*
X00164333Y0012475*
X00166665*
X00167832Y00125917*
X00157335Y0012475D02*
Y00131748D01*
X00160834Y00128249*
X00156169*
X00196329Y0007225D02*
Y00079248D01*
X0019283*
X00191664Y00078082*
Y00075749*
X0019283Y00074583*
X00196329*
X00193997D02*
X00191664Y0007225D01*
X00189332Y00078082D02*
X00188165Y00079248D01*
X00185833*
X00184666Y00078082*
Y00076915*
X00185833Y00075749*
X00186999*
X00185833*
X00184666Y00074583*
Y00073416*
X00185833Y0007225*
X00188165*
X00189332Y00073416*
X00177669Y00079248D02*
X00182334D01*
Y00075749*
X00180001Y00076915*
X00178835*
X00177669Y00075749*
Y00073416*
X00178835Y0007225*
X00181167*
X00182334Y00073416*
X00257329Y0016275D02*
Y00169748D01*
X0025383*
X00252664Y00168582*
Y00166249*
X0025383Y00165083*
X00257329*
X00254997D02*
X00252664Y0016275D01*
X00250332Y00168582D02*
X00249165Y00169748D01*
X00246833*
X00245666Y00168582*
Y00167415*
X00246833Y00166249*
X00247999*
X00246833*
X00245666Y00165083*
Y00163917*
X00246833Y0016275*
X00249165*
X00250332Y00163917*
X00238669Y00169748D02*
X00241001Y00168582D01*
X00243334Y00166249*
Y00163917*
X00242168Y0016275*
X00239835*
X00238669Y00163917*
Y00165083*
X00239835Y00166249*
X00243334*
X00219108Y00069337D02*
Y00076335D01*
X0021561*
X00214443Y00075168*
Y00072836*
X0021561Y00071669*
X00219108*
X00216776D02*
X00214443Y00069337D01*
X00212111Y00075168D02*
X00210944Y00076335D01*
X00208612*
X00207445Y00075168*
Y00074002*
X00208612Y00072836*
X00209778*
X00208612*
X00207445Y00071669*
Y00070503*
X00208612Y00069337*
X00210944*
X00212111Y00070503*
X00205113Y00076335D02*
X00200448D01*
Y00075168*
X00205113Y00070503*
Y00069337*
X00178079Y00153D02*
Y00159998D01*
X0017458*
X00173414Y00158832*
Y00156499*
X0017458Y00155333*
X00178079*
X00175747D02*
X00173414Y00153D01*
X00171082Y00158832D02*
X00169915Y00159998D01*
X00167583*
X00166416Y00158832*
Y00157665*
X00167583Y00156499*
X00168749*
X00167583*
X00166416Y00155333*
Y00154166*
X00167583Y00153*
X00169915*
X00171082Y00154166*
X00164084Y00158832D02*
X00162917Y00159998D01*
X00160585*
X00159419Y00158832*
Y00157665*
X00160585Y00156499*
X00159419Y00155333*
Y00154166*
X00160585Y00153*
X00162917*
X00164084Y00154166*
Y00155333*
X00162917Y00156499*
X00164084Y00157665*
Y00158832*
X00162917Y00156499D02*
X00160585D01*
X00178079Y001625D02*
Y00169498D01*
X0017458*
X00173414Y00168332*
Y00165999*
X0017458Y00164833*
X00178079*
X00175747D02*
X00173414Y001625D01*
X00171082Y00168332D02*
X00169915Y00169498D01*
X00167583*
X00166416Y00168332*
Y00167165*
X00167583Y00165999*
X00168749*
X00167583*
X00166416Y00164833*
Y00163667*
X00167583Y001625*
X00169915*
X00171082Y00163667*
X00164084D02*
X00162917Y001625D01*
X00160585*
X00159419Y00163667*
Y00168332*
X00160585Y00169498*
X00162917*
X00164084Y00168332*
Y00167165*
X00162917Y00165999*
X00159419*
X00178079Y0017225D02*
Y00179248D01*
X0017458*
X00173414Y00178082*
Y00175749*
X0017458Y00174583*
X00178079*
X00175747D02*
X00173414Y0017225D01*
X00167583D02*
Y00179248D01*
X00171082Y00175749*
X00166416*
X00164084Y00178082D02*
X00162917Y00179248D01*
X00160585*
X00159419Y00178082*
Y00173416*
X00160585Y0017225*
X00162917*
X00164084Y00173416*
Y00178082*
X00177913Y0014275D02*
Y00149748D01*
X00174414*
X00173248Y00148582*
Y00146249*
X00174414Y00145083*
X00177913*
X0017558D02*
X00173248Y0014275D01*
X00167416D02*
Y00149748D01*
X00170915Y00146249*
X0016625*
X00163917Y0014275D02*
X00161585D01*
X00162751*
Y00149748*
X00163917Y00148582*
X00246829Y0052875D02*
Y00535748D01*
X00243332*
X00242164Y00534582*
Y00532249*
X00243332Y00531083*
X00246829*
X00244497D02*
X00242164Y0052875D01*
X00236333D02*
Y00535748D01*
X00239832Y00532249*
X00235166*
X00228169Y0052875D02*
X00232834D01*
X00228169Y00533415*
Y00534582*
X00229335Y00535748*
X00231667*
X00232834Y00534582*
X00277579Y0052925D02*
Y00536248D01*
X0027408*
X00272914Y00535082*
Y00532749*
X0027408Y00531583*
X00277579*
X00275247D02*
X00272914Y0052925D01*
X00267083D02*
Y00536248D01*
X00270582Y00532749*
X00265916*
X00263584Y00535082D02*
X00262418Y00536248D01*
X00260085*
X00258919Y00535082*
Y00533915*
X00260085Y00532749*
X00261251*
X00260085*
X00258919Y00531583*
Y00530416*
X00260085Y0052925*
X00262418*
X00263584Y00530416*
X00212Y00183419D02*
X00218998D01*
Y00186918*
X00217832Y00188084*
X00215499*
X00214333Y00186918*
Y00183419*
Y00185751D02*
X00212Y00188084D01*
Y00193915D02*
X00218998D01*
X00215499Y00190416*
Y00195082*
X00212Y00200914D02*
X00218998D01*
X00215499Y00197414*
Y00202079*
X00203Y00387419D02*
X00209998D01*
Y00390918*
X00208832Y00392084*
X00206499*
X00205333Y00390918*
Y00387419*
Y00389751D02*
X00203Y00392084D01*
Y00397915D02*
X00209998D01*
X00206499Y00394416*
Y00399081*
X00209998Y00406079D02*
Y00401414D01*
X00206499*
X00207665Y00403747*
Y00404913*
X00206499Y00406079*
X00204166*
X00203Y00404913*
Y0040258*
X00204166Y00401414*
X001755Y00387419D02*
X00182499D01*
Y00390918*
X00181332Y00392084*
X00178999*
X00177833Y00390918*
Y00387419*
Y00389751D02*
X001755Y00392084D01*
Y00397915D02*
X00182499D01*
X00178999Y00394416*
Y00399082*
X00182499Y00406079D02*
X00181332Y00403747D01*
X00178999Y00401414*
X00176666*
X001755Y0040258*
Y00404913*
X00176666Y00406079*
X00177833*
X00178999Y00404913*
Y00401414*
X00148Y00387419D02*
X00154998D01*
Y00390918*
X00153832Y00392084*
X00151499*
X00150333Y00390918*
Y00387419*
Y00389751D02*
X00148Y00392084D01*
Y00397915D02*
X00154998D01*
X00151499Y00394416*
Y00399082*
X00154998Y00401414D02*
Y00406079D01*
X00153832*
X00149166Y00401414*
X00148*
X001205Y00387169D02*
X00127498D01*
Y00390667*
X00126332Y00391834*
X00123999*
X00122833Y00390667*
Y00387169*
Y00389501D02*
X001205Y00391834D01*
Y00397665D02*
X00127498D01*
X00123999Y00394166*
Y00398832*
X00126332Y00401164D02*
X00127498Y0040233D01*
Y00404663*
X00126332Y00405829*
X00125165*
X00123999Y00404663*
X00122833Y00405829*
X00121666*
X001205Y00404663*
Y0040233*
X00121666Y00401164*
X00122833*
X00123999Y0040233*
X00125165Y00401164*
X00126332*
X00123999Y0040233D02*
Y00404663D01*
X0010125Y00183419D02*
X00108248D01*
Y00186918*
X00107082Y00188084*
X00104749*
X00103583Y00186918*
Y00183419*
Y00185751D02*
X0010125Y00188084D01*
Y00193915D02*
X00108248D01*
X00104749Y00190416*
Y00195082*
X00102416Y00197414D02*
X0010125Y00198581D01*
Y00200914*
X00102416Y00202079*
X00107082*
X00108248Y00200914*
Y00198581*
X00107082Y00197414*
X00105915*
X00104749Y00198581*
Y00202079*
X001285Y00183669D02*
X00135498D01*
Y00187168*
X00134332Y00188334*
X00131999*
X00130833Y00187168*
Y00183669*
Y00186001D02*
X001285Y00188334D01*
X00135498Y00195332D02*
Y00190666D01*
X00131999*
X00133165Y00192999*
Y00194165*
X00131999Y00195332*
X00129667*
X001285Y00194165*
Y00191833*
X00129667Y00190666*
X00134332Y00197664D02*
X00135498Y00198831D01*
Y00201163*
X00134332Y00202329*
X00129667*
X001285Y00201163*
Y00198831*
X00129667Y00197664*
X00134332*
X0015575Y00183585D02*
X00162748D01*
Y00187084*
X00161582Y0018825*
X00159249*
X00158083Y00187084*
Y00183585*
Y00185918D02*
X0015575Y0018825D01*
X00162748Y00195248D02*
Y00190583D01*
X00159249*
X00160415Y00192915*
Y00194082*
X00159249Y00195248*
X00156916*
X0015575Y00194082*
Y00191749*
X00156916Y00190583*
X0015575Y0019758D02*
Y00199913D01*
Y00198747*
X00162748*
X00161582Y0019758*
X00184Y00183419D02*
X00190998D01*
Y00186918*
X00189832Y00188084*
X00187499*
X00186333Y00186918*
Y00183419*
Y00185751D02*
X00184Y00188084D01*
X00190998Y00195082D02*
Y00190416D01*
X00187499*
X00188665Y00192749*
Y00193915*
X00187499Y00195082*
X00185166*
X00184Y00193915*
Y00191583*
X00185166Y00190416*
X00184Y00202079D02*
Y00197414D01*
X00188665Y00202079*
X00189832*
X00190998Y00200914*
Y00198581*
X00189832Y00197414*
X0018925Y00387419D02*
X00196248D01*
Y00390918*
X00195081Y00392084*
X00192749*
X00191583Y00390918*
Y00387419*
Y00389751D02*
X0018925Y00392084D01*
X00196248Y00399082D02*
Y00394416D01*
X00192749*
X00193915Y00396749*
Y00397915*
X00192749Y00399082*
X00190416*
X0018925Y00397915*
Y00395583*
X00190416Y00394416*
X00195081Y00401414D02*
X00196248Y0040258D01*
Y00404913*
X00195081Y00406079*
X00193915*
X00192749Y00404913*
Y00403747*
Y00404913*
X00191583Y00406079*
X00190416*
X0018925Y00404913*
Y0040258*
X00190416Y00401414*
X0016175Y00387419D02*
X00168748D01*
Y00390918*
X00167582Y00392084*
X00165249*
X00164084Y00390918*
Y00387419*
Y00389751D02*
X0016175Y00392084D01*
X00168748Y00399081D02*
Y00394416D01*
X00165249*
X00166415Y00396749*
Y00397915*
X00165249Y00399081*
X00162916*
X0016175Y00397915*
Y00395583*
X00162916Y00394416*
X0016175Y00404913D02*
X00168748D01*
X00165249Y00401414*
Y00406079*
X00134Y00387169D02*
X00140998D01*
Y00390667*
X00139832Y00391834*
X00137499*
X00136333Y00390667*
Y00387169*
Y00389501D02*
X00134Y00391834D01*
X00140998Y00398832D02*
Y00394166D01*
X00137499*
X00138665Y00396499*
Y00397665*
X00137499Y00398832*
X00135166*
X00134Y00397665*
Y00395333*
X00135166Y00394166*
X00140998Y00405829D02*
Y00401164D01*
X00137499*
X00138665Y00403497*
Y00404663*
X00137499Y00405829*
X00135166*
X00134Y00404663*
Y0040233*
X00135166Y00401164*
X001065Y00387169D02*
X00113498D01*
Y00390667*
X00112332Y00391834*
X00109999*
X00108833Y00390667*
Y00387169*
Y00389501D02*
X001065Y00391834D01*
X00113498Y00398832D02*
Y00394166D01*
X00109999*
X00111165Y00396499*
Y00397665*
X00109999Y00398832*
X00107666*
X001065Y00397665*
Y00395333*
X00107666Y00394166*
X00113498Y00405829D02*
X00112332Y00403497D01*
X00109999Y00401164*
X00107666*
X001065Y00402331*
Y00404663*
X00107666Y00405829*
X00108833*
X00109999Y00404663*
Y00401164*
X00114Y00183669D02*
X00120998D01*
Y00187168*
X00119832Y00188334*
X00117499*
X00116333Y00187168*
Y00183669*
Y00186001D02*
X00114Y00188334D01*
X00120998Y00195332D02*
Y00190666D01*
X00117499*
X00118665Y00192999*
Y00194165*
X00117499Y00195332*
X00115166*
X00114Y00194165*
Y00191833*
X00115166Y00190666*
X00120998Y00197664D02*
Y00202329D01*
X00119832*
X00115166Y00197664*
X00114*
X001425Y00183669D02*
X00149498D01*
Y00187168*
X00148332Y00188334*
X00145999*
X00144833Y00187168*
Y00183669*
Y00186001D02*
X001425Y00188334D01*
X00149498Y00195332D02*
Y00190666D01*
X00145999*
X00147165Y00192999*
Y00194165*
X00145999Y00195332*
X00143666*
X001425Y00194165*
Y00191833*
X00143666Y00190666*
X00148332Y00197664D02*
X00149498Y00198831D01*
Y00201163*
X00148332Y00202329*
X00147165*
X00145999Y00201163*
X00144833Y00202329*
X00143666*
X001425Y00201163*
Y00198831*
X00143666Y00197664*
X00144833*
X00145999Y00198831*
X00147165Y00197664*
X00148332*
X00145999Y00198831D02*
Y00201163D01*
X0017025Y00183419D02*
X00177248D01*
Y00186918*
X00176082Y00188084*
X00173749*
X00172583Y00186918*
Y00183419*
Y00185751D02*
X0017025Y00188084D01*
X00177248Y00195082D02*
Y00190416D01*
X00173749*
X00174915Y00192749*
Y00193915*
X00173749Y00195082*
X00171417*
X0017025Y00193915*
Y00191583*
X00171417Y00190416*
Y00197414D02*
X0017025Y00198581D01*
Y00200914*
X00171417Y00202079*
X00176082*
X00177248Y00200914*
Y00198581*
X00176082Y00197414*
X00174915*
X00173749Y00198581*
Y00202079*
X00198Y00183419D02*
X00204998D01*
Y00186918*
X00203832Y00188084*
X00201499*
X00200333Y00186918*
Y00183419*
Y00185751D02*
X00198Y00188084D01*
X00204998Y00195082D02*
X00203832Y00192749D01*
X00201499Y00190416*
X00199166*
X00198Y00191583*
Y00193915*
X00199166Y00195082*
X00200333*
X00201499Y00193915*
Y00190416*
X00203832Y00197414D02*
X00204998Y00198581D01*
Y00200914*
X00203832Y00202079*
X00199166*
X00198Y00200914*
Y00198581*
X00199166Y00197414*
X00203832*
X002315Y00311335D02*
X00238498D01*
Y00314834*
X00237332Y00316*
X00234999*
X00233833Y00314834*
Y00311335*
Y00313667D02*
X002315Y00316D01*
X00238498Y00322998D02*
X00237332Y00320665D01*
X00234999Y00318333*
X00232666*
X002315Y00319499*
Y00321832*
X00232666Y00322998*
X00233833*
X00234999Y00321832*
Y00318333*
X002315Y0032533D02*
Y00327663D01*
Y00326497*
X00238498*
X00237332Y0032533*
X0055175Y00157669D02*
X00558748D01*
Y00161168*
X00557582Y00162334*
X00555249*
X00554083Y00161168*
Y00157669*
Y00160001D02*
X0055175Y00162334D01*
X00558748Y00169332D02*
X00557582Y00166999D01*
X00555249Y00164666*
X00552916*
X0055175Y00165833*
Y00168165*
X00552916Y00169332*
X00554083*
X00555249Y00168165*
Y00164666*
X0055175Y0017633D02*
Y00171664D01*
X00556415Y0017633*
X00557582*
X00558748Y00175163*
Y00172831*
X00557582Y00171664*
X0053775Y00157419D02*
X00544748D01*
Y00160918*
X00543582Y00162084*
X00541249*
X00540083Y00160918*
Y00157419*
Y00159751D02*
X0053775Y00162084D01*
X00544748Y00169082D02*
X00543582Y00166749D01*
X00541249Y00164416*
X00538916*
X0053775Y00165583*
Y00167915*
X00538916Y00169082*
X00540083*
X00541249Y00167915*
Y00164416*
X00543582Y00171414D02*
X00544748Y0017258D01*
Y00174913*
X00543582Y00176079*
X00542415*
X00541249Y00174913*
Y00173747*
Y00174913*
X00540083Y00176079*
X00538916*
X0053775Y00174913*
Y0017258*
X00538916Y00171414*
X0055175Y00064419D02*
X00558748D01*
Y00067918*
X00557582Y00069084*
X00555249*
X00554083Y00067918*
Y00064419*
Y00066751D02*
X0055175Y00069084D01*
X00558748Y00076082D02*
X00557582Y00073749D01*
X00555249Y00071416*
X00552916*
X0055175Y00072583*
Y00074915*
X00552916Y00076082*
X00554083*
X00555249Y00074915*
Y00071416*
X0055175Y00081913D02*
X00558748D01*
X00555249Y00078414*
Y00083079*
X00514829Y000865D02*
Y00093498D01*
X0051133*
X00510164Y00092332*
Y00089999*
X0051133Y00088833*
X00514829*
X00512497D02*
X00510164Y000865D01*
X00503166Y00093498D02*
X00505499Y00092332D01*
X00507832Y00089999*
Y00087666*
X00506665Y000865*
X00504333*
X00503166Y00087666*
Y00088833*
X00504333Y00089999*
X00507832*
X00496169Y00093498D02*
X00500834D01*
Y00089999*
X00498501Y00091165*
X00497335*
X00496169Y00089999*
Y00087666*
X00497335Y000865*
X00499668*
X00500834Y00087666*
X00515079Y0010225D02*
Y00109248D01*
X0051158*
X00510414Y00108082*
Y00105749*
X0051158Y00104583*
X00515079*
X00512747D02*
X00510414Y0010225D01*
X00503416Y00109248D02*
X00505749Y00108082D01*
X00508082Y00105749*
Y00103416*
X00506915Y0010225*
X00504583*
X00503416Y00103416*
Y00104583*
X00504583Y00105749*
X00508082*
X00496419Y00109248D02*
X00498751Y00108082D01*
X00501084Y00105749*
Y00103416*
X00499918Y0010225*
X00497586*
X00496419Y00103416*
Y00104583*
X00497586Y00105749*
X00501084*
X005115Y00209419D02*
X00518498D01*
Y00212917*
X00517332Y00214084*
X00514999*
X00513833Y00212917*
Y00209419*
Y00211751D02*
X005115Y00214084D01*
X00518498Y00221082D02*
X00517332Y00218749D01*
X00514999Y00216416*
X00512666*
X005115Y00217583*
Y00219915*
X00512666Y00221082*
X00513833*
X00514999Y00219915*
Y00216416*
X00518498Y00223414D02*
Y00228079D01*
X00517332*
X00512666Y00223414*
X005115*
X00497Y00209419D02*
X00503998D01*
Y00212917*
X00502832Y00214084*
X00500499*
X00499333Y00212917*
Y00209419*
Y00211751D02*
X00497Y00214084D01*
X00503998Y00221081D02*
X00502832Y00218749D01*
X00500499Y00216416*
X00498166*
X00497Y00217583*
Y00219915*
X00498166Y00221081*
X00499333*
X00500499Y00219915*
Y00216416*
X00502832Y00223414D02*
X00503998Y0022458D01*
Y00226913*
X00502832Y00228079*
X00501665*
X00500499Y00226913*
X00499333Y00228079*
X00498166*
X00497Y00226913*
Y0022458*
X00498166Y00223414*
X00499333*
X00500499Y0022458*
X00501665Y00223414*
X00502832*
X00500499Y0022458D02*
Y00226913D01*
X0047425Y00087669D02*
X00481248D01*
Y00091167*
X00480082Y00092334*
X00477749*
X00476583Y00091167*
Y00087669*
Y00090001D02*
X0047425Y00092334D01*
X00481248Y00099332D02*
X00480082Y00096999D01*
X00477749Y00094666*
X00475416*
X0047425Y00095833*
Y00098165*
X00475416Y00099332*
X00476583*
X00477749Y00098165*
Y00094666*
X00475416Y00101664D02*
X0047425Y0010283D01*
Y00105163*
X00475416Y00106329*
X00480082*
X00481248Y00105163*
Y0010283*
X00480082Y00101664*
X00478915*
X00477749Y0010283*
Y00106329*
X0049118Y004305D02*
Y00437498D01*
X00487681*
X00486515Y00436332*
Y00433999*
X00487681Y00432833*
X0049118*
X00488847D02*
X00486515Y004305D01*
X00484182Y00437498D02*
X00479517D01*
Y00436332*
X00484182Y00431666*
Y004305*
X00477184Y00436332D02*
X00476018Y00437498D01*
X00473685*
X00472519Y00436332*
Y00431666*
X00473685Y004305*
X00476018*
X00477184Y00431666*
Y00436332*
X00589663Y00475D02*
Y00481998D01*
X00586164*
X00584998Y00480832*
Y00478499*
X00586164Y00477333*
X00589663*
X00587331D02*
X00584998Y00475D01*
X00582665Y00481998D02*
X00578D01*
Y00480832*
X00582665Y00476166*
Y00475*
X00575667D02*
X00573335D01*
X00574501*
Y00481998*
X00575667Y00480832*
X00476413Y00485248D02*
Y00480583D01*
X0047408Y0047825*
X00471748Y00480583*
Y00485248*
X00469415D02*
X0046475D01*
X00467083*
Y0047825*
X00462418D02*
X00460085D01*
X00461251*
Y00485248*
X00462418Y00484082*
X00515579Y00489498D02*
Y00484833D01*
X00513247Y004825*
X00510914Y00484833*
Y00489498*
X00508582D02*
X00503916D01*
X00506249*
Y004825*
X00496919D02*
X00501584D01*
X00496919Y00487165*
Y00488332*
X00498085Y00489498*
X00500418*
X00501584Y00488332*
X00218163Y00317998D02*
X00213498D01*
Y00316832*
X00218163Y00312166*
Y00311*
X00213498*
X002065Y00312166D02*
Y00316832D01*
X00207666Y00317998*
X00209999*
X00211165Y00316832*
Y00312166*
X00209999Y00311*
X00207666*
X00208833Y00313333D02*
X002065Y00311D01*
X00207666D02*
X002065Y00312166D01*
X00204168Y00311D02*
X00201835D01*
X00203001*
Y00317998*
X00204168Y00316832*
X00516495Y00122748D02*
Y0011575D01*
X00512996*
X0051183Y00116916*
Y00121582*
X00512996Y00122748*
X00516495*
X00509497D02*
Y0011575D01*
X00505998*
X00504832Y00116916*
Y00121582*
X00505998Y00122748*
X00509497*
X00502499Y0011575D02*
X00500167D01*
X00501333*
Y00122748*
X00502499Y00121582*
X00496668Y00122748D02*
X00492003D01*
Y00121582*
X00496668Y00116916*
Y0011575*
X00230245Y00145998D02*
Y00139D01*
X00226746*
X0022558Y00140167*
Y00144832*
X00226746Y00145998*
X00230245*
X00223247D02*
Y00139D01*
X00219748*
X00218582Y00140167*
Y00144832*
X00219748Y00145998*
X00223247*
X00216249Y00139D02*
X00213917D01*
X00215083*
Y00145998*
X00216249Y00144832*
X00210418D02*
X00209252Y00145998D01*
X00206919*
X00205753Y00144832*
Y00143665*
X00206919Y00142499*
X00208085*
X00206919*
X00205753Y00141333*
Y00140167*
X00206919Y00139*
X00209252*
X00210418Y00140167*
X00314582Y00303667D02*
X00315748Y00302501D01*
Y00300168*
X00314582Y00299002*
X00309916*
X0030875Y00300168*
Y00302501*
X00309916Y00303667*
X0030875Y00306D02*
Y00308332D01*
Y00307166*
X00315748*
X00314582Y00306*
Y00311831D02*
X00315748Y00312997D01*
Y0031533*
X00314582Y00316496*
X00313415*
X00312249Y0031533*
X00311083Y00316496*
X00309916*
X0030875Y0031533*
Y00312997*
X00309916Y00311831*
X00311083*
X00312249Y00312997*
X00313415Y00311831*
X00314582*
X00312249Y00312997D02*
Y0031533D01*
X00280914Y00147082D02*
X0028208Y00148248D01*
X00284413*
X00285579Y00147082*
Y00142416*
X00284413Y0014125*
X0028208*
X00280914Y00142416*
X00273916Y0014125D02*
X00278582D01*
X00273916Y00145915*
Y00147082*
X00275083Y00148248*
X00277415*
X00278582Y00147082*
X00266919Y0014125D02*
X00271584D01*
X00266919Y00145915*
Y00147082*
X00268085Y00148248*
X00270417*
X00271584Y00147082*
X00280664Y00132832D02*
X0028183Y00133998D01*
X00284163*
X00285329Y00132832*
Y00128166*
X00284163Y00127*
X0028183*
X00280664Y00128166*
X00273666Y00127D02*
X00278332D01*
X00273666Y00131665*
Y00132832*
X00274833Y00133998*
X00277165*
X00278332Y00132832*
X00271334D02*
X00270167Y00133998D01*
X00267835*
X00266669Y00132832*
Y00131665*
X00267835Y00130499*
X00269001*
X00267835*
X00266669Y00129333*
Y00128166*
X00267835Y00127*
X00270167*
X00271334Y00128166*
X00213129Y00087905D02*
X00214295Y00089071D01*
X00216628*
X00217794Y00087905*
Y0008324*
X00216628Y00082073*
X00214295*
X00213129Y0008324*
X00206131Y00082073D02*
X00210797D01*
X00206131Y00086739*
Y00087905*
X00207298Y00089071*
X0020963*
X00210797Y00087905*
X002003Y00082073D02*
Y00089071D01*
X00203799Y00085572*
X00199134*
G54D87*
X00331549Y00227449D02*
Y00233447D01*
X0032955Y00231448*
X0032755Y00233447*
Y00227449*
X00325551D02*
Y00231448D01*
X00323552Y00233447*
X00321552Y00231448*
Y00227449*
Y00230448*
X00325551*
X00315554Y00232447D02*
X00316554Y00233447D01*
X00318553*
X00319553Y00232447*
Y00228449*
X00318553Y00227449*
X00316554*
X00315554Y00228449*
Y00230448*
X00317553*
X00151799Y00101697D02*
X001478D01*
Y00100697*
X00151799Y00096699*
Y00095699*
X001478*
X00244449Y00068947D02*
Y00067947D01*
X00246448Y00065948*
X00248448Y00067947*
Y00068947*
X00246448Y00065948D02*
Y00062949D01*
X00322699Y00267947D02*
Y00266947D01*
X00324698Y00264948*
X00326698Y00266947*
Y00267947*
X00324698Y00264948D02*
Y00261949D01*
X00134449Y00068697D02*
X00138448Y00062699D01*
Y00068697D02*
X00134449Y00062699D01*
X00305839Y00250947D02*
X00309838Y00244949D01*
Y00250947D02*
X00305839Y00244949D01*
X00287518Y00086801D02*
X0028352Y00092799D01*
Y00086801D02*
X00287518Y00092799D01*
X00299299Y00072949D02*
Y00078947D01*
X002973Y00076948*
X002953Y00078947*
Y00072949*
X00293301D02*
Y00076948D01*
X00291302Y00078947*
X00289302Y00076948*
Y00072949*
Y00075948*
X00293301*
X00283304Y00077947D02*
X00284304Y00078947D01*
X00286303*
X00287303Y00077947*
Y00073949*
X00286303Y00072949*
X00284304*
X00283304Y00073949*
Y00075948*
X00285304*
X00164699Y00100947D02*
Y00099947D01*
X00166698Y00097948*
X00168698Y00099947*
Y00100947*
X00166698Y00097948D02*
Y00094949D01*
X00275199Y00067801D02*
X00279198D01*
Y00068801*
X00275199Y00072799*
Y00073799*
X00279198*
X00316439Y00262697D02*
X00312441D01*
Y00261697*
X00316439Y00257699*
Y00256699*
X00312441*
X00228049Y00059949D02*
Y00063948D01*
X0022605Y00065947*
X0022405Y00063948*
Y00059949*
Y00062948*
X00228049*
X00218052Y00064947D02*
X00219052Y00065947D01*
X00221051*
X00222051Y00064947*
Y00060949*
X00221051Y00059949*
X00219052*
X00218052Y00060949*
X00212054Y00064947D02*
X00213054Y00065947D01*
X00215053*
X00216053Y00064947*
Y00060949*
X00215053Y00059949*
X00213054*
X00212054Y00060949*
X00206056Y00065947D02*
X00210055D01*
Y00059949*
X00206056*
X00210055Y00062948D02*
X00208056D01*
X00204057Y00065947D02*
Y00059949D01*
X00200058*
X00198059Y00062948D02*
X0019406D01*
X00196059Y00064947D02*
Y00060949D01*
X00188062Y00064947D02*
X00189062Y00065947D01*
X00191061*
X00192061Y00064947*
Y00060949*
X00191061Y00059949*
X00189062*
X00188062Y00060949*
Y00062948*
X00190061*
X00186063Y00065947D02*
Y00064947D01*
X00184063Y00062948*
X00182064Y00064947*
Y00065947*
X00184063Y00062948D02*
Y00059949D01*
X00180065D02*
Y00065947D01*
X00177065*
X00176066Y00064947*
Y00062948*
X00177065Y00061948*
X00180065*
X00178065D02*
X00176066Y00059949D01*
X00171067Y00065947D02*
X00173067D01*
X00174066Y00064947*
Y00060949*
X00173067Y00059949*
X00171067*
X00170068Y00060949*
Y00064947*
X00171067Y00065947*
M02*