%FSTAX44Y44*%
%MOMM*%
%SFA1B1*%

%IPPOS*%
%ADD10C,0.200000*%
%ADD11C,0.299999*%
%ADD12C,0.152400*%
%ADD13C,0.100000*%
%ADD14C,0.127000*%
%ADD15C,0.050000*%
%ADD16C,0.150000*%
%LNdr_0n-1*%
%LPD*%
G36*
X00610249Y00094599D02*
X00614999Y00099349D01*
Y00089849*
X00610249Y00094599*
G37*
G36*
X00431199Y00561749D02*
X00435949Y00556999D01*
X00426449*
X00431199Y00561749*
G37*
G36*
X00612249Y00415599D02*
X00616999Y00420349D01*
Y00410849*
X00612249Y00415599*
G37*
G36*
X00083803Y00295585D02*
X00083983Y00295557D01*
X00084205Y00295502*
X00084455Y00295446*
X00084704Y00295349*
X00084954Y00295224*
X00084968*
X00084982Y00295211*
X00085065Y00295155*
X00085176Y00295058*
X00085328Y00294919*
X00085495Y00294753*
X00085661Y00294545*
X00085814Y00294295*
X00085966Y00294005*
Y00294018*
X0008598Y00294032*
X00086022Y00294115*
X00086091Y0029424*
X00086174Y00294392*
X00086299Y00294573*
X00086438Y00294739*
X00086604Y00294905*
X00086785Y00295044*
X00086812Y00295058*
X00086882Y002951*
X00086979Y00295141*
X00087131Y00295197*
X00087298Y00295266*
X00087506Y00295308*
X00087714Y00295349*
X00087949Y00295363*
X00087963*
X00087991*
X00088047*
X0008813Y00295349*
X00088213Y00295335*
X00088324Y00295321*
X00088574Y00295266*
X00088851Y00295183*
X00089156Y00295044*
X00089295Y00294961*
X00089447Y00294864*
X00089586Y00294739*
X00089725Y00294614*
X00089739Y002946*
X00089752Y00294573*
X00089794Y00294531*
X00089836Y00294476*
X00089891Y00294392*
X00089947Y00294309*
X00090016Y00294198*
X00090085Y00294059*
X00090141Y00293921*
X0009021Y00293768*
X00090266Y00293588*
X00090321Y00293394*
X00090363Y00293186*
X00090404Y00292964*
X00090418Y00292728*
X00090432Y00292478*
Y0029234*
X00090418Y00292257*
X00090404Y00292132*
X0009039Y00292007*
X00090377Y00291854*
X00090349Y00291702*
X00090266Y00291355*
X00090141Y00290995*
X00090057Y00290828*
X0008996Y00290648*
X0008985Y00290495*
X00089725Y00290343*
X00089711Y00290329*
X00089697Y00290315*
X00089655Y00290273*
X000896Y00290218*
X0008953Y00290162*
X00089447Y00290107*
X00089239Y00289954*
X00088976Y00289816*
X00088685Y00289705*
X00088338Y00289608*
X00088144Y00289594*
X00087949Y0028958*
X00087936*
X00087922*
X00087839*
X00087714Y00289594*
X00087547Y00289622*
X00087367Y00289663*
X00087173Y00289733*
X00086965Y00289816*
X00086757Y00289941*
X00086729Y00289954*
X00086674Y0029001*
X00086577Y00290079*
X00086466Y0029019*
X00086327Y00290329*
X00086202Y00290495*
X00086077Y00290689*
X00085966Y00290911*
Y00290897*
X00085952Y0029087*
X00085939Y00290828*
X00085911Y00290773*
X00085828Y00290634*
X00085717Y00290454*
X00085592Y0029026*
X00085425Y00290052*
X00085231Y00289857*
X00085009Y00289691*
X00084982Y00289677*
X00084898Y00289622*
X00084774Y00289552*
X00084607Y00289483*
X00084399Y002894*
X0008415Y00289344*
X00083886Y00289289*
X00083595Y00289275*
X00083581*
X00083539*
X0008347*
X00083373Y00289289*
X00083262Y00289303*
X00083123Y00289316*
X00082985Y00289344*
X00082832Y00289386*
X00082485Y00289483*
X00082305Y00289552*
X00082125Y00289635*
X00081944Y00289733*
X00081764Y00289857*
X00081598Y00289982*
X00081431Y00290135*
X00081418Y00290149*
X0008139Y00290176*
X00081348Y00290218*
X00081306Y00290287*
X00081237Y0029037*
X00081168Y00290481*
X00081099Y00290592*
X00081015Y00290731*
X00080932Y00290884*
X00080863Y00291064*
X00080793Y00291244*
X00080724Y00291438*
X00080682Y0029166*
X00080641Y00291896*
X00080613Y00292132*
X00080599Y00292395*
Y0029252*
X00080613Y00292617*
X00080627Y00292728*
X00080641Y00292853*
X00080655Y00292992*
X00080682Y00293158*
X00080766Y00293505*
X00080891Y00293865*
X0008096Y00294046*
X00081057Y00294226*
X00081154Y00294406*
X0008128Y00294573*
X00081293Y00294586*
X0008132Y00294614*
X00081362Y0029467*
X00081431Y00294739*
X00081515Y00294808*
X00081612Y00294892*
X00081736Y00294989*
X00081861Y00295086*
X00082014Y00295183*
X0008218Y0029528*
X0008236Y00295363*
X00082569Y00295432*
X00082777Y00295502*
X00083012Y00295557*
X00083248Y00295585*
X00083512Y00295599*
X00083525*
X00083553*
X00083595*
X0008365*
X00083803Y00295585*
G37*
G36*
X00088005Y00121585D02*
X00088019Y00121571D01*
X00088033Y0012153*
X00088047Y00121474*
X00088116Y00121335*
X00088199Y00121141*
X0008831Y00120905*
X00088463Y00120642*
X00088657Y00120351*
X00088879Y00120046*
X00088892Y00120032*
X00088906Y00120004*
X00088948Y00119962*
X00089003Y00119907*
X00089142Y00119754*
X00089323Y00119588*
X00089544Y00119394*
X00089822Y001192*
X00090113Y00119019*
X00090432Y00118881*
Y00117383*
X00080779*
Y00119227*
X00087728*
X00087714Y00119241*
X00087686Y00119269*
X00087644Y00119324*
X00087575Y00119408*
X00087492Y00119505*
X00087409Y00119616*
X00087312Y00119754*
X00087201Y00119907*
X0008709Y00120073*
X00086979Y00120254*
X00086854Y00120448*
X00086743Y00120656*
X00086535Y001211*
X00086341Y00121599*
X00088005*
Y00121585*
G37*
G36*
X00083414Y00112765D02*
X00083387D01*
X00083318Y00112751*
X00083193Y00112723*
X00083054Y00112682*
X00082901Y00112626*
X00082735Y00112543*
X00082582Y00112432*
X0008243Y00112307*
X00082416Y00112293*
X00082374Y00112238*
X00082319Y00112155*
X0008225Y00112043*
X0008218Y00111919*
X00082125Y00111766*
X00082083Y00111586*
X00082069Y00111406*
Y00111379*
X00082083Y00111308*
X00082097Y00111198*
X00082125Y00111059*
X0008218Y00110906*
X00082263Y0011074*
X00082388Y00110574*
X00082541Y00110421*
X00082569Y00110407*
X00082624Y00110352*
X00082735Y00110296*
X00082901Y00110213*
X00083096Y00110144*
X00083331Y00110074*
X00083623Y00110033*
X00083955Y00110019*
X00083969*
X00083997*
X00084039*
X00084108*
X00084261Y00110033*
X00084455Y00110074*
X00084677Y00110116*
X00084898Y00110185*
X00085106Y00110282*
X00085287Y00110421*
X00085301Y00110435*
X00085356Y0011049*
X00085425Y00110587*
X00085523Y00110698*
X00085606Y00110851*
X00085675Y00111031*
X00085731Y00111239*
X00085744Y00111461*
Y00111544*
X00085731Y001116*
X00085703Y00111738*
X00085661Y00111933*
X00085578Y00112155*
X00085453Y0011239*
X0008537Y00112515*
X00085273Y0011264*
X00085162Y00112765*
X00085037Y0011289*
X00085245Y00114373*
X00090252Y0011343*
Y00108563*
X00088532*
Y00112043*
X00086895Y00112335*
Y00112321*
X00086909Y00112307*
X00086951Y00112224*
X00086993Y00112099*
X00087062Y00111946*
X00087117Y00111752*
X00087159Y00111544*
X00087201Y00111308*
X00087214Y00111073*
Y00110948*
X00087201Y00110865*
X00087187Y00110768*
X00087173Y00110643*
X00087145Y00110504*
X00087104Y00110352*
X00086993Y00110033*
X00086923Y00109852*
X0008684Y00109686*
X00086729Y00109506*
X00086604Y00109325*
X00086466Y00109159*
X00086313Y00108993*
X00086299Y00108979*
X00086271Y00108951*
X00086216Y00108909*
X00086147Y00108854*
X00086063Y00108798*
X00085952Y00108715*
X00085828Y00108646*
X00085689Y00108563*
X00085536Y00108479*
X00085356Y0010841*
X00085162Y00108327*
X00084968Y00108271*
X00084746Y00108216*
X0008451Y00108174*
X00084261Y00108146*
X00083997Y00108133*
X00083983*
X00083941*
X00083886*
X00083803Y00108146*
X00083693*
X00083567Y00108174*
X00083428Y00108188*
X0008329Y00108216*
X00082957Y00108299*
X00082596Y00108424*
X00082402Y00108507*
X00082222Y0010859*
X00082042Y00108701*
X00081861Y00108826*
X00081847Y0010884*
X00081806Y00108868*
X0008175Y00108923*
X00081667Y00108993*
X0008157Y0010909*
X00081459Y00109214*
X00081348Y00109353*
X00081237Y00109506*
X00081112Y00109686*
X00081001Y0010988*
X00080891Y00110088*
X00080793Y00110324*
X0008071Y00110574*
X00080655Y00110837*
X00080613Y00111128*
X00080599Y00111433*
Y00111558*
X00080613Y00111655*
X00080627Y00111766*
X00080641Y00111905*
X00080655Y00112043*
X00080682Y0011221*
X00080766Y00112543*
X00080904Y00112917*
X00080974Y00113097*
X00081071Y00113278*
X00081182Y00113444*
X00081306Y00113611*
X0008132Y00113624*
X00081334Y00113652*
X00081376Y00113694*
X00081431Y00113749*
X00081515Y00113805*
X00081598Y00113888*
X00081695Y00113957*
X00081806Y00114041*
X00081944Y00114138*
X00082083Y00114221*
X00082416Y00114373*
X00082791Y00114512*
X00082998Y00114554*
X0008322Y00114595*
X00083414Y00112765*
G37*
G36*
X00088005Y00248585D02*
X00088019Y00248571D01*
X00088033Y0024853*
X00088047Y00248474*
X00088116Y00248335*
X00088199Y00248141*
X0008831Y00247905*
X00088463Y00247642*
X00088657Y00247351*
X00088879Y00247046*
X00088892Y00247032*
X00088906Y00247004*
X00088948Y00246962*
X00089003Y00246907*
X00089142Y00246754*
X00089323Y00246588*
X00089544Y00246394*
X00089822Y002462*
X00090113Y00246019*
X00090432Y00245881*
Y00244383*
X00080779*
Y00246227*
X00087728*
X00087714Y00246241*
X00087686Y00246269*
X00087644Y00246324*
X00087575Y00246408*
X00087492Y00246505*
X00087409Y00246616*
X00087312Y00246754*
X00087201Y00246907*
X0008709Y00247073*
X00086979Y00247254*
X00086854Y00247448*
X00086743Y00247656*
X00086535Y002481*
X00086341Y00248599*
X00088005*
Y00248585*
G37*
G36*
X00085966Y00241609D02*
X00086188Y00241595D01*
X00086452Y00241568*
X00086729Y0024154*
X00087034Y00241512*
X00087353Y00241457*
X00087672Y00241401*
X00088005Y00241318*
X00088324Y00241235*
X00088629Y00241124*
X0008892Y00240999*
X00089198Y0024086*
X00089433Y00240694*
X00089447Y0024068*
X00089475Y00240652*
X0008953Y00240611*
X00089586Y00240541*
X00089669Y00240472*
X00089752Y00240375*
X00089836Y0024025*
X00089933Y00240125*
X0009003Y00239973*
X00090113Y0023982*
X00090196Y0023964*
X00090279Y00239446*
X00090335Y00239238*
X0009039Y00239002*
X00090418Y00238766*
X00090432Y00238516*
Y00238379*
X00090418Y00238281*
X00090404Y0023817*
X00090377Y00238031*
X00090349Y00237893*
X00090307Y00237726*
X00090252Y00237546*
X00090182Y00237379*
X00090113Y00237199*
X00090016Y00237019*
X00089891Y00236839*
X00089766Y00236658*
X00089614Y00236492*
X00089433Y00236339*
X00089419Y00236325*
X00089378Y00236298*
X00089309Y00236256*
X00089212Y00236187*
X00089073Y00236117*
X00088906Y00236034*
X00088726Y00235951*
X0008849Y00235868*
X00088241Y00235785*
X00087949Y00235687*
X00087631Y00235618*
X0008727Y00235549*
X00086882Y00235479*
X00086466Y00235438*
X00086008Y0023541*
X00085509Y00235396*
X00085495*
X00085481*
X00085439*
X00085384*
X00085245*
X00085065Y0023541*
X00084843Y00235424*
X00084579Y00235452*
X00084302Y00235479*
X00083997Y00235507*
X00083678Y00235563*
X00083345Y00235632*
X00083026Y00235701*
X00082707Y00235798*
X00082388Y00235895*
X00082097Y00236034*
X0008182Y00236173*
X00081584Y00236339*
X0008157Y00236353*
X00081542Y00236381*
X00081487Y00236422*
X00081431Y00236478*
X00081362Y00236561*
X0008128Y00236658*
X00081182Y00236783*
X00081099Y00236908*
X00081001Y0023706*
X00080904Y00237213*
X00080821Y00237393*
X00080752Y00237587*
X00080696Y00237795*
X00080641Y00238031*
X00080613Y00238267*
X00080599Y00238516*
Y00238572*
X00080613Y00238655*
Y00238752*
X00080627Y00238863*
X00080655Y00239002*
X00080682Y00239155*
X00080738Y00239321*
X00080793Y00239501*
X00080863Y00239682*
X00080946Y00239876*
X00081057Y00240056*
X00081168Y0024025*
X0008132Y0024043*
X00081473Y00240611*
X00081667Y00240777*
X00081681Y00240792*
X00081723Y00240819*
X00081792Y0024086*
X00081875Y00240902*
X00082Y00240971*
X00082153Y00241041*
X00082347Y00241124*
X00082555Y00241193*
X00082804Y00241276*
X00083082Y0024136*
X00083401Y00241429*
X00083747Y00241484*
X00084136Y0024154*
X00084566Y00241581*
X00085023Y00241609*
X00085523Y00241623*
X00085536*
X0008555*
X00085592*
X00085647*
X00085786*
X00085966Y00241609*
G37*
G36*
X00087825Y00196585D02*
X00087838Y00196571D01*
X00087852Y0019653*
X00087866Y00196474*
X00087936Y00196335*
X00088019Y00196141*
X0008813Y00195906*
X00088282Y00195642*
X00088476Y00195351*
X00088698Y00195046*
X00088712Y00195032*
X00088726Y00195004*
X00088768Y00194962*
X00088823Y00194907*
X00088962Y00194754*
X00089142Y00194588*
X00089364Y00194394*
X00089641Y001942*
X00089933Y00194019*
X00090252Y00193881*
Y00192383*
X00080599*
Y00194227*
X00087547*
X00087533Y00194241*
X00087506Y00194269*
X00087464Y00194325*
X00087395Y00194408*
X00087311Y00194505*
X00087228Y00194616*
X00087131Y00194754*
X0008702Y00194907*
X00086909Y00195073*
X00086798Y00195254*
X00086674Y00195448*
X00086563Y00195656*
X00086355Y001961*
X0008616Y00196599*
X00087825*
Y00196585*
G37*
G36*
X00080696Y00189845D02*
X00080766Y00189831D01*
X00080849Y00189817*
X00080946Y00189803*
X00081195Y00189748*
X00081473Y00189665*
X00081778Y00189554*
X00082111Y00189415*
X0008243Y00189235*
X00082444*
X00082471Y00189207*
X00082527Y00189179*
X00082582Y00189124*
X0008268Y00189068*
X00082777Y00188985*
X00082901Y00188888*
X0008304Y00188777*
X00083207Y00188652*
X00083373Y001885*
X00083567Y00188333*
X00083775Y00188139*
X00083983Y00187931*
X00084219Y00187695*
X00084468Y00187446*
X00084732Y00187168*
X00084746Y00187154*
X00084788Y00187113*
X00084843Y00187058*
X00084926Y00186974*
X00085009Y00186863*
X0008512Y00186752*
X0008537Y00186503*
X00085633Y00186253*
X00085897Y00186004*
X00086008Y00185892*
X00086133Y00185782*
X0008623Y00185698*
X00086313Y00185643*
X00086341Y00185629*
X0008641Y00185587*
X00086521Y00185518*
X00086674Y00185449*
X0008684Y00185379*
X00087034Y0018531*
X00087228Y00185268*
X00087436Y00185255*
X0008745*
X00087464*
X00087533*
X00087658Y00185268*
X00087797Y00185296*
X00087949Y00185338*
X00088102Y00185393*
X00088255Y00185477*
X00088393Y00185587*
X00088407Y00185601*
X00088449Y00185643*
X00088504Y00185726*
X0008856Y00185823*
X00088615Y00185962*
X00088671Y00186114*
X00088712Y00186295*
X00088726Y00186503*
Y001866*
X00088712Y00186711*
X00088685Y00186836*
X00088643Y00186988*
X00088573Y00187141*
X0008849Y00187293*
X00088379Y00187432*
X00088365Y00187446*
X0008831Y00187487*
X00088227Y00187543*
X00088102Y00187598*
X00087949Y00187668*
X00087741Y00187723*
X00087506Y00187779*
X00087228Y00187806*
X00087409Y00189637*
X00087422*
X00087478Y00189623*
X00087547*
X00087658Y00189595*
X00087783Y00189582*
X00087922Y0018954*
X00088074Y00189498*
X00088255Y00189457*
X00088601Y00189318*
X00088962Y00189152*
X00089142Y00189041*
X00089309Y00188916*
X00089447Y00188777*
X00089586Y00188625*
X000896Y00188611*
X00089614Y00188583*
X00089641Y00188541*
X00089697Y00188472*
X00089739Y00188389*
X00089794Y00188278*
X00089863Y00188167*
X00089919Y00188028*
X00089988Y00187876*
X00090044Y00187709*
X00090154Y00187349*
X00090224Y00186919*
X00090238Y00186697*
X00090252Y00186461*
Y00186322*
X00090238Y00186225*
X00090224Y001861*
X0009021Y00185962*
X00090182Y00185809*
X00090154Y00185643*
X00090057Y00185282*
X00089919Y00184922*
X00089836Y00184728*
X00089739Y00184561*
X00089614Y00184381*
X00089475Y00184228*
X00089461Y00184214*
X00089447Y00184187*
X00089392Y00184159*
X00089336Y00184103*
X00089267Y00184034*
X0008917Y00183965*
X00089073Y00183896*
X00088948Y00183812*
X00088671Y00183674*
X00088352Y00183535*
X00088171Y00183479*
X00087977Y00183452*
X00087769Y00183424*
X00087561Y0018341*
X00087533*
X0008745*
X00087325Y00183424*
X00087173Y00183438*
X00086979Y00183465*
X00086771Y00183507*
X00086549Y00183563*
X00086327Y00183646*
X00086299Y0018366*
X0008623Y00183687*
X00086106Y00183743*
X00085952Y00183826*
X00085772Y00183923*
X00085564Y00184048*
X00085342Y00184201*
X00085106Y00184381*
X00085093Y00184395*
X00085023Y0018445*
X00084926Y00184533*
X00084788Y00184658*
X00084621Y00184825*
X00084399Y00185033*
X00084163Y00185282*
X00083872Y00185587*
X00083858Y00185601*
X00083844Y00185629*
X00083803Y00185671*
X00083747Y00185726*
X00083609Y00185879*
X00083442Y00186059*
X00083262Y00186239*
X00083082Y00186419*
X00082929Y00186586*
X0008286Y00186641*
X00082804Y00186697*
X0008279Y00186711*
X00082763Y00186739*
X00082707Y0018678*
X00082638Y00186836*
X00082485Y0018696*
X00082305Y00187071*
Y0018341*
X00080599*
Y00189859*
X00080613*
X00080641*
X00080696Y00189845*
G37*
G36*
X00085869Y00346585D02*
X00086091Y00346571D01*
X00086341Y00346543*
X00086618Y00346516*
X00086909Y00346474*
X00087214Y00346432*
X00087533Y00346363*
X00087852Y0034628*
X00088171Y00346183*
X00088463Y00346072*
X00088754Y00345948*
X00089017Y00345795*
X00089253Y00345628*
X00089267Y00345614*
X00089309Y00345586*
X00089364Y00345531*
X00089433Y00345448*
X0008953Y00345351*
X00089628Y0034524*
X00089739Y00345101*
X0008985Y00344948*
X00089947Y00344768*
X00090057Y00344588*
X00090155Y00344366*
X00090252Y00344144*
X00090321Y00343908*
X00090377Y00343645*
X00090418Y00343381*
X00090432Y0034309*
Y00342979*
X00090418Y0034291*
Y00342813*
X00090404Y00342702*
X00090349Y00342452*
X00090279Y00342175*
X00090168Y0034187*
X00090016Y00341565*
X00089919Y00341426*
X00089808Y00341287*
Y00341273*
X0008978Y00341259*
X00089739Y00341218*
X00089697Y00341176*
X00089628Y00341107*
X00089558Y00341052*
X00089364Y00340899*
X00089101Y00340746*
X00088796Y00340594*
X00088449Y00340455*
X00088033Y00340358*
X00087839Y00342133*
X00087866*
X00087922Y00342147*
X00088019Y00342175*
X00088144Y00342203*
X00088269Y00342244*
X00088407Y00342313*
X00088532Y00342383*
X00088643Y0034248*
X00088657Y00342494*
X00088685Y00342535*
X00088726Y00342591*
X00088782Y00342674*
X00088823Y00342771*
X00088865Y00342896*
X00088892Y00343049*
X00088906Y00343201*
Y00343229*
X00088892Y00343298*
X00088879Y00343409*
X00088837Y00343548*
X00088782Y003437*
X00088685Y00343867*
X0008856Y00344033*
X00088379Y00344186*
X00088352Y003442*
X00088324Y00344227*
X00088269Y00344255*
X00088213Y00344283*
X0008813Y00344324*
X00088033Y00344352*
X00087908Y00344394*
X00087769Y00344449*
X00087617Y00344491*
X00087436Y00344532*
X00087242Y00344574*
X0008702Y00344616*
X00086771Y00344643*
X00086493Y00344671*
X00086202Y00344699*
X00086216Y00344685*
X00086244Y00344671*
X00086271Y0034463*
X00086327Y00344574*
X00086396Y00344505*
X00086466Y00344421*
X00086618Y00344227*
X00086757Y00343978*
X00086895Y00343687*
X00086951Y0034352*
X00086979Y00343354*
X00087006Y00343173*
X0008702Y00342979*
Y00342868*
X00087006Y00342785*
X00086993Y00342688*
X00086979Y00342577*
X00086951Y00342438*
X00086909Y003423*
X00086798Y00341995*
X00086729Y00341828*
X00086646Y00341662*
X00086549Y00341495*
X00086424Y00341329*
X00086285Y00341162*
X00086133Y0034101*
X00086119Y00340996*
X00086091Y00340968*
X0008605Y00340927*
X0008598Y00340885*
X00085883Y00340816*
X00085786Y00340746*
X00085661Y00340677*
X00085523Y00340594*
X0008537Y00340511*
X0008519Y00340441*
X00085009Y00340372*
X00084801Y00340303*
X00084593Y00340261*
X00084358Y00340219*
X00084122Y00340192*
X00083858Y00340178*
X00083845*
X00083789*
X0008372*
X00083609Y00340192*
X00083484Y00340205*
X00083345Y00340219*
X00083179Y00340247*
X00083012Y00340289*
X00082624Y00340386*
X0008243Y00340455*
X00082236Y00340552*
X00082042Y00340649*
X00081847Y0034076*
X00081653Y00340899*
X00081487Y00341052*
X00081473Y00341065*
X00081445Y00341093*
X00081404Y00341135*
X00081348Y00341204*
X0008128Y00341287*
X00081209Y00341398*
X00081126Y00341509*
X00081043Y00341648*
X0008096Y003418*
X00080877Y00341967*
X00080807Y00342147*
X00080738Y00342355*
X00080682Y00342563*
X00080641Y00342785*
X00080613Y00343021*
X00080599Y0034327*
Y0034334*
X00080613Y00343409*
Y00343506*
X00080641Y00343631*
X00080655Y00343784*
X00080696Y00343936*
X00080738Y00344116*
X00080793Y00344297*
X00080877Y00344491*
X0008096Y00344699*
X00081071Y00344893*
X00081196Y00345101*
X00081348Y00345295*
X00081528Y00345489*
X00081723Y0034567*
X00081736Y00345684*
X00081778Y00345711*
X00081847Y00345753*
X00081944Y00345808*
X00082069Y00345892*
X00082222Y00345961*
X00082402Y00346044*
X0008261Y00346127*
X0008286Y00346224*
X00083123Y00346308*
X00083428Y00346377*
X00083775Y00346446*
X00084136Y00346516*
X00084538Y00346557*
X00084968Y00346585*
X00085439Y00346599*
X00085453*
X00085467*
X00085509*
X0008555*
X00085689*
X00085869Y00346585*
G37*
G36*
X00088005Y00171585D02*
X00088019Y00171571D01*
X00088033Y00171529*
X00088047Y00171474*
X00088116Y00171335*
X00088199Y00171141*
X0008831Y00170905*
X00088463Y00170642*
X00088657Y00170351*
X00088879Y00170046*
X00088892Y00170032*
X00088906Y00170004*
X00088948Y00169962*
X00089003Y00169907*
X00089142Y00169754*
X00089323Y00169588*
X00089544Y00169394*
X00089822Y001692*
X00090113Y00169019*
X00090432Y00168881*
Y00167383*
X00080779*
Y00169227*
X00087728*
X00087714Y00169241*
X00087686Y00169269*
X00087644Y00169324*
X00087575Y00169408*
X00087492Y00169505*
X00087409Y00169616*
X00087312Y00169754*
X00087201Y00169907*
X0008709Y00170073*
X00086979Y00170254*
X00086854Y00170448*
X00086743Y00170656*
X00086535Y001711*
X00086341Y00171599*
X00088005*
Y00171585*
G37*
G36*
X00083525Y00162917D02*
X00083512D01*
X00083498*
X00083414Y00162903*
X0008329Y00162876*
X00083137Y00162834*
X00082971Y00162765*
X00082791Y00162695*
X00082624Y00162584*
X00082471Y0016246*
X00082458Y00162446*
X00082416Y0016239*
X0008236Y00162307*
X00082305Y0016221*
X00082236Y00162071*
X0008218Y00161919*
X00082139Y00161752*
X00082125Y00161558*
Y0016153*
X00082139Y00161461*
X00082153Y00161364*
X0008218Y00161225*
X00082236Y00161073*
X00082305Y0016092*
X00082416Y00160754*
X00082555Y00160601*
X00082569Y00160587*
X00082638Y00160532*
X00082735Y00160476*
X0008286Y00160393*
X00083026Y00160324*
X00083234Y00160255*
X0008347Y00160213*
X00083734Y00160199*
X00083747*
X00083761*
X00083845*
X00083969Y00160213*
X00084136Y00160241*
X00084316Y00160296*
X00084496Y00160365*
X00084677Y00160463*
X00084843Y00160587*
X00084857Y00160601*
X00084912Y00160657*
X00084982Y0016074*
X00085051Y00160837*
X00085134Y00160976*
X0008519Y00161128*
X00085245Y00161295*
X00085259Y00161489*
Y00161627*
X00085245Y00161725*
X00085231Y00161849*
X00085204Y00162002*
X00085162Y00162154*
X0008512Y00162335*
X00086604Y00162141*
Y00162016*
X00086618Y00161877*
X00086632Y00161711*
X00086674Y0016153*
X00086729Y00161336*
X00086812Y00161156*
X00086923Y0016099*
X00086937Y00160976*
X00086993Y0016092*
X00087062Y00160865*
X00087173Y00160782*
X00087298Y00160712*
X0008745Y00160643*
X00087631Y00160601*
X00087839Y00160587*
X00087866*
X00087922*
X00088005Y00160601*
X00088116Y00160629*
X00088241Y00160657*
X00088365Y00160712*
X00088504Y00160782*
X00088615Y00160879*
X00088629Y00160892*
X00088657Y00160934*
X00088712Y0016099*
X00088768Y00161087*
X00088809Y00161198*
X00088865Y00161322*
X00088892Y00161489*
X00088906Y00161655*
Y00161738*
X00088892Y00161822*
X00088865Y00161933*
X00088823Y00162057*
X00088768Y00162196*
X00088685Y00162335*
X00088574Y0016246*
X0008856Y00162473*
X00088519Y00162515*
X00088435Y00162571*
X00088324Y0016264*
X00088199Y00162709*
X00088033Y00162765*
X00087839Y0016282*
X00087617Y00162862*
X00087894Y00164554*
X00087908*
X00087936Y0016454*
X00087977*
X00088047Y00164526*
X00088199Y00164484*
X00088407Y00164429*
X00088629Y00164346*
X00088865Y00164262*
X00089087Y00164152*
X00089295Y00164027*
X00089323Y00164013*
X00089378Y00163957*
X00089475Y00163874*
X000896Y00163763*
X00089725Y00163625*
X00089863Y00163458*
X00090002Y0016325*
X00090127Y00163028*
Y00163014*
X00090141Y00163*
X00090168Y00162917*
X00090224Y00162779*
X00090279Y00162612*
X00090335Y00162404*
X0009039Y00162154*
X00090418Y00161891*
X00090432Y001616*
Y00161475*
X00090418Y00161378*
X00090404Y00161253*
X0009039Y00161128*
X00090363Y00160976*
X00090321Y00160823*
X00090224Y00160476*
X00090155Y00160296*
X00090057Y00160102*
X0008996Y00159922*
X0008985Y00159755*
X00089711Y00159575*
X00089558Y00159422*
X00089544Y00159409*
X0008953Y00159395*
X00089489Y00159353*
X00089433Y00159311*
X00089295Y001592*
X00089101Y00159076*
X00088865Y00158951*
X00088587Y00158854*
X00088282Y00158771*
X0008813Y00158757*
X00087963Y00158743*
X00087949*
X00087908*
X00087839Y00158757*
X00087755Y00158771*
X00087644Y00158784*
X0008752Y00158812*
X00087381Y00158854*
X00087228Y00158909*
X00087076Y00158993*
X00086909Y00159076*
X00086743Y00159187*
X00086577Y00159325*
X0008641Y00159492*
X00086244Y00159672*
X00086091Y0015988*
X00085939Y0016013*
Y00160116*
X00085925Y00160088*
Y00160046*
X00085897Y00159991*
X00085855Y00159838*
X00085772Y00159658*
X00085661Y0015945*
X00085523Y00159228*
X00085342Y00159006*
X00085134Y00158812*
X00085106Y00158784*
X00085023Y00158729*
X00084898Y0015866*
X00084718Y00158563*
X0008451Y00158466*
X00084247Y00158396*
X00083969Y00158341*
X0008365Y00158313*
X00083636*
X00083595*
X00083525*
X00083442Y00158327*
X00083331Y00158341*
X00083207Y00158369*
X00083054Y00158396*
X00082901Y00158424*
X00082569Y00158535*
X00082388Y00158618*
X00082194Y00158701*
X00082014Y00158812*
X00081833Y00158937*
X00081653Y00159076*
X00081487Y00159242*
X00081473Y00159256*
X00081445Y00159284*
X00081404Y00159339*
X00081348Y00159409*
X0008128Y00159506*
X00081209Y00159603*
X00081126Y00159741*
X00081043Y0015988*
X0008096Y00160033*
X00080877Y00160213*
X00080807Y00160407*
X00080738Y00160601*
X00080682Y00160823*
X00080641Y00161045*
X00080613Y00161295*
X00080599Y00161544*
Y00161669*
X00080613Y00161766*
X00080627Y00161877*
X00080641Y00162002*
X00080669Y00162141*
X00080696Y00162307*
X00080779Y0016264*
X00080918Y00163*
X00081001Y00163195*
X00081099Y00163361*
X00081223Y00163541*
X00081348Y00163708*
X00081362Y00163722*
X0008139Y00163749*
X00081431Y00163791*
X00081487Y00163846*
X00081556Y00163916*
X00081653Y00163985*
X0008175Y00164068*
X00081875Y00164152*
X00082014Y00164235*
X00082153Y00164332*
X00082485Y00164484*
X00082874Y00164609*
X00083082Y00164665*
X00083304Y00164692*
X00083525Y00162917*
G37*
G36*
X00087825Y00473585D02*
X00087838Y00473571D01*
X00087852Y0047353*
X00087866Y00473474*
X00087936Y00473335*
X00088019Y00473141*
X0008813Y00472905*
X00088282Y00472642*
X00088476Y00472351*
X00088698Y00472046*
X00088712Y00472032*
X00088726Y00472004*
X00088768Y00471962*
X00088823Y00471907*
X00088962Y00471754*
X00089142Y00471588*
X00089364Y00471394*
X00089641Y004712*
X00089933Y00471019*
X00090252Y00470881*
Y00469383*
X00080599*
Y00471227*
X00087547*
X00087533Y00471241*
X00087506Y00471269*
X00087464Y00471324*
X00087395Y00471408*
X00087311Y00471505*
X00087228Y00471616*
X00087131Y00471754*
X0008702Y00471907*
X00086909Y00472073*
X00086798Y00472254*
X00086674Y00472448*
X00086563Y00472656*
X00086355Y004731*
X0008616Y00473599*
X00087825*
Y00473585*
G37*
G36*
X00083414Y00370768D02*
X00083387D01*
X00083317Y00370754*
X00083193Y00370727*
X00083054Y00370685*
X00082901Y0037063*
X00082735Y00370546*
X00082582Y00370435*
X0008243Y00370311*
X00082416Y00370297*
X00082374Y00370241*
X00082319Y00370158*
X0008225Y00370047*
X0008218Y00369922*
X00082125Y0036977*
X00082083Y00369589*
X00082069Y00369409*
Y00369381*
X00082083Y00369312*
X00082097Y00369201*
X00082125Y00369062*
X0008218Y0036891*
X00082263Y00368743*
X00082388Y00368577*
X00082541Y00368424*
X00082569Y00368411*
X00082624Y00368355*
X00082735Y003683*
X00082901Y00368216*
X00083096Y00368147*
X00083331Y00368078*
X00083623Y00368036*
X00083955Y00368022*
X00083969*
X00083997*
X00084039*
X00084108*
X00084261Y00368036*
X00084455Y00368078*
X00084676Y00368119*
X00084898Y00368189*
X00085106Y00368286*
X00085287Y00368424*
X00085301Y00368438*
X00085356Y00368494*
X00085425Y00368591*
X00085523Y00368702*
X00085606Y00368854*
X00085675Y00369035*
X0008573Y00369243*
X00085744Y00369465*
Y00369548*
X0008573Y00369603*
X00085703Y00369742*
X00085661Y00369936*
X00085578Y00370158*
X00085453Y00370394*
X0008537Y00370519*
X00085273Y00370643*
X00085162Y00370768*
X00085037Y00370893*
X00085245Y00372377*
X00090252Y00371434*
Y00366566*
X00088532*
Y00370047*
X00086895Y00370338*
Y00370324*
X00086909Y00370311*
X00086951Y00370227*
X00086993Y00370103*
X00087062Y00369951*
X00087117Y00369756*
X00087159Y00369548*
X00087201Y00369312*
X00087214Y00369076*
Y00368951*
X00087201Y00368868*
X00087187Y00368771*
X00087173Y00368646*
X00087145Y00368508*
X00087104Y00368355*
X00086993Y00368036*
X00086923Y00367856*
X0008684Y0036769*
X00086729Y00367509*
X00086604Y00367329*
X00086466Y00367163*
X00086313Y00366996*
X00086299Y00366982*
X00086271Y00366954*
X00086216Y00366913*
X00086147Y00366857*
X00086063Y00366802*
X00085952Y00366719*
X00085828Y00366649*
X00085689Y00366566*
X00085536Y00366483*
X00085356Y00366414*
X00085162Y0036633*
X00084968Y00366275*
X00084746Y00366219*
X0008451Y00366178*
X00084261Y0036615*
X00083997Y00366136*
X00083983*
X00083941*
X00083886*
X00083803Y0036615*
X00083693*
X00083567Y00366178*
X00083428Y00366192*
X0008329Y00366219*
X00082957Y00366303*
X00082596Y00366427*
X00082402Y00366511*
X00082222Y00366594*
X00082042Y00366705*
X00081861Y0036683*
X00081847Y00366843*
X00081806Y00366871*
X0008175Y00366927*
X00081667Y00366996*
X0008157Y00367093*
X00081459Y00367218*
X00081348Y00367357*
X00081237Y00367509*
X00081112Y0036769*
X00081001Y00367884*
X00080891Y00368092*
X00080793Y00368327*
X0008071Y00368577*
X00080655Y00368841*
X00080613Y00369132*
X00080599Y00369437*
Y00369562*
X00080613Y00369659*
X00080627Y0036977*
X00080641Y00369908*
X00080655Y00370047*
X00080682Y00370214*
X00080766Y00370546*
X00080904Y00370921*
X00080974Y00371101*
X00081071Y00371281*
X00081182Y00371448*
X00081306Y00371614*
X0008132Y00371628*
X00081334Y00371656*
X00081376Y00371697*
X00081431Y00371753*
X00081515Y00371808*
X00081598Y00371892*
X00081695Y00371961*
X00081806Y00372044*
X00081944Y00372141*
X00082083Y00372224*
X00082416Y00372377*
X0008279Y00372516*
X00082998Y00372557*
X0008322Y00372599*
X00083414Y00370768*
G37*
G36*
X00083525Y00421824D02*
X00083512D01*
X00083498*
X00083414Y0042181*
X0008329Y00421782*
X00083137Y0042174*
X00082971Y00421671*
X00082791Y00421602*
X00082624Y00421491*
X00082471Y00421366*
X00082458Y00421352*
X00082416Y00421297*
X0008236Y00421213*
X00082305Y00421116*
X00082236Y00420978*
X0008218Y00420825*
X00082139Y00420659*
X00082125Y00420465*
Y00420437*
X00082139Y00420367*
X00082153Y0042027*
X0008218Y00420132*
X00082236Y00419979*
X00082305Y00419827*
X00082416Y0041966*
X00082555Y00419508*
X00082569Y00419494*
X00082638Y00419438*
X00082735Y00419383*
X0008286Y004193*
X00083026Y0041923*
X00083234Y00419161*
X0008347Y00419119*
X00083734Y00419105*
X00083747*
X00083761*
X00083845*
X00083969Y00419119*
X00084136Y00419147*
X00084316Y00419203*
X00084496Y00419272*
X00084677Y00419369*
X00084843Y00419494*
X00084857Y00419508*
X00084912Y00419563*
X00084982Y00419646*
X00085051Y00419743*
X00085134Y00419882*
X0008519Y00420035*
X00085245Y00420201*
X00085259Y00420395*
Y00420534*
X00085245Y00420631*
X00085231Y00420756*
X00085204Y00420908*
X00085162Y00421061*
X0008512Y00421241*
X00086604Y00421047*
Y00420922*
X00086618Y00420784*
X00086632Y00420617*
X00086674Y00420437*
X00086729Y00420243*
X00086812Y00420062*
X00086923Y00419896*
X00086937Y00419882*
X00086993Y00419827*
X00087062Y00419771*
X00087173Y00419688*
X00087298Y00419619*
X0008745Y00419549*
X00087631Y00419508*
X00087839Y00419494*
X00087866*
X00087922*
X00088005Y00419508*
X00088116Y00419535*
X00088241Y00419563*
X00088365Y00419619*
X00088504Y00419688*
X00088615Y00419785*
X00088629Y00419799*
X00088657Y0041984*
X00088712Y00419896*
X00088768Y00419993*
X00088809Y00420104*
X00088865Y00420229*
X00088892Y00420395*
X00088906Y00420562*
Y00420645*
X00088892Y00420728*
X00088865Y00420839*
X00088823Y00420964*
X00088768Y00421103*
X00088685Y00421241*
X00088574Y00421366*
X0008856Y0042138*
X00088519Y00421422*
X00088435Y00421477*
X00088324Y00421546*
X00088199Y00421616*
X00088033Y00421671*
X00087839Y00421727*
X00087617Y00421768*
X00087894Y0042346*
X00087908*
X00087936Y00423446*
X00087977*
X00088047Y00423432*
X00088199Y00423391*
X00088407Y00423335*
X00088629Y00423252*
X00088865Y00423169*
X00089087Y00423058*
X00089295Y00422933*
X00089323Y00422919*
X00089378Y00422864*
X00089475Y00422781*
X000896Y0042267*
X00089725Y00422531*
X00089863Y00422365*
X00090002Y00422157*
X00090127Y00421935*
Y00421921*
X00090141Y00421907*
X00090168Y00421824*
X00090224Y00421685*
X00090279Y00421519*
X00090335Y00421311*
X0009039Y00421061*
X00090418Y00420797*
X00090432Y00420506*
Y00420381*
X00090418Y00420284*
X00090404Y00420159*
X0009039Y00420035*
X00090363Y00419882*
X00090321Y0041973*
X00090224Y00419383*
X00090155Y00419203*
X00090057Y00419008*
X0008996Y00418828*
X0008985Y00418662*
X00089711Y00418481*
X00089558Y00418329*
X00089544Y00418315*
X0008953Y00418301*
X00089489Y00418259*
X00089433Y00418218*
X00089295Y00418107*
X00089101Y00417982*
X00088865Y00417857*
X00088587Y0041776*
X00088282Y00417677*
X0008813Y00417663*
X00087963Y00417649*
X00087949*
X00087908*
X00087839Y00417663*
X00087755Y00417677*
X00087644Y00417691*
X0008752Y00417719*
X00087381Y0041776*
X00087228Y00417816*
X00087076Y00417899*
X00086909Y00417982*
X00086743Y00418093*
X00086577Y00418232*
X0008641Y00418398*
X00086244Y00418578*
X00086091Y00418786*
X00085939Y00419036*
Y00419022*
X00085925Y00418995*
Y00418953*
X00085897Y00418898*
X00085855Y00418745*
X00085772Y00418565*
X00085661Y00418357*
X00085523Y00418135*
X00085342Y00417913*
X00085134Y00417719*
X00085106Y00417691*
X00085023Y00417635*
X00084898Y00417566*
X00084718Y00417469*
X0008451Y00417372*
X00084247Y00417303*
X00083969Y00417247*
X0008365Y00417219*
X00083636*
X00083595*
X00083525*
X00083442Y00417233*
X00083331Y00417247*
X00083207Y00417275*
X00083054Y00417303*
X00082901Y0041733*
X00082569Y00417441*
X00082388Y00417524*
X00082194Y00417608*
X00082014Y00417719*
X00081833Y00417844*
X00081653Y00417982*
X00081487Y00418149*
X00081473Y00418162*
X00081445Y0041819*
X00081404Y00418246*
X00081348Y00418315*
X0008128Y00418412*
X00081209Y00418509*
X00081126Y00418648*
X00081043Y00418786*
X0008096Y00418939*
X00080877Y00419119*
X00080807Y00419313*
X00080738Y00419508*
X00080682Y0041973*
X00080641Y00419951*
X00080613Y00420201*
X00080599Y00420451*
Y00420576*
X00080613Y00420673*
X00080627Y00420784*
X00080641Y00420908*
X00080669Y00421047*
X00080696Y00421213*
X00080779Y00421546*
X00080918Y00421907*
X00081001Y00422101*
X00081099Y00422267*
X00081223Y00422448*
X00081348Y00422614*
X00081362Y00422628*
X0008139Y00422656*
X00081431Y00422697*
X00081487Y00422753*
X00081556Y00422822*
X00081653Y00422892*
X0008175Y00422975*
X00081875Y00423058*
X00082014Y00423141*
X00082153Y00423238*
X00082485Y00423391*
X00082874Y00423516*
X00083082Y00423571*
X00083304Y00423599*
X00083525Y00421824*
G37*
G36*
X00090071Y00314303D02*
X0008874D01*
X00088726Y00314316*
X00088698Y00314344*
X00088657Y00314386*
X00088601Y00314441*
X00088519Y00314511*
X00088421Y00314594*
X0008831Y00314691*
X00088171Y00314802*
X00088019Y00314913*
X00087852Y00315038*
X00087672Y00315176*
X00087478Y00315315*
X00087256Y00315454*
X00087034Y00315592*
X00086785Y00315745*
X00086521Y00315897*
X00086507Y00315911*
X00086452Y00315939*
X00086382Y00315981*
X00086271Y00316036*
X00086147Y00316092*
X0008598Y00316175*
X000858Y00316258*
X00085606Y00316355*
X00085384Y00316452*
X00085148Y00316549*
X00084898Y0031666*
X00084635Y00316757*
X00084066Y00316951*
X0008347Y00317132*
X00083456*
X00083401Y00317146*
X00083318Y00317173*
X00083193Y00317201*
X00083054Y00317229*
X00082901Y00317257*
X00082707Y00317298*
X00082513Y0031734*
X00082291Y00317381*
X00082069Y00317409*
X00081584Y00317478*
X00081085Y0031752*
X00080599Y00317534*
Y00319309*
X00080627*
X00080682*
X00080793Y00319295*
X00080946*
X00081126Y00319281*
X00081334Y00319254*
X00081584Y00319226*
X00081847Y00319184*
X00082139Y00319143*
X00082458Y00319087*
X00082791Y00319018*
X00083151Y00318949*
X00083512Y00318851*
X00083886Y00318754*
X00084261Y0031863*
X00084649Y00318491*
X00084677Y00318477*
X00084746Y00318449*
X00084857Y00318408*
X00084996Y00318352*
X00085176Y00318269*
X00085398Y00318172*
X00085633Y00318061*
X00085897Y00317936*
X00086174Y00317797*
X00086466Y00317645*
X00086785Y00317478*
X0008709Y00317284*
X00087742Y00316882*
X00088365Y00316424*
Y00320599*
X00090071*
Y00314303*
G37*
G36*
X00190896Y00496381D02*
X00190915Y00496362D01*
X00190933Y00496307*
X00190952Y00496233*
X00191044Y00496048*
X00191155Y00495788*
X00191303Y00495473*
X00191507Y00495122*
X00191767Y00494733*
X00192063Y00494325*
X00192081Y00494307*
X001921Y0049427*
X00192155Y00494214*
X00192229Y0049414*
X00192415Y00493937*
X00192655Y00493714*
X00192951Y00493455*
X00193322Y00493196*
X00193711Y00492955*
X00194137Y0049277*
Y0049077*
X00181249*
Y00493233*
X00190526*
X00190507Y00493251*
X0019047Y00493288*
X00190415Y00493363*
X00190322Y00493474*
X00190211Y00493603*
X001901Y00493751*
X0018997Y00493937*
X00189822Y0049414*
X00189674Y00494363*
X00189526Y00494603*
X00189359Y00494862*
X00189211Y0049514*
X00188933Y00495733*
X00188674Y00496399*
X00190896*
Y00496381*
G37*
G36*
X00080696Y00448585D02*
X00080766Y00448571D01*
X00080849Y00448557*
X00080946Y00448543*
X00081196Y00448488*
X00081473Y00448405*
X00081778Y00448294*
X00082111Y00448155*
X0008243Y00447975*
X00082444*
X00082471Y00447947*
X00082527Y00447919*
X00082582Y00447864*
X0008268Y00447808*
X00082777Y00447725*
X00082901Y00447628*
X0008304Y00447517*
X00083207Y00447392*
X00083373Y0044724*
X00083567Y00447073*
X00083775Y00446879*
X00083983Y00446671*
X00084219Y00446435*
X00084468Y00446186*
X00084732Y00445908*
X00084746Y00445895*
X00084788Y00445853*
X00084843Y00445797*
X00084926Y00445714*
X00085009Y00445603*
X0008512Y00445492*
X0008537Y00445243*
X00085633Y00444993*
X00085897Y00444743*
X00086008Y00444632*
X00086133Y00444522*
X0008623Y00444438*
X00086313Y00444383*
X00086341Y00444369*
X0008641Y00444327*
X00086521Y00444258*
X00086674Y00444189*
X0008684Y00444119*
X00087034Y0044405*
X00087228Y00444008*
X00087436Y00443995*
X0008745*
X00087464*
X00087533*
X00087658Y00444008*
X00087797Y00444036*
X00087949Y00444078*
X00088102Y00444133*
X00088255Y00444216*
X00088393Y00444327*
X00088407Y00444341*
X00088449Y00444383*
X00088504Y00444466*
X0008856Y00444563*
X00088615Y00444702*
X00088671Y00444854*
X00088712Y00445035*
X00088726Y00445243*
Y0044534*
X00088712Y00445451*
X00088685Y00445576*
X00088643Y00445728*
X00088573Y00445881*
X0008849Y00446033*
X00088379Y00446172*
X00088365Y00446186*
X0008831Y00446227*
X00088227Y00446283*
X00088102Y00446338*
X00087949Y00446408*
X00087741Y00446463*
X00087506Y00446519*
X00087228Y00446546*
X00087409Y00448377*
X00087422*
X00087478Y00448363*
X00087547*
X00087658Y00448335*
X00087783Y00448321*
X00087922Y0044828*
X00088074Y00448238*
X00088255Y00448197*
X00088601Y00448058*
X00088962Y00447892*
X00089142Y00447781*
X00089309Y00447656*
X00089447Y00447517*
X00089586Y00447365*
X000896Y00447351*
X00089614Y00447323*
X00089641Y00447281*
X00089697Y00447212*
X00089739Y00447129*
X00089794Y00447018*
X00089863Y00446907*
X00089919Y00446768*
X00089988Y00446616*
X00090044Y00446449*
X00090154Y00446089*
X00090224Y00445659*
X00090238Y00445437*
X00090252Y00445201*
Y00445062*
X00090238Y00444965*
X00090224Y0044484*
X0009021Y00444702*
X00090182Y00444549*
X00090154Y00444383*
X00090057Y00444022*
X00089919Y00443662*
X00089836Y00443468*
X00089739Y00443301*
X00089614Y00443121*
X00089475Y00442968*
X00089461Y00442954*
X00089447Y00442927*
X00089392Y00442899*
X00089336Y00442844*
X00089267Y00442774*
X0008917Y00442705*
X00089073Y00442635*
X00088948Y00442552*
X00088671Y00442414*
X00088352Y00442275*
X00088171Y00442219*
X00087977Y00442192*
X00087769Y00442164*
X00087561Y0044215*
X00087533*
X0008745*
X00087325Y00442164*
X00087173Y00442178*
X00086979Y00442205*
X00086771Y00442247*
X00086549Y00442303*
X00086327Y00442386*
X00086299Y004424*
X0008623Y00442427*
X00086106Y00442483*
X00085952Y00442566*
X00085772Y00442663*
X00085564Y00442788*
X00085342Y00442941*
X00085106Y00443121*
X00085093Y00443135*
X00085023Y0044319*
X00084926Y00443273*
X00084788Y00443398*
X00084621Y00443565*
X00084399Y00443773*
X00084163Y00444022*
X00083872Y00444327*
X00083858Y00444341*
X00083844Y00444369*
X00083803Y00444411*
X00083747Y00444466*
X00083609Y00444619*
X00083442Y00444799*
X00083262Y00444979*
X00083082Y00445159*
X00082929Y00445326*
X0008286Y00445381*
X00082804Y00445437*
X0008279Y00445451*
X00082763Y00445479*
X00082707Y0044552*
X00082638Y00445576*
X00082485Y004457*
X00082305Y00445811*
Y0044215*
X00080599*
Y00448599*
X00080613*
X00080641*
X00080696Y00448585*
G37*
G36*
X00087825Y00222585D02*
X00087839Y00222571D01*
X00087852Y00222529*
X00087866Y00222474*
X00087936Y00222335*
X00088019Y00222141*
X0008813Y00221905*
X00088282Y00221642*
X00088476Y00221351*
X00088698Y00221046*
X00088712Y00221032*
X00088726Y00221004*
X00088768Y00220962*
X00088823Y00220907*
X00088962Y00220754*
X00089142Y00220588*
X00089364Y00220394*
X00089641Y002202*
X00089933Y00220019*
X00090252Y00219881*
Y00218383*
X00080599*
Y00220227*
X00087547*
X00087533Y00220241*
X00087506Y00220269*
X00087464Y00220324*
X00087395Y00220408*
X00087312Y00220505*
X00087228Y00220616*
X00087131Y00220754*
X0008702Y00220907*
X00086909Y00221073*
X00086798Y00221254*
X00086674Y00221448*
X00086563Y00221656*
X00086355Y002221*
X0008616Y00222599*
X00087825*
Y00222585*
G37*
G36*
Y00215124D02*
X00087839Y0021511D01*
X00087852Y00215068*
X00087866Y00215013*
X00087936Y00214874*
X00088019Y0021468*
X0008813Y00214444*
X00088282Y00214181*
X00088476Y00213889*
X00088698Y00213584*
X00088712Y0021357*
X00088726Y00213543*
X00088768Y00213501*
X00088823Y00213446*
X00088962Y00213293*
X00089142Y00213127*
X00089364Y00212933*
X00089641Y00212738*
X00089933Y00212558*
X00090252Y0021242*
Y00210922*
X00080599*
Y00212766*
X00087547*
X00087533Y0021278*
X00087506Y00212808*
X00087464Y00212863*
X00087395Y00212947*
X00087312Y00213043*
X00087228Y00213154*
X00087131Y00213293*
X0008702Y00213446*
X00086909Y00213612*
X00086798Y00213792*
X00086674Y00213987*
X00086563Y00214195*
X00086355Y00214638*
X0008616Y00215138*
X00087825*
Y00215124*
G37*
G36*
X00088005Y00095585D02*
X00088019Y00095571D01*
X00088033Y0009553*
X00088047Y00095474*
X00088116Y00095335*
X00088199Y00095141*
X0008831Y00094905*
X00088463Y00094642*
X00088657Y00094351*
X00088879Y00094046*
X00088892Y00094032*
X00088906Y00094004*
X00088948Y00093962*
X00089003Y00093907*
X00089142Y00093754*
X00089323Y00093588*
X00089544Y00093394*
X00089822Y000932*
X00090113Y00093019*
X00090432Y00092881*
Y00091383*
X00080779*
Y00093227*
X00087728*
X00087714Y00093241*
X00087686Y00093269*
X00087644Y00093324*
X00087575Y00093408*
X00087492Y00093505*
X00087409Y00093616*
X00087312Y00093754*
X00087201Y00093907*
X0008709Y00094073*
X00086979Y00094254*
X00086854Y00094448*
X00086743Y00094656*
X00086535Y000951*
X00086341Y00095599*
X00088005*
Y00095585*
G37*
G36*
X00085869Y00088609D02*
X00086091Y00088595D01*
X00086341Y00088568*
X00086618Y0008854*
X00086909Y00088498*
X00087214Y00088457*
X00087533Y00088387*
X00087852Y00088304*
X00088171Y00088207*
X00088463Y00088096*
X00088754Y00087971*
X00089017Y00087819*
X00089253Y00087652*
X00089267Y00087638*
X00089309Y00087611*
X00089364Y00087555*
X00089433Y00087472*
X0008953Y00087376*
X00089628Y00087264*
X00089739Y00087125*
X0008985Y00086973*
X00089947Y00086792*
X00090057Y00086612*
X00090155Y0008639*
X00090252Y00086168*
X00090321Y00085933*
X00090377Y00085669*
X00090418Y00085406*
X00090432Y00085114*
Y00085003*
X00090418Y00084934*
Y00084837*
X00090404Y00084726*
X00090349Y00084476*
X00090279Y00084199*
X00090168Y00083894*
X00090016Y00083589*
X00089919Y0008345*
X00089808Y00083312*
Y00083298*
X0008978Y00083284*
X00089739Y00083242*
X00089697Y00083201*
X00089628Y00083131*
X00089558Y00083076*
X00089364Y00082923*
X00089101Y00082771*
X00088796Y00082618*
X00088449Y00082479*
X00088033Y00082382*
X00087839Y00084157*
X00087866*
X00087922Y00084171*
X00088019Y00084199*
X00088144Y00084227*
X00088269Y00084268*
X00088407Y00084338*
X00088532Y00084407*
X00088643Y00084504*
X00088657Y00084518*
X00088685Y0008456*
X00088726Y00084615*
X00088782Y00084698*
X00088823Y00084795*
X00088865Y0008492*
X00088892Y00085073*
X00088906Y00085225*
Y00085253*
X00088892Y00085322*
X00088879Y00085433*
X00088837Y00085572*
X00088782Y00085725*
X00088685Y00085891*
X0008856Y00086057*
X00088379Y0008621*
X00088352Y00086224*
X00088324Y00086252*
X00088269Y00086279*
X00088213Y00086307*
X0008813Y00086349*
X00088033Y00086376*
X00087908Y00086418*
X00087769Y00086474*
X00087617Y00086515*
X00087436Y00086557*
X00087242Y00086598*
X0008702Y0008664*
X00086771Y00086668*
X00086493Y00086695*
X00086202Y00086723*
X00086216Y00086709*
X00086244Y00086695*
X00086271Y00086654*
X00086327Y00086598*
X00086396Y00086529*
X00086466Y00086446*
X00086618Y00086252*
X00086757Y00086002*
X00086895Y00085711*
X00086951Y00085544*
X00086979Y00085378*
X00087006Y00085198*
X0008702Y00085003*
Y00084893*
X00087006Y00084809*
X00086993Y00084712*
X00086979Y00084601*
X00086951Y00084463*
X00086909Y00084324*
X00086798Y00084019*
X00086729Y00083852*
X00086646Y00083686*
X00086549Y00083519*
X00086424Y00083353*
X00086285Y00083187*
X00086133Y00083034*
X00086119Y0008302*
X00086091Y00082992*
X0008605Y00082951*
X0008598Y00082909*
X00085883Y0008284*
X00085786Y00082771*
X00085661Y00082701*
X00085523Y00082618*
X0008537Y00082535*
X0008519Y00082465*
X00085009Y00082396*
X00084801Y00082327*
X00084593Y00082285*
X00084358Y00082244*
X00084122Y00082216*
X00083858Y00082202*
X00083845*
X00083789*
X0008372*
X00083609Y00082216*
X00083484Y0008223*
X00083345Y00082244*
X00083179Y00082271*
X00083012Y00082313*
X00082624Y0008241*
X0008243Y00082479*
X00082236Y00082576*
X00082042Y00082674*
X00081847Y00082785*
X00081653Y00082923*
X00081487Y00083076*
X00081473Y0008309*
X00081445Y00083117*
X00081404Y00083159*
X00081348Y00083228*
X0008128Y00083312*
X00081209Y00083422*
X00081126Y00083533*
X00081043Y00083672*
X0008096Y00083825*
X00080877Y00083991*
X00080807Y00084171*
X00080738Y00084379*
X00080682Y00084587*
X00080641Y00084809*
X00080613Y00085045*
X00080599Y00085295*
Y00085364*
X00080613Y00085433*
Y0008553*
X00080641Y00085655*
X00080655Y00085808*
X00080696Y0008596*
X00080738Y00086141*
X00080793Y00086321*
X00080877Y00086515*
X0008096Y00086723*
X00081071Y00086917*
X00081196Y00087125*
X00081348Y00087319*
X00081528Y00087514*
X00081723Y00087694*
X00081736Y00087708*
X00081778Y00087736*
X00081847Y00087777*
X00081944Y00087833*
X00082069Y00087916*
X00082222Y00087985*
X00082402Y00088068*
X0008261Y00088152*
X0008286Y00088249*
X00083123Y00088332*
X00083428Y00088401*
X00083775Y0008847*
X00084136Y0008854*
X00084538Y00088581*
X00084968Y00088609*
X00085439Y00088623*
X00085453*
X00085467*
X00085509*
X0008555*
X00085689*
X00085869Y00088609*
G37*
G36*
X00087825Y00146585D02*
X00087839Y00146571D01*
X00087852Y0014653*
X00087866Y00146474*
X00087936Y00146335*
X00088019Y00146141*
X0008813Y00145905*
X00088282Y00145642*
X00088476Y00145351*
X00088698Y00145046*
X00088712Y00145032*
X00088726Y00145004*
X00088768Y00144962*
X00088823Y00144907*
X00088962Y00144754*
X00089142Y00144588*
X00089364Y00144394*
X00089641Y001442*
X00089933Y00144019*
X00090252Y00143881*
Y00142383*
X00080599*
Y00144227*
X00087547*
X00087533Y00144241*
X00087506Y00144269*
X00087464Y00144324*
X00087395Y00144408*
X00087312Y00144505*
X00087228Y00144616*
X00087131Y00144754*
X0008702Y00144907*
X00086909Y00145073*
X00086798Y00145254*
X00086674Y00145448*
X00086563Y00145656*
X00086355Y001461*
X0008616Y00146599*
X00087825*
Y00146585*
G37*
G36*
X00090238Y00135781D02*
Y00134228D01*
X00084136*
Y00133036*
X00082527*
Y00134228*
X00080599*
Y00136003*
X00082527*
Y00139942*
X00084122*
X00090238Y00135781*
G37*
G36*
X00087409Y00270585D02*
X00087533Y00270571D01*
X00087672Y00270557*
X00087839Y00270529*
X00088005Y00270488*
X00088379Y00270391*
X00088587Y00270321*
X00088782Y00270238*
X00088976Y00270141*
X0008917Y00270016*
X0008935Y00269892*
X0008953Y00269739*
X00089544Y00269725*
X00089572Y00269697*
X00089614Y00269656*
X00089669Y00269586*
X00089739Y00269489*
X00089822Y00269392*
X00089891Y00269267*
X00089988Y00269129*
X00090071Y0026899*
X00090141Y0026881*
X00090224Y0026863*
X00090293Y00268435*
X00090349Y00268227*
X0009039Y00268005*
X00090418Y00267784*
X00090432Y00267534*
Y00267465*
X00090418Y00267395*
Y00267284*
X00090404Y00267159*
X00090377Y00267021*
X00090335Y00266854*
X00090293Y00266688*
X00090224Y00266494*
X00090155Y002663*
X00090057Y00266105*
X00089947Y00265897*
X00089822Y00265703*
X00089669Y00265509*
X00089489Y00265315*
X00089295Y00265135*
X00089281Y00265121*
X00089239Y00265093*
X0008917Y00265052*
X00089073Y00264982*
X00088948Y00264913*
X00088796Y0026483*
X00088615Y00264746*
X00088407Y00264663*
X00088158Y0026458*
X0008788Y00264483*
X00087575Y00264414*
X00087242Y00264344*
X00086868Y00264275*
X00086466Y00264233*
X00086036Y00264206*
X00085564Y00264192*
X0008555*
X00085536*
X00085495*
X00085453*
X00085315*
X00085134Y00264206*
X00084912Y00264219*
X00084663Y00264247*
X00084399Y00264275*
X00084108Y00264316*
X00083789Y00264372*
X00083484Y00264427*
X00083165Y00264511*
X00082846Y00264608*
X00082555Y00264719*
X00082263Y00264857*
X00082Y00264996*
X00081764Y00265176*
X0008175Y0026519*
X00081709Y00265218*
X00081653Y00265273*
X00081584Y00265357*
X00081501Y00265454*
X0008139Y00265565*
X00081293Y00265703*
X00081182Y00265856*
X00081071Y00266022*
X00080974Y00266216*
X00080877Y00266424*
X00080779Y00266646*
X0008071Y00266896*
X00080655Y00267146*
X00080613Y00267409*
X00080599Y002677*
Y00267811*
X00080613Y00267881*
Y00267978*
X00080627Y00268089*
X00080669Y00268352*
X00080752Y00268643*
X00080849Y00268935*
X00081001Y0026924*
X00081085Y00269378*
X00081196Y00269517*
X00081209Y00269531*
X00081223Y00269545*
X00081265Y00269586*
X00081306Y00269628*
X00081376Y00269684*
X00081445Y00269753*
X00081542Y00269808*
X00081639Y00269892*
X00081764Y00269961*
X00081889Y00270044*
X00082042Y00270113*
X00082208Y00270183*
X00082374Y00270252*
X00082569Y00270308*
X00082763Y00270363*
X00082985Y00270405*
X00083193Y0026863*
X00083165*
X00083096Y00268616*
X00082998Y00268602*
X00082887Y0026856*
X00082749Y00268519*
X0008261Y00268463*
X00082485Y00268394*
X00082374Y00268297*
X0008236Y00268283*
X00082333Y00268241*
X00082291Y00268186*
X0008225Y00268103*
X00082208Y00267992*
X00082166Y00267881*
X00082139Y00267728*
X00082125Y00267576*
Y00267548*
X00082139Y00267478*
X00082153Y00267381*
X00082194Y00267243*
X0008225Y0026709*
X00082347Y00266938*
X00082471Y00266771*
X00082638Y00266619*
X00082666Y00266605*
X00082693Y00266577*
X00082749Y00266549*
X00082804Y00266522*
X00082887Y0026648*
X00082985Y00266452*
X00083109Y00266397*
X00083248Y00266355*
X00083401Y00266314*
X00083581Y00266272*
X00083775Y0026623*
X00083997Y00266189*
X00084247Y00266161*
X00084524Y00266133*
X00084815Y00266105*
X00084801Y00266119*
X00084788Y00266133*
X00084746Y00266175*
X0008469Y0026623*
X00084635Y002663*
X00084566Y00266383*
X00084413Y00266577*
X00084261Y00266827*
X00084136Y00267132*
X0008408Y00267298*
X00084052Y00267465*
X00084025Y00267645*
X00084011Y00267839*
Y0026795*
X00084025Y00268033*
X00084039Y0026813*
X00084052Y00268241*
X00084122Y00268505*
X00084219Y0026881*
X00084302Y00268962*
X00084385Y00269129*
X00084482Y00269295*
X00084593Y00269462*
X00084732Y00269628*
X00084885Y00269781*
X00084898Y00269794*
X00084926Y00269822*
X00084982Y0026985*
X00085037Y00269905*
X00085134Y00269975*
X00085231Y00270044*
X00085356Y00270113*
X00085495Y00270183*
X00085647Y00270266*
X00085828Y00270335*
X00086008Y00270405*
X00086216Y00270474*
X00086424Y00270529*
X0008666Y00270557*
X00086909Y00270585*
X00087159Y00270599*
X00087173*
X00087228*
X00087298*
X00087409Y00270585*
G37*
G36*
X00090238Y00393438D02*
Y00391885D01*
X00084136*
Y00390692*
X00082527*
Y00391885*
X00080599*
Y0039366*
X00082527*
Y00397599*
X00084122*
X00090238Y00393438*
G37*
%LNdr_0n-2*%
%LPC*%
G36*
X00087811Y00293616D02*
X00087783D01*
X00087714*
X00087617Y00293602*
X00087492Y00293574*
X00087353Y00293546*
X00087214Y00293491*
X00087076Y00293408*
X00086951Y00293311*
X00086937Y00293297*
X00086909Y00293255*
X00086854Y00293186*
X00086798Y00293089*
X00086743Y00292964*
X00086687Y00292825*
X0008666Y00292659*
X00086646Y00292478*
Y00292395*
X0008666Y00292298*
X00086687Y00292173*
X00086715Y00292035*
X00086771Y00291896*
X00086854Y00291757*
X00086951Y00291632*
X00086965Y00291619*
X00087006Y00291577*
X00087076Y00291535*
X00087187Y00291466*
X00087312Y00291411*
X0008745Y00291369*
X00087631Y00291327*
X00087825Y00291314*
X00087852*
X00087908*
X00088005Y00291327*
X00088116Y00291355*
X00088255Y00291397*
X00088393Y00291452*
X00088532Y00291522*
X00088657Y00291632*
X00088671Y00291646*
X00088712Y00291688*
X00088754Y00291757*
X00088823Y00291854*
X00088879Y00291979*
X0008892Y00292118*
X00088962Y00292284*
X00088976Y00292465*
Y00292548*
X00088962Y00292645*
X00088934Y0029277*
X00088892Y00292908*
X00088837Y00293047*
X00088768Y00293186*
X00088657Y00293311*
X00088643Y00293324*
X00088601Y00293352*
X00088532Y00293408*
X00088435Y00293463*
X0008831Y00293519*
X00088171Y00293574*
X00088005Y00293602*
X00087811Y00293616*
G37*
G36*
X00083706Y00293782D02*
X00083693D01*
X00083678*
X00083636*
X00083581*
X00083442Y00293754*
X00083262Y00293727*
X00083068Y00293685*
X00082874Y00293616*
X0008268Y00293519*
X00082499Y00293394*
X00082485Y0029338*
X0008243Y00293324*
X00082374Y00293241*
X00082291Y0029313*
X00082222Y00292992*
X00082153Y00292825*
X00082097Y00292631*
X00082083Y00292423*
Y00292326*
X00082111Y00292229*
X00082139Y0029209*
X0008218Y00291938*
X0008225Y00291785*
X00082347Y00291632*
X00082485Y0029148*
X00082499Y00291466*
X00082569Y00291424*
X00082652Y00291355*
X00082791Y00291286*
X00082957Y00291216*
X00083165Y00291147*
X00083401Y00291105*
X00083678Y00291092*
X00083693*
X00083706*
X00083789*
X00083914Y00291105*
X00084066Y00291133*
X00084247Y00291189*
X00084427Y00291258*
X00084607Y00291355*
X00084774Y0029148*
X00084788Y00291494*
X00084843Y00291549*
X00084912Y00291632*
X00084982Y00291743*
X00085065Y00291882*
X0008512Y00292049*
X00085176Y00292243*
X0008519Y00292451*
Y00292562*
X00085162Y00292686*
X00085134Y00292825*
X00085079Y00292992*
X00084996Y00293158*
X00084871Y00293324*
X00084718Y00293463*
X0008469Y00293477*
X00084635Y00293519*
X00084538Y0029356*
X00084413Y00293616*
X00084261Y00293685*
X00084094Y00293727*
X000839Y00293768*
X00083706Y00293782*
G37*
G36*
X00085814Y00239682D02*
X00085509D01*
X00085495*
X00085439*
X00085342*
X00085231*
X00085093*
X0008494Y00239668*
X0008476*
X00084579Y00239654*
X00084191Y0023964*
X00083803Y00239612*
X00083623Y00239598*
X00083456Y0023957*
X00083304Y00239543*
X00083165Y00239515*
X00083137Y00239501*
X00083068Y00239487*
X00082957Y00239446*
X00082832Y00239404*
X00082693Y00239335*
X00082555Y00239265*
X0008243Y00239182*
X00082333Y00239099*
X00082319Y00239085*
X00082305Y00239057*
X00082263Y00239002*
X00082236Y00238933*
X00082194Y00238849*
X00082153Y00238752*
X00082139Y00238641*
X00082125Y00238516*
Y00238461*
X00082139Y00238392*
X00082153Y00238322*
X0008218Y00238225*
X00082208Y00238128*
X00082263Y00238031*
X00082333Y00237934*
X00082347Y0023792*
X00082374Y00237893*
X0008243Y00237837*
X00082513Y00237781*
X0008261Y00237726*
X00082749Y00237657*
X00082901Y00237587*
X00083096Y00237532*
X00083109*
X00083123Y00237518*
X00083179*
X00083234Y00237504*
X00083318Y0023749*
X00083414Y00237476*
X00083525Y00237449*
X00083664Y00237435*
X00083817Y00237421*
X00083997Y00237393*
X00084191Y00237379*
X00084413Y00237366*
X00084649Y00237352*
X00084912*
X00085204Y00237338*
X00085509*
X00085523*
X00085578*
X00085675*
X00085786*
X00085925*
X00086077Y00237352*
X00086258*
X00086438Y00237366*
X00086826Y00237379*
X00087201Y00237407*
X00087381Y00237435*
X00087561Y00237462*
X00087714Y0023749*
X00087839Y00237518*
X00087852*
X00087866Y00237532*
X00087936Y00237546*
X00088047Y00237587*
X00088185Y00237629*
X00088324Y00237698*
X00088463Y00237768*
X00088587Y00237851*
X00088685Y00237934*
X00088698Y00237948*
X00088726Y00237976*
X00088754Y00238031*
X00088796Y00238101*
X00088837Y00238184*
X00088879Y00238281*
X00088892Y00238392*
X00088906Y00238516*
Y00238572*
X00088892Y00238641*
X00088879Y00238711*
X00088851Y00238808*
X00088809Y00238905*
X00088754Y00239016*
X00088685Y00239113*
X00088671Y00239127*
X00088643Y00239155*
X00088587Y00239196*
X00088519Y00239252*
X00088407Y00239321*
X00088282Y00239376*
X00088116Y00239446*
X00087922Y00239501*
X00087908*
X00087894Y00239515*
X00087839*
X00087783Y00239529*
X000877Y00239543*
X00087603Y00239557*
X00087492Y0023957*
X00087353Y00239584*
X00087187Y00239612*
X0008702Y00239626*
X00086812Y0023964*
X00086604Y00239654*
X00086355Y00239668*
X00086106*
X00085814Y00239682*
G37*
G36*
X00083997Y00344532D02*
X00083983D01*
X00083955*
X00083914*
X00083845*
X00083693Y00344505*
X00083484Y00344477*
X00083262Y00344435*
X00083026Y00344366*
X00082804Y00344269*
X0008261Y0034413*
X00082596Y00344116*
X00082541Y00344061*
X00082458Y00343964*
X00082374Y00343853*
X00082277Y00343714*
X00082208Y00343562*
X00082153Y00343381*
X00082125Y00343187*
Y00343104*
X00082153Y00343007*
X0008218Y00342882*
X00082222Y00342757*
X00082291Y00342605*
X00082388Y00342466*
X00082513Y00342327*
X00082527Y00342313*
X00082596Y00342272*
X00082693Y00342216*
X00082832Y00342147*
X00083012Y00342092*
X00083234Y00342036*
X00083512Y00341995*
X00083831Y00341981*
X00083845*
X00083872*
X00083928*
X00083983*
X0008415Y00341995*
X00084358Y00342022*
X00084579Y00342078*
X00084815Y00342133*
X00085037Y0034223*
X00085217Y00342355*
X00085231Y00342369*
X00085287Y00342424*
X00085356Y00342494*
X00085439Y00342605*
X00085523Y00342743*
X00085592Y00342896*
X00085647Y00343076*
X00085661Y0034327*
Y00343354*
X00085633Y00343465*
X00085606Y00343589*
X0008555Y00343728*
X00085481Y00343881*
X0008537Y00344033*
X00085231Y00344172*
X00085217Y00344186*
X00085148Y00344227*
X00085051Y00344283*
X00084926Y00344352*
X00084746Y00344421*
X00084538Y00344477*
X00084288Y00344519*
X00083997Y00344532*
G37*
G36*
Y00086557D02*
X00083983D01*
X00083955*
X00083914*
X00083845*
X00083693Y00086529*
X00083484Y00086501*
X00083262Y0008646*
X00083026Y0008639*
X00082804Y00086293*
X0008261Y00086155*
X00082596Y00086141*
X00082541Y00086085*
X00082458Y00085988*
X00082374Y00085877*
X00082277Y00085738*
X00082208Y00085586*
X00082153Y00085406*
X00082125Y00085211*
Y00085128*
X00082153Y00085031*
X0008218Y00084906*
X00082222Y00084781*
X00082291Y00084629*
X00082388Y0008449*
X00082513Y00084352*
X00082527Y00084338*
X00082596Y00084296*
X00082693Y00084241*
X00082832Y00084171*
X00083012Y00084116*
X00083234Y0008406*
X00083512Y00084019*
X00083831Y00084005*
X00083845*
X00083872*
X00083928*
X00083983*
X0008415Y00084019*
X00084358Y00084046*
X00084579Y00084102*
X00084815Y00084157*
X00085037Y00084255*
X00085217Y00084379*
X00085231Y00084393*
X00085287Y00084449*
X00085356Y00084518*
X00085439Y00084629*
X00085523Y00084768*
X00085592Y0008492*
X00085647Y000851*
X00085661Y00085295*
Y00085378*
X00085633Y00085489*
X00085606Y00085614*
X0008555Y00085752*
X00085481Y00085905*
X0008537Y00086057*
X00085231Y00086196*
X00085217Y0008621*
X00085148Y00086252*
X00085051Y00086307*
X00084926Y00086376*
X00084746Y00086446*
X00084538Y00086501*
X00084288Y00086543*
X00083997Y00086557*
G37*
G36*
X00084136Y00138236D02*
Y00136003D01*
X00087436*
X00084136Y00138236*
G37*
G36*
X00087159Y00268796D02*
X00087145D01*
X00087117*
X00087076*
X00087006*
X0008684Y00268782*
X00086646Y00268754*
X0008641Y00268713*
X00086188Y00268643*
X00085966Y0026856*
X00085786Y00268435*
X00085772Y00268422*
X00085717Y00268366*
X00085647Y00268297*
X00085578Y00268186*
X00085495Y00268047*
X00085425Y00267895*
X0008537Y00267714*
X00085356Y0026752*
Y00267492*
X0008537Y00267437*
X00085384Y0026734*
X00085412Y00267215*
X00085453Y00267076*
X00085536Y00266924*
X00085633Y00266771*
X00085772Y00266632*
X00085786Y00266619*
X00085855Y00266577*
X00085952Y00266508*
X00086077Y00266438*
X00086258Y00266383*
X00086466Y00266314*
X00086715Y00266272*
X00087006Y00266258*
X0008702*
X00087048*
X0008709*
X00087159*
X00087312Y00266286*
X0008752Y00266314*
X00087742Y00266355*
X00087977Y00266438*
X00088199Y00266535*
X00088407Y00266674*
X00088435Y00266688*
X0008849Y00266743*
X0008856Y00266827*
X00088657Y00266938*
X00088754Y00267076*
X00088823Y00267243*
X00088879Y00267423*
X00088906Y00267617*
Y002677*
X00088879Y00267797*
X00088851Y00267908*
X00088809Y00268047*
X00088726Y00268186*
X00088629Y00268324*
X0008849Y00268463*
X00088476Y00268478*
X00088407Y00268519*
X0008831Y00268574*
X00088171Y0026863*
X00087991Y00268685*
X00087755Y0026874*
X00087478Y00268782*
X00087159Y00268796*
G37*
G36*
X00084136Y00395893D02*
Y0039366D01*
X00087436*
X00084136Y00395893*
G37*
%LNdr_0n-3*%
%LPD*%
G54D10*
X00432249Y00339249D02*
D01*
D01*
G75*
G03X00430249I-00001000J0D01*
G74*G01*
D01*
G75*
G03X00432249I00000999J0D01*
G74*G01*
X00122999Y00155999D02*
D01*
D01*
G75*
G03X00120999I-00000999J0D01*
G74*G01*
D01*
G75*
G03X00122999I00001000J0D01*
G74*G01*
X00115249Y00426499D02*
D01*
D01*
G75*
G03X00113249I-00000999J0D01*
G74*G01*
D01*
G75*
G03X00115249I00001000J0D01*
G74*G01*
X00331499Y00448999D02*
D01*
D01*
G75*
G03X00329499I-00000999J0D01*
G74*G01*
D01*
G75*
G03X00331499I00000999J0D01*
G74*G01*
X00431249Y00448749D02*
D01*
D01*
G75*
G03X00429249I-00001000J0D01*
G74*G01*
D01*
G75*
G03X00431249I00000999J0D01*
G74*G01*
X00532999Y00334249D02*
D01*
D01*
G75*
G03X00530999I-00000999J0D01*
G74*G01*
D01*
G75*
G03X00532999I00001000J0D01*
G74*G01*
X00532249Y00453749D02*
D01*
D01*
G75*
G03X00530249I-00000999J0D01*
G74*G01*
D01*
G75*
G03X00532249I00000999J0D01*
G74*G01*
X00531749Y00168249D02*
D01*
D01*
G75*
G03X00529749I-00000999J0D01*
G74*G01*
D01*
G75*
G03X00531749I00000999J0D01*
G74*G01*
X00225499Y00448999D02*
D01*
D01*
G75*
G03X00223499I-00000999J0D01*
G74*G01*
D01*
G75*
G03X00225499I00000999J0D01*
G74*G01*
X00330999Y00338999D02*
D01*
D01*
G75*
G03X00328999I-00000999J0D01*
G74*G01*
D01*
G75*
G03X00330999I00000999J0D01*
G74*G01*
X00231999Y00168749D02*
D01*
D01*
G75*
G03X00229999I-00001000J0D01*
G74*G01*
D01*
G75*
G03X00231999I00000999J0D01*
G74*G01*
X00335999Y00168499D02*
D01*
D01*
G75*
G03X00333999I-00000999J0D01*
G74*G01*
D01*
G75*
G03X00335999I00000999J0D01*
G74*G01*
X00436249Y00168249D02*
D01*
D01*
G75*
G03X00434249I-00000999J0D01*
G74*G01*
D01*
G75*
G03X00436249I00000999J0D01*
G74*G01*
X00565085Y00520804D02*
D01*
D01*
G75*
G03X00563085I-00000999J0D01*
G74*G01*
D01*
G75*
G03X00565085I00000999J0D01*
G74*G01*
X00346249Y00554749D02*
D01*
D01*
G75*
G03X00344249I-00000999J0D01*
G74*G01*
D01*
G75*
G03X00346249I00000999J0D01*
G74*G01*
X00370999D02*
D01*
D01*
G75*
G03X00368999I-00000999J0D01*
G74*G01*
D01*
G75*
G03X00370999I00000999J0D01*
G74*G01*
X00396249D02*
D01*
D01*
G75*
G03X00394249I-00000999J0D01*
G74*G01*
D01*
G75*
G03X00396249I00000999J0D01*
G74*G01*
X00539999Y00520809D02*
D01*
D01*
G75*
G03X00537999I-00000999J0D01*
G74*G01*
D01*
G75*
G03X00539999I00000999J0D01*
G74*G01*
X00514999D02*
D01*
D01*
G75*
G03X00512999I-00000999J0D01*
G74*G01*
D01*
G75*
G03X00514999I00000999J0D01*
G74*G01*
G54D11*
X00278999Y00548999D02*
D01*
D01*
G75*
G03X00276999I-00000999J0D01*
G74*G01*
D01*
G75*
G03X00278999I00000999J0D01*
G74*G01*
G54D12*
X00208185Y00299257D02*
D01*
D01*
G75*
G03Y00293161I0J-00003048D01*
G74*G01*
X00206407Y00273603D02*
X00208185D01*
X00110141Y00318815D02*
X00111919D01*
X00110141Y00273603D02*
Y00318815D01*
Y00273603D02*
X00111919D01*
X00208185D02*
Y00293161D01*
Y00299257*
Y00318815*
X00206407D02*
X00208185D01*
G54D13*
X00619249Y00402849D02*
X00644749D01*
X00619249Y00479349D02*
X00644749D01*
X00619249Y00402849D02*
Y00479349D01*
X00644749Y00402849D02*
Y00479349D01*
X00418449Y00529249D02*
Y00554749D01*
X00494949Y00529249D02*
Y00554749D01*
X00418449D02*
X00494949D01*
X00418449Y00529249D02*
X00494949D01*
X00617249Y00081849D02*
X00642749D01*
X00617249Y00158349D02*
X00642749D01*
X00617249Y00081849D02*
Y00158349D01*
X00642749Y00081849D02*
Y00158349D01*
X00284999Y00527749D02*
Y00544499D01*
X00233999D02*
X00284999D01*
X00233999Y00527749D02*
Y00544499D01*
Y00527749D02*
X00284999D01*
G54D14*
X00134999Y00083249D02*
Y00100499D01*
Y00160999D02*
Y00178499D01*
X00152499*
X00177499Y00097249D02*
Y00164999D01*
X00134999Y00083249D02*
X00152499D01*
X00127499Y00353749D02*
Y00370999D01*
Y00431499D02*
Y00448999D01*
X00144999*
X00169999Y00367749D02*
Y00435499D01*
X00127499Y00353749D02*
X00144999D01*
X00343499Y00413749D02*
Y00430999D01*
Y00413749D02*
X00360499D01*
X00343499Y00453999D02*
Y00471499D01*
X00360999*
X00385999Y00426249D02*
Y00457999D01*
X004445Y00413749D02*
Y00430999D01*
Y00413749D02*
X00461499D01*
X004445Y00453999D02*
Y00471499D01*
X00461999*
X00486999Y00426249D02*
Y00457999D01*
X00544999Y00286499D02*
Y00303719D01*
Y00286499D02*
X00561999D01*
X00544999Y00338999D02*
Y00356499D01*
X00562499*
X00587499Y00298999D02*
Y00342999D01*
X00544999Y00406499D02*
Y00423719D01*
Y00406499D02*
X00561999D01*
X00544999Y00458999D02*
Y00476499D01*
X00562499*
X00587499Y00418999D02*
Y00462999D01*
X00544499Y00083249D02*
X00561999D01*
X00586999Y00096749D02*
Y00177499D01*
X00544499Y00190999D02*
X00561999D01*
X00544499Y00173499D02*
Y00190999D01*
Y00083249D02*
Y00100749D01*
X00238499Y00363749D02*
X00255999D01*
X00280999Y00377249D02*
Y00457999D01*
X00238499Y00471499D02*
X00255999D01*
X00238499Y00453999D02*
Y00471499D01*
Y00363749D02*
Y00381249D01*
X00343499Y00278999D02*
Y00296499D01*
Y00278999D02*
X00360999D01*
X00343499Y00343999D02*
Y00361499D01*
X00360999*
X00385999Y00292249D02*
Y00347999D01*
X00243999Y00083749D02*
X00261499D01*
X00286499Y00097249D02*
Y00177999D01*
X00243999Y00191499D02*
X00261499D01*
X00243999Y00173999D02*
Y00191499D01*
Y00083749D02*
Y00101249D01*
X004445Y00278749D02*
Y00296249D01*
Y00278749D02*
X00461999D01*
X004445Y00343749D02*
Y00361249D01*
X00461999*
X00486999Y00291999D02*
Y00347749D01*
X00348499Y00083749D02*
X00365999D01*
X00390999Y00097249D02*
Y00177999D01*
X00348499Y00191499D02*
X00365999D01*
X00348499Y00173999D02*
Y00191499D01*
Y00083749D02*
Y00101249D01*
X00448999Y00083249D02*
X00466499D01*
X00491499Y00096749D02*
Y00177499D01*
X00448999Y00190999D02*
X00466499D01*
X00448999Y00173499D02*
Y00190999D01*
Y00083249D02*
Y00100749D01*
G54D15*
X00001899Y00483299D02*
X00078099D01*
Y00076899D02*
Y00483299D01*
X00001899Y00076899D02*
X00078099D01*
X00001899D02*
Y00483299D01*
X00101299Y00479899D02*
Y00556099D01*
Y00479899D02*
X00177499D01*
Y00556099*
X00101299D02*
X00177499D01*
G54D16*
X00220248Y00308495D02*
X0021325D01*
Y00304996*
X00214416Y0030383*
X00219082*
X00220248Y00304996*
Y00308495*
Y00301498D02*
X0021325D01*
Y00297998*
X00214416Y00296832*
X00219082*
X00220248Y00297998*
Y00301498*
X0021325Y002945D02*
Y00292167D01*
Y00293333*
X00220248*
X00219082Y002945*
X00220248Y00284003D02*
X00219082Y00286335D01*
X00216749Y00288668*
X00214416*
X0021325Y00287502*
Y00285169*
X00214416Y00284003*
X00215583*
X00216749Y00285169*
Y00288668*
X00528498Y00545163D02*
X00523833D01*
X005215Y0054283*
X00523833Y00540498*
X00528498*
Y00538165D02*
X005215D01*
Y00534666*
X00522666Y005335*
X00527331*
X00528498Y00534666*
Y00538165*
X005215Y00531168D02*
Y00528835D01*
Y00530001*
X00528498*
X00527331Y00531168*
X00554248Y00546079D02*
X00549583D01*
X0054725Y00543747*
X00549583Y00541414*
X00554248*
Y00539082D02*
X0054725D01*
Y00535583*
X00548416Y00534416*
X00553082*
X00554248Y00535583*
Y00539082*
X0054725Y00527419D02*
Y00532084D01*
X00551915Y00527419*
X00553082*
X00554248Y00528585*
Y00530918*
X00553082Y00532084*
X00410248Y00546329D02*
X00405583D01*
X0040325Y00543997*
X00405583Y00541664*
X00410248*
Y00539332D02*
X0040325D01*
Y00535833*
X00404416Y00534666*
X00409082*
X00410248Y00535833*
Y00539332*
X00409082Y00532334D02*
X00410248Y00531168D01*
Y00528835*
X00409082Y00527669*
X00407915*
X00406749Y00528835*
Y00530001*
Y00528835*
X00405583Y00527669*
X00404416*
X0040325Y00528835*
Y00531168*
X00404416Y00532334*
X00385748Y00546329D02*
X00381083D01*
X0037875Y00543997*
X00381083Y00541664*
X00385748*
Y00539332D02*
X0037875D01*
Y00535833*
X00379916Y00534666*
X00384582*
X00385748Y00535833*
Y00539332*
X0037875Y00528835D02*
X00385748D01*
X00382249Y00532334*
Y00527669*
X00359748Y00546079D02*
X00355083D01*
X0035275Y00543747*
X00355083Y00541414*
X00359748*
Y00539081D02*
X0035275D01*
Y00535583*
X00353916Y00534416*
X00358582*
X00359748Y00535583*
Y00539081*
Y00527419D02*
Y00532084D01*
X00356249*
X00357415Y00529751*
Y00528585*
X00356249Y00527419*
X00353916*
X0035275Y00528585*
Y00530918*
X00353916Y00532084*
X00578998Y00545579D02*
X00574333D01*
X00572Y00543247*
X00574333Y00540914*
X00578998*
Y00538582D02*
X00572D01*
Y00535083*
X00573166Y00533916*
X00577832*
X00578998Y00535083*
Y00538582*
Y00526919D02*
X00577832Y00529251D01*
X00575499Y00531584*
X00573166*
X00572Y00530418*
Y00528085*
X00573166Y00526919*
X00574333*
X00575499Y00528085*
Y00531584*
X00288669Y00539248D02*
Y00534583D01*
X00291001Y0053225*
X00293334Y00534583*
Y00539248*
X00295666D02*
Y0053225D01*
X00299165*
X00300332Y00533416*
Y00538082*
X00299165Y00539248*
X00295666*
X00302664D02*
X00307329D01*
Y00538082*
X00302664Y00533416*
Y0053225*
X00502498Y00147163D02*
X004955Y00142498D01*
X00502498D02*
X004955Y00147163D01*
X00501332Y001355D02*
X00502498Y00136666D01*
Y00138999*
X00501332Y00140165*
X00500165*
X00498999Y00138999*
Y00136666*
X00497833Y001355*
X00496666*
X004955Y00136666*
Y00138999*
X00496666Y00140165*
X004955Y00133167D02*
Y00130835D01*
Y00132001*
X00502498*
X00501332Y00133167*
X00131669Y00475748D02*
X00136334Y0046875D01*
Y00475748D02*
X00131669Y0046875D01*
X00143332Y00474582D02*
X00142165Y00475748D01*
X00139833*
X00138666Y00474582*
Y00473415*
X00139833Y00472249*
X00142165*
X00143332Y00471083*
Y00469916*
X00142165Y0046875*
X00139833*
X00138666Y00469916*
X00150329Y0046875D02*
X00145664D01*
X00150329Y00473415*
Y00474582*
X00149163Y00475748*
X00146831*
X00145664Y00474582*
X00402998Y0014683D02*
X00396Y00142164D01*
X00402998D02*
X00396Y0014683D01*
X00401832Y00135167D02*
X00402998Y00136333D01*
Y00138665*
X00401832Y00139832*
X00400665*
X00399499Y00138665*
Y00136333*
X00398333Y00135167*
X00397166*
X00396Y00136333*
Y00138665*
X00397166Y00139832*
X00401832Y00132834D02*
X00402998Y00131668D01*
Y00129335*
X00401832Y00128169*
X00400665*
X00399499Y00129335*
Y00130501*
Y00129335*
X00398333Y00128169*
X00397166*
X00396Y00129335*
Y00131668*
X00397166Y00132834*
X00498498Y00329579D02*
X004915Y00324914D01*
X00498498D02*
X004915Y00329579D01*
X00497332Y00317916D02*
X00498498Y00319083D01*
Y00321415*
X00497332Y00322581*
X00496165*
X00494999Y00321415*
Y00319083*
X00493833Y00317916*
X00492666*
X004915Y00319083*
Y00321415*
X00492666Y00322581*
X004915Y00312085D02*
X00498498D01*
X00494999Y00315584*
Y00310918*
X00297498Y00147329D02*
X002905Y00142664D01*
X00297498D02*
X002905Y00147329D01*
X00296332Y00135666D02*
X00297498Y00136833D01*
Y00139165*
X00296332Y00140332*
X00295165*
X00293999Y00139165*
Y00136833*
X00292833Y00135666*
X00291666*
X002905Y00136833*
Y00139165*
X00291666Y00140332*
X00297498Y00128669D02*
Y00133334D01*
X00293999*
X00295165Y00131001*
Y00129835*
X00293999Y00128669*
X00291666*
X002905Y00129835*
Y00132168*
X00291666Y00133334*
X00398498Y00329829D02*
X003915Y00325164D01*
X00398498D02*
X003915Y00329829D01*
X00397332Y00318166D02*
X00398498Y00319333D01*
Y00321665*
X00397332Y00322832*
X00396165*
X00394999Y00321665*
Y00319333*
X00393833Y00318166*
X00392666*
X003915Y00319333*
Y00321665*
X00392666Y00322832*
X00398498Y00311169D02*
X00397332Y00313501D01*
X00394999Y00315834*
X00392666*
X003915Y00314668*
Y00312335*
X00392666Y00311169*
X00393833*
X00394999Y00312335*
Y00315834*
X00613498Y00130329D02*
X006065Y00125664D01*
X00613498D02*
X006065Y00130329D01*
X00612332Y00118666D02*
X00613498Y00119833D01*
Y00122165*
X00612332Y00123332*
X00611165*
X00609999Y00122165*
Y00119833*
X00608833Y00118666*
X00607666*
X006065Y00119833*
Y00122165*
X00607666Y00123332*
X00613498Y00116334D02*
Y00111669D01*
X00612332*
X00607666Y00116334*
X006065*
X00293248Y00427079D02*
X0028625Y00422414D01*
X00293248D02*
X0028625Y00427079D01*
X00292082Y00415417D02*
X00293248Y00416583D01*
Y00418915*
X00292082Y00420082*
X00290915*
X00289749Y00418915*
Y00416583*
X00288583Y00415417*
X00287416*
X0028625Y00416583*
Y00418915*
X00287416Y00420082*
X00292082Y00413084D02*
X00293248Y00411917D01*
Y00409585*
X00292082Y00408419*
X00290915*
X00289749Y00409585*
X00288583Y00408419*
X00287416*
X0028625Y00409585*
Y00411917*
X00287416Y00413084*
X00288583*
X00289749Y00411917*
X00290915Y00413084*
X00292082*
X00289749Y00411917D02*
Y00409585D01*
X00598248Y00146579D02*
X0059125Y00141914D01*
X00598248D02*
X0059125Y00146579D01*
X00597082Y00134916D02*
X00598248Y00136083D01*
Y00138415*
X00597082Y00139582*
X00595915*
X00594749Y00138415*
Y00136083*
X00593583Y00134916*
X00592416*
X0059125Y00136083*
Y00138415*
X00592416Y00139582*
Y00132584D02*
X0059125Y00131418D01*
Y00129085*
X00592416Y00127919*
X00597082*
X00598248Y00129085*
Y00131418*
X00597082Y00132584*
X00595915*
X00594749Y00131418*
Y00127919*
X00597748Y00454245D02*
X0059075Y0044958D01*
X00597748D02*
X0059075Y00454245D01*
X00596582Y00442582D02*
X00597748Y00443748D01*
Y00446081*
X00596582Y00447247*
X00595415*
X00594249Y00446081*
Y00443748*
X00593083Y00442582*
X00591916*
X0059075Y00443748*
Y00446081*
X00591916Y00447247*
X0059075Y0044025D02*
Y00437917D01*
Y00439083*
X00597748*
X00596582Y0044025*
Y00434418D02*
X00597748Y00433252D01*
Y00430919*
X00596582Y00429753*
X00591916*
X0059075Y00430919*
Y00433252*
X00591916Y00434418*
X00596582*
X00599498Y00332329D02*
X005925Y00327664D01*
X00599498D02*
X005925Y00332329D01*
X00598332Y00320666D02*
X00599498Y00321832D01*
Y00324165*
X00598332Y00325331*
X00597165*
X00595999Y00324165*
Y00321832*
X00594833Y00320666*
X00593666*
X005925Y00321832*
Y00324165*
X00593666Y00325331*
X005925Y00318333D02*
Y00316001D01*
Y00317167*
X00599498*
X00598332Y00318333*
X005925Y00312502D02*
Y00310169D01*
Y00311335*
X00599498*
X00598332Y00312502*
X00445753Y00523748D02*
X00450418Y0051675D01*
Y00523748D02*
X00445753Y0051675D01*
X00457416Y00522582D02*
X0045625Y00523748D01*
X00453917*
X00452751Y00522582*
Y00521415*
X00453917Y00520249*
X0045625*
X00457416Y00519083*
Y00517916*
X0045625Y0051675*
X00453917*
X00452751Y00517916*
X00459748Y0051675D02*
X00462081D01*
X00460915*
Y00523748*
X00459748Y00522582*
X00470245Y0051675D02*
X0046558D01*
X00470245Y00521415*
Y00522582*
X00469079Y00523748*
X00466746*
X0046558Y00522582*
X00502998Y00455495D02*
X00496Y0045083D01*
X00502998D02*
X00496Y00455495D01*
X00501832Y00443832D02*
X00502998Y00444998D01*
Y00447331*
X00501832Y00448497*
X00500665*
X00499499Y00447331*
Y00444998*
X00498333Y00443832*
X00497166*
X00496Y00444998*
Y00447331*
X00497166Y00448497*
X00496Y004415D02*
Y00439167D01*
Y00440333*
X00502998*
X00501832Y004415*
Y00435668D02*
X00502998Y00434502D01*
Y00432169*
X00501832Y00431003*
X00500665*
X00499499Y00432169*
Y00433335*
Y00432169*
X00498333Y00431003*
X00497166*
X00496Y00432169*
Y00434502*
X00497166Y00435668*
X00398998Y00455745D02*
X00392Y0045108D01*
X00398998D02*
X00392Y00455745D01*
X00397832Y00444082D02*
X00398998Y00445248D01*
Y00447581*
X00397832Y00448747*
X00396665*
X00395499Y00447581*
Y00445248*
X00394333Y00444082*
X00393166*
X00392Y00445248*
Y00447581*
X00393166Y00448747*
X00392Y0044175D02*
Y00439417D01*
Y00440583*
X00398998*
X00397832Y0044175*
X00392Y00432419D02*
X00398998D01*
X00395499Y00435918*
Y00431253*
X00052753Y00493248D02*
X00057418Y0048625D01*
Y00493248D02*
X00052753Y0048625D01*
X00064416Y00492082D02*
X0006325Y00493248D01*
X00060917*
X00059751Y00492082*
Y00490915*
X00060917Y00489749*
X0006325*
X00064416Y00488583*
Y00487416*
X0006325Y0048625*
X00060917*
X00059751Y00487416*
X00066748Y0048625D02*
X00069081D01*
X00067915*
Y00493248*
X00066748Y00492082*
X00077245Y00493248D02*
X0007258D01*
Y00489749*
X00074913Y00490915*
X00076079*
X00077245Y00489749*
Y00487416*
X00076079Y0048625*
X00073746*
X0007258Y00487416*
X00181498Y00414995D02*
X001745Y0041033D01*
X00181498D02*
X001745Y00414995D01*
X00180332Y00403332D02*
X00181498Y00404498D01*
Y00406831*
X00180332Y00407997*
X00179165*
X00177999Y00406831*
Y00404498*
X00176833Y00403332*
X00175666*
X001745Y00404498*
Y00406831*
X00175666Y00407997*
X001745Y00401D02*
Y00398667D01*
Y00399833*
X00181498*
X00180332Y00401*
X00181498Y00390503D02*
X00180332Y00392835D01*
X00177999Y00395168*
X00175666*
X001745Y00394002*
Y00391669*
X00175666Y00390503*
X00176833*
X00177999Y00391669*
Y00395168*
X00189998Y00144245D02*
X00183Y0013958D01*
X00189998D02*
X00183Y00144245D01*
X00188832Y00132582D02*
X00189998Y00133748D01*
Y00136081*
X00188832Y00137247*
X00187665*
X00186499Y00136081*
Y00133748*
X00185333Y00132582*
X00184166*
X00183Y00133748*
Y00136081*
X00184166Y00137247*
X00183Y0013025D02*
Y00127917D01*
Y00129083*
X00189998*
X00188832Y0013025*
X00189998Y00124418D02*
Y00119753D01*
X00188832*
X00184166Y00124418*
X00183*
X00615498Y00453995D02*
X006085Y0044933D01*
X00615498D02*
X006085Y00453995D01*
X00614332Y00442332D02*
X00615498Y00443498D01*
Y00445831*
X00614332Y00446997*
X00613165*
X00611999Y00445831*
Y00443498*
X00610833Y00442332*
X00609666*
X006085Y00443498*
Y00445831*
X00609666Y00446997*
X006085Y00439999D02*
Y00437667D01*
Y00438833*
X00615498*
X00614332Y00439999*
Y00434168D02*
X00615498Y00433002D01*
Y00430669*
X00614332Y00429503*
X00613165*
X00611999Y00430669*
X00610833Y00429503*
X00609666*
X006085Y00430669*
Y00433002*
X00609666Y00434168*
X00610833*
X00611999Y00433002*
X00613165Y00434168*
X00614332*
X00611999Y00433002D02*
Y00430669D01*
M02*