%FSTAX44Y44*%
%MOMM*%
%SFA1B1*%

%IPPOS*%
%AMD45*
4,1,8,-0.500380,0.248920,-0.500380,-0.248920,-0.248920,-0.500380,0.248920,-0.500380,0.500380,-0.248920,0.500380,0.248920,0.248920,0.500380,-0.248920,0.500380,-0.500380,0.248920,0.0*
1,1,0.500000,-0.248920,0.248920*
1,1,0.500000,-0.248920,-0.248920*
1,1,0.500000,0.248920,-0.248920*
1,1,0.500000,0.248920,0.248920*
%
%AMD46*
4,1,8,0.248920,0.500380,-0.248920,0.500380,-0.500380,0.248920,-0.500380,-0.248920,-0.248920,-0.500380,0.248920,-0.500380,0.500380,-0.248920,0.500380,0.248920,0.248920,0.500380,0.0*
1,1,0.500000,0.248920,0.248920*
1,1,0.500000,-0.248920,0.248920*
1,1,0.500000,-0.248920,-0.248920*
1,1,0.500000,0.248920,-0.248920*
%
%AMD48*
4,1,8,-0.157480,-0.175260,0.157480,-0.175260,0.243840,-0.086360,0.243840,0.086360,0.157480,0.175260,-0.157480,0.175260,-0.243840,0.086360,-0.243840,-0.086360,-0.157480,-0.175260,0.0*
1,1,0.175000,-0.157480,-0.086360*
1,1,0.175000,0.157480,-0.086360*
1,1,0.175000,0.157480,0.086360*
1,1,0.175000,-0.157480,0.086360*
%
%AMD49*
4,1,8,-0.175260,0.157480,-0.175260,-0.157480,-0.086360,-0.243840,0.086360,-0.243840,0.175260,-0.157480,0.175260,0.157480,0.086360,0.243840,-0.086360,0.243840,-0.175260,0.157480,0.0*
1,1,0.175000,-0.086360,0.157480*
1,1,0.175000,-0.086360,-0.157480*
1,1,0.175000,0.086360,-0.157480*
1,1,0.175000,0.086360,0.157480*
%
%AMD50*
4,1,8,-0.500380,0.231140,-0.500380,-0.231140,-0.269240,-0.459740,0.269240,-0.459740,0.500380,-0.231140,0.500380,0.231140,0.269240,0.459740,-0.269240,0.459740,-0.500380,0.231140,0.0*
1,1,0.460000,-0.269240,0.231140*
1,1,0.460000,-0.269240,-0.231140*
1,1,0.460000,0.269240,-0.231140*
1,1,0.460000,0.269240,0.231140*
%
%AMD51*
4,1,8,0.586740,0.294640,-0.586740,0.294640,-0.660400,0.220980,-0.660400,-0.220980,-0.586740,-0.294640,0.586740,-0.294640,0.660400,-0.220980,0.660400,0.220980,0.586740,0.294640,0.0*
1,1,0.147600,0.586740,0.220980*
1,1,0.147600,-0.586740,0.220980*
1,1,0.147600,-0.586740,-0.220980*
1,1,0.147600,0.586740,-0.220980*
%
%AMD52*
4,1,8,-0.175260,-0.299720,0.175260,-0.299720,0.325120,-0.149860,0.325120,0.149860,0.175260,0.299720,-0.175260,0.299720,-0.325120,0.149860,-0.325120,-0.149860,-0.175260,-0.299720,0.0*
1,1,0.300000,-0.175260,-0.149860*
1,1,0.300000,0.175260,-0.149860*
1,1,0.300000,0.175260,0.149860*
1,1,0.300000,-0.175260,0.149860*
%
%AMD53*
4,1,8,-1.000760,0.248920,-1.000760,-0.248920,-0.749300,-0.500380,0.749300,-0.500380,1.000760,-0.248920,1.000760,0.248920,0.749300,0.500380,-0.749300,0.500380,-1.000760,0.248920,0.0*
1,1,0.500000,-0.749300,0.248920*
1,1,0.500000,-0.749300,-0.248920*
1,1,0.500000,0.749300,-0.248920*
1,1,0.500000,0.749300,0.248920*
%
%AMD54*
4,1,8,0.248920,0.099060,-0.248920,0.099060,-0.299720,0.050800,-0.299720,-0.050800,-0.248920,-0.099060,0.248920,-0.099060,0.299720,-0.050800,0.299720,0.050800,0.248920,0.099060,0.0*
1,1,0.100000,0.248920,0.050800*
1,1,0.100000,-0.248920,0.050800*
1,1,0.100000,-0.248920,-0.050800*
1,1,0.100000,0.248920,-0.050800*
%
%AMD55*
4,1,8,0.200660,-0.424180,0.200660,0.424180,0.099060,0.525780,-0.099060,0.525780,-0.200660,0.424180,-0.200660,-0.424180,-0.099060,-0.525780,0.099060,-0.525780,0.200660,-0.424180,0.0*
1,1,0.200000,0.099060,-0.424180*
1,1,0.200000,0.099060,0.424180*
1,1,0.200000,-0.099060,0.424180*
1,1,0.200000,-0.099060,-0.424180*
%
%AMD56*
4,1,8,0.076200,0.226060,-0.076200,0.226060,-0.149860,0.149860,-0.149860,-0.149860,-0.076200,-0.226060,0.076200,-0.226060,0.149860,-0.149860,0.149860,0.149860,0.076200,0.226060,0.0*
1,1,0.150000,0.076200,0.149860*
1,1,0.150000,-0.076200,0.149860*
1,1,0.150000,-0.076200,-0.149860*
1,1,0.150000,0.076200,-0.149860*
%
%AMD57*
4,1,8,0.149860,0.149860,-0.149860,0.149860,-0.226060,0.076200,-0.226060,-0.076200,-0.149860,-0.149860,0.149860,-0.149860,0.226060,-0.076200,0.226060,0.076200,0.149860,0.149860,0.0*
1,1,0.150000,0.149860,0.076200*
1,1,0.150000,-0.149860,0.076200*
1,1,0.150000,-0.149860,-0.076200*
1,1,0.150000,0.149860,-0.076200*
%
%AMD58*
4,1,8,-0.175260,0.099060,-0.175260,-0.099060,-0.086360,-0.187960,0.086360,-0.187960,0.175260,-0.099060,0.175260,0.099060,0.086360,0.187960,-0.086360,0.187960,-0.175260,0.099060,0.0*
1,1,0.175000,-0.086360,0.099060*
1,1,0.175000,-0.086360,-0.099060*
1,1,0.175000,0.086360,-0.099060*
1,1,0.175000,0.086360,0.099060*
%
%AMD59*
4,1,8,-0.099060,-0.175260,0.099060,-0.175260,0.187960,-0.086360,0.187960,0.086360,0.099060,0.175260,-0.099060,0.175260,-0.187960,0.086360,-0.187960,-0.086360,-0.099060,-0.175260,0.0*
1,1,0.175000,-0.099060,-0.086360*
1,1,0.175000,0.099060,-0.086360*
1,1,0.175000,0.099060,0.086360*
1,1,0.175000,-0.099060,0.086360*
%
%AMD60*
4,1,8,0.457200,0.294640,-0.457200,0.294640,-0.604520,0.147320,-0.604520,-0.147320,-0.457200,-0.294640,0.457200,-0.294640,0.604520,-0.147320,0.604520,0.147320,0.457200,0.294640,0.0*
1,1,0.295000,0.457200,0.147320*
1,1,0.295000,-0.457200,0.147320*
1,1,0.295000,-0.457200,-0.147320*
1,1,0.295000,0.457200,-0.147320*
%
%AMD61*
4,1,8,-0.134620,0.525780,-0.134620,-0.525780,-0.101600,-0.558800,0.101600,-0.558800,0.134620,-0.525780,0.134620,0.525780,0.101600,0.558800,-0.101600,0.558800,-0.134620,0.525780,0.0*
1,1,0.067600,-0.101600,0.525780*
1,1,0.067600,-0.101600,-0.525780*
1,1,0.067600,0.101600,-0.525780*
1,1,0.067600,0.101600,0.525780*
%
%AMD62*
4,1,8,-0.101600,-0.779780,0.101600,-0.779780,0.205740,-0.678180,0.205740,0.678180,0.101600,0.779780,-0.101600,0.779780,-0.205740,0.678180,-0.205740,-0.678180,-0.101600,-0.779780,0.0*
1,1,0.205000,-0.101600,-0.678180*
1,1,0.205000,0.101600,-0.678180*
1,1,0.205000,0.101600,0.678180*
1,1,0.205000,-0.101600,0.678180*
%
%AMD63*
4,1,8,-0.175260,0.162560,-0.175260,-0.162560,-0.086360,-0.248920,0.086360,-0.248920,0.175260,-0.162560,0.175260,0.162560,0.086360,0.248920,-0.086360,0.248920,-0.175260,0.162560,0.0*
1,1,0.175000,-0.086360,0.162560*
1,1,0.175000,-0.086360,-0.162560*
1,1,0.175000,0.086360,-0.162560*
1,1,0.175000,0.086360,0.162560*
%
%AMD64*
4,1,8,0.139700,-0.701040,0.139700,0.701040,0.104140,0.734060,-0.104140,0.734060,-0.139700,0.701040,-0.139700,-0.701040,-0.104140,-0.734060,0.104140,-0.734060,0.139700,-0.701040,0.0*
1,1,0.070000,0.104140,-0.701040*
1,1,0.070000,0.104140,0.701040*
1,1,0.070000,-0.104140,0.701040*
1,1,0.070000,-0.104140,-0.701040*
%
%AMD65*
4,1,8,0.294640,-0.457200,0.294640,0.457200,0.147320,0.604520,-0.147320,0.604520,-0.294640,0.457200,-0.294640,-0.457200,-0.147320,-0.604520,0.147320,-0.604520,0.294640,-0.457200,0.0*
1,1,0.295000,0.147320,-0.457200*
1,1,0.295000,0.147320,0.457200*
1,1,0.295000,-0.147320,0.457200*
1,1,0.295000,-0.147320,-0.457200*
%
G04~CAMADD=45~8~0.0~0.0~393.7~393.7~98.4~0.0~15~0.0~0.0~0.0~0.0~0~0.0~0.0~0.0~0.0~0~0.0~0.0~0.0~90.0~394.0~394.0*
%ADD45D45*%
G04~CAMADD=46~8~0.0~0.0~393.7~393.7~98.4~0.0~15~0.0~0.0~0.0~0.0~0~0.0~0.0~0.0~0.0~0~0.0~0.0~0.0~0.0~393.7~393.7*
%ADD46D46*%
%ADD47C,0.220000*%
G04~CAMADD=48~8~0.0~0.0~192.9~137.8~34.4~0.0~15~0.0~0.0~0.0~0.0~0~0.0~0.0~0.0~0.0~0~0.0~0.0~0.0~180.0~193.0~137.0*
%ADD48D48*%
G04~CAMADD=49~8~0.0~0.0~192.9~137.8~34.4~0.0~15~0.0~0.0~0.0~0.0~0~0.0~0.0~0.0~0.0~0~0.0~0.0~0.0~90.0~138.0~192.0*
%ADD49D49*%
G04~CAMADD=50~8~0.0~0.0~362.2~393.7~90.6~0.0~15~0.0~0.0~0.0~0.0~0~0.0~0.0~0.0~0.0~0~0.0~0.0~0.0~90.0~394.0~362.0*
%ADD50D50*%
G04~CAMADD=51~8~0.0~0.0~519.7~232.3~29.1~0.0~15~0.0~0.0~0.0~0.0~0~0.0~0.0~0.0~0.0~0~0.0~0.0~0.0~0.0~519.7~232.3*
%ADD51D51*%
G04~CAMADD=52~8~0.0~0.0~255.9~236.2~59.1~0.0~15~0.0~0.0~0.0~0.0~0~0.0~0.0~0.0~0.0~0~0.0~0.0~0.0~180.0~256.0~236.0*
%ADD52D52*%
G04~CAMADD=53~8~0.0~0.0~393.7~787.4~98.4~0.0~15~0.0~0.0~0.0~0.0~0~0.0~0.0~0.0~0.0~0~0.0~0.0~0.0~90.0~788.0~394.0*
%ADD53D53*%
G04~CAMADD=54~8~0.0~0.0~236.2~78.7~19.7~0.0~15~0.0~0.0~0.0~0.0~0~0.0~0.0~0.0~0.0~0~0.0~0.0~0.0~0.0~236.2~78.7*
%ADD54D54*%
G04~CAMADD=55~8~0.0~0.0~413.4~157.5~39.4~0.0~15~0.0~0.0~0.0~0.0~0~0.0~0.0~0.0~0.0~0~0.0~0.0~0.0~270.0~158.0~414.0*
%ADD55D55*%
G04~CAMADD=56~8~0.0~0.0~118.1~177.2~29.5~0.0~15~0.0~0.0~0.0~0.0~0~0.0~0.0~0.0~0.0~0~0.0~0.0~0.0~0.0~118.1~177.2*
%ADD56D56*%
G04~CAMADD=57~8~0.0~0.0~177.2~118.1~29.5~0.0~15~0.0~0.0~0.0~0.0~0~0.0~0.0~0.0~0.0~0~0.0~0.0~0.0~0.0~177.2~118.1*
%ADD57D57*%
G04~CAMADD=58~8~0.0~0.0~147.6~137.8~34.4~0.0~15~0.0~0.0~0.0~0.0~0~0.0~0.0~0.0~0.0~0~0.0~0.0~0.0~90.0~138.0~148.0*
%ADD58D58*%
G04~CAMADD=59~8~0.0~0.0~147.6~137.8~34.4~0.0~15~0.0~0.0~0.0~0.0~0~0.0~0.0~0.0~0.0~0~0.0~0.0~0.0~180.0~148.0~138.0*
%ADD59D59*%
G04~CAMADD=60~8~0.0~0.0~476.4~232.3~58.1~0.0~15~0.0~0.0~0.0~0.0~0~0.0~0.0~0.0~0.0~0~0.0~0.0~0.0~0.0~476.4~232.3*
%ADD60D60*%
G04~CAMADD=61~8~0.0~0.0~440.9~106.3~13.3~0.0~15~0.0~0.0~0.0~0.0~0~0.0~0.0~0.0~0.0~0~0.0~0.0~0.0~90.0~106.0~440.0*
%ADD61D61*%
G04~CAMADD=62~8~0.0~0.0~161.4~614.2~40.4~0.0~15~0.0~0.0~0.0~0.0~0~0.0~0.0~0.0~0.0~0~0.0~0.0~0.0~180.0~162.0~614.0*
%ADD62D62*%
G04~CAMADD=63~8~0.0~0.0~196.9~137.8~34.4~0.0~15~0.0~0.0~0.0~0.0~0~0.0~0.0~0.0~0.0~0~0.0~0.0~0.0~90.0~138.0~196.0*
%ADD63D63*%
G04~CAMADD=64~8~0.0~0.0~578.7~110.2~13.8~0.0~15~0.0~0.0~0.0~0.0~0~0.0~0.0~0.0~0.0~0~0.0~0.0~0.0~270.0~110.0~578.0*
%ADD64D64*%
G04~CAMADD=65~8~0.0~0.0~476.4~232.3~58.1~0.0~15~0.0~0.0~0.0~0.0~0~0.0~0.0~0.0~0.0~0~0.0~0.0~0.0~270.0~232.0~476.0*
%ADD65D65*%
%LNdr_0n-1*%
%LPD*%
G54D45*
X00348999Y00261999D03*
Y00279999D03*
X00344249Y00168749D03*
Y00153249D03*
X00395999Y00146249D03*
Y00164249D03*
X00478316Y00114258D03*
Y00132258D03*
X00500849Y00201749D03*
Y00183749D03*
X00515249Y00201749D03*
Y00183749D03*
X00555499Y00090249D03*
Y00108249D03*
X00541805Y0013175D03*
Y0014975D03*
X00555499Y00149749D03*
Y00131749D03*
X00235233Y00302999D03*
Y00284999D03*
X00201499Y00210999D03*
Y00228999D03*
X00173499Y00210999D03*
Y00228999D03*
X00145999Y00210999D03*
Y00228999D03*
X00118499Y00210999D03*
Y00228999D03*
X00110249Y00378999D03*
Y00360999D03*
X00137749Y00378999D03*
Y00360999D03*
X00165249Y00378999D03*
Y00360999D03*
X00192749Y00378999D03*
Y00360999D03*
X00187499Y00210999D03*
Y00228999D03*
X00159749Y00210999D03*
Y00228999D03*
X00132249Y00210999D03*
Y00228999D03*
X00104499Y00211249D03*
Y00229249D03*
X00123999Y00378999D03*
Y00360999D03*
X00151499Y00378999D03*
Y00360999D03*
X00178999Y00378999D03*
Y00360999D03*
X00206499Y00378999D03*
Y00360999D03*
X00215249Y00228999D03*
Y00210999D03*
X00563999Y00527999D03*
Y00545999D03*
X00443999Y00462999D03*
Y00480999D03*
Y00494999D03*
Y00512999D03*
X00310112Y00425592D03*
Y00443592D03*
X00295703Y00443343D03*
Y00425343D03*
X00301999Y00136499D03*
Y00154499D03*
X00461749Y00163749D03*
Y00145749D03*
X00563249Y00371249D03*
Y00353249D03*
X00549249Y00371249D03*
Y00353249D03*
X00535249D03*
Y00371249D03*
X00545249Y00236749D03*
Y00254749D03*
X00559249Y00236749D03*
Y00254749D03*
X00521249Y00371249D03*
Y00353249D03*
X00344999Y00545999D03*
Y00527999D03*
X00369999Y00545999D03*
Y00527999D03*
X00394999Y00545999D03*
Y00527999D03*
X00538999D03*
Y00545999D03*
X00513999Y00527999D03*
Y00545999D03*
X00350749Y00414749D03*
Y00396749D03*
X00365183Y00414749D03*
Y00396749D03*
X00242999Y00228999D03*
Y00210999D03*
X00229249Y00228999D03*
Y00210999D03*
X00363482Y00279999D03*
Y00261999D03*
X00291249Y00487249D03*
Y00502749D03*
X00369015Y003336D03*
Y003181D03*
X00270249Y00168999D03*
Y00184499D03*
X00478332Y00147141D03*
Y00162641D03*
X00557047Y0018458D03*
Y0020008D03*
X00569999Y00131539D03*
Y00147039D03*
X00571047Y0018458D03*
Y0020008D03*
X00584999Y00131539D03*
Y00147039D03*
X00585047Y0018458D03*
Y0020008D03*
X00599999Y00131539D03*
Y00147039D03*
X0054324Y00184499D03*
Y00199999D03*
X00569999Y00108459D03*
Y00092959D03*
X00600047Y0018458D03*
Y0020008D03*
X00584999Y00108459D03*
Y00092959D03*
X00529249Y00184499D03*
Y00199999D03*
X00599999Y00108459D03*
Y00092959D03*
X00276749Y00502749D03*
Y00487249D03*
X00311999Y00290999D03*
Y00275499D03*
X00353499Y00458999D03*
Y00443499D03*
X00296233Y00457734D03*
Y00473234D03*
X00379249Y00184249D03*
Y00199749D03*
X00478332Y00183733D03*
Y00199233D03*
X00105749Y00150249D03*
Y00134749D03*
X0012019Y00150362D03*
Y00134862D03*
X00134249Y00150249D03*
Y00134749D03*
X00606249Y00237749D03*
Y0022225D03*
X00619749Y00237749D03*
Y0022225D03*
X00531249Y00254749D03*
Y00239249D03*
X00517249Y00254749D03*
Y00239249D03*
X00257499Y00212499D03*
Y00227999D03*
X00470499Y00330499D03*
Y00314999D03*
G54D46*
X00279499Y00273499D03*
X00294999D03*
X00333499Y00188999D03*
X00348999D03*
X00116499Y00084999D03*
X00131999D03*
X00572749Y00463999D03*
X00590749D03*
X00500849Y00433999D03*
X00518849D03*
X00523249Y00105749D03*
X00541249D03*
X00523249Y00090249D03*
X00541249D03*
X00277999Y00519999D03*
X00259999D03*
X00245999D03*
X00227999D03*
X00114249Y00464749D03*
X00132249D03*
X00114411Y0045038D03*
X00132411D03*
X00402999Y00237538D03*
X00420999D03*
X00402999Y00223196D03*
X00420999D03*
X00186749Y00543249D03*
X00204749D03*
X00572733Y00445568D03*
X00588233D03*
X00254Y00462749D03*
X00238499D03*
X00242749Y00112999D03*
X00258249D03*
X00225999Y00085249D03*
X00241499D03*
X00242749Y00130499D03*
X00258249D03*
X00242749Y00144749D03*
X00258249D03*
X00294499Y00258249D03*
X00278999D03*
X00226499Y00178499D03*
X00241999D03*
X00414249Y00428546D03*
X00429749D03*
X00414499Y00364749D03*
X00429999D03*
G54D47*
X00328999Y00285249D03*
X00324999D03*
Y00281249D03*
X00328999D03*
G54D48*
X00134349Y00120249D03*
Y00115249D03*
Y00110249D03*
Y00105249D03*
Y00100249D03*
X00109149D03*
Y00110249D03*
Y00105249D03*
Y00120249D03*
Y00115249D03*
G54D49*
X00121749Y00097649D03*
X00126749D03*
X00116749D03*
X00121749Y00122849D03*
X00116749D03*
X00126749D03*
G54D50*
X00217999Y00286999D03*
X00199999D03*
Y00300999D03*
X00217999D03*
G54D51*
X00520999Y00463999D03*
X00500699Y00473499D03*
Y00454499D03*
X00482149Y00503999D03*
X00461849Y00513499D03*
Y00494499D03*
G54D52*
X00184999Y00146551D03*
X00196499D03*
X00184999Y0017459D03*
X00196499D03*
X00184999Y00165499D03*
X00196499D03*
X00184999Y00155999D03*
X00196499D03*
X00237499Y00072499D03*
X00225999D03*
X00241749Y00156499D03*
X00253249D03*
X00193249Y00097749D03*
X00181749D03*
X00192999Y00129249D03*
X00181499D03*
X00192999Y00118499D03*
X00181499D03*
X00192999Y00108499D03*
X00181499D03*
G54D53*
X00548849Y00433999D03*
Y00448999D03*
Y00463999D03*
G54D54*
X00494749Y00146749D03*
Y00141749D03*
Y00136749D03*
Y00131749D03*
X00517749D03*
Y00136749D03*
Y00141749D03*
Y00146749D03*
G54D55*
X00502749Y00132499D03*
X00509749D03*
Y00145999D03*
X00502749D03*
G54D56*
X00211124Y00097749D03*
X00216124D03*
X00221124D03*
X00226124D03*
Y00123249D03*
X00221124D03*
X00216124D03*
X00211124D03*
G54D57*
X00231374Y00102999D03*
Y00107999D03*
Y00112999D03*
Y00117999D03*
X00205874D03*
Y00112999D03*
Y00107999D03*
Y00102999D03*
G54D58*
X00226374Y00151374D03*
X00211374Y00166624D03*
X00216374D03*
X00221374D03*
X00226374D03*
X00221374Y00151374D03*
X00216374D03*
X00211374D03*
G54D59*
X00226499Y00161499D03*
Y00156499D03*
X00211249D03*
Y00161499D03*
G54D60*
X00294999Y00286749D03*
Y00305749D03*
X00269899D03*
Y00296249D03*
Y00286749D03*
X00259999Y00486999D03*
Y00505999D03*
X00234899D03*
Y00496499D03*
Y00486999D03*
G54D61*
X00337749Y00414449D03*
X00332749D03*
X00327749D03*
X00322749D03*
Y00442549D03*
X00327749D03*
X00332749D03*
X00337749D03*
X00267999Y00442596D03*
X00272999D03*
X00277999D03*
X00282999D03*
Y00414496D03*
X00277999D03*
X00272999D03*
X00267999D03*
X00329749Y00136812D03*
X00324749D03*
X00319749D03*
X00314749D03*
Y00164912D03*
X00319749D03*
X00324749D03*
X00329749D03*
X00369249Y00162799D03*
X00374249D03*
X00379249D03*
X00384249D03*
Y00134699D03*
X00379249D03*
X00374249D03*
X00369249D03*
X00434999Y00162299D03*
X00439999D03*
X00444999D03*
X00449999D03*
Y00134199D03*
X00444999D03*
X00439999D03*
X00434999D03*
G54D62*
X00455499Y00263746D03*
X00448999D03*
X00442499D03*
X00435999D03*
Y00206146D03*
X00442499D03*
X00448999D03*
X00455499D03*
G54D63*
X00612999Y00264999D03*
Y00248999D03*
X00606499Y00264999D03*
Y00248999D03*
X00619499D03*
Y00264999D03*
X00599999D03*
Y00248999D03*
G54D64*
X00531249Y00282249D03*
X00536249D03*
X00541249D03*
X00546249D03*
X00551249D03*
Y00325249D03*
X00546249D03*
X00541249D03*
X00536249D03*
X00531249D03*
G54D65*
X00414249Y00381149D03*
X00433249D03*
Y00406249D03*
X00423749D03*
X00414249D03*
M02*