%FSTAX44Y44*%
%MOMM*%
%SFA1B1*%

%IPPOS*%
%AMD22*
4,1,8,-0.398780,0.200660,-0.398780,-0.200660,-0.200660,-0.398780,0.200660,-0.398780,0.398780,-0.200660,0.398780,0.200660,0.200660,0.398780,-0.200660,0.398780,-0.398780,0.200660,0.0*
1,1,0.400000,-0.200660,0.200660*
1,1,0.400000,-0.200660,-0.200660*
1,1,0.400000,0.200660,-0.200660*
1,1,0.400000,0.200660,0.200660*
%
%AMD23*
4,1,8,0.177800,-0.647700,0.177800,0.647700,0.088900,0.736600,-0.088900,0.736600,-0.177800,0.647700,-0.177800,-0.647700,-0.088900,-0.736600,0.088900,-0.736600,0.177800,-0.647700,0.0*
1,1,0.177800,0.088900,-0.647700*
1,1,0.177800,0.088900,0.647700*
1,1,0.177800,-0.088900,0.647700*
1,1,0.177800,-0.088900,-0.647700*
%
%ADD17R,1.699997X0.599999*%
%ADD18R,2.799994X0.999998*%
%ADD19R,0.999998X1.199998*%
%ADD20R,0.699999X1.199998*%
%ADD21R,0.449999X1.199998*%
G04~CAMADD=22~8~0.0~0.0~315.0~315.0~78.7~0.0~15~0.0~0.0~0.0~0.0~0~0.0~0.0~0.0~0.0~0~0.0~0.0~0.0~90.0~314.0~314.0*
%ADD22D22*%
G04~CAMADD=23~8~0.0~0.0~580.0~140.0~35.0~0.0~15~0.0~0.0~0.0~0.0~0~0.0~0.0~0.0~0.0~0~0.0~0.0~0.0~270.0~140.0~580.0*
%ADD23D23*%
%LNdr_0n-1*%
%LPD*%
G54D17*
X00134999Y00105999D03*
Y00118499D03*
Y00130999D03*
Y00143499D03*
Y00155999D03*
X00127499Y00376499D03*
Y00388999D03*
Y00401499D03*
Y00413999D03*
Y00426499D03*
X00343499Y00436499D03*
Y00448999D03*
X004445Y00436499D03*
Y00448999D03*
X00544999Y00308999D03*
Y00321499D03*
Y00333999D03*
Y00428999D03*
Y00441499D03*
Y00453999D03*
X00544499Y00168499D03*
Y00155999D03*
Y00143499D03*
Y00130999D03*
Y00118499D03*
Y00105999D03*
X00238499Y00448999D03*
Y00436499D03*
Y00423999D03*
Y00411499D03*
Y00398999D03*
Y00386499D03*
X00343499Y00301499D03*
Y00313999D03*
Y00326499D03*
Y00338999D03*
X00243999Y00168999D03*
Y00156499D03*
Y00143999D03*
Y00131499D03*
Y00118999D03*
Y00106499D03*
X004445Y00301249D03*
Y00313749D03*
Y00326249D03*
Y00338749D03*
X00348499Y00168999D03*
Y00156499D03*
Y00143999D03*
Y00131499D03*
Y00118999D03*
Y00106499D03*
X00448999Y00168499D03*
Y00155999D03*
Y00143499D03*
Y00130999D03*
Y00118499D03*
Y00105999D03*
G54D18*
X00168499Y00174499D03*
Y00087499D03*
X00160999Y00444999D03*
Y00357999D03*
X00376999Y00467499D03*
Y00417999D03*
X00477999Y00467499D03*
Y00417999D03*
X00578499Y00352499D03*
Y00290499D03*
Y00472499D03*
Y00410499D03*
X00577999Y00087499D03*
Y00186999D03*
X00271999Y00367999D03*
Y00467499D03*
X00376999Y00357499D03*
Y00282999D03*
X00277499Y00087999D03*
Y00187499D03*
X00477999Y00357249D03*
Y00282749D03*
X00381999Y00087999D03*
Y00187499D03*
X00482499Y00087499D03*
Y00186999D03*
G54D19*
X00277499Y00535999D03*
X00241499D03*
G54D20*
X00263999Y00535999D03*
G54D21*
X00253749Y00535999D03*
G54D22*
X00563999Y00528749D03*
Y00545249D03*
X00344999D03*
Y00528749D03*
X00369999Y00545249D03*
Y00528749D03*
X00394999Y00545249D03*
Y00528749D03*
X00538999D03*
Y00545249D03*
X00513999Y00528749D03*
Y00545249D03*
G54D23*
X00201327Y00325419D03*
X00194977D03*
X00188373D03*
X00182023D03*
X00175419D03*
X00168815D03*
X00162465D03*
X00155861D03*
X00149511D03*
X00142907D03*
X00136303D03*
X00129953D03*
X00123349D03*
X00116999D03*
Y00266999D03*
X00123349D03*
X00129953D03*
X00136303D03*
X00142907D03*
X00149511D03*
X00155861D03*
X00162465D03*
X00168815D03*
X00175419D03*
X00182023D03*
X00188373D03*
X00194977D03*
X00201327D03*
M02*