%FSTAX44Y44*%
%MOMM*%
%SFA1B1*%

%IPPOS*%
%ADD10C,0.200000*%
%ADD11C,0.299999*%
%ADD36C,0.399999*%
%ADD37C,1.599997*%
%ADD38C,1.549997*%
%ADD39C,6.199988*%
%ADD41C,1.523997*%
%ADD42C,0.449999*%
%ADD43C,0.999998*%
%ADD44C,0.499999*%
%LNdr_0n-1*%
%LPD*%
G36*
X00556092Y00492396D02*
X00557654Y00491749D01*
X00558249*
X00577999Y00471999*
Y00068999*
Y00008249*
X00572749Y00002999*
X00532999*
X00527999Y00007999*
Y00062999*
X00523504Y00067494*
X00524602Y00068592*
X00525249Y00070154*
Y00071844*
X00524602Y00073406*
X00523406Y00074602*
X00521844Y00075249*
X00520154*
X00518592Y00074602*
X00517396Y00073406*
X00516749Y00071844*
Y00070154*
X00517396Y00068592*
X00517989Y00067999*
X00499009*
X00499602Y00068592*
X00500249Y00070154*
Y00071844*
X00499602Y00073406*
X00498406Y00074602*
X00496844Y00075249*
X00495154*
X00493592Y00074602*
X00492396Y00073406*
X00491749Y00071844*
Y00070154*
X00492396Y00068592*
X00492989Y00067999*
X00486999*
X00482999Y00071999*
Y00142999*
Y00341749*
X00484344*
X00485906Y00342396*
X00487102Y00343592*
X00487749Y00345154*
Y00346844*
X00487102Y00348406*
X00485906Y00349602*
X00484344Y00350249*
X00482999*
Y00441749*
X00484344*
X00485906Y00442396*
X00487102Y00443592*
X00487749Y00445154*
Y00446844*
X00487102Y00448406*
X00485906Y00449602*
X00484344Y00450249*
X00482999*
Y00493249*
X00530239*
X00531092Y00492396*
X00532654Y00491749*
X00534344*
X00535906Y00492396*
X00536759Y00493249*
X00555239*
X00556092Y00492396*
G37*
G36*
X00579999Y00509749D02*
X00599749Y00489999D01*
X00646999*
Y00208999*
X00580038*
Y0039345*
X00581092Y00392396*
X00582654Y00391749*
X00584344*
X00585906Y00392396*
X00587102Y00393592*
X00587749Y00395154*
Y00396844*
X00587102Y00398406*
X00585906Y00399602*
X00584344Y00400249*
X00582654*
X00581092Y00399602*
X00580038Y00398549*
Y00471999*
X00579883Y00472779*
X00579441Y00473441*
X00560609Y00492273*
X00560906Y00492396*
X00562102Y00493592*
X00562749Y00495154*
Y00496844*
X00562102Y00498406*
X00560906Y00499602*
X00559344Y00500249*
X00557654*
X00556092Y00499602*
X00555077Y00498587*
Y00514581*
X00555621Y00515125*
X00556268Y00516687*
Y00518378*
X00555621Y0051994*
X00554425Y00521136*
X00552863Y00521783*
X00551173*
X00549611Y00521136*
X00548415Y0051994*
X00547768Y00518378*
Y00516687*
X00548415Y00515125*
X00548959Y00514581*
Y00495288*
X00537749*
Y00496844*
X00537102Y00498406*
X00535906Y00499602*
X00534344Y00500249*
X00532654*
X00531092Y00499602*
X00529896Y00498406*
X00529249Y00496844*
Y00495288*
X00482999*
X00482219Y00495133*
X00481557Y00494691*
X00481115Y0049403*
X0048096Y00493249*
Y00491337*
X00446808*
Y00520297*
X00447352Y00520842*
X00447999Y00522404*
Y00524094*
X00447352Y00525656*
X00446156Y00526852*
X00444594Y00527499*
X00442904*
X00441342Y00526852*
X00440146Y00525656*
X00439499Y00524094*
Y00522404*
X00440146Y00520842*
X0044069Y00520297*
Y00491337*
X00374057*
X00375406Y00491896*
X00376602Y00493092*
X00377249Y00494654*
Y00496344*
X00376602Y00497906*
X00375406Y00499102*
X00373844Y00499749*
X00372154*
X00370592Y00499102*
X00369396Y00497906*
X00368749Y00496344*
Y00494654*
X00369396Y00493092*
X00370592Y00491896*
X00371941Y00491337*
X00248249*
X00246493Y00490988*
X00245005Y00489993*
X0024401Y00488505*
X00243661Y00486749*
X0024401Y00484993*
X00245005Y00483505*
X00246493Y0048251*
X00248249Y00482161*
X00259411*
Y00460899*
X00250755Y00452243*
X0024976Y00450755*
X00249411Y00448999*
X0024976Y00447243*
X00250755Y00445755*
X00252243Y0044476*
X00254Y00444411*
X00255755Y0044476*
X00257243Y00445755*
X00267243Y00455755*
X00268238Y00457243*
X00268587Y00458999*
Y00482161*
X0048096*
Y00450249*
X00481089Y00449599*
X00479896Y00448406*
X00479249Y00446844*
Y00445154*
X00479896Y00443592*
X00481089Y00442399*
X0048096Y00441749*
Y00399827*
X00434509*
X00434094Y00399999*
X00432404*
X00431989Y00399827*
X00426188*
X00418328Y00407688*
Y00415739*
X00418499Y00416153*
Y00417844*
X00417852Y00419406*
X00416657Y00420601*
X00415095Y00421248*
X00413404*
X00411842Y00420601*
X00410646Y00419406*
X00409999Y00417844*
Y00416153*
X00410171Y00415739*
Y00405999*
X0041043Y00404697*
X00410481Y00404438*
X00411365Y00403115*
X00421615Y00392865*
X00422938Y00391981*
X00423197Y0039193*
X00424499Y00391671*
X00431989*
X00432404Y00391499*
X00434094*
X00434509Y00391671*
X0048096*
Y00350249*
X00481089Y00349599*
X00479896Y00348406*
X00479249Y00346844*
Y00345154*
X00479896Y00343592*
X00479901Y00343587*
X00462097*
X00462102Y00343592*
X00462749Y00345154*
Y00346844*
X00462102Y00348406*
X00460906Y00349602*
X00459344Y00350249*
X00457654*
X00456092Y00349602*
X00454896Y00348406*
X00454249Y00346844*
Y00345154*
X00454896Y00343592*
X00454901Y00343587*
X00437097*
X00437102Y00343592*
X00437749Y00345154*
Y00346844*
X00437102Y00348406*
X00435906Y00349602*
X00434344Y00350249*
X00432654*
X00431092Y00349602*
X00429896Y00348406*
X00429249Y00346844*
Y00345154*
X00429896Y00343592*
X00429901Y00343587*
X00412097*
X00412102Y00343592*
X0041275Y00345154*
Y00346844*
X00412102Y00348406*
X00410906Y00349602*
X00409344Y00350249*
X00407654*
X00406092Y00349602*
X00404896Y00348406*
X00404249Y00346844*
Y00345154*
X00404896Y00343592*
X00404901Y00343587*
X00387097*
X00387102Y00343592*
X00387749Y00345154*
Y00346844*
X00387102Y00348406*
X00385906Y00349602*
X00384344Y00350249*
X00382654*
X00381092Y00349602*
X00379896Y00348406*
X00379249Y00346844*
Y00345154*
X00379896Y00343592*
X00379901Y00343587*
X00362097*
X00362102Y00343592*
X00362749Y00345154*
Y00346844*
X00362102Y00348406*
X00360906Y00349602*
X00359344Y00350249*
X00357654*
X00356092Y00349602*
X00354896Y00348406*
X00354249Y00346844*
Y00345154*
X00354896Y00343592*
X00355385Y00343102*
X00354099Y00342243*
X00353104Y00340755*
X00352755Y00338999*
X00353104Y00337243*
X00354099Y00335755*
X00355587Y0033476*
X00357343Y00334411*
X0048096*
Y00173337*
X00452568*
Y00174557*
X00452602Y00174592*
X00453249Y00176154*
Y00177844*
X00452602Y00179406*
X00451406Y00180602*
X00449844Y00181249*
X00448154*
X00446592Y00180602*
X00445396Y00179406*
X00444749Y00177844*
Y00176154*
X00445396Y00174592*
X0044543Y00174557*
Y00173337*
X00372348*
X00373102Y00174092*
X00373749Y00175654*
Y00177344*
X00373102Y00178906*
X00371906Y00180102*
X00370344Y00180749*
X00368654*
X00367092Y00180102*
X00365896Y00178906*
X00365249Y00177344*
Y00175654*
X00365896Y00174092*
X0036665Y00173337*
X00257999*
X00256243Y00172988*
X00254755Y00171993*
X0025376Y00170505*
X00253411Y00168749*
X0025376Y00166993*
X00254755Y00165505*
X00256243Y0016451*
X00257999Y00164161*
X0048096*
Y00142999*
Y00071999*
X00480966Y00071966*
X00476999Y00067999*
X00449009*
X00449602Y00068592*
X00450249Y00070154*
Y00071844*
X00449602Y00073406*
X00448406Y00074602*
X00446844Y00075249*
X00445154*
X00443592Y00074602*
X00442396Y00073406*
X00441749Y00071844*
Y00070154*
X00442396Y00068592*
X00442989Y00067999*
X00403808*
Y00105072*
X00403575Y00106243*
X00402912Y00107235*
X00401999Y00108148*
Y00109594*
X00401352Y00111156*
X00400156Y00112352*
X00398594Y00112999*
X00396904*
X00395342Y00112352*
X00394146Y00111156*
X00393499Y00109594*
Y00107904*
X00394146Y00106342*
X00395342Y00105146*
X00396904Y00104499*
X00396997*
X0039769Y00103805*
Y00067999*
X00324009*
X00324602Y00068592*
X00325249Y00070154*
Y00071844*
X00324602Y00073406*
X00323406Y00074602*
X00321844Y00075249*
X00320154*
X00318592Y00074602*
X00317396Y00073406*
X00316749Y00071844*
Y00070154*
X00317396Y00068592*
X00317989Y00067999*
X00304738*
Y00104227*
X00305352Y00104842*
X00305999Y00106404*
Y00108094*
X00305352Y00109656*
X00304156Y00110852*
X00302594Y00111499*
X00300904*
X00299342Y00110852*
X00298146Y00109656*
X00297499Y00108094*
Y00106404*
X00298146Y00104842*
X0029862Y00104367*
Y00067999*
X00274009*
X00274602Y00068592*
X00275249Y00070154*
Y00071844*
X00274602Y00073406*
X00273406Y00074602*
X00271844Y00075249*
X00270154*
X00268592Y00074602*
X00267396Y00073406*
X00266749Y00071844*
Y00070154*
X00267396Y00068592*
X00267989Y00067999*
X00174009*
X00174602Y00068592*
X00175249Y00070154*
Y00071844*
X00174602Y00073406*
X00173406Y00074602*
X00171844Y00075249*
X00170154*
X00168592Y00074602*
X00167396Y00073406*
X00166749Y00071844*
Y00070154*
X00167396Y00068592*
X00167989Y00067999*
X00150058*
Y00083297*
X00150602Y00083842*
X00151249Y00085404*
Y00087094*
X00150602Y00088656*
X00149818Y0008944*
X00175673*
X00175674*
X00176844Y00089673*
X00177837Y00090336*
X00185162Y00097661*
X00185825Y00098654*
X00186058Y00099824*
Y00135047*
X00186602Y00135592*
X00187249Y00137154*
Y00138844*
X00186602Y00140406*
X00185406Y00141602*
X00183844Y00142249*
X00182154*
X00180592Y00141602*
X00180308Y00141318*
Y00153047*
X00180852Y00153592*
X00181499Y00155154*
Y00156845*
X00180852Y00158406*
X00179656Y00159602*
X00178094Y00160249*
X00176404*
X00174842Y00159602*
X00173646Y00158406*
X00172999Y00156845*
Y00155154*
X00173646Y00153592*
X0017419Y00153047*
Y00134516*
X00162673Y00122999*
X00161904*
X00160342Y00122352*
X00159146Y00121156*
X00158499Y00119594*
Y00117904*
X00159146Y00116342*
X00160342Y00115146*
X00161904Y00114499*
X00163594*
X00165156Y00115146*
X00166352Y00116342*
X00166999Y00117904*
Y00118673*
X00179412Y00131086*
X00179809Y00131681*
X0017994Y00131877*
Y00101092*
X00177659Y00098811*
X00177102Y00100156*
X00175906Y00101352*
X00174344Y00101999*
X00172654*
X00171092Y00101352*
X00170547Y00100808*
X00141134*
X00145766Y0010544*
X00170797*
X00171342Y00104896*
X00172904Y00104249*
X00174594*
X00176156Y00104896*
X00177352Y00106092*
X00177999Y00107654*
Y00109344*
X00177352Y00110906*
X00176156Y00112102*
X00174594Y00112749*
X00172904*
X00171342Y00112102*
X00170797Y00111558*
X00146227*
X00165662Y00130993*
X00166059Y00131588*
X00166325Y00131985*
X00166558Y00133156*
Y00161557*
X00167904Y00160999*
X00169594*
X00171156Y00161646*
X00172352Y00162842*
X00172999Y00164404*
Y00166094*
X00172352Y00167656*
X00171156Y00168852*
X00169594Y00169499*
X00167904*
X00166558Y00168942*
Y00239232*
X00171227Y00243901*
X00171624Y00244496*
X0017189Y00244893*
X00172123Y00246064*
Y00251573*
X00172667Y00252117*
X00173314Y00253679*
Y0025537*
X00172667Y00256932*
X00171471Y00258127*
X00169909Y00258774*
X00168219*
X00166657Y00258127*
X00165762Y00257233*
X00164973Y00258022*
X0016341Y00258669*
X00161719*
X00160157Y00258022*
X00159312Y00257176*
X00158468Y0025802*
X00156906Y00258667*
X00155215*
X00153653Y0025802*
X00152837Y00257203*
X00151968Y00258072*
X00150406Y00258719*
X00148715*
X00147153Y00258072*
X00146421Y0025734*
X00145472Y00258289*
X0014391Y00258936*
X00142219*
X00140657Y00258289*
X00139806Y00257437*
X00138972Y00258271*
X0013741Y00258918*
X00135719*
X00134157Y00258271*
X00133184Y00257298*
X0013241Y00258072*
X00130848Y00258719*
X00129157*
X00127595Y00258072*
X00126634Y0025711*
X00125722Y00258022*
X0012416Y00258669*
X00122469*
X00120907Y00258022*
X00119971Y00257086*
X00119225Y00257832*
X00117663Y00258479*
X00115972*
X0011441Y00257832*
X00113215Y00256636*
X00112568Y00255074*
Y00253384*
X00113215Y00251822*
X0011441Y00250626*
X00115972Y00249979*
X00117663*
X00119225Y00250626*
X00120161Y00251562*
X00120907Y00250816*
X00122469Y00250169*
X0012416*
X00125722Y00250816*
X00126684Y00251778*
X00127595Y00250866*
X00129157Y00250219*
X00130848*
X0013241Y00250866*
X00133383Y00251839*
X00134157Y00251065*
X00135719Y00250418*
X0013741*
X00138972Y00251065*
X00139823Y00251917*
X00140657Y00251083*
X00142219Y00250436*
X0014391*
X00145472Y00251083*
X00146204Y00251815*
X00147153Y00250866*
X00148715Y00250219*
X00150406*
X00151968Y00250866*
X00152785Y00251683*
X00153653Y00250814*
X00155215Y00250167*
X00156906*
X00158468Y00250814*
X00159314Y0025166*
X00160157Y00250816*
X00161719Y00250169*
X0016341*
X00164973Y00250816*
X00165867Y00251711*
X00166005Y00251573*
Y00247331*
X00161336Y00242662*
X00160673Y0024167*
X0016044Y00240499*
Y00134423*
X00106936Y00080919*
X00106273Y00079926*
X0010604Y00078756*
Y00067999*
X00101999*
Y00447499*
X00109749Y00455249*
X00200999*
X00208499Y00462749*
Y00491749*
X00209344*
X00210906Y00492396*
X00212102Y00493592*
X00212749Y00495154*
Y00496844*
X00212102Y00498406*
X00210906Y00499602*
X00209344Y00500249*
X00208499*
Y00548749*
X00216749Y00556999*
X00579999*
Y00509749*
G37*
%LNdr_0n-2*%
%LPC*%
G36*
X00531594Y00453499D02*
X00529904D01*
X00528342Y00452852*
X00527146Y00451656*
X00526499Y00450094*
Y00448404*
X00527146Y00446842*
X00528342Y00445646*
X00529904Y00444999*
X00531594*
X00533156Y00445646*
X00534352Y00446842*
X00534999Y00448404*
Y00450094*
X00534352Y00451656*
X00533156Y00452852*
X00531594Y00453499*
G37*
G36*
X00546844Y00425249D02*
X00545154D01*
X00543592Y00424602*
X00542396Y00423406*
X00541749Y00421844*
Y00420154*
X00542396Y00418592*
X00543592Y00417396*
X00545154Y00416749*
X00546844*
X00548406Y00417396*
X00549602Y00418592*
X00550249Y00420154*
Y00421844*
X00549602Y00423406*
X00548406Y00424602*
X00546844Y00425249*
G37*
G36*
X00559344Y00400249D02*
X00557654D01*
X00556092Y00399602*
X00554896Y00398406*
X00554249Y00396844*
Y00395154*
X00554896Y00393592*
X00556092Y00392396*
X00557654Y00391749*
X00559344*
X00560906Y00392396*
X00562102Y00393592*
X00562749Y00395154*
Y00396844*
X00562102Y00398406*
X00560906Y00399602*
X00559344Y00400249*
G37*
G36*
X00550094Y00387749D02*
X00548404D01*
X00546842Y00387102*
X00545646Y00385906*
X00544999Y00384344*
Y00382654*
X00545646Y00381092*
X00546842Y00379896*
X00548404Y00379249*
X00550094*
X00551656Y00379896*
X00552852Y00381092*
X00553499Y00382654*
Y00384344*
X00552852Y00385906*
X00551656Y00387102*
X00550094Y00387749*
G37*
G36*
X00564344Y00387499D02*
X00562654D01*
X00561092Y00386852*
X00559896Y00385656*
X00559249Y00384094*
Y00382404*
X00559896Y00380842*
X00561092Y00379646*
X00562654Y00378999*
X00564344*
X00565906Y00379646*
X00567102Y00380842*
X00567749Y00382404*
Y00384094*
X00567102Y00385656*
X00565906Y00386852*
X00564344Y00387499*
G37*
G36*
X00536094Y00386499D02*
X00534404D01*
X00532842Y00385852*
X00531646Y00384656*
X00530999Y00383094*
Y00381404*
X00531646Y00379842*
X00532842Y00378646*
X00534404Y00377999*
X00536094*
X00537656Y00378646*
X00538852Y00379842*
X00539499Y00381404*
Y00383094*
X00538852Y00384656*
X00537656Y00385852*
X00536094Y00386499*
G37*
G36*
X00560072Y00344726D02*
X00558381D01*
X00556819Y00344079*
X00555623Y00342883*
X00554976Y00341322*
Y00339631*
X00555623Y00338069*
X00556819Y00336873*
X00558381Y00336226*
X00560072*
X00561633Y00336873*
X00562829Y00338069*
X00563476Y00339631*
Y00341322*
X00562829Y00342883*
X00561633Y00344079*
X00560072Y00344726*
G37*
G36*
X00571844Y00325249D02*
X00570154D01*
X00568592Y00324602*
X00567396Y00323406*
X00566749Y00321844*
Y00320154*
X00567396Y00318592*
X00568592Y00317396*
X00570154Y00316749*
X00571844*
X00573406Y00317396*
X00574602Y00318592*
X00575249Y00320154*
Y00321844*
X00574602Y00323406*
X00573406Y00324602*
X00571844Y00325249*
G37*
G36*
X00537254Y00300309D02*
X00535563D01*
X00534001Y00299662*
X00532805Y00298467*
X00532158Y00296904*
Y00295214*
X00532805Y00293652*
X00534001Y00292456*
X00535563Y00291809*
X00537254*
X00538816Y00292456*
X00540011Y00293652*
X00540658Y00295214*
Y00296904*
X00540011Y00298467*
X00538816Y00299662*
X00537254Y00300309*
G37*
G36*
X00559344Y00300249D02*
X00557654D01*
X00556092Y00299602*
X00554896Y00298406*
X00554249Y00296844*
Y00295154*
X00554896Y00293592*
X00556092Y00292396*
X00557654Y00291749*
X00559344*
X00560906Y00292396*
X00562102Y00293592*
X00562749Y00295154*
Y00296844*
X00562102Y00298406*
X00560906Y00299602*
X00559344Y00300249*
G37*
G36*
X00498594Y00286999D02*
X00496904D01*
X00495342Y00286352*
X00494146Y00285156*
X00493499Y00283594*
Y00281904*
X00494146Y00280342*
X00495342Y00279146*
X00496904Y00278499*
X00498594*
X00500156Y00279146*
X00501352Y00280342*
X00501999Y00281904*
Y00283594*
X00501352Y00285156*
X00500156Y00286352*
X00498594Y00286999*
G37*
G36*
X00532094Y00269999D02*
X00530404D01*
X00528842Y00269352*
X00527646Y00268156*
X00526999Y00266594*
Y00264904*
X00527646Y00263342*
X00528842Y00262146*
X00530404Y00261499*
X00532094*
X00533656Y00262146*
X00534852Y00263342*
X00535499Y00264904*
Y00266594*
X00534852Y00268156*
X00533656Y00269352*
X00532094Y00269999*
G37*
G36*
X00560094Y00268999D02*
X00558404D01*
X00556842Y00268352*
X00555646Y00267156*
X00554999Y00265594*
Y00263904*
X00555646Y00262342*
X00556842Y00261146*
X00558404Y00260499*
X00560094*
X00561656Y00261146*
X00562852Y00262342*
X00563499Y00263904*
Y00265594*
X00562852Y00267156*
X00561656Y00268352*
X00560094Y00268999*
G37*
G36*
X00546094Y00268749D02*
X00544404D01*
X00542842Y00268102*
X00541646Y00266906*
X00540999Y00265344*
Y00263654*
X00541646Y00262092*
X00542842Y00260896*
X00544404Y00260249*
X00546094*
X00547656Y00260896*
X00548852Y00262092*
X00549499Y00263654*
Y00265344*
X00548852Y00266906*
X00547656Y00268102*
X00546094Y00268749*
G37*
G36*
X00571844Y00225249D02*
X00570154D01*
X00568592Y00224602*
X00567396Y00223406*
X00566749Y00221844*
Y00220154*
X00567396Y00218592*
X00568592Y00217396*
X00570154Y00216749*
X00571844*
X00573406Y00217396*
X00574602Y00218592*
X00575249Y00220154*
Y00221844*
X00574602Y00223406*
X00573406Y00224602*
X00571844Y00225249*
G37*
G36*
X00546844D02*
X00545154D01*
X00543592Y00224602*
X00542396Y00223406*
X00541749Y00221844*
Y00220154*
X00542396Y00218592*
X00543592Y00217396*
X00545154Y00216749*
X00546844*
X00548406Y00217396*
X00549602Y00218592*
X00550249Y00220154*
Y00221844*
X00549602Y00223406*
X00548406Y00224602*
X00546844Y00225249*
G37*
G36*
X00521844D02*
X00520154D01*
X00518592Y00224602*
X00517396Y00223406*
X00516749Y00221844*
Y00220154*
X00517396Y00218592*
X00518592Y00217396*
X00520154Y00216749*
X00521844*
X00523406Y00217396*
X00524602Y00218592*
X00525249Y00220154*
Y00221844*
X00524602Y00223406*
X00523406Y00224602*
X00521844Y00225249*
G37*
G36*
X00496844D02*
X00495154D01*
X00493592Y00224602*
X00492396Y00223406*
X00491749Y00221844*
Y00220154*
X00492396Y00218592*
X00493592Y00217396*
X00495154Y00216749*
X00496844*
X00498406Y00217396*
X00499602Y00218592*
X00500249Y00220154*
Y00221844*
X00499602Y00223406*
X00498406Y00224602*
X00496844Y00225249*
G37*
G36*
X00501844Y00177749D02*
X00500154D01*
X00498592Y00177102*
X00497396Y00175906*
X00496749Y00174344*
Y00172654*
X00497396Y00171092*
X00498592Y00169896*
X00500154Y00169249*
X00501844*
X00503406Y00169896*
X00504602Y00171092*
X00505249Y00172654*
Y00174344*
X00504602Y00175906*
X00503406Y00177102*
X00501844Y00177749*
G37*
G36*
X00570844Y00165249D02*
X00569154D01*
X00567592Y00164602*
X00566396Y00163406*
X00565749Y00161844*
Y00160154*
X00566396Y00158592*
X00567592Y00157396*
X00569154Y00156749*
X00570844*
X00572406Y00157396*
X00573602Y00158592*
X00574249Y00160154*
Y00161844*
X00573602Y00163406*
X00572406Y00164602*
X00570844Y00165249*
G37*
G36*
X00523735Y00172281D02*
X00522045D01*
X00520483Y00171634*
X00519287Y00170438*
X0051864Y00168877*
Y00167186*
X00519287Y00165624*
X0051988Y00165031*
X00519287Y00164439*
X0051864Y00162877*
Y00161186*
X00519287Y00159624*
X0051963Y00159281*
X00519287Y00158939*
X0051864Y00157377*
Y00155686*
X00519287Y00154124*
X00520483Y00152928*
X00522045Y00152281*
X00523735*
X00524617Y00152646*
X00524381Y00152411*
X00523734Y00150849*
Y00149158*
X00524381Y00147596*
X00525577Y001464*
X00525942Y00146249*
X00525444*
X00523882Y00145602*
X00522687Y00144406*
X0052204Y00142844*
Y00141154*
X00522687Y00139592*
X00523882Y00138396*
X00525444Y00137749*
X00527135*
X00528697Y00138396*
X00529893Y00139592*
X0053054Y00141154*
Y00142844*
X00529893Y00144406*
X00528697Y00145602*
X00528332Y00145753*
X0052883*
X00530392Y001464*
X00531587Y00147596*
X00532234Y00149158*
Y00150849*
X00531587Y00152411*
X00530629Y00153369*
X00531352Y00154092*
X00531999Y00155654*
Y00157344*
X00531352Y00158906*
X00531009Y00159249*
X00531352Y00159592*
X00531999Y00161154*
Y00162844*
X00531352Y00164406*
X00530759Y00164999*
X00531352Y00165592*
X00531999Y00167154*
Y00168844*
X00531352Y00170406*
X00530156Y00171602*
X00528594Y00172249*
X00526904*
X00525342Y00171602*
X00525335Y00171596*
X00525297Y00171634*
X00523735Y00172281*
G37*
G36*
X00531844Y00135999D02*
X00530154D01*
X00528592Y00135352*
X00527396Y00134156*
X0052682Y00132765*
X00526031Y00133092*
X0052434*
X00522778Y00132445*
X00521582Y00131249*
X00520935Y00129688*
Y00127997*
X00521582Y00126435*
X00522778Y00125239*
X0052434Y00124592*
X00526031*
X00527593Y00125239*
X00528788Y00126435*
X00529364Y00127826*
X00530154Y00127499*
X00531844*
X00533406Y00128146*
X00534602Y00129342*
X00535249Y00130904*
Y00132594*
X00534602Y00134156*
X00533406Y00135352*
X00531844Y00135999*
G37*
G36*
X00495344Y00130749D02*
X00493654D01*
X00492092Y00130102*
X00490896Y00128906*
X00490249Y00127344*
Y00125654*
X00490896Y00124092*
X00492092Y00122896*
X00493654Y00122249*
X00495344*
X00496906Y00122896*
X00498102Y00124092*
X00498749Y00125654*
Y00127344*
X00498102Y00128906*
X00496906Y00130102*
X00495344Y00130749*
G37*
G36*
X00513594Y00109999D02*
X00511904D01*
X00510342Y00109352*
X00509146Y00108156*
X00508499Y00106594*
Y00104904*
X00509146Y00103342*
X00510342Y00102146*
X00511904Y00101499*
X00513594*
X00515156Y00102146*
X00516352Y00103342*
X00516999Y00104904*
Y00106594*
X00516352Y00108156*
X00515156Y00109352*
X00513594Y00109999*
G37*
G36*
X00533344Y00102249D02*
X00531654D01*
X00530092Y00101602*
X00528896Y00100406*
X00528249Y00098844*
Y00097155*
X00528896Y00095592*
X00530092Y00094396*
X00531654Y00093749*
X00533344*
X00534906Y00094396*
X00536102Y00095592*
X00536749Y00097155*
Y00098844*
X00536102Y00100406*
X00534906Y00101602*
X00533344Y00102249*
G37*
G36*
X00509344Y00100249D02*
X00507654D01*
X00506092Y00099602*
X00504896Y00098406*
X00504249Y00096844*
Y00095154*
X00504896Y00093592*
X00506092Y00092396*
X00507654Y00091749*
X00509344*
X00510906Y00092396*
X00512102Y00093592*
X00512749Y00095154*
Y00096844*
X00512102Y00098406*
X00510906Y00099602*
X00509344Y00100249*
G37*
G36*
X00567565Y00057319D02*
X00565032D01*
X00562586Y00056663*
X00560392Y00055397*
X00558601Y00053606*
X00557335Y00051412*
X00556679Y00048965*
Y00046433*
X00557335Y00043986*
X00558601Y00041792*
X00560392Y00040001*
X00562586Y00038735*
X00565032Y00038079*
X00567565*
X00570012Y00038735*
X00572206Y00040001*
X00573997Y00041792*
X00575263Y00043986*
X00575919Y00046433*
Y00048965*
X00575263Y00051412*
X00573997Y00053606*
X00572206Y00055397*
X00570012Y00056663*
X00567565Y00057319*
G37*
G36*
X00542165D02*
X00539632D01*
X00537186Y00056663*
X00534992Y00055397*
X00533201Y00053606*
X00531935Y00051412*
X00531279Y00048965*
Y00046433*
X00531935Y00043986*
X00533201Y00041792*
X00534992Y00040001*
X00537186Y00038735*
X00539632Y00038079*
X00542165*
X00544612Y00038735*
X00546806Y00040001*
X00548597Y00041792*
X00549863Y00043986*
X00550519Y00046433*
Y00048965*
X00549863Y00051412*
X00548597Y00053606*
X00546806Y00055397*
X00544612Y00056663*
X00542165Y00057319*
G37*
G36*
X00542237Y00032459D02*
X00542169D01*
Y00023569*
X00551059*
Y00023637*
X00550367Y00026221*
X00549029Y00028537*
X00547137Y00030429*
X00544821Y00031767*
X00542237Y00032459*
G37*
G36*
X00567637D02*
X00567569D01*
Y00023569*
X00576459*
Y00023637*
X00575767Y00026221*
X00574429Y00028537*
X00572537Y00030429*
X00570221Y00031767*
X00567637Y00032459*
G37*
G36*
X00539629D02*
X00539561D01*
X00536977Y00031767*
X00534661Y00030429*
X00532769Y00028537*
X00531431Y00026221*
X00530739Y00023637*
Y00023569*
X00539629*
Y00032459*
G37*
G36*
X00565029D02*
X00564961D01*
X00562377Y00031767*
X00560061Y00030429*
X00558169Y00028537*
X00556831Y00026221*
X00556139Y00023637*
Y00023569*
X00565029*
Y00032459*
G37*
G36*
X00576459Y00021029D02*
X00567569D01*
Y00012139*
X00567637*
X00570221Y00012831*
X00572537Y00014169*
X00574429Y00016061*
X00575767Y00018377*
X00576459Y00020961*
Y00021029*
G37*
G36*
X00565029D02*
X00556139D01*
Y00020961*
X00556831Y00018377*
X00558169Y00016061*
X00560061Y00014169*
X00562377Y00012831*
X00564961Y00012139*
X00565029*
Y00021029*
G37*
G36*
X00551059D02*
X00542169D01*
Y00012139*
X00542237*
X00544821Y00012831*
X00547137Y00014169*
X00549029Y00016061*
X00550367Y00018377*
X00551059Y00020961*
Y00021029*
G37*
G36*
X00539629D02*
X00530739D01*
Y00020961*
X00531431Y00018377*
X00532769Y00016061*
X00534661Y00014169*
X00536977Y00012831*
X00539561Y00012139*
X00539629*
Y00021029*
G37*
G36*
X00259094Y00556749D02*
X00257404D01*
X00255842Y00556102*
X00254646Y00554906*
X00254Y00553344*
Y00551654*
X00254646Y00550092*
X00255842Y00548896*
X00257404Y00548249*
X00259094*
X00260656Y00548896*
X00261852Y00550092*
X00262499Y00551654*
Y00553344*
X00261852Y00554906*
X00260656Y00556102*
X00259094Y00556749*
G37*
G36*
X00278344Y00551999D02*
X00276654D01*
X00275092Y00551352*
X00273896Y00550156*
X00273249Y00548594*
Y00546904*
X00273896Y00545342*
X00275092Y00544146*
X00276654Y00543499*
X00278344*
X00279906Y00544146*
X00281102Y00545342*
X00281749Y00546904*
Y00548594*
X00281102Y00550156*
X00279906Y00551352*
X00278344Y00551999*
G37*
G36*
X00409344Y00550249D02*
X00407654D01*
X00406092Y00549602*
X00404896Y00548406*
X00404249Y00546844*
Y00545154*
X00404896Y00543592*
X00406092Y00542396*
X00407654Y00541749*
X00409344*
X00410906Y00542396*
X00412102Y00543592*
X0041275Y00545154*
Y00546844*
X00412102Y00548406*
X00410906Y00549602*
X00409344Y00550249*
G37*
G36*
X00309344D02*
X00307654D01*
X00306092Y00549602*
X00304896Y00548406*
X00304249Y00546844*
Y00545154*
X00304896Y00543592*
X00306092Y00542396*
X00307654Y00541749*
X00309344*
X00310906Y00542396*
X00312102Y00543592*
X00312749Y00545154*
Y00546844*
X00312102Y00548406*
X00310906Y00549602*
X00309344Y00550249*
G37*
G36*
X00384344Y00549499D02*
X00382654D01*
X00381092Y00548852*
X00379896Y00547656*
X00379249Y00546094*
Y00544404*
X00379896Y00542842*
X00381092Y00541646*
X00382654Y00540999*
X00384344*
X00385906Y00541646*
X00387102Y00542842*
X00387749Y00544404*
Y00546094*
X00387102Y00547656*
X00385906Y00548852*
X00384344Y00549499*
G37*
G36*
X00359344D02*
X00357654D01*
X00356092Y00548852*
X00354896Y00547656*
X00354249Y00546094*
Y00544404*
X00354896Y00542842*
X00356092Y00541646*
X00357654Y00540999*
X00359344*
X00360906Y00541646*
X00362102Y00542842*
X00362749Y00544404*
Y00546094*
X00362102Y00547656*
X00360906Y00548852*
X00359344Y00549499*
G37*
G36*
X00334344D02*
X00332654D01*
X00331092Y00548852*
X00329896Y00547656*
X00329249Y00546094*
Y00544404*
X00329896Y00542842*
X00331092Y00541646*
X00332654Y00540999*
X00334344*
X00335906Y00541646*
X00337102Y00542842*
X00337749Y00544404*
Y00546094*
X00337102Y00547656*
X00335906Y00548852*
X00334344Y00549499*
G37*
G36*
X00483316Y00551999D02*
X00480683D01*
X00478139Y00551318*
X00475859Y00550001*
X00473997Y00548139*
X00472681Y00545859*
X00471999Y00543316*
Y00540683*
X00472681Y00538139*
X00473997Y00535859*
X00475859Y00533997*
X00478139Y00532681*
X00480683Y00531999*
X00483316*
X00485859Y00532681*
X00488139Y00533997*
X00490001Y00535859*
X00491318Y00538139*
X00491999Y00540683*
Y00543316*
X00491318Y00545859*
X00490001Y00548139*
X00488139Y00550001*
X00485859Y00551318*
X00483316Y00551999*
G37*
G36*
X00457916D02*
X00455283D01*
X00452739Y00551318*
X00450459Y00550001*
X00448597Y00548139*
X0044728Y00545859*
X00446599Y00543316*
Y00540683*
X0044728Y00538139*
X00448597Y00535859*
X00450459Y00533997*
X00452739Y00532681*
X00455283Y00531999*
X00457916*
X00460459Y00532681*
X00462739Y00533997*
X00464601Y00535859*
X00465918Y00538139*
X00466599Y00540683*
Y00543316*
X00465918Y00545859*
X00464601Y00548139*
X00462739Y00550001*
X00460459Y00551318*
X00457916Y00551999*
G37*
G36*
X00432516D02*
X00429882D01*
X00427339Y00551318*
X00425059Y00550001*
X00423197Y00548139*
X0042188Y00545859*
X00421199Y00543316*
Y00540683*
X0042188Y00538139*
X00423197Y00535859*
X00425059Y00533997*
X00427339Y00532681*
X00429882Y00531999*
X00432516*
X00435059Y00532681*
X00437339Y00533997*
X00439201Y00535859*
X00440517Y00538139*
X00441199Y00540683*
Y00543316*
X00440517Y00545859*
X00439201Y00548139*
X00437339Y00550001*
X00435059Y00551318*
X00432516Y00551999*
G37*
G36*
X00328844Y00532499D02*
X00327154D01*
X00325592Y00531852*
X00324396Y00530656*
X00323749Y00529094*
Y00527404*
X00324396Y00525842*
X00325592Y00524646*
X00327154Y00523999*
X00328844*
X00330406Y00524646*
X00331602Y00525842*
X00332249Y00527404*
Y00529094*
X00331602Y00530656*
X00330406Y00531852*
X00328844Y00532499*
G37*
G36*
X00525844Y00532249D02*
X00524154D01*
X00522592Y00531602*
X00521396Y00530406*
X00520749Y00528844*
Y00527154*
X00521396Y00525591*
X00522592Y00524396*
X00524154Y00523749*
X00525844*
X00527406Y00524396*
X00528602Y00525591*
X00529249Y00527154*
Y00528844*
X00528602Y00530406*
X00527406Y00531602*
X00525844Y00532249*
G37*
G36*
X00496844Y00525249D02*
X00495154D01*
X00493592Y00524602*
X00492396Y00523406*
X00491749Y00521844*
Y00520154*
X00492396Y00518592*
X00493592Y00517396*
X00495154Y00516749*
X00496844*
X00498406Y00517396*
X00499602Y00518592*
X00500249Y00520154*
Y00521844*
X00499602Y00523406*
X00498406Y00524602*
X00496844Y00525249*
G37*
G36*
X00471844D02*
X00470154D01*
X00468592Y00524602*
X00467396Y00523406*
X00466749Y00521844*
Y00520154*
X00467396Y00518592*
X00468592Y00517396*
X00470154Y00516749*
X00471844*
X00473406Y00517396*
X00474602Y00518592*
X00475249Y00520154*
Y00521844*
X00474602Y00523406*
X00473406Y00524602*
X00471844Y00525249*
G37*
G36*
X00421844D02*
X00420154D01*
X00418592Y00524602*
X00417396Y00523406*
X00416749Y00521844*
Y00520154*
X00417396Y00518592*
X00418592Y00517396*
X00420154Y00516749*
X00421844*
X00423406Y00517396*
X00424602Y00518592*
X00425249Y00520154*
Y00521844*
X00424602Y00523406*
X00423406Y00524602*
X00421844Y00525249*
G37*
G36*
X00321844D02*
X00320154D01*
X00318592Y00524602*
X00317396Y00523406*
X00316749Y00521844*
Y00520154*
X00317396Y00518592*
X00318592Y00517396*
X00320154Y00516749*
X00321844*
X00323406Y00517396*
X00324602Y00518592*
X00325249Y00520154*
Y00521844*
X00324602Y00523406*
X00323406Y00524602*
X00321844Y00525249*
G37*
G36*
X00296844D02*
X00295154D01*
X00293592Y00524602*
X00292396Y00523406*
X00291749Y00521844*
Y00520154*
X00292396Y00518592*
X00293592Y00517396*
X00295154Y00516749*
X00296844*
X00298406Y00517396*
X00299602Y00518592*
X00300249Y00520154*
Y00521844*
X00299602Y00523406*
X00298406Y00524602*
X00296844Y00525249*
G37*
G36*
X00564844Y00522249D02*
X00563154D01*
X00561592Y00521602*
X00560396Y00520406*
X00559749Y00518844*
Y00517154*
X00560396Y00515592*
X00561592Y00514396*
X00563154Y00513749*
X00564844*
X00566406Y00514396*
X00567602Y00515592*
X00568249Y00517154*
Y00518844*
X00567602Y00520406*
X00566406Y00521602*
X00564844Y00522249*
G37*
G36*
X00539844Y00521999D02*
X00538153D01*
X00536591Y00521352*
X00535396Y00520157*
X00534749Y00518594*
Y00516904*
X00535396Y00515342*
X00536591Y00514146*
X00538153Y00513499*
X00539844*
X00541406Y00514146*
X00542602Y00515342*
X00543249Y00516904*
Y00518594*
X00542602Y00520157*
X00541406Y00521352*
X00539844Y00521999*
G37*
G36*
X00482844Y00519249D02*
X00481154D01*
X00479592Y00518602*
X00478396Y00517406*
X00477749Y00515844*
Y00514154*
X00478396Y00512592*
X00479592Y00511396*
X00481154Y00510749*
X00482844*
X00484406Y00511396*
X00485602Y00512592*
X00486249Y00514154*
Y00515844*
X00485602Y00517406*
X00484406Y00518602*
X00482844Y00519249*
G37*
G36*
X00404094Y00511999D02*
X00402404D01*
X00400842Y00511352*
X00399646Y00510156*
X00398999Y00508594*
Y00506904*
X00399646Y00505342*
X00400842Y00504146*
X00402404Y00503499*
X00404094*
X00405656Y00504146*
X00406852Y00505342*
X00407499Y00506904*
Y00508594*
X00406852Y00510156*
X00405656Y00511352*
X00404094Y00511999*
G37*
G36*
X00249094Y00500499D02*
X00247404D01*
X00245842Y00499852*
X00244646Y00498656*
X00243999Y00497094*
Y00495404*
X00244646Y00493842*
X00245842Y00492646*
X00247404Y00491999*
X00249094*
X00250656Y00492646*
X00251852Y00493842*
X00252499Y00495404*
Y00497094*
X00251852Y00498656*
X00250656Y00499852*
X00249094Y00500499*
G37*
G36*
X00334344Y00500249D02*
X00332654D01*
X00331092Y00499602*
X00329896Y00498406*
X00329249Y00496844*
Y00495154*
X00329896Y00493592*
X00331092Y00492396*
X00332654Y00491749*
X00334344*
X00335906Y00492396*
X00337102Y00493592*
X00337749Y00495154*
Y00496844*
X00337102Y00498406*
X00335906Y00499602*
X00334344Y00500249*
G37*
G36*
X00307594Y00506749D02*
X00305904D01*
X00304342Y00506102*
X00303146Y00504906*
X00302499Y00503344*
Y00501654*
X00303146Y00500092*
X00304342Y00498896*
X0030508Y0049859*
X00304896Y00498406*
X00304249Y00496844*
Y00495154*
X00304896Y00493592*
X00306092Y00492396*
X00307654Y00491749*
X00309344*
X00310906Y00492396*
X00312102Y00493592*
X00312749Y00495154*
Y00496844*
X00312102Y00498406*
X00310906Y00499602*
X00310168Y00499908*
X00310352Y00500092*
X00310999Y00501654*
Y00503344*
X00310352Y00504906*
X00309156Y00506102*
X00307594Y00506749*
G37*
G36*
X00309344Y00477249D02*
X00307654D01*
X00306092Y00476602*
X00304896Y00475406*
X00304249Y00473844*
Y00472154*
X00304896Y00470592*
X00306092Y00469396*
X00307654Y00468749*
X00309344*
X00310906Y00469396*
X00312102Y00470592*
X00312749Y00472154*
Y00473844*
X00312102Y00475406*
X00310906Y00476602*
X00309344Y00477249*
G37*
G36*
X00421844Y00475249D02*
X00420154D01*
X00418592Y00474602*
X00417396Y00473406*
X00416749Y00471844*
Y00470154*
X00417396Y00468592*
X00418592Y00467396*
X00420154Y00466749*
X00421844*
X00423406Y00467396*
X00424602Y00468592*
X00425249Y00470154*
Y00471844*
X00424602Y00473406*
X00423406Y00474602*
X00421844Y00475249*
G37*
G36*
X00396844D02*
X00395154D01*
X00393592Y00474602*
X00392396Y00473406*
X00391749Y00471844*
Y00470154*
X00392396Y00468592*
X00393592Y00467396*
X00395154Y00466749*
X00396844*
X00398406Y00467396*
X00399602Y00468592*
X00400249Y00470154*
Y00471844*
X00399602Y00473406*
X00398406Y00474602*
X00396844Y00475249*
G37*
G36*
X00346844D02*
X00345154D01*
X00343592Y00474602*
X00342396Y00473406*
X00341749Y00471844*
Y00470154*
X00342396Y00468592*
X00343592Y00467396*
X00345154Y00466749*
X00346844*
X00348406Y00467396*
X00349602Y00468592*
X00350249Y00470154*
Y00471844*
X00349602Y00473406*
X00348406Y00474602*
X00346844Y00475249*
G37*
G36*
X00321844D02*
X00320154D01*
X00318592Y00474602*
X00317396Y00473406*
X00316749Y00471844*
Y00470154*
X00317396Y00468592*
X00318592Y00467396*
X00320154Y00466749*
X00321844*
X00323406Y00467396*
X00324602Y00468592*
X00325249Y00470154*
Y00471844*
X00324602Y00473406*
X00323406Y00474602*
X00321844Y00475249*
G37*
G36*
X00221844D02*
X00220154D01*
X00218592Y00474602*
X00217396Y00473406*
X00216749Y00471844*
Y00470154*
X00217396Y00468592*
X00218592Y00467396*
X00220154Y00466749*
X00221844*
X00223406Y00467396*
X00224602Y00468592*
X00225249Y00470154*
Y00471844*
X00224602Y00473406*
X00223406Y00474602*
X00221844Y00475249*
G37*
G36*
X00633315Y00476399D02*
X00630682D01*
X00628139Y00475717*
X00625859Y00474401*
X00623997Y00472539*
X00622681Y00470259*
X00621999Y00467715*
Y00465082*
X00622681Y00462539*
X00623997Y00460259*
X00625859Y00458397*
X00628139Y0045708*
X00630682Y00456399*
X00633315*
X00635859Y0045708*
X00638139Y00458397*
X00640001Y00460259*
X00641317Y00462539*
X00641999Y00465082*
Y00467715*
X00641317Y00470259*
X00640001Y00472539*
X00638139Y00474401*
X00635859Y00475717*
X00633315Y00476399*
G37*
G36*
X00323594Y00457749D02*
X00321904D01*
X00320342Y00457102*
X00319146Y00455906*
X00318499Y00454344*
Y00452654*
X00319146Y00451092*
X00320342Y00449896*
X00321904Y00449249*
X00323594*
X00325156Y00449896*
X00326352Y00451092*
X00326999Y00452654*
Y00454344*
X00326352Y00455906*
X00325156Y00457102*
X00323594Y00457749*
G37*
G36*
X00459344Y00453249D02*
X00457654D01*
X00456092Y00452602*
X00454896Y00451406*
X00454249Y00449844*
Y00448154*
X00454896Y00446592*
X00456092Y00445396*
X00457654Y00444749*
X00459344*
X00460906Y00445396*
X00462102Y00446592*
X00462749Y00448154*
Y00449844*
X00462102Y00451406*
X00460906Y00452602*
X00459344Y00453249*
G37*
G36*
X00209344Y00450249D02*
X00207654D01*
X00206092Y00449602*
X00204896Y00448406*
X00204249Y00446844*
Y00445154*
X00204896Y00443592*
X00206092Y00442396*
X00207654Y00441749*
X00209344*
X00210906Y00442396*
X00212102Y00443592*
X00212749Y00445154*
Y00446844*
X00212102Y00448406*
X00210906Y00449602*
X00209344Y00450249*
G37*
G36*
X00184344D02*
X00182654D01*
X00181092Y00449602*
X00179896Y00448406*
X00179249Y00446844*
Y00445154*
X00179896Y00443592*
X00181092Y00442396*
X00182654Y00441749*
X00184344*
X00185906Y00442396*
X00187102Y00443592*
X00187749Y00445154*
Y00446844*
X00187102Y00448406*
X00185906Y00449602*
X00184344Y00450249*
G37*
G36*
X00254844Y00440749D02*
X00253154D01*
X00251592Y00440102*
X00250396Y00438906*
X00249749Y00437344*
Y00435654*
X00250396Y00434092*
X00251592Y00432896*
X00253154Y00432249*
X00254844*
X00256406Y00432896*
X00257602Y00434092*
X00258249Y00435654*
Y00437344*
X00257602Y00438906*
X00256406Y00440102*
X00254844Y00440749*
G37*
G36*
X00633315Y00450999D02*
X00630682D01*
X00628139Y00450317*
X00625859Y00449001*
X00623997Y00447139*
X00622681Y00444859*
X00621999Y00442315*
Y00439682*
X00622681Y00437139*
X00623997Y00434859*
X00625859Y00432997*
X00628139Y0043168*
X00630682Y00430999*
X00633315*
X00635859Y0043168*
X00638139Y00432997*
X00640001Y00434859*
X00641317Y00437139*
X00641999Y00439682*
Y00442315*
X00641317Y00444859*
X00640001Y00447139*
X00638139Y00449001*
X00635859Y00450317*
X00633315Y00450999*
G37*
G36*
X00283845Y00435249D02*
X00282154D01*
X00280592Y00434602*
X00279396Y00433406*
X00278749Y00431844*
Y00430154*
X00279396Y00428592*
X00280592Y00427396*
X00282154Y00426749*
X00283845*
X00285406Y00427396*
X00286602Y00428592*
X00287249Y00430154*
Y00431844*
X00286602Y00433406*
X00285406Y00434602*
X00283845Y00435249*
G37*
G36*
X00365594Y00434249D02*
X00363904D01*
X00362342Y00433602*
X00361146Y00432406*
X00360499Y00430844*
Y00429154*
X00361146Y00427592*
X00362342Y00426396*
X00363904Y00425749*
X00365594*
X00367157Y00426396*
X00368352Y00427592*
X00368999Y00429154*
Y00430844*
X00368352Y00432406*
X00367157Y00433602*
X00365594Y00434249*
G37*
G36*
X00254344Y00427999D02*
X00252654D01*
X00251092Y00427352*
X00249896Y00426156*
X00249249Y00424594*
Y00422904*
X00249896Y00421342*
X00251092Y00420146*
X00252654Y00419499*
X00254344*
X00255906Y00420146*
X00257102Y00421342*
X00257749Y00422904*
Y00424594*
X00257102Y00426156*
X00255906Y00427352*
X00254344Y00427999*
G37*
G36*
X00446844Y00425249D02*
X00445154D01*
X00443592Y00424602*
X00442396Y00423406*
X00441749Y00421844*
Y00420154*
X00442396Y00418592*
X00443592Y00417396*
X00445154Y00416749*
X00446844*
X00448406Y00417396*
X00449602Y00418592*
X00450249Y00420154*
Y00421844*
X00449602Y00423406*
X00448406Y00424602*
X00446844Y00425249*
G37*
G36*
X00221844D02*
X00220154D01*
X00218592Y00424602*
X00217396Y00423406*
X00216749Y00421844*
Y00420154*
X00217396Y00418592*
X00218592Y00417396*
X00220154Y00416749*
X00221844*
X00223406Y00417396*
X00224602Y00418592*
X00225249Y00420154*
Y00421844*
X00224602Y00423406*
X00223406Y00424602*
X00221844Y00425249*
G37*
G36*
X00196844D02*
X00195154D01*
X00193592Y00424602*
X00192396Y00423406*
X00191749Y00421844*
Y00420154*
X00192396Y00418592*
X00193592Y00417396*
X00195154Y00416749*
X00196844*
X00198406Y00417396*
X00199602Y00418592*
X00200249Y00420154*
Y00421844*
X00199602Y00423406*
X00198406Y00424602*
X00196844Y00425249*
G37*
G36*
X00171844D02*
X00170154D01*
X00168592Y00424602*
X00167396Y00423406*
X00166749Y00421844*
Y00420154*
X00167396Y00418592*
X00168592Y00417396*
X00170154Y00416749*
X00171844*
X00173406Y00417396*
X00174602Y00418592*
X00175249Y00420154*
Y00421844*
X00174602Y00423406*
X00173406Y00424602*
X00171844Y00425249*
G37*
G36*
X00146844D02*
X00145154D01*
X00143592Y00424602*
X00142396Y00423406*
X00141749Y00421844*
Y00420154*
X00142396Y00418592*
X00143592Y00417396*
X00145154Y00416749*
X00146844*
X00148406Y00417396*
X00149602Y00418592*
X00150249Y00420154*
Y00421844*
X00149602Y00423406*
X00148406Y00424602*
X00146844Y00425249*
G37*
G36*
X00424594Y00422749D02*
X00422904D01*
X00421342Y00422102*
X00420146Y00420906*
X00419499Y00419344*
Y00417654*
X00420146Y00416092*
X00421342Y00414896*
X00422904Y00414249*
X00424594*
X00426156Y00414896*
X00427352Y00416092*
X00427999Y00417654*
Y00419344*
X00427352Y00420906*
X00426156Y00422102*
X00424594Y00422749*
G37*
G36*
X00289844Y00418499D02*
X00288154D01*
X00286592Y00417852*
X00285396Y00416656*
X00284749Y00415094*
Y00413404*
X00285396Y00411842*
X00286592Y00410646*
X00288154Y00409999*
X00289844*
X00291406Y00410646*
X00292602Y00411842*
X00293249Y00413404*
Y00415094*
X00292602Y00416656*
X00291406Y00417852*
X00289844Y00418499*
G37*
G36*
X00253345Y00415749D02*
X00251654D01*
X00250092Y00415102*
X00248896Y00413906*
X00248249Y00412344*
Y00410653*
X00248896Y00409091*
X00250092Y00407896*
X00251654Y00407249*
X00253345*
X00254907Y00407896*
X00256102Y00409091*
X00256749Y00410653*
Y00412344*
X00256102Y00413906*
X00254907Y00415102*
X00253345Y00415749*
G37*
G36*
X00633315Y00425599D02*
X00630682D01*
X00628139Y00424917*
X00625859Y00423601*
X00623997Y00421739*
X00622681Y00419459*
X00621999Y00416915*
Y00414282*
X00622681Y00411739*
X00623997Y00409459*
X00625859Y00407597*
X00628139Y0040628*
X00630682Y00405599*
X00633315*
X00635859Y0040628*
X00638139Y00407597*
X00640001Y00409459*
X00641317Y00411739*
X00641999Y00414282*
Y00416915*
X00641317Y00419459*
X00640001Y00421739*
X00638139Y00423601*
X00635859Y00424917*
X00633315Y00425599*
G37*
G36*
X00323594Y00408999D02*
X00321904D01*
X00320342Y00408352*
X00319146Y00407156*
X00318499Y00405594*
Y00403904*
X00319146Y00402342*
X00320342Y00401146*
X00321904Y00400499*
X00323594*
X00325156Y00401146*
X00326352Y00402342*
X00326999Y00403904*
Y00405594*
X00326352Y00407156*
X00325156Y00408352*
X00323594Y00408999*
G37*
G36*
X00634344Y00400249D02*
X00632654D01*
X00631092Y00399602*
X00629896Y00398406*
X00629249Y00396844*
Y00395154*
X00629896Y00393592*
X00631092Y00392396*
X00632654Y00391749*
X00634344*
X00635906Y00392396*
X00637102Y00393592*
X00637749Y00395154*
Y00396844*
X00637102Y00398406*
X00635906Y00399602*
X00634344Y00400249*
G37*
G36*
X00609344D02*
X00607654D01*
X00606092Y00399602*
X00604896Y00398406*
X00604249Y00396844*
Y00395154*
X00604896Y00393592*
X00606092Y00392396*
X00607654Y00391749*
X00609344*
X00610906Y00392396*
X00612102Y00393592*
X00612749Y00395154*
Y00396844*
X00612102Y00398406*
X00610906Y00399602*
X00609344Y00400249*
G37*
G36*
X00409344D02*
X00407654D01*
X00406092Y00399602*
X00404896Y00398406*
X00404249Y00396844*
Y00395154*
X00404896Y00393592*
X00406092Y00392396*
X00407654Y00391749*
X00409344*
X00410906Y00392396*
X00412102Y00393592*
X0041275Y00395154*
Y00396844*
X00412102Y00398406*
X00410906Y00399602*
X00409344Y00400249*
G37*
G36*
X00384344D02*
X00382654D01*
X00381092Y00399602*
X00379896Y00398406*
X00379249Y00396844*
Y00395154*
X00379896Y00393592*
X00381092Y00392396*
X00382654Y00391749*
X00384344*
X00385906Y00392396*
X00387102Y00393592*
X00387749Y00395154*
Y00396844*
X00387102Y00398406*
X00385906Y00399602*
X00384344Y00400249*
G37*
G36*
X00253345Y00403249D02*
X00251654D01*
X00250092Y00402602*
X00248896Y00401406*
X00248249Y00399844*
Y00398153*
X00248896Y00396591*
X00250092Y00395396*
X00251654Y00394749*
X00252423*
X00255939Y00391233*
X00256534Y00390836*
X00256931Y0039057*
X00258102Y00390337*
X0033464*
X00335184Y00389793*
X00336746Y00389146*
X00338437*
X00339999Y00389793*
X00341195Y00390989*
X00341842Y00392551*
Y00394241*
X00341195Y00395803*
X00339999Y00396999*
X00338437Y00397646*
X00336746*
X00335184Y00396999*
X0033464Y00396455*
X00259369*
X00256749Y00399075*
Y00399844*
X00256102Y00401406*
X00254907Y00402602*
X00253345Y00403249*
G37*
G36*
X00621844Y00375249D02*
X00620154D01*
X00618592Y00374602*
X00617396Y00373406*
X00616749Y00371844*
Y00370154*
X00617396Y00368592*
X00618592Y00367396*
X00620154Y00366749*
X00621844*
X00623406Y00367396*
X00624602Y00368592*
X00625249Y00370154*
Y00371844*
X00624602Y00373406*
X00623406Y00374602*
X00621844Y00375249*
G37*
G36*
X00596844D02*
X00595154D01*
X00593592Y00374602*
X00592396Y00373406*
X00591749Y00371844*
Y00370154*
X00592396Y00368592*
X00593592Y00367396*
X00595154Y00366749*
X00596844*
X00598406Y00367396*
X00599602Y00368592*
X00600249Y00370154*
Y00371844*
X00599602Y00373406*
X00598406Y00374602*
X00596844Y00375249*
G37*
G36*
X00471844D02*
X00470154D01*
X00468592Y00374602*
X00467396Y00373406*
X00466749Y00371844*
Y00370154*
X00467396Y00368592*
X00468592Y00367396*
X00470154Y00366749*
X00471844*
X00473406Y00367396*
X00474602Y00368592*
X00475249Y00370154*
Y00371844*
X00474602Y00373406*
X00473406Y00374602*
X00471844Y00375249*
G37*
G36*
X00446844D02*
X00445154D01*
X00443592Y00374602*
X00442396Y00373406*
X00441749Y00371844*
Y00370154*
X00442396Y00368592*
X00443592Y00367396*
X00445154Y00366749*
X00446844*
X00448406Y00367396*
X00449602Y00368592*
X00450249Y00370154*
Y00371844*
X00449602Y00373406*
X00448406Y00374602*
X00446844Y00375249*
G37*
G36*
X00371844D02*
X00370154D01*
X00368592Y00374602*
X00367396Y00373406*
X00366749Y00371844*
Y00370154*
X00367396Y00368592*
X00368592Y00367396*
X00370154Y00366749*
X00371844*
X00373406Y00367396*
X00374602Y00368592*
X00375249Y00370154*
Y00371844*
X00374602Y00373406*
X00373406Y00374602*
X00371844Y00375249*
G37*
G36*
X00346844D02*
X00345154D01*
X00343592Y00374602*
X00342396Y00373406*
X00341749Y00371844*
Y00370154*
X00342396Y00368592*
X00343592Y00367396*
X00345154Y00366749*
X00346844*
X00348406Y00367396*
X00349602Y00368592*
X00350249Y00370154*
Y00371844*
X00349602Y00373406*
X00348406Y00374602*
X00346844Y00375249*
G37*
G36*
X00321844D02*
X00320154D01*
X00318592Y00374602*
X00317396Y00373406*
X00316749Y00371844*
Y00370154*
X00317396Y00368592*
X00318592Y00367396*
X00320154Y00366749*
X00321844*
X00323406Y00367396*
X00324602Y00368592*
X00325249Y00370154*
Y00371844*
X00324602Y00373406*
X00323406Y00374602*
X00321844Y00375249*
G37*
G36*
X00246844D02*
X00245154D01*
X00243592Y00374602*
X00242396Y00373406*
X00241749Y00371844*
Y00370154*
X00242396Y00368592*
X00243592Y00367396*
X00245154Y00366749*
X00246844*
X00248406Y00367396*
X00249602Y00368592*
X00250249Y00370154*
Y00371844*
X00249602Y00373406*
X00248406Y00374602*
X00246844Y00375249*
G37*
G36*
X00221844D02*
X00220154D01*
X00218592Y00374602*
X00217396Y00373406*
X00216749Y00371844*
Y00370154*
X00217396Y00368592*
X00218592Y00367396*
X00220154Y00366749*
X00221844*
X00223406Y00367396*
X00224602Y00368592*
X00225249Y00370154*
Y00371844*
X00224602Y00373406*
X00223406Y00374602*
X00221844Y00375249*
G37*
G36*
X00634344Y00350249D02*
X00632654D01*
X00631092Y00349602*
X00629896Y00348406*
X00629249Y00346844*
Y00345154*
X00629896Y00343592*
X00631092Y00342396*
X00632654Y00341749*
X00634344*
X00635906Y00342396*
X00637102Y00343592*
X00637749Y00345154*
Y00346844*
X00637102Y00348406*
X00635906Y00349602*
X00634344Y00350249*
G37*
G36*
X00609344D02*
X00607654D01*
X00606092Y00349602*
X00604896Y00348406*
X00604249Y00346844*
Y00345154*
X00604896Y00343592*
X00606092Y00342396*
X00607654Y00341749*
X00609344*
X00610906Y00342396*
X00612102Y00343592*
X00612749Y00345154*
Y00346844*
X00612102Y00348406*
X00610906Y00349602*
X00609344Y00350249*
G37*
G36*
X00284344D02*
X00282654D01*
X00281092Y00349602*
X00279896Y00348406*
X00279249Y00346844*
Y00345154*
X00279896Y00343592*
X00281092Y00342396*
X00282654Y00341749*
X00284344*
X00285906Y00342396*
X00287102Y00343592*
X00287749Y00345154*
Y00346844*
X00287102Y00348406*
X00285906Y00349602*
X00284344Y00350249*
G37*
G36*
X00259344D02*
X00257654D01*
X00256092Y00349602*
X00254896Y00348406*
X00254249Y00346844*
Y00345154*
X00254896Y00343592*
X00256092Y00342396*
X00257654Y00341749*
X00259344*
X00260906Y00342396*
X00262102Y00343592*
X00262749Y00345154*
Y00346844*
X00262102Y00348406*
X00260906Y00349602*
X00259344Y00350249*
G37*
G36*
X00234344D02*
X00232654D01*
X00231092Y00349602*
X00229896Y00348406*
X00229249Y00346844*
Y00345154*
X00229896Y00343592*
X00231092Y00342396*
X00232654Y00341749*
X00234344*
X00235906Y00342396*
X00237102Y00343592*
X00237749Y00345154*
Y00346844*
X00237102Y00348406*
X00235906Y00349602*
X00234344Y00350249*
G37*
G36*
X00130598Y00342251D02*
X00128908D01*
X00127346Y00341604*
X001265Y00340758*
X00125656Y00341602*
X00124094Y00342249*
X00122404*
X00120842Y00341602*
X00119646Y00340406*
X00118999Y00338844*
Y00337154*
X00119646Y00335592*
X00120842Y00334396*
X00122404Y00333749*
X00124094*
X00125656Y00334396*
X00126502Y00335242*
X00127346Y00334398*
X00128908Y00333751*
X00130598*
X00132161Y00334398*
X00132977Y00335214*
X00133846Y00334346*
X00135408Y00333699*
X00137098*
X0013866Y00334346*
X00139393Y00335078*
X00140342Y00334129*
X00141904Y00333482*
X00143595*
X00145157Y00334129*
X00146008Y00334981*
X00146842Y00334147*
X00148404Y003335*
X00150095*
X00151657Y00334147*
X0015263Y0033512*
X00153404Y00334346*
X00154966Y00333699*
X00156656*
X00158218Y00334346*
X0015918Y00335308*
X00160092Y00334396*
X00161654Y00333749*
X00163344*
X00164906Y00334396*
X00165749Y00335239*
X00166592Y00334396*
X00168154Y00333749*
X00169844*
X00171406Y00334396*
X00172602Y00335592*
X00173249Y00337154*
Y00338844*
X00172602Y00340406*
X00171406Y00341602*
X00169844Y00342249*
X00168154*
X00166592Y00341602*
X00165749Y00340759*
X00164906Y00341602*
X00163344Y00342249*
X00161654*
X00160092Y00341602*
X00159131Y0034064*
X00158218Y00341552*
X00156656Y00342199*
X00154966*
X00153404Y00341552*
X0015243Y00340579*
X00151657Y00341353*
X00150095Y00342*
X00148404*
X00146842Y00341353*
X00145991Y00340501*
X00145157Y00341335*
X00143595Y00341982*
X00141904*
X00140342Y00341335*
X0013961Y00340603*
X0013866Y00341552*
X00137098Y00342199*
X00135408*
X00133846Y00341552*
X00133029Y00340736*
X00132161Y00341604*
X00130598Y00342251*
G37*
G36*
X00329344Y00330749D02*
X00327654D01*
X00326092Y00330102*
X00324896Y00328906*
X00324249Y00327344*
Y00325654*
X00324896Y00324092*
X00326092Y00322896*
X00327654Y00322249*
X00329344*
X00330906Y00322896*
X00331326Y00323315*
X00392358*
X00391749Y00321844*
Y00320154*
X00392396Y00318592*
X00393592Y00317396*
X0039471Y00316933*
X00361076*
X00360407Y00317602*
X00358845Y00318249*
X00357154*
X00355592Y00317602*
X00354396Y00316406*
X00353749Y00314844*
Y00313154*
X00354396Y00311591*
X00355592Y00310396*
X00357154Y00309749*
X00358845*
X00360407Y00310396*
X00360826Y00310815*
X00455923*
X00456592Y00310146*
X00458154Y00309499*
X00459844*
X00461406Y00310146*
X00462602Y00311342*
X00463249Y00312904*
Y00314594*
X00462602Y00316156*
X00461406Y00317352*
X00459844Y00317999*
X00458154*
X00456592Y00317352*
X00456172Y00316933*
X00397288*
X00398406Y00317396*
X00399602Y00318592*
X00400249Y00320154*
Y00321844*
X0039964Y00323315*
X00455922*
X00456592Y00322646*
X00458154Y00321999*
X00459844*
X00461406Y00322646*
X00462602Y00323842*
X00463249Y00325404*
Y00327094*
X00462602Y00328656*
X00461406Y00329852*
X00459844Y00330499*
X00458154*
X00456592Y00329852*
X00456172Y00329433*
X00331576*
X00330906Y00330102*
X00329344Y00330749*
G37*
G36*
X00621844Y00325249D02*
X00620154D01*
X00618592Y00324602*
X00617396Y00323406*
X00616749Y00321844*
Y00320154*
X00617396Y00318592*
X00618592Y00317396*
X00620154Y00316749*
X00621844*
X00623406Y00317396*
X00624602Y00318592*
X00625249Y00320154*
Y00321844*
X00624602Y00323406*
X00623406Y00324602*
X00621844Y00325249*
G37*
G36*
X00596844D02*
X00595154D01*
X00593592Y00324602*
X00592396Y00323406*
X00591749Y00321844*
Y00320154*
X00592396Y00318592*
X00593592Y00317396*
X00595154Y00316749*
X00596844*
X00598406Y00317396*
X00599602Y00318592*
X00600249Y00320154*
Y00321844*
X00599602Y00323406*
X00598406Y00324602*
X00596844Y00325249*
G37*
G36*
X00321844D02*
X00320154D01*
X00318592Y00324602*
X00317396Y00323406*
X00316749Y00321844*
Y00320154*
X00317396Y00318592*
X00318592Y00317396*
X00320154Y00316749*
X00321844*
X00323406Y00317396*
X00324602Y00318592*
X00325249Y00320154*
Y00321844*
X00324602Y00323406*
X00323406Y00324602*
X00321844Y00325249*
G37*
G36*
X00271844D02*
X00270154D01*
X00268592Y00324602*
X00267396Y00323406*
X00266749Y00321844*
Y00320154*
X00267396Y00318592*
X00268592Y00317396*
X00270154Y00316749*
X00271844*
X00273406Y00317396*
X00274602Y00318592*
X00275249Y00320154*
Y00321844*
X00274602Y00323406*
X00273406Y00324602*
X00271844Y00325249*
G37*
G36*
X00246844D02*
X00245154D01*
X00243592Y00324602*
X00242396Y00323406*
X00241749Y00321844*
Y00320154*
X00242396Y00318592*
X00243592Y00317396*
X00245154Y00316749*
X00246844*
X00248406Y00317396*
X00249602Y00318592*
X00250249Y00320154*
Y00321844*
X00249602Y00323406*
X00248406Y00324602*
X00246844Y00325249*
G37*
G36*
X00221844D02*
X00220154D01*
X00218592Y00324602*
X00217396Y00323406*
X00216749Y00321844*
Y00320154*
X00217396Y00318592*
X00218592Y00317396*
X00220154Y00316749*
X00221844*
X00223406Y00317396*
X00224602Y00318592*
X00225249Y00320154*
Y00321844*
X00224602Y00323406*
X00223406Y00324602*
X00221844Y00325249*
G37*
G36*
X00471594Y00307499D02*
X00469904D01*
X00468342Y00306852*
X00467146Y00305656*
X00466499Y00304094*
Y00302404*
X00467146Y00300842*
X00468342Y00299646*
X00469904Y00298999*
X00471594*
X00473156Y00299646*
X00474352Y00300842*
X00474999Y00302404*
Y00304094*
X00474352Y00305656*
X00473156Y00306852*
X00471594Y00307499*
G37*
G36*
X00189594Y00305249D02*
X00187904D01*
X00186342Y00304602*
X00185146Y00303406*
X00184499Y00301844*
Y00300154*
X00185146Y00298592*
X00186342Y00297396*
X00187904Y00296749*
X00189594*
X00191156Y00297396*
X00192352Y00298592*
X00192999Y00300154*
Y00301844*
X00192352Y00303406*
X00191156Y00304602*
X00189594Y00305249*
G37*
G36*
X00634344Y00300249D02*
X00632654D01*
X00631092Y00299602*
X00629896Y00298406*
X00629249Y00296844*
Y00295154*
X00629896Y00293592*
X00631092Y00292396*
X00632654Y00291749*
X00634344*
X00635906Y00292396*
X00637102Y00293592*
X00637749Y00295154*
Y00296844*
X00637102Y00298406*
X00635906Y00299602*
X00634344Y00300249*
G37*
G36*
X00609344D02*
X00607654D01*
X00606092Y00299602*
X00604896Y00298406*
X00604249Y00296844*
Y00295154*
X00604896Y00293592*
X00606092Y00292396*
X00607654Y00291749*
X00609344*
X00610906Y00292396*
X00612102Y00293592*
X00612749Y00295154*
Y00296844*
X00612102Y00298406*
X00610906Y00299602*
X00609344Y00300249*
G37*
G36*
X00284344D02*
X00282654D01*
X00281092Y00299602*
X00279896Y00298406*
X00279249Y00296844*
Y00295154*
X00279896Y00293592*
X00281092Y00292396*
X00282654Y00291749*
X00284344*
X00285906Y00292396*
X00287102Y00293592*
X00287749Y00295154*
Y00296844*
X00287102Y00298406*
X00285906Y00299602*
X00284344Y00300249*
G37*
G36*
X00259344D02*
X00257654D01*
X00256092Y00299602*
X00254896Y00298406*
X00254249Y00296844*
Y00295154*
X00254896Y00293592*
X00256092Y00292396*
X00257654Y00291749*
X00259344*
X00260906Y00292396*
X00262102Y00293592*
X00262749Y00295154*
Y00296844*
X00262102Y00298406*
X00260906Y00299602*
X00259344Y00300249*
G37*
G36*
X00159344D02*
X00157654D01*
X00156092Y00299602*
X00154896Y00298406*
X00154249Y00296844*
Y00295154*
X00154896Y00293592*
X00156092Y00292396*
X00157654Y00291749*
X00159344*
X00160906Y00292396*
X00162102Y00293592*
X00162749Y00295154*
Y00296844*
X00162102Y00298406*
X00160906Y00299602*
X00159344Y00300249*
G37*
G36*
X00134344D02*
X00132654D01*
X00131092Y00299602*
X00129896Y00298406*
X00129249Y00296844*
Y00295154*
X00129896Y00293592*
X00131092Y00292396*
X00132654Y00291749*
X00134344*
X00135906Y00292396*
X00137102Y00293592*
X00137749Y00295154*
Y00296844*
X00137102Y00298406*
X00135906Y00299602*
X00134344Y00300249*
G37*
G36*
X00109344D02*
X00107654D01*
X00106092Y00299602*
X00104896Y00298406*
X00104249Y00296844*
Y00295154*
X00104896Y00293592*
X00106092Y00292396*
X00107654Y00291749*
X00109344*
X00110906Y00292396*
X00112102Y00293592*
X00112749Y00295154*
Y00296844*
X00112102Y00298406*
X00110906Y00299602*
X00109344Y00300249*
G37*
G36*
X00189094Y00283999D02*
X00187404D01*
X00185842Y00283352*
X00184646Y00282156*
X00183999Y00280594*
Y00278904*
X00184646Y00277342*
X00185842Y00276146*
X00187404Y00275499*
X00189094*
X00190656Y00276146*
X00191852Y00277342*
X00192499Y00278904*
Y00280594*
X00191852Y00282156*
X00190656Y00283352*
X00189094Y00283999*
G37*
G36*
X00607344Y00276249D02*
X00605654D01*
X00604092Y00275602*
X00602896Y00274406*
X00602249Y00272844*
Y00271154*
X00602896Y00269592*
X00604092Y00268396*
X00605654Y00267749*
X00607344*
X00608906Y00268396*
X00610102Y00269592*
X00610749Y00271154*
Y00272844*
X00610102Y00274406*
X00608906Y00275602*
X00607344Y00276249*
G37*
G36*
X00596844Y00275249D02*
X00595154D01*
X00593592Y00274602*
X00592396Y00273406*
X00591749Y00271844*
Y00270154*
X00592396Y00268592*
X00593592Y00267396*
X00595154Y00266749*
X00596844*
X00598406Y00267396*
X00599602Y00268592*
X00600249Y00270154*
Y00271844*
X00599602Y00273406*
X00598406Y00274602*
X00596844Y00275249*
G37*
G36*
X00471844D02*
X00470154D01*
X00468592Y00274602*
X00467396Y00273406*
X00466749Y00271844*
Y00270154*
X00467396Y00268592*
X00468592Y00267396*
X00470154Y00266749*
X00471844*
X00473406Y00267396*
X00474602Y00268592*
X00475249Y00270154*
Y00271844*
X00474602Y00273406*
X00473406Y00274602*
X00471844Y00275249*
G37*
G36*
X00396844D02*
X00395154D01*
X00393592Y00274602*
X00392396Y00273406*
X00391749Y00271844*
Y00270154*
X00392396Y00268592*
X00393592Y00267396*
X00395154Y00266749*
X00396844*
X00398406Y00267396*
X00399602Y00268592*
X00400249Y00270154*
Y00271844*
X00399602Y00273406*
X00398406Y00274602*
X00396844Y00275249*
G37*
G36*
X00246844D02*
X00245154D01*
X00243592Y00274602*
X00242396Y00273406*
X00241749Y00271844*
Y00270154*
X00242396Y00268592*
X00243592Y00267396*
X00245154Y00266749*
X00246844*
X00248406Y00267396*
X00249602Y00268592*
X00250249Y00270154*
Y00271844*
X00249602Y00273406*
X00248406Y00274602*
X00246844Y00275249*
G37*
G36*
X00221844D02*
X00220154D01*
X00218592Y00274602*
X00217396Y00273406*
X00216749Y00271844*
Y00270154*
X00217396Y00268592*
X00218592Y00267396*
X00220154Y00266749*
X00221844*
X00223406Y00267396*
X00224602Y00268592*
X00225249Y00270154*
Y00271844*
X00224602Y00273406*
X00223406Y00274602*
X00221844Y00275249*
G37*
G36*
X00607344Y00261749D02*
X00605654D01*
X00604092Y00261102*
X00602896Y00259906*
X00602249Y00258344*
Y00256654*
X00602896Y00255092*
X00604092Y00253896*
X00605654Y00253249*
X00607344*
X00608906Y00253896*
X00610102Y00255092*
X00610749Y00256654*
Y00258344*
X00610102Y00259906*
X00608906Y00261102*
X00607344Y00261749*
G37*
G36*
X00590844Y00257999D02*
X00589154D01*
X00587592Y00257352*
X00586396Y00256156*
X00585749Y00254594*
Y00252904*
X00586396Y00251342*
X00587592Y00250146*
X00589154Y00249499*
X00590844*
X00592406Y00250146*
X00593602Y00251342*
X00594249Y00252904*
Y00254594*
X00593602Y00256156*
X00592406Y00257352*
X00590844Y00257999*
G37*
G36*
X00634344Y00250249D02*
X00632654D01*
X00631092Y00249602*
X00629896Y00248406*
X00629249Y00246844*
Y00245154*
X00629896Y00243592*
X00631092Y00242396*
X00632654Y00241749*
X00634344*
X00635906Y00242396*
X00637102Y00243592*
X00637749Y00245154*
Y00246844*
X00637102Y00248406*
X00635906Y00249602*
X00634344Y00250249*
G37*
G36*
X00384344D02*
X00382654D01*
X00381092Y00249602*
X00379896Y00248406*
X00379249Y00246844*
Y00245154*
X00379896Y00243592*
X00381092Y00242396*
X00382654Y00241749*
X00384344*
X00385906Y00242396*
X00387102Y00243592*
X00387749Y00245154*
Y00246844*
X00387102Y00248406*
X00385906Y00249602*
X00384344Y00250249*
G37*
G36*
X00359344D02*
X00357654D01*
X00356092Y00249602*
X00354896Y00248406*
X00354249Y00246844*
Y00245154*
X00354896Y00243592*
X00356092Y00242396*
X00357654Y00241749*
X00359344*
X00360906Y00242396*
X00362102Y00243592*
X00362749Y00245154*
Y00246844*
X00362102Y00248406*
X00360906Y00249602*
X00359344Y00250249*
G37*
G36*
X00334344D02*
X00332654D01*
X00331092Y00249602*
X00329896Y00248406*
X00329249Y00246844*
Y00245154*
X00329896Y00243592*
X00331092Y00242396*
X00332654Y00241749*
X00334344*
X00335906Y00242396*
X00337102Y00243592*
X00337749Y00245154*
Y00246844*
X00337102Y00248406*
X00335906Y00249602*
X00334344Y00250249*
G37*
G36*
X00309344D02*
X00307654D01*
X00306092Y00249602*
X00304896Y00248406*
X00304249Y00246844*
Y00245154*
X00304896Y00243592*
X00306092Y00242396*
X00307654Y00241749*
X00309344*
X00310906Y00242396*
X00312102Y00243592*
X00312749Y00245154*
Y00246844*
X00312102Y00248406*
X00310906Y00249602*
X00309344Y00250249*
G37*
G36*
X00284344D02*
X00282654D01*
X00281092Y00249602*
X00279896Y00248406*
X00279249Y00246844*
Y00245154*
X00279896Y00243592*
X00281092Y00242396*
X00282654Y00241749*
X00284344*
X00285906Y00242396*
X00287102Y00243592*
X00287749Y00245154*
Y00246844*
X00287102Y00248406*
X00285906Y00249602*
X00284344Y00250249*
G37*
G36*
X00234344D02*
X00232654D01*
X00231092Y00249602*
X00229896Y00248406*
X00229249Y00246844*
Y00245154*
X00229896Y00243592*
X00231092Y00242396*
X00232654Y00241749*
X00234344*
X00235906Y00242396*
X00237102Y00243592*
X00237749Y00245154*
Y00246844*
X00237102Y00248406*
X00235906Y00249602*
X00234344Y00250249*
G37*
G36*
X00243344Y00243999D02*
X00241654D01*
X00240092Y00243352*
X00238896Y00242156*
X00238249Y00240594*
Y00238904*
X00238896Y00237342*
X00240092Y00236146*
X00241654Y00235499*
X00243344*
X00244906Y00236146*
X00246102Y00237342*
X00246749Y00238904*
Y00240594*
X00246102Y00242156*
X00244906Y00243352*
X00243344Y00243999*
G37*
G36*
X00631594Y00226499D02*
X00629904D01*
X00628342Y00225852*
X00627146Y00224656*
X00626499Y00223094*
Y00221404*
X00627146Y00219842*
X00628342Y00218646*
X00629904Y00217999*
X00631594*
X00633156Y00218646*
X00634352Y00219842*
X00635Y00221404*
Y00223094*
X00634352Y00224656*
X00633156Y00225852*
X00631594Y00226499*
G37*
G36*
X00371844Y00225249D02*
X00370154D01*
X00368592Y00224602*
X00367396Y00223406*
X00366749Y00221844*
Y00220154*
X00367396Y00218592*
X00368592Y00217396*
X00370154Y00216749*
X00371844*
X00373406Y00217396*
X00374602Y00218592*
X00375249Y00220154*
Y00221844*
X00374602Y00223406*
X00373406Y00224602*
X00371844Y00225249*
G37*
G36*
X00346844D02*
X00345154D01*
X00343592Y00224602*
X00342396Y00223406*
X00341749Y00221844*
Y00220154*
X00342396Y00218592*
X00343592Y00217396*
X00345154Y00216749*
X00346844*
X00348406Y00217396*
X00349602Y00218592*
X00350249Y00220154*
Y00221844*
X00349602Y00223406*
X00348406Y00224602*
X00346844Y00225249*
G37*
G36*
X00321844D02*
X00320154D01*
X00318592Y00224602*
X00317396Y00223406*
X00316749Y00221844*
Y00220154*
X00317396Y00218592*
X00318592Y00217396*
X00320154Y00216749*
X00321844*
X00323406Y00217396*
X00324602Y00218592*
X00325249Y00220154*
Y00221844*
X00324602Y00223406*
X00323406Y00224602*
X00321844Y00225249*
G37*
G36*
X00296844D02*
X00295154D01*
X00293592Y00224602*
X00292396Y00223406*
X00291749Y00221844*
Y00220154*
X00292396Y00218592*
X00293592Y00217396*
X00295154Y00216749*
X00296844*
X00298406Y00217396*
X00299602Y00218592*
X00300249Y00220154*
Y00221844*
X00299602Y00223406*
X00298406Y00224602*
X00296844Y00225249*
G37*
G36*
X00271844D02*
X00270154D01*
X00268592Y00224602*
X00267396Y00223406*
X00266749Y00221844*
Y00220154*
X00267396Y00218592*
X00268592Y00217396*
X00270154Y00216749*
X00271844*
X00273406Y00217396*
X00274602Y00218592*
X00275249Y00220154*
Y00221844*
X00274602Y00223406*
X00273406Y00224602*
X00271844Y00225249*
G37*
G36*
X00237094Y00224249D02*
X00235404D01*
X00233842Y00223602*
X00232646Y00222406*
X00231999Y00220844*
Y00219154*
X00232646Y00217592*
X00233842Y00216396*
X00235404Y00215749*
X00237094*
X00238656Y00216396*
X00239852Y00217592*
X00240499Y00219154*
Y00220844*
X00239852Y00222406*
X00238656Y00223602*
X00237094Y00224249*
G37*
G36*
X00309344Y00200249D02*
X00307654D01*
X00306092Y00199602*
X00304896Y00198406*
X00304249Y00196844*
Y00195154*
X00304896Y00193592*
X00306092Y00192396*
X00307654Y00191749*
X00309344*
X00310906Y00192396*
X00312102Y00193592*
X00312749Y00195154*
Y00196844*
X00312102Y00198406*
X00310906Y00199602*
X00309344Y00200249*
G37*
G36*
X00259344D02*
X00257654D01*
X00256092Y00199602*
X00254896Y00198406*
X00254249Y00196844*
Y00195154*
X00254896Y00193592*
X00256092Y00192396*
X00257654Y00191749*
X00259344*
X00260906Y00192396*
X00262102Y00193592*
X00262749Y00195154*
Y00196844*
X00262102Y00198406*
X00260906Y00199602*
X00259344Y00200249*
G37*
G36*
X00234344D02*
X00232654D01*
X00231092Y00199602*
X00229896Y00198406*
X00229249Y00196844*
Y00195154*
X00229896Y00193592*
X00231092Y00192396*
X00232654Y00191749*
X00234344*
X00235906Y00192396*
X00237102Y00193592*
X00237749Y00195154*
Y00196844*
X00237102Y00198406*
X00235906Y00199602*
X00234344Y00200249*
G37*
G36*
X00191594Y00185499D02*
X00189904D01*
X00188342Y00184852*
X00187146Y00183656*
X00186499Y00182094*
Y00180404*
X00187146Y00178842*
X00188342Y00177646*
X00189904Y00176999*
X00191594*
X00193156Y00177646*
X00194352Y00178842*
X00194999Y00180404*
Y00182094*
X00194352Y00183656*
X00193156Y00184852*
X00191594Y00185499*
G37*
G36*
X00146844Y00175249D02*
X00145154D01*
X00143592Y00174602*
X00142396Y00173406*
X00141749Y00171844*
Y00170154*
X00142396Y00168592*
X00143592Y00167396*
X00145154Y00166749*
X00146844*
X00148406Y00167396*
X00149602Y00168592*
X00150249Y00170154*
Y00171844*
X00149602Y00173406*
X00148406Y00174602*
X00146844Y00175249*
G37*
G36*
X00121844D02*
X00120154D01*
X00118592Y00174602*
X00117396Y00173406*
X00116749Y00171844*
Y00170154*
X00117396Y00168592*
X00118592Y00167396*
X00120154Y00166749*
X00121844*
X00123406Y00167396*
X00124602Y00168592*
X00125249Y00170154*
Y00171844*
X00124602Y00173406*
X00123406Y00174602*
X00121844Y00175249*
G37*
G36*
X00219594Y00162749D02*
X00217904D01*
X00216342Y00162102*
X00215146Y00160906*
X00214499Y00159344*
Y00157654*
X00215146Y00156092*
X00216342Y00154896*
X00217904Y00154249*
X00219594*
X00221156Y00154896*
X00222352Y00156092*
X00222999Y00157654*
Y00159344*
X00222352Y00160906*
X00221156Y00162102*
X00219594Y00162749*
G37*
G36*
X00288094Y00160499D02*
X00286404D01*
X00284842Y00159852*
X00283646Y00158656*
X00282999Y00157094*
Y00155404*
X00283646Y00153842*
X00284842Y00152646*
X00286404Y00151999*
X00288094*
X00289656Y00152646*
X00290852Y00153842*
X00291499Y00155404*
Y00157094*
X00290852Y00158656*
X00289656Y00159852*
X00288094Y00160499*
G37*
G36*
X00385094Y00155999D02*
X00383404D01*
X00381842Y00155352*
X00380646Y00154156*
X00379999Y00152594*
Y00150904*
X00380646Y00149342*
X00381842Y00148146*
X00383404Y00147499*
X00385094*
X00386656Y00148146*
X00387852Y00149342*
X00388499Y00150904*
Y00152594*
X00387852Y00154156*
X00386656Y00155352*
X00385094Y00155999*
G37*
G36*
X00315595Y00159499D02*
X00313904D01*
X00312342Y00158852*
X00311146Y00157656*
X00310499Y00156094*
Y00154404*
X00311146Y00152842*
X00312288Y001517*
X00312096Y0015162*
X003109Y00150425*
X00310253Y00148863*
Y00147172*
X003109Y0014561*
X00312096Y00144414*
X00313658Y00143767*
X00315348*
X0031691Y00144414*
X00318106Y0014561*
X00318753Y00147172*
Y00148863*
X00318106Y00150425*
X00316964Y00151566*
X00317156Y00151646*
X00318352Y00152842*
X00318999Y00154404*
Y00156094*
X00318352Y00157656*
X00317156Y00158852*
X00315595Y00159499*
G37*
G36*
X00435844Y00156652D02*
X00434154D01*
X00432592Y00156005*
X00431396Y00154809*
X00430749Y00153247*
Y00151556*
X00431094Y00150724*
X00429592Y00150102*
X00428396Y00148906*
X00427749Y00147344*
Y00145654*
X00428396Y00144092*
X00429592Y00142896*
X00431154Y00142249*
X00432844*
X00434406Y00142896*
X00435602Y00144092*
X00436249Y00145654*
Y00147344*
X00435904Y00148177*
X00437406Y00148799*
X00438602Y00149994*
X00439249Y00151556*
Y00153247*
X00438602Y00154809*
X00437406Y00156005*
X00435844Y00156652*
G37*
G36*
X00334344Y00150249D02*
X00332654D01*
X00331092Y00149602*
X00329896Y00148406*
X00329249Y00146844*
Y00145154*
X00329896Y00143592*
X00331092Y00142396*
X00332654Y00141749*
X00334344*
X00335906Y00142396*
X00337102Y00143592*
X00337749Y00145154*
Y00146844*
X00337102Y00148406*
X00335906Y00149602*
X00334344Y00150249*
G37*
G36*
X00369844Y00156749D02*
X00368154D01*
X00366592Y00156102*
X00365396Y00154906*
X00364749Y00153344*
Y00151654*
X00365396Y00150092*
X00366592Y00148896*
X00366645Y00148874*
X00366592Y00148852*
X00365396Y00147656*
X00364749Y00146094*
Y00144404*
X00365396Y00142842*
X00366592Y00141646*
X00368154Y00140999*
X00369844*
X00371406Y00141646*
X00372602Y00142842*
X00373249Y00144404*
Y00146094*
X00372602Y00147656*
X00371406Y00148852*
X00371353Y00148874*
X00371406Y00148896*
X00372602Y00150092*
X00373249Y00151654*
Y00153344*
X00372602Y00154906*
X00371406Y00156102*
X00369844Y00156749*
G37*
G36*
X00287844Y00148249D02*
X00286154D01*
X00284592Y00147602*
X00283396Y00146406*
X00282749Y00144844*
Y00143154*
X00283396Y00141592*
X00284592Y00140396*
X00286154Y00139749*
X00287844*
X00289406Y00140396*
X00290602Y00141592*
X00291249Y00143154*
Y00144844*
X00290602Y00146406*
X00289406Y00147602*
X00287844Y00148249*
G37*
G36*
X00227094Y00141749D02*
X00225404D01*
X00223842Y00141102*
X00222646Y00139906*
X00221999Y00138344*
Y00136654*
X00222646Y00135092*
X00223842Y00133896*
X00225404Y00133249*
X00227094*
X00228656Y00133896*
X00229852Y00135092*
X00230499Y00136654*
Y00138344*
X00229852Y00139906*
X00228656Y00141102*
X00227094Y00141749*
G37*
G36*
X00271344Y00134749D02*
X00269654D01*
X00268092Y00134102*
X00266896Y00132906*
X00266249Y00131344*
Y00129654*
X00266896Y00128092*
X00268092Y00126896*
X00269654Y00126249*
X00271344*
X00272906Y00126896*
X00274102Y00128092*
X00274749Y00129654*
Y00131344*
X00274102Y00132906*
X00272906Y00134102*
X00271344Y00134749*
G37*
G36*
X00321844Y00125249D02*
X00320154D01*
X00318592Y00124602*
X00317396Y00123406*
X00316749Y00121844*
Y00120154*
X00317396Y00118592*
X00318592Y00117396*
X00320154Y00116749*
X00321844*
X00323406Y00117396*
X00324602Y00118592*
X00325249Y00120154*
Y00121844*
X00324602Y00123406*
X00323406Y00124602*
X00321844Y00125249*
G37*
G36*
X00296844D02*
X00295154D01*
X00293592Y00124602*
X00292396Y00123406*
X00291749Y00121844*
Y00120154*
X00292396Y00118592*
X00293592Y00117396*
X00295154Y00116749*
X00296844*
X00298406Y00117396*
X00299602Y00118592*
X00300249Y00120154*
Y00121844*
X00299602Y00123406*
X00298406Y00124602*
X00296844Y00125249*
G37*
G36*
X00271844D02*
X00270154D01*
X00268592Y00124602*
X00267396Y00123406*
X00266749Y00121844*
Y00120154*
X00267396Y00118592*
X00268592Y00117396*
X00270154Y00116749*
X00271844*
X00273406Y00117396*
X00274602Y00118592*
X00275249Y00120154*
Y00121844*
X00274602Y00123406*
X00273406Y00124602*
X00271844Y00125249*
G37*
G36*
X00214844Y00118499D02*
X00213154D01*
X00211592Y00117852*
X00210396Y00116656*
X00209749Y00115094*
Y00113404*
X00210396Y00111842*
X00211592Y00110646*
X00213154Y00109999*
X00214844*
X00216406Y00110646*
X00217249Y00111489*
X00218342Y00110396*
X00219904Y00109749*
X00221594*
X00223156Y00110396*
X00224352Y00111592*
X00224999Y00113154*
Y00114844*
X00224352Y00116406*
X00223156Y00117602*
X00221594Y00118249*
X00219904*
X00218342Y00117602*
X00217499Y00116759*
X00216406Y00117852*
X00214844Y00118499*
G37*
G36*
X00122844Y00117249D02*
X00121154D01*
X00119592Y00116602*
X00118396Y00115406*
X00117749Y00113844*
Y00112154*
X00118396Y00110592*
X00119592Y00109396*
X00121154Y00108749*
X00122844*
X00124406Y00109396*
X00125603Y00110592*
X00126249Y00112154*
Y00113844*
X00125603Y00115406*
X00124406Y00116602*
X00122844Y00117249*
G37*
G36*
X00271344Y00116499D02*
X00269654D01*
X00268092Y00115852*
X00266896Y00114656*
X00266249Y00113094*
Y00111404*
X00266896Y00109842*
X00268092Y00108646*
X00269654Y00107999*
X00271344*
X00272906Y00108646*
X00274102Y00109842*
X00274749Y00111404*
Y00113094*
X00274102Y00114656*
X00272906Y00115852*
X00271344Y00116499*
G37*
G36*
X00431844Y00116249D02*
X00430154D01*
X00428592Y00115602*
X00427396Y00114406*
X00426749Y00112844*
Y00111154*
X00427396Y00109592*
X00428592Y00108396*
X00430154Y00107749*
X00431844*
X00433406Y00108396*
X00434602Y00109592*
X00435249Y00111154*
Y00112844*
X00434602Y00114406*
X00433406Y00115602*
X00431844Y00116249*
G37*
G36*
X00459344Y00100249D02*
X00457654D01*
X00456092Y00099602*
X00454896Y00098406*
X00454249Y00096844*
Y00095154*
X00454896Y00093592*
X00456092Y00092396*
X00457654Y00091749*
X00459344*
X00460906Y00092396*
X00462102Y00093592*
X00462749Y00095154*
Y00096844*
X00462102Y00098406*
X00460906Y00099602*
X00459344Y00100249*
G37*
G36*
X00359344D02*
X00357654D01*
X00356092Y00099602*
X00354896Y00098406*
X00354249Y00096844*
Y00095154*
X00354896Y00093592*
X00356092Y00092396*
X00357654Y00091749*
X00359344*
X00360906Y00092396*
X00362102Y00093592*
X00362749Y00095154*
Y00096844*
X00362102Y00098406*
X00360906Y00099602*
X00359344Y00100249*
G37*
G36*
X00334344D02*
X00332654D01*
X00331092Y00099602*
X00329896Y00098406*
X00329249Y00096844*
Y00095154*
X00329896Y00093592*
X00331092Y00092396*
X00332654Y00091749*
X00334344*
X00335906Y00092396*
X00337102Y00093592*
X00337749Y00095154*
Y00096844*
X00337102Y00098406*
X00335906Y00099602*
X00334344Y00100249*
G37*
G36*
X00259344D02*
X00257654D01*
X00256092Y00099602*
X00254896Y00098406*
X00254249Y00096844*
Y00095154*
X00254896Y00093592*
X00256092Y00092396*
X00257654Y00091749*
X00259344*
X00260906Y00092396*
X00262102Y00093592*
X00262749Y00095154*
Y00096844*
X00262102Y00098406*
X00260906Y00099602*
X00259344Y00100249*
G37*
G36*
X00234344D02*
X00232654D01*
X00231092Y00099602*
X00229896Y00098406*
X00229249Y00096844*
Y00095154*
X00229896Y00093592*
X00231092Y00092396*
X00232654Y00091749*
X00234344*
X00235906Y00092396*
X00237102Y00093592*
X00237749Y00095154*
Y00096844*
X00237102Y00098406*
X00235906Y00099602*
X00234344Y00100249*
G37*
G36*
X00441344Y00094999D02*
X00439654D01*
X00438092Y00094352*
X00436896Y00093156*
X00436249Y00091594*
Y00089904*
X00436896Y00088342*
X00438092Y00087146*
X00439654Y00086499*
X00441344*
X00442906Y00087146*
X00444102Y00088342*
X00444749Y00089904*
Y00091594*
X00444102Y00093156*
X00442906Y00094352*
X00441344Y00094999*
G37*
G36*
X00213094Y00088999D02*
X00211404D01*
X00209842Y00088352*
X00208646Y00087156*
X00207999Y00085594*
Y00083904*
X00208646Y00082342*
X00209842Y00081146*
X00211404Y00080499*
X00213094*
X00214656Y00081146*
X00215852Y00082342*
X00216499Y00083904*
Y00085594*
X00215852Y00087156*
X00214656Y00088352*
X00213094Y00088999*
G37*
%LNdr_0n-3*%
%LPD*%
G54D10*
X00094999Y00124999D02*
X00104249D01*
X00301679Y000433D02*
Y00107179D01*
Y000433D02*
X003079Y00037079D01*
X00377879D02*
X00388499Y00047699D01*
X003079Y00037079D02*
X00377879D01*
X00177249Y00133249D02*
Y00155999D01*
X00162749Y00118749D02*
X00177249Y00133249D01*
X00252499Y00398999D02*
X00258102Y00393396D01*
X00337592*
X00328624Y00326374D02*
X00458874D01*
X00328499Y00326499D02*
X00328624Y00326374D01*
X00458874D02*
X00458999Y00326249D01*
X00163499Y00240499D02*
X00169064Y00246064D01*
X00163499Y00133156D02*
Y00240499D01*
X00109099Y00078756D02*
X00163499Y00133156D01*
X00109099Y00047699D02*
Y00078756D01*
X00146999Y00034799D02*
Y00086249D01*
X00134499Y00022299D02*
X00146999Y00034799D01*
X00119753Y00083753D02*
X00144499Y00108499D01*
X00119753Y00058353D02*
Y00083753D01*
X00144499Y00108499D02*
X00173749D01*
X00123753Y00080753D02*
X00140749Y00097749D01*
X00123753Y00036953D02*
Y00080753D01*
X00140749Y00097749D02*
X00173499D01*
X00134827Y00085827D02*
X00141499Y00092499D01*
X00134827Y00048027D02*
Y00085827D01*
X00141499Y00092499D02*
X00175674D01*
X00134499Y00047699D02*
X00134827Y00048027D01*
X00182999Y00099824D02*
Y00137999D01*
X00175674Y00092499D02*
X00182999Y00099824D01*
X00169064Y00246064D02*
Y00254524D01*
X00119719Y00038576D02*
Y00058319D01*
X00119753Y00058353*
X00114062Y00032919D02*
X00119719Y00038576D01*
X00094319Y00032919D02*
X00114062D01*
X00083699Y00022299D02*
X00094319Y00032919D01*
X00109099Y00022299D02*
X00123753Y00036953D01*
X00443249Y00486749D02*
X00443749Y00487249D01*
Y00523249*
X00552018Y0048623D02*
Y00517533D01*
Y0048623D02*
X00552249Y00485999D01*
X00400749Y00034549D02*
Y00105072D01*
X00388499Y00022299D02*
X00400749Y00034549D01*
X00397749Y00108073D02*
X00400749Y00105072D01*
X00397749Y00108073D02*
Y00108749D01*
X00458874Y00313874D02*
X00458999Y00313749D01*
X00358124Y00313874D02*
X00458874D01*
X00357999Y00313999D02*
X00358124Y00313874D01*
G54D11*
X00448999Y00168749D02*
Y00176999D01*
G54D36*
X00414249Y00405999D02*
X00424499Y00395749D01*
X00433249*
X00414249Y00405999D02*
Y00416998D01*
X00433249Y00395749D02*
X00498749D01*
X00498999Y00395499*
G54D37*
X00631999Y00466399D03*
Y00440999D03*
Y00415599D03*
X00481999Y00541999D03*
X00456599D03*
X00431199D03*
X00629999Y00145399D03*
Y00119999D03*
Y00094599D03*
X00164799Y00543399D03*
Y00517999D03*
Y00492599D03*
X00139399Y00543399D03*
X00113999D03*
X00139399Y00517999D03*
Y00492599D03*
X00113999Y00517999D03*
Y00492599D03*
G54D38*
X00014599Y00089599D03*
Y00114999D03*
Y00140399D03*
Y00165799D03*
Y00191199D03*
Y00216599D03*
Y00241999D03*
Y00267399D03*
Y00292799D03*
Y00318199D03*
Y00343599D03*
Y00368999D03*
Y00394399D03*
Y00419799D03*
Y00445199D03*
X00039999Y00089599D03*
Y00114999D03*
Y00140399D03*
Y00165799D03*
Y00191199D03*
Y00216599D03*
Y00241999D03*
Y00267399D03*
Y00292799D03*
Y00318199D03*
Y00343599D03*
Y00368999D03*
Y00394399D03*
Y00419799D03*
Y00445199D03*
X00014599Y00470599D03*
X00039999D03*
X00065399Y00089599D03*
Y00114999D03*
Y00140399D03*
Y00165799D03*
Y00191199D03*
Y00216599D03*
Y00241999D03*
Y00267399D03*
Y00292799D03*
Y00318199D03*
Y00343599D03*
Y00368999D03*
Y00394399D03*
Y00419799D03*
Y00445199D03*
Y00470599D03*
G54D39*
X00034999Y00524999D03*
X00614999D03*
G54D41*
X00566299Y00047699D03*
X00540899D03*
X00515499D03*
X00490099D03*
X00464699D03*
X00439299D03*
X00540899Y00022299D03*
X00515499D03*
X00490099D03*
X00464699D03*
X00439299D03*
X00413899Y00047699D03*
Y00022299D03*
X00388499Y00047699D03*
X00363099D03*
X00337699D03*
X00312299D03*
X00286899D03*
X00261499D03*
X00388499Y00022299D03*
X00363099D03*
X00337699D03*
X00312299D03*
X00286899D03*
X00261499D03*
X00236099Y00047699D03*
Y00022299D03*
X00185299Y00047699D03*
X00159899D03*
X00134499D03*
X00109099D03*
X00083699D03*
X00210699Y00022299D03*
X00185299D03*
X00159899D03*
X00134499D03*
X00109099D03*
X00083699D03*
X00566299D03*
X00210699Y00047699D03*
G54D42*
X00502499Y00035749D03*
X00502749Y00009499D03*
X00349749Y00012999D03*
X00400499Y00012749D03*
X00197999Y00011999D03*
X00270999Y00120999D03*
X00220999Y00370999D03*
X00270999Y00070999D03*
X00420999Y00520999D03*
X00345999Y00220999D03*
X00195999Y00420999D03*
X00320999Y00220999D03*
X00333499Y00245999D03*
X00295999Y00220999D03*
X00483499Y00345999D03*
X00245999Y00370999D03*
X00258499Y00095999D03*
X00270999Y00320999D03*
X00220999Y00470999D03*
X00445999Y00070999D03*
X00383499Y00345999D03*
X00220999Y00270999D03*
X00208499Y00495999D03*
X00233499Y00245999D03*
X00420999Y00470999D03*
X00620999Y00370999D03*
X00233499Y00095999D03*
X00220999Y00420999D03*
X00283499Y00245999D03*
X00470999Y00370999D03*
X00158499Y00295999D03*
X00258499D03*
X00120999Y00020999D03*
X00408499Y00545999D03*
X00333499Y00145999D03*
X00170999Y00420999D03*
X00620999Y00320999D03*
X00608499Y00395999D03*
X00320999Y00120999D03*
X00095999Y00020999D03*
X00495999Y00520999D03*
X00445999Y00370999D03*
X00508499Y00095999D03*
X00108499Y00295999D03*
X00283499D03*
X00133499D03*
X00370999Y00370999D03*
X00470999Y00270999D03*
X00445999Y00420999D03*
X00345999Y00370999D03*
X00320999Y00320999D03*
X00333499Y00095999D03*
X00233499Y00195999D03*
X00145999Y00170999D03*
X00270999Y00220999D03*
X00320999Y00070999D03*
X00308499Y00245999D03*
X00595999Y00370999D03*
X00608499Y00345999D03*
X00295999Y00520999D03*
X00320999Y00470999D03*
Y00370999D03*
X00558499Y00495999D03*
X00245999Y00320999D03*
X00395999Y00270999D03*
X00258499Y00195999D03*
X00220999Y00320999D03*
X00308499Y00545999D03*
X00633499Y00195999D03*
X00408499Y00395999D03*
X00633499D03*
X00358499Y00345999D03*
X00633499Y00295999D03*
X00583499Y00395999D03*
X00383499Y00245999D03*
X00520999Y00070999D03*
X00145999Y00420999D03*
X00495999Y00070999D03*
X00458499Y00345999D03*
X00545999Y00420999D03*
X00345999Y00470999D03*
X00208499Y00445999D03*
X00170999Y00070999D03*
X00558499Y00295999D03*
X00370999Y00220999D03*
X00545999D03*
X00608499Y00295999D03*
X00308499Y00495999D03*
X00320999Y00520999D03*
X00283499Y00345999D03*
X00458499Y00095999D03*
X00620999Y00170999D03*
X00533499Y00495999D03*
X00520999Y00220999D03*
X00495999D03*
X00395999Y00320999D03*
Y00470999D03*
X00233499Y00345999D03*
X00258499D03*
X00595999Y00270999D03*
X00408499Y00345999D03*
X00383499Y00395999D03*
X00570999Y00320999D03*
X00183499Y00445999D03*
X00633499Y00245999D03*
X00295999Y00120999D03*
X00433499Y00345999D03*
X00558499Y00395999D03*
X00245999Y00270999D03*
X00333499Y00495999D03*
X00308499Y00195999D03*
X00358499Y00095999D03*
X00470999Y00520999D03*
X00358499Y00245999D03*
X00570999Y00220999D03*
X00483499Y00445999D03*
X00120999Y00170999D03*
X00633499Y00345999D03*
X00595999Y00320999D03*
X00606499Y00257499D03*
Y00271999D03*
X00630749Y0022225D03*
X00563499Y00383249D03*
X00549249Y00383499D03*
X00470749Y00303249D03*
X00423749Y00418499D03*
X00308499Y00472999D03*
X00218749Y00158499D03*
X00270499Y00112249D03*
Y00130499D03*
X00583749Y00162249D03*
X00569999Y00160999D03*
X00642499Y00077249D03*
X00615749Y00079249D03*
X00372999Y00495499D03*
X00327999Y00528249D03*
X00306749Y00502499D03*
X00401706Y0037965D03*
X00440499Y00090749D03*
X00226249Y00137499D03*
X00212249Y00084749D03*
X00258249Y00552499D03*
X00369499Y00176499D03*
X00301749Y00107249D03*
X00213999Y00114249D03*
X00220749Y00113999D03*
X00162749Y00118749D03*
X00236249Y00219999D03*
X00121999Y00112999D03*
X00324986Y00398646D03*
X00252499Y00398999D03*
X00337592Y00393396D03*
X00350749Y00385749D03*
X00328499Y00326499D03*
X00146999Y00086249D03*
X00182999Y00137999D03*
X00353999Y00494999D03*
Y00477338D03*
X00600999Y00403999D03*
X00475999D03*
X00586999Y00211999D03*
X00477999D03*
X00360999Y00194999D03*
X00373999Y00122999D03*
X00245999Y00071999D03*
X00149749Y00134999D03*
X00094999Y00124999D03*
X00268999Y00150999D03*
X00256874Y00202624D03*
X00242374Y00201124D03*
X00229124D03*
X00214999Y00200999D03*
X00234999Y00312999D03*
X00217999Y00311999D03*
X00258999Y00286999D03*
X00280999D03*
X00337999Y00261999D03*
X00373999D03*
X00374999Y00396999D03*
X00272999Y00428499D03*
X00309999Y00415999D03*
X00336999Y00458999D03*
X00502999Y00545999D03*
X00601999Y00463999D03*
X00612999Y00271999D03*
X00629999Y00237999D03*
X00536408Y00296059D03*
X00582999Y00301999D03*
X00435999Y00122999D03*
X00430999Y00111999D03*
X005715Y00424499D03*
X00566499D03*
X00552018Y00517533D03*
X00443749Y00523249D03*
X00402499Y00368249D03*
X00402749Y00387749D03*
X00397249Y00377999D03*
X00397749Y00108749D03*
X00357999Y00313999D03*
X00458999Y00313749D03*
Y00326249D03*
X00362499Y00168749D03*
X00497749Y00282749D03*
X00458343Y00338749D03*
X00531249Y00265749D03*
X00481999Y00514999D03*
X00142499Y00464749D03*
X00357343Y00338999D03*
X00242499Y00239749D03*
X00188249Y00279749D03*
X00188749Y00300999D03*
X00455249Y00250749D03*
X00169064Y00254524D03*
X00116818Y00254229D03*
X00162565Y00254419D03*
X00149561Y00254469D03*
X00156061Y00254417D03*
X00143065Y00254686D03*
X00136565Y00254668D03*
X00130003Y00254469D03*
X00123315Y00254419D03*
X00190749Y00181249D03*
X00168999Y00337999D03*
X00162499D03*
X00155811Y00337949D03*
X00149249Y0033775D03*
X00142749Y00337732D03*
X00129753Y00338001D03*
X00136253Y00337949D03*
X00123249Y00337999D03*
X00277999Y00454249D03*
X00563249D03*
X00254Y00448999D03*
X00364749Y00429999D03*
X00168749Y00165249D03*
X00173499Y00097749D03*
X00173749Y00108499D03*
X00589999Y00253749D03*
X00177249Y00155999D03*
X00257999Y00168749D03*
X00390749Y00223196D03*
X00322749Y00404749D03*
Y00453499D03*
X00252499Y00411499D03*
X00282999Y00430999D03*
X00288999Y00414249D03*
X00253499Y00423749D03*
X00254Y00436499D03*
X00292249Y00136499D03*
X00286999Y00143999D03*
X00314503Y00148017D03*
X00314749Y00155249D03*
X00324749Y00153499D03*
X00287249Y00156249D03*
X00461499Y00175749D03*
X00448999Y00176999D03*
X00384249Y00151749D03*
X00434999Y00152402D03*
X00431999Y00146499D03*
X00368999Y00145249D03*
Y00152499D03*
X00390749Y00237538D03*
X00333499Y00545249D03*
X00358499D03*
X00383499D03*
X00248249Y00496249D03*
X00541617Y0034297D03*
X00248249Y00486749D03*
X00277499Y00547749D03*
X00403249Y00507749D03*
X00396999Y00368249D03*
X00397499Y00387749D03*
X00414249Y00416998D03*
X00433249Y00395749D03*
X00524999Y00527999D03*
X00538999Y00517749D03*
X00563999Y00517999D03*
X00458499Y00448999D03*
X00559226Y00340476D03*
X00530749Y00449249D03*
X00535249Y00382249D03*
X00545249Y00264499D03*
X00559249Y00264749D03*
X00501999Y00114249D03*
X00496749Y00158499D03*
X00491749Y00161249D03*
X00496999Y00164249D03*
X00491749Y00155999D03*
X00502249Y00155499D03*
Y00160749D03*
X00501999Y00119249D03*
X00496999Y00114249D03*
Y00119249D03*
X00491749D03*
Y00114249D03*
X00494499Y00126499D03*
X00512749Y00105749D03*
X00500999Y00173499D03*
X0052629Y00141999D03*
X00525185Y00128842D03*
X00527984Y00150003D03*
X00530999Y00131749D03*
X0052289Y00168031D03*
X00527749Y00167999D03*
X0052289Y00156531D03*
X00527749Y00156499D03*
X0052289Y00162031D03*
X00527749Y00161999D03*
X00532499Y00097999D03*
G54D43*
X00039999Y00445199D02*
Y00470599D01*
Y00419799D02*
Y00445199D01*
Y00394399D02*
Y00419799D01*
Y00368999D02*
Y00394399D01*
Y00343599D02*
Y00368999D01*
Y00318199D02*
Y00343599D01*
Y00292799D02*
Y00318199D01*
Y00267399D02*
Y00292799D01*
Y00241999D02*
Y00267399D01*
Y00216599D02*
Y00241999D01*
Y00191199D02*
Y00216599D01*
Y00165799D02*
Y00191199D01*
Y00140399D02*
Y00165799D01*
Y00114999D02*
Y00140399D01*
Y00089599D02*
Y00114999D01*
X00139399Y00517999D02*
X00164799D01*
X00113999D02*
X00139399D01*
X000874D02*
X00113999D01*
X00039999Y00470599D02*
X000874Y00517999D01*
G54D44*
X00443249Y00486749D02*
X00530749D01*
X00263999D02*
X00443249D01*
X00530749D02*
X00563249Y00454249D01*
X00448999Y00168749D02*
X00492499D01*
X00362499D02*
X00448999D01*
X00357343Y00338999D02*
X00507749D01*
X00257999Y00168749D02*
X00362499D01*
X00492499D02*
X00496999Y00164249D01*
X00263999Y00458999D02*
Y00486749D01*
X00248249D02*
X00263999D01*
X00254Y00448999D02*
X00263999Y00458999D01*
X00507749Y00338999D02*
X00508249Y00339499D01*
M02*